<svg version="1.1" id="Layer_1" xmlns="http://www.w3.org/2000/svg" x="0" y="0" viewBox="0 0 800 500" xml:space="preserve"><style>.st0{fill:#fff}</style><g id="_x38_PTzXg.tif"><path class="st0" d="M668.01 253.32c1.03-.05 2.07-.14 3.1-.14 30.54-.01 61.08.02 91.62-.06 2.32-.01 3.74.64 5.13 2.52 12.5 16.97 19.71 35.9 18.64 57.02-1.51 29.88-13.4 54.96-37.77 73.2-10.28 7.69-22.48 10.87-34.87 13.29-6.41 1.25-12.88 1.96-19.4 2.31-.68.04-1.54-.34-2.04.53h-4.54c-.83-.93-1.94-.55-2.93-.55-5.75-.04-11.5-.02-17.25-.02-.07-.74-.2-1.49-.2-2.23-.01-47.9-.01-95.8 0-143.7 0-.56.07-1.13.1-1.69.13-.16.27-.32.41-.48zM14 401.99c1.6-6.41 4.2-12.48 6.42-18.68 15.23-42.52 30.56-85.01 45.79-127.54.72-2.01 1.64-2.66 3.79-2.65 29.88.08 59.77.08 89.66 0 2.4-.01 2.92.67 2.91 2.99-.09 26.95-.09 53.91 0 80.86.01 2.48-.56 3.15-3.1 3.13-14.94-.13-29.88-.04-44.83-.1-1.67-.01-2.45.49-3.03 2.07-7.34 19.81-14.75 39.59-22.14 59.38-.06.16.02.36.04.54H14zM425.46 401.42c.05.19.09.38.14.57h-88c.06-.19.13-.38.19-.57h87.67zM661.7 401.44c.21.18.42.37.64.55h-88c.06-.19.12-.38.19-.57 29.06.01 58.12.01 87.17.02zM239.95 401.99c.06-.19.13-.38.19-.57h76.84l.18.57h-77.21z"/><path class="st0" d="M667.7 401.42c5.75 0 11.5-.02 17.25.02.99.01 2.1-.38 2.93.55h-20.44c.09-.19.18-.38.26-.57zM430.93 327.25c0-23.74.04-47.48-.06-71.22-.01-2.42.67-2.91 2.98-2.91 31.02.08 62.05.07 93.07.01 1.78 0 2.96.51 4.12 1.84 10.41 11.99 16.34 26 18.39 41.61 4.37 33.27-6.35 61.06-31.24 83.32-12.34 11.03-27.46 16.3-43.48 19.2-13.44 2.43-27.05 2.75-40.67 2.87-2.52.02-3.17-.75-3.16-3.22.09-23.83.05-47.67.05-71.5zM316.99 401.42h-76.84c-3.14-7.78-5.43-15.85-8.11-23.79a2639.71 2639.71 0 01-11.52-34.92c-.65-2-1.51-2.75-3.72-2.73-15.23.11-30.45.01-45.68.11-2.3.02-3.03-.49-3.02-2.91.09-27.14.08-54.28 0-81.43-.01-2.16.58-2.63 2.67-2.63 29.88.07 59.77.06 89.65.02 1.59 0 2.48.3 3.11 2 17.71 48.24 35.49 96.46 53.26 144.68.19.53.56 1.02.2 1.6zM425.8 172.69c0 23.83-.04 47.66.06 71.5.01 2.37-.58 2.94-2.94 2.93-27.52-.09-55.04-.08-82.56-.01-2.11.01-2.84-.38-2.83-2.71.08-47.76.07-95.52.01-143.28 0-2.15.44-2.84 2.74-2.84 27.52.09 55.04.1 82.56-.02 2.7-.01 3.01.91 3 3.21-.07 23.74-.04 47.48-.04 71.22zM574.3 172.81c0-23.84.03-47.68-.05-71.52-.01-2.26.4-3.02 2.87-3.01 27.43.1 54.87.09 82.3.01 2.25-.01 2.82.59 2.82 2.83-.06 47.77-.06 95.54 0 143.32 0 2.1-.48 2.69-2.64 2.68-27.62-.08-55.25-.08-82.87 0-2.01.01-2.48-.53-2.47-2.5.06-23.95.04-47.88.04-71.81zM425.46 401.42h-87.67c-.07-.93-.21-1.87-.21-2.8-.01-47.47.01-94.94-.07-142.4 0-2.45.51-3.1 3.04-3.09 27.42.11 54.84.11 82.27 0 2.6-.01 3.02.75 3.02 3.14-.07 47.37-.05 94.75-.07 142.12.01 1 .32 2.07-.31 3.03zM661.7 401.44c-29.06-.01-58.12-.01-87.17-.02-.08-.93-.22-1.86-.22-2.8-.01-47.47.01-94.94-.07-142.42 0-2.47.55-3.09 3.06-3.08 27.33.1 54.66.09 81.99.01 2.33-.01 2.96.56 2.96 2.94-.08 47.57-.05 95.13-.08 142.7-.01.89.42 1.91-.47 2.67zM495.68 228.89c10.13 4.53 19.33 9.91 27.01 18.15h-2.32c-28.85 0-57.71-.03-86.56.05-2.34.01-2.96-.56-2.96-2.94.08-47.58.08-95.17 0-142.75 0-2.42.54-3.1 3.06-3.27 13.75-.9 27.42-.68 40.91 2.4 26.57 6.07 43.98 22.42 50.91 48.52 8.06 30.34-1.08 58.93-28.35 78.6-.38.27-.76.55-1.7 1.24zM732.58 228.61c10.1 4.48 19.35 9.82 26.73 17.99-.73.81-1.63.41-2.4.41-28.84.03-57.69-.01-86.53.08-2.33.01-2.96-.51-2.95-2.91.08-47.66.08-95.32.01-142.99 0-2.33.61-2.91 2.93-3.04 15.27-.9 30.4-.43 45.31 3.47 29.3 7.66 44.72 31.19 48.3 54.26 4.53 29.24-6.43 52.26-28.74 70.62-.81.66-1.63 1.29-2.66 2.11zM162.51 172.71c0 23.74-.03 47.47.05 71.21.01 2.32-.3 3.21-3 3.19-29.69-.12-59.39-.1-89.08-.03-2.38.01-2.79-.41-2-2.75 16.28-47.85 32.48-95.72 48.64-143.61.61-1.79 1.31-2.47 3.31-2.45 13.05.11 26.1.12 39.15 0 2.33-.02 2.99.56 2.98 2.94-.09 23.84-.05 47.67-.05 71.5zM262.1 247.04H253c-27.33 0-54.67-.03-82 .06-2.41.01-2.91-.64-2.91-2.96.07-47.58.07-95.15 0-142.73 0-2.42.48-3.19 3.07-3.16 12.96.15 25.92.1 38.87.03 1.72-.01 2.64.32 3.25 2.14 16.04 48.23 32.15 96.44 48.24 144.65.19.54.33 1.08.58 1.97zM668.01 253.32c-.14.16-.28.32-.42.47-.08-.35.02-.54.42-.47z"/></g></svg>