<svg version="1.1" id="Layer_1" xmlns="http://www.w3.org/2000/svg" x="0" y="0" viewBox="0 0 800 500" xml:space="preserve"><style>.st0{fill:#fff}</style><g id="_x23_0b1560ff" transform="translate(-1.751 -2.058)"><path id="path4" class="st0" d="M81.19 212.2c3.93-2.08 8.35-3.16 12.8-3.06 19.87-.01 39.73.07 59.6-.02-2.59 5.75-5.35 13.33-12.71 13.99-18.46.51-36.97-.05-55.45.26-4.57-.08-9.12 2.33-11.05 6.57-3.98 7.8-7.55 15.8-11.46 23.65 15.84-.01 31.68.01 47.52-.02-1.39 2.69-2.42 5.69-4.6 7.87-2.66 2.09-6.27 1.7-9.42 1.8-12.26-.16-24.54.13-36.8-.17-4.42 8.29-8.15 16.91-12.43 25.27-1.95 3.94-6.2 6.49-10.61 6.34-8.6 0-17.22.31-25.82-.28v-.46c.15.04.45.12.61.16 7.44-16.07 15.2-31.98 22.89-47.94 3.78-7.99 10.24-14.6 18.03-18.79 9.57-5.17 19.26-10.11 28.9-15.17z"/><path id="path6" class="st0" d="M163.49 216.12c1.99-4.22 6.56-6.85 11.17-6.93 8.44-.13 16.89.05 25.34-.09-12.43 26.15-25.16 52.17-37.68 78.28-1.75 4.27-6.04 7.34-10.71 7.28-8.68.12-17.36.03-26.03.04 12.62-26.2 25.27-52.39 37.91-78.58z"/><path id="path8" class="st0" d="M233.87 209.6c2.77-1.37 5.97.18 7.48 2.66 12.37 17.01 24.82 33.98 37.31 50.89 1.37 1.87 2.41 3.94 3.43 6.02 7.92-15.66 15.28-31.6 22.94-47.38 1.97-3.9 3.42-8.61 7.56-10.79 5.72-3.06 12.47-1.47 18.68-1.81-13.8 28.51-27.58 57.03-41.36 85.55-6.99-.1-13.99.14-20.97-.11-4.34-.14-7.7-3.35-10.16-6.61-9.65-12.85-19.33-25.69-28.98-38.52-2.08-2.64-4.1-5.31-5.53-8.36-7.86 15.64-15.09 31.6-22.85 47.29-1.79 3.45-5.37 5.98-9.29 6.2-4.57.26-9.13.04-13.69.09 9.71-20.83 19.67-41.58 29.59-62.32 3.21-6.83 8.01-13.1 14.61-16.92 3.63-2.13 7.35-4.18 11.23-5.88z"/><path id="path10" class="st0" d="M368.58 209.6c2.71-1.35 5.87.11 7.4 2.52a9245.53 9245.53 0 0037.38 50.98c1.4 1.88 2.44 4 3.48 6.09 8.8-17.54 17.04-35.38 25.67-53.02 1.81-3.85 5.76-6.4 9.94-6.84 4.48-.38 8.99-.09 13.48-.21-13.63 28.6-27.54 57.07-41.33 85.61-7.02-.12-14.06.14-21.09-.12-4.65-.24-8.06-3.89-10.63-7.41-10.96-14.76-22.22-29.29-33.05-44.15-.35-.28-1.06-.87-1.41-1.15-7.05 15.07-14.4 30-21.51 45.04-1.61 3.69-4.84 6.98-8.98 7.53-4.88.51-9.8.09-14.69.28 7.92-17.54 16.41-34.85 24.66-52.26 3.53-6.94 6.22-14.48 11.45-20.39 5.13-5.86 12.36-9.18 19.23-12.5z"/><path id="path12" class="st0" d="M515.77 212.32c3.89-2.11 8.26-3.24 12.7-3.18 9.39 0 18.8-.01 28.21 0 6.83-.02 13.55 2.5 18.8 6.85 6.01 4.63 12.19 9.04 18.14 13.74 2.68 1.84 2.87 5.42 1.35 8.1-9.02 18.98-18.33 37.84-27.34 56.84-7.79 0-15.6.11-23.4-.02-4.2.29-7.66-4.59-5.61-8.39 3.34-7.82 7.48-15.29 10.93-23.07-18.44-.04-36.88-.01-55.32-.01-4.04 8.17-7.9 16.45-11.93 24.62-1.82 3.81-5.63 6.74-9.94 6.82-8.87.24-17.73-.05-26.6.13 7.7-16.2 15.49-32.34 23.26-48.5 3.77-7.97 10.12-14.61 17.87-18.79 9.59-5.09 19.24-10.1 28.88-15.14m-5.44 17.64c-3.97 7.79-7.54 15.78-11.47 23.6 18.47.05 36.93.01 55.4.01 3.71-7.79 7.48-15.55 11.28-23.29.6-1.64 2.03-3.42 1.15-5.2-1.45-2.1-4.16-1.7-6.34-1.8-13.06.1-26.12-.08-39.17.09-4.58-.13-8.93 2.43-10.85 6.59z"/><path id="path14" class="st0" d="M626.36 218.89c1.72-4.79 5.57-9.03 10.88-9.55 8.93-.49 17.91.01 26.85-.24-12.06 26.03-24.89 51.73-37.22 77.64-1.68 4.17-5.51 7.65-10.14 7.89-8.97.24-17.95.04-26.94.09 12.2-25.29 24.42-50.54 36.57-75.83z"/><path id="path16" class="st0" d="M704.03 218.16c7.34-3.42 14.25-8.89 22.69-8.97 9.83-.07 19.67-.11 29.5.02 8.92.31 16.54 5.44 23.17 10.94 4.83 4.15 10.83 7.08 14.7 12.24v3.17c-2.26 5.84-4.91 11.56-7.83 17.09-3.29 5.9-10.48 7.77-16.72 8.4-10.32.82-20.68-.22-31 .58.29.4.89 1.19 1.18 1.58 5.93 2.19 14.53.11 18.11 6.58 5.02 8.34 10.03 16.68 15.13 24.98-10.08-.19-20.18.07-30.27-.12-3.85.15-7.47-1.95-9.4-5.23-4.64-7.25-8.78-14.78-13.29-22.09-1.72-2.84-4.39-5.37-7.83-5.73-5.8-.58-11.64-.09-17.45-.27-4.26 8.48-8.28 17.07-12.49 25.58-1.78 4.16-5.66 7.66-10.38 7.7-8.88.29-17.75-.03-26.62.14 8.29-17.23 16.29-34.62 24.94-51.66 6.95-13.11 21.66-18.12 33.86-24.93m5.05 11.2c-3.8 7.37-7.21 14.93-10.92 22.34 14.85-.02 29.7.05 44.54-.04 4.98.01 10.94-1.01 13.59-5.79 2.7-5.09 4.92-10.43 7.54-15.55.63-1.67 2.1-3.51 1.11-5.34-1.53-1.92-4.13-1.68-6.3-1.7-13.05.1-26.1-.09-39.14.09-4.22.01-8.46 2.16-10.42 5.99z"/></g></svg>