<svg version="1.1" id="Layer_1" xmlns="http://www.w3.org/2000/svg" x="0" y="0" viewBox="0 0 800 500" xml:space="preserve"><style>.st0{fill-rule:evenodd;clip-rule:evenodd;fill:#fff}</style><path class="st0" d="M30.98 350.85c0 9.99-8.75 15.17-8.75 15.17h48.28c-1.66 0-10.85-8.47-10.85-15.59v-68.48H99.6s12.1 1.69 12.1 7.12v-25.06H59.66v-49.57h50.75c2.93 0 13.33 4.89 13.74 10.74.47 5.93 0-28.32 0-28.32H21.04s9.48 5.86 9.94 15.47c.45 9.6 0 128.53 0 138.52zM288.01 196.87c1.64 0 10.79 6.83 10.33 15.61v164.53c0 3.73-4.93 40.42-26.65 55.49-.44.35 22.97-3.37 38.7-19.2 2.53-2.48 17.04-12.52 17.04-47.52 0-37.57-.35-143.66-.35-153.72 0-11.26 11.22-15.2 11.22-15.2h-50.29v.01zM143.79 212.43c.37-8.78-8-15.56-9.69-15.56h50.38s-10.63 6.31-10.63 15.15c0 5.56.16 88.98.16 103.55 0 14.65 8.34 35.08 32.78 35.08 19.32 0 27.93-20.52 27.93-35.08 0-12.52-.3-94.06-.3-102.88.42-8.68-8.03-15.82-9.67-15.82h50.23s-10.49 5.69-10.49 14.43c0 5.59-.06 105.3-.06 105.3s-.28 18.95-11.08 31.37c-8.3 9.48-22.23 20.25-46.07 20.67-27.34.44-39.9-9.14-51.93-20.92-8.74-8.52-11.01-25.5-11.37-32.5-.27-13.81-.19-97.37-.19-102.79zM647.76 212.43c.36-8.78-8.03-15.56-9.71-15.56h50.36s-10.63 6.31-10.63 15.15c0 5.56.2 88.98.2 103.55 0 14.65 8.35 35.08 32.78 35.08 19.29 0 27.89-20.52 27.89-35.08 0-12.52-.25-94.06-.25-102.88.41-8.68-8.05-15.82-9.72-15.82h50.28s-10.49 5.69-10.49 14.43c0 5.59-.11 105.3-.11 105.3s-.23 18.95-11.05 31.37c-8.29 9.48-22.24 20.25-46.09 20.67-27.35.44-39.86-9.14-51.92-20.92-8.73-8.52-11.04-25.5-11.38-32.5-.25-13.81-.16-97.37-.16-102.79zM388.58 350.4c0 9.22 10.74 15.62 11.16 15.62h-50.27s10.26-6.4 10.26-15.22c0-5.53.07-132.91.07-138.32.48-8.78-8.65-15.61-10.31-15.61h50.24s-11.16 6.44-11.16 15.17c.01 5.52.01 132.99.01 138.36zM449.53 215.25c0 5.41.15 130.62.15 136.17 0 8.79-10.64 14.61-10.64 14.61h50.19c-.39 0-10.3-6.46-10.3-15.65 0-5.43.51-134.72.51-134.72.02-1.18 19.13-.91 24.64-.77 3.85.06 11.66 2.31 13.03 12.01.41 2.97 10.33-30.02 10.33-30.02H410.53l-9.92 33s12.04-14.62 17.37-14.62c7.63.06 31.55-.01 31.55-.01zM533.66 365.82l-9.18-32.08s14.18 16.69 39.13 17.95c24.95 1.22 32.54-10.82 35.02-13.37 2.44-2.51 15.59-19.61-4.58-32.14-21.78-13.38-41.31-20.87-50.03-28.37-8.69-7.54-21.17-23.82-16.16-47.2 5-23.31 30.33-33.35 40.67-34.97 10.6-1.65 38.43-1.28 49.28 2.89.7 1.28 0 25.86 0 25.86-.58 1.64-4.16-12.05-29.99-12.53-25.87-.37-30.02 17.13-30.39 18.35-.46 1.27-7.53 19.66 12.8 30.08 20.42 10.44 40.52 16.95 55.35 35.5 17.05 21.24 1.9 48.85-2.74 54.17-6.98 7.96-27.55 20.08-49.62 20.08-29.9-.02-39.12-3.74-39.56-4.22zM420.63 114.23c.75 19.61-11.94 47.39-46.65 48.02-25.71.35-38.17-19.7-41.11-22.99-2.87-3.33-9.16-15.82-24.94-16.23-15.81-.46-22.88 14.15-23.25 21.68-.41 7.58 2.86 25.85 23.58 26.26 19.12.5 28.39-19.98 28.39-19.98v21.27s-10.04 12.07-27.85 12.53c-17.93.39-39.11-14.7-38.31-40.92.84-26.27 27.02-35.49 39.07-35.06 12.11.44 22.47 6.25 31.62 18.83 9.13 12.52 21.16 22.61 38.72 19.17 10.64-2.09 26.51-10.46 26.51-33.39 0-22.95-23.58-31.39-32.78-31.29-6.1.06-14.16 1.68-23.32 10.4-9.13 8.79-13.32 22.12-13.32 22.12V86.71s14.16-18.8 35.33-19.22c21.23-.41 47.19 16.74 48.31 46.74z"/></svg>