<svg version="1.1" id="Layer_1" xmlns="http://www.w3.org/2000/svg" x="0" y="0" viewBox="0 0 800 500" xml:space="preserve"><style>.st0{fill-rule:evenodd;clip-rule:evenodd;fill:#fff}</style><path class="st0" d="M 650,246.24375 C 650,382.23125000000005 538.073125,492.48687500000005 400.00625,492.48687500000005 C 261.92625,492.48687500000005 150,382.23125000000005 150,246.24375 C 150,110.243125 261.92625,0 400.00625,0 C 538.073125,0 650,110.243125 650,246.24375 M 487.463125,69.12625 C 466.595,69.12625 446.68,78.03812500000001 432.186875,92.55625 C 411.380625,113.770625 401.825625,145.07250000000002 395.426875,166.670625 L 374.188125,166.39812500000002 C 372.72749999999996,166.39812500000002 371.514375,167.64812500000002 371.18,168.688125 L 367.949375,179.64187500000003 C 367.615625,180.755625 368.320625,182.20375 369.8675,182.20375 L 391.119375,181.919375 C 391.119375,181.919375 362.54,296.6675 356.748125,319.9 C 349.495625,349.06 337.78625,378.753125 329.45625,389.27374999999995 C 321.993125,398.680625 317.005,401.58875 311.943125,401.58875 C 304.86312499999997,401.58875 301.1875,396.47687500000006 299.1825,388.073125 C 297.820625,381.98375 293.884375,373.665625 285.121875,373.665625 C 276.0125,373.665625 263.53625,384.01312500000006 263.53625,396.47687500000006 C 263.53625,413.359375 291.69437500000004,417.159375 301.11312499999997,417.159375 C 319.65375,417.159375 343.64125,405.32625 359.805625,386.785625 C 380.364375,363.49125000000004 391.775625,334.31874999999997 402.45687499999997,293.189375 L 428.560625,181.74562500000002 L 455.89,182.21562500000002 C 458.105,182.21562500000002 459.0825,180.65625 459.491875,179.50500000000002 L 463.044375,169.29375 C 463.440625,168.130625 462.80875000000003,166.67000000000002 461.08875,166.67000000000002 L 432.86875,166.67000000000002 C 439.614375,143.02937500000002 449.73875,108.10125 468.92375000000004,88.86749999999999 C 470.619375,87.171875 475.40937499999995,83.03750000000001 479.778125,83.00062499999999 C 487.465,82.92625 489.60625,87.32062499999999 492.811875,94.4125 C 495.930625,101.39312500000001 495.41062500000004,113.386875 505.98125000000005,113.386875 C 518.1975,113.386875 527.3937500000001,99.71000000000001 527.3937500000001,90.25375 C 527.391875,77.406875 505.199375,69.12625 487.463125,69.12625 M 460.555625,277.111875 C 448.908125,277.39625 440.4425,287.1 439.9225,299.031875 C 439.415,310.690625 446.61875,317.3375 456.841875,317.3375 C 474.29375,317.3375 477.48687500000005,301.51937499999997 477.721875,295.974375 C 478.316875,282.385 468.84749999999997,277.111875 460.555625,277.111875 M 521.37625,277.111875 C 509.729375,277.39625 501.25124999999997,287.1 500.75625,299.031875 C 500.23625000000004,310.690625 507.43937500000004,317.3375 517.6637499999999,317.3375 C 535.1156249999999,317.3375 538.3087499999999,301.51937499999997 538.5318749999999,295.974375 C 539.1375,282.385 529.656875,277.111875 521.37625,277.111875 M 582.198125,277.111875 C 570.5387499999999,277.39625 562.073125,287.1 561.565,299.031875 C 561.045625,310.690625 568.26125,317.3375 578.484375,317.3375 C 595.93625,317.3375 599.129375,301.51937499999997 599.365,295.974375 C 599.9593749999999,282.385 590.47875,277.111875 582.198125,277.111875 M 337.4275,89.62312499999999 C 325.025625,89.9325 315.85375,100.255 315.061875,112.97874999999999 C 314.306875,125.405 321.8325,132.51 332.76125,132.51 C 351.33937499999996,132.51 355.0275,115.64 355.399375,109.71125 C 356.2775,95.2425 346.301875,89.62312499999999 337.4275,89.62312499999999 M 328.156875,268.571875 C 327.28999999999996,267.7425 325.68125,267.43312499999996 324.39374999999995,268.745 C 324.39374999999995,268.745 305.42,289.89750000000004 298.95875,289.89750000000004 C 296.03812500000004,289.89750000000004 296.125,286.32 296.125,285.75125 C 296.125,282.619375 298.03125,276.92625 299.033125,274.2275 L 307.140625,252.975625 L 326.65875,205.745 C 330.69375,196.30124999999998 335.52125,184.07250000000002 335.52125,175.990625 C 335.52125,165.50687499999998 327.599375,162.97 321.89374999999995,162.97 C 295.604375,162.97 267.3725,193.726875 256.604375,205.980625 C 256.566875,206.018125 256.5175,206.09187500000002 256.5175,206.09187500000002 C 255.713125,206.94625 255.193125,208.53000000000003 256.814375,210.065 L 261.77750000000003,214.79312499999997 C 262.69375,215.6475 264.364375,215.696875 265.40437499999996,214.58312500000002 C 265.40437499999996,214.58312500000002 278.32625,200.473125 283.066875,197.0075 C 284.316875,196.04250000000002 286.34625,194.73 287.52250000000004,194.73 C 289.19375,194.73 290.02250000000004,197.23 290.02250000000004,198.60375000000002 C 290.02250000000004,202.985 285.61625,213.44375 283.57437500000003,218.840625 L 263.3375,270.14375 C 256.258125,287.36062499999997 252.953125,296.4825 252.953125,304.24312499999996 C 252.953125,313.01875 257.84187499999996,319.95 269.984375,319.95 C 298.093125,319.9625 333.56562499999995,277.520625 333.56562499999995,277.520625 C 334.93937500000004,275.94874999999996 334.24625,274.401875 333.3925,273.609375 L 328.156875,268.571875"/></svg>