<svg version="1.1" id="Layer_1" xmlns="http://www.w3.org/2000/svg" x="0" y="0" viewBox="0 0 800 500" xml:space="preserve"><style>.st0{fill:#fff}</style><g id="RrB9Ad.tif"><path class="st0" d="M11.39 446.89V53.31h180.85c.62 0 1.24.05 1.86.07.01.62.02 1.24.02 1.87v389.69c0 .62-.01 1.24-.02 1.87-.67.03-1.35.07-2.02.07-60.23.02-120.46.01-180.69.01zm66.37-205.51v-1.82-59.93c0-.42-.02-.83 0-1.25.03-.62-.28-.82-.85-.78-.36.02-.73 0-1.09 0H39.08c-1.2 0-1.2.02-1.23 1.18-.01.21 0 .42 0 .62v143.37c0 1.96-.21 1.76 1.73 1.76 12.04.01 24.08.01 36.11 0 2.38 0 2.06.35 2.06-2.04.01-21.9 0-43.79.01-65.69 0-.47-.14-.99.2-1.57.46.61.84 1.09 1.21 1.59 8.74 11.86 17.49 23.71 26.23 35.57 7.63 10.35 15.27 20.71 22.9 31.07.48.65.91 1.1 1.86 1.1 15.57-.04 31.13-.03 46.7-.04.27 0 .64.15.81-.37-.37-.49-.77-1.03-1.17-1.57-18.65-24.85-37.3-49.71-55.94-74.56-1.05-1.4-1.07-1.05.03-2.44 8.06-10.22 16.13-20.44 24.2-30.67 9.45-11.97 18.9-23.94 28.35-35.92.3-.38.74-.71.79-1.41h-1.76c-14.37 0-28.75.02-43.12-.03-1.35-.01-2.15.42-2.96 1.47-15.65 20.36-31.34 40.69-47.02 61.02-.35.44-.6.96-1.31 1.34zM607.68 447.21c0-.11.01-.21.01-.32.57 0 1.14.01 1.71.01 59.42 0 118.84 0 178.26-.01 2.52 0 2.17.35 2.17-2.1.01-129.79.01-259.58 0-389.37 0-2.45.35-2.1-2.17-2.1-59.42-.01-118.84-.01-178.26-.01-.57 0-1.14.01-1.71.01 0-.11-.01-.22-.01-.32h182.47v394.2c-60.83.01-121.65.01-182.47.01zM408.69 53.29c-.01-.1-.01-.19.01-.29h183.4c-.01.12-.03.24-.04.36-.73-.02-1.45-.05-2.18-.05H410.87c-.72 0-1.45-.01-2.18-.02zM209.72 53.29c-.01-.1-.01-.19.01-.29h183.4c-.01.12-.03.24-.04.36-.73-.02-1.45-.05-2.18-.05H211.89c-.71 0-1.44-.01-2.17-.02zM209.74 447.21a.93.93 0 01-.01-.29c.73-.01 1.45-.02 2.18-.02h179.01c.73 0 1.45-.03 2.18-.05.01.12.03.24.04.36h-183.4zM408.71 447.21a.93.93 0 01-.01-.29c.73-.01 1.45-.02 2.18-.02h179.01c.73 0 1.45-.03 2.18-.05.01.12.03.24.04.36h-183.4z"/><path class="st0" d="M194.17 53c-.02.13-.04.26-.07.39-.62-.03-1.24-.07-1.86-.07H11.39c.07-.1-.16-.32.16-.31.41.01.83 0 1.25 0C73.25 53 133.71 53 194.17 53zM194.1 446.82c.02.13.04.26.07.39-60.46 0-120.92 0-181.38-.02-.46 0-1.06.36-1.4-.29h180.69c.68-.01 1.35-.06 2.02-.08zM607.69 53.33c.57 0 1.14-.01 1.71-.01 59.42 0 118.84 0 178.26.01 2.52 0 2.17-.35 2.17 2.1.01 129.79.01 259.58 0 389.37 0 2.45.35 2.1-2.17 2.1-59.42.01-118.84.01-178.26.01-.57 0-1.14-.01-1.71-.01-.01-.93-.04-1.87-.04-2.8V55.98c0-.89.02-1.77.04-2.65zm35.51 197.55v71.61c0 .42.02.83 0 1.25-.04.62.26.83.84.8.31-.02.62 0 .93 0h109.75c1.97 0 1.77.2 1.77-1.72.01-9.91.01-19.82 0-29.73 0-2.13.24-1.87-1.94-1.87-23.3-.01-46.6 0-69.9 0-.47 0-.93-.01-1.4-.01-.38 0-.57-.19-.58-.57-.01-.41-.01-.83-.01-1.25 0-7.06-.01-14.11 0-21.17 0-2.21-.25-1.91 1.88-1.91 20.34-.01 40.68 0 61.03 0 .42 0 .83-.01 1.25 0 .44.01.68-.17.68-.63 0-.42.01-.83.01-1.25 0-9.19.01-18.37 0-27.56 0-2.31.29-2.01-1.94-2.01-20.24-.01-40.48 0-60.71 0-.42 0-.83-.04-1.24.01-.8.09-1-.32-.94-1.01.03-.31 0-.62 0-.93 0-7.01-.01-14.01 0-21.02 0-2.2-.23-1.92 1.89-1.92 23.3-.01 46.6 0 69.9 0 .42 0 .83-.02 1.25 0 .61.04.83-.25.79-.84-.03-.36 0-.73 0-1.09 0-9.5.01-18.99 0-28.49 0-2.24.28-1.95-2.01-1.95-36.43-.01-72.86-.01-109.29 0-2.26 0-1.99-.29-1.99 1.97-.02 23.76-.02 47.53-.02 71.29zM592.06 446.84c-.73.02-1.45.05-2.18.05H410.87c-.73 0-1.45.02-2.18.02-.22-.55-.12-1.13-.12-1.69V54.98c0-.56-.1-1.14.12-1.69.73.01 1.45.02 2.18.02h179.01c.73 0 1.45.03 2.18.05.01.99.04 1.97.04 2.96v387.41c0 1.04-.02 2.08-.04 3.11zm-62.2-197.54c-.53-.48-.76-.68-.98-.9-14.02-13.72-28.03-27.45-42.04-41.17-9.79-9.58-19.58-19.16-29.35-28.76-.65-.63-1.29-.9-2.18-.89-3.06.05-6.12.02-9.18.02h-10.9c-1.41 0-1.41.01-1.42 1.47v143.68c0 2.01-.16 1.77 1.73 1.77 11 .01 22 0 33 0 2.16 0 2.16 0 2.16-2.11 0-23.51 0-47.01.01-70.52 0-.52-.15-1.09.21-1.66.27.25.47.41.65.59 13.27 13 26.53 26 39.8 39.01 11.49 11.26 22.98 22.52 34.45 33.8.64.63 1.27.92 2.17.91 5.86-.04 11.73-.02 17.59-.02 1.42 0 1.36.08 1.36-1.35v-.47-143.37c0-1.97.16-1.74-1.76-1.74-11.1-.01-22.21-.01-33.31 0-2.27 0-1.99-.29-1.99 1.98-.01 22.57 0 45.14 0 67.72-.02.56-.02 1.12-.02 2.01zM393.1 446.84c-.73.02-1.45.05-2.18.05H211.91c-.73 0-1.45.02-2.18.02-.18-.4-.12-.82-.12-1.23 0-129.67 0-259.33.02-389 0-1.13-.16-2.28.1-3.41.73.01 1.45.02 2.18.02h179.02c.73 0 1.45.03 2.18.05.01.99.04 1.97.04 2.96v387.41c-.02 1.06-.04 2.1-.05 3.13zm-14.2-196.75c0-1.09.03-2.18 0-3.27-.29-9.42-2.13-18.53-5.72-27.25-5-12.18-12.71-22.3-23.19-30.27-11.33-8.61-24.15-13.54-38.26-15.23-9.14-1.1-18.23-.8-27.25 1.03-14.14 2.87-26.67 8.99-37.27 18.86-8.83 8.21-15.18 18.07-19.11 29.47-3.69 10.69-4.94 21.69-4.12 32.95.58 7.97 2.19 15.71 5.14 23.14 6.97 17.54 18.98 30.48 35.82 38.94 9.33 4.69 19.27 7.24 29.68 8.05 7.44.57 14.83.25 22.16-1.1 12.39-2.29 23.69-7.13 33.67-14.88 9.09-7.06 16.13-15.8 21.06-26.2 5.16-10.85 7.45-22.31 7.39-34.24z"/><path class="st0" d="M339.05 248.91c-.01 9.58-1.71 17.52-5.96 24.76-6.01 10.24-14.88 16.47-26.7 18.07-16.46 2.24-31.4-6.11-38.43-21.24-2.43-5.23-3.72-10.74-4.15-16.49-.57-7.67.33-15.13 3.24-22.26 4.15-10.19 11.12-17.69 21.6-21.49 17.35-6.29 37.49.54 46.24 19.63 2.93 6.43 4.2 13.21 4.16 19.02z"/></g></svg>