<?xml version="1.0" encoding="utf-8"?>
<!-- Generator: Adobe Illustrator 27.2.0, SVG Export Plug-In . SVG Version: 6.00 Build 0)  -->
<svg version="1.1" id="Layer_1" xmlns="http://www.w3.org/2000/svg" xmlns:xlink="http://www.w3.org/1999/xlink" x="0px" y="0px"
	 viewBox="0 0 635.9 205.9" style="enable-background:new 0 0 635.9 205.9;" xml:space="preserve">
<style type="text/css">
	.st0{fill:#FFFFFF;}
</style>
<g>
	<path class="st0" d="M62.6,80.6l0,103.5H35.9c0-7.4,0.2-158,0.2-158h27.5c0,0,47.9,102.1,50.5,107.6
		c9.5-20.4,49.8-104.1,51.4-107.6c0,0,19.3,0,27.2,0v158H166l0-103.9l-40.2,84.4c0,0-5.1,0-23.1,0"/>
	<path class="st0" d="M282.6,65c19.6,7.1,28.5,22.2,31.6,41.2c1.2,9.3,0.5,18.3,0.5,28.6c-27,0-51.9,0.1-78.5,0.1
		c1.8,11.4,6.9,19.6,16.7,24.1c17.1,7.2,31.8,2,45.9-9.1c4,6.3,7.6,12.6,11.8,19.3c-2.1,1.7-4.2,3.4-6.4,4.8
		c-15.4,10-31.6,13.8-49.7,10.5c-19.3-3.5-32.1-14.1-38.8-32.2c-6.8-18.1-7.1-37.7-0.4-55.9C226.7,67.1,255.1,55.6,282.6,65
		 M285.5,96.8c-6.2-10.1-17.5-14.3-28.7-11.2c-11.4,3.1-20.1,15.6-19.6,28.1c17.2,0,33.9,0,52.3,0
		C289.4,107.9,288.2,102.3,285.5,96.8z"/>
	<path class="st0" d="M510.1,118.7c0.8-13.9,4.2-26.4,12.5-37.2c13-16.9,31-21.6,51.2-19c19.5,2.6,34.6,14.5,41.7,33.7
		c6.6,19.1,6.5,38.3-0.6,57.2c-8.6,22.7-29.6,32.5-49.7,32.5c-25.3,0.2-46.5-15.8-52.5-40.1C509.3,137.3,510.1,128.2,510.1,118.7
		 M543.6,95.9c-3.2,3.6-5.2,8.6-6.3,13.2c-2.9,12.3-2,25.1,2.8,37.6c6.1,10.6,12.8,14.3,25,14.8c12.1-0.2,20.7-5,24.9-16
		c4.3-11.2,5.6-32.5,0.2-43c-5.1-11.4-13.7-16.2-25.7-16.2C554.9,86.3,548.8,90,543.6,95.9z"/>
	<path class="st0" d="M410.9,83.8c5.3-11,14.6-16.7,25.7-19.6c21-5.5,40.8-2.1,60,8.6c-4.1,6.6-8.1,12.9-12.1,19.4
		c-11.7-7.2-23.9-10.6-37.3-8c-8.7,1.7-13.8,6.9-13.4,13.6c0.4,5.5,3.6,9,8.7,10.3c7.6,1.9,15.3,2.8,22.9,4.5
		c1.5,0.3,3.4,0.7,4.8,1.1c19,4.8,28.8,16.3,27.9,35.1c0.3,17.6-9.7,29.3-27,34.8c-22.9,5.8-42.3,2.1-61.5-12.3
		c-0.9-0.7-1.9-2-3.5-3.5c5.2-6.5,10.8-12.7,14.8-17.6c6.6,5.4,14.7,10.4,22.9,12.8c5.7,1.7,12.2,1.2,18.2-0.3
		c5.4-1.9,10-6.2,10.1-12.2c-0.2-6.6-3.1-11.3-10.1-13c-9-2.2-18.5-2.9-27.4-5.3C411.5,125.9,401.9,106.6,410.9,83.8z"/>
	<path class="st0" d="M332.3,94.4c0-23.1,0.2-45.2,0.2-68.1c8.7,0,25,0,25,0s0,0,0.5,37.3c11.5,0,22.5,0,33.9,0c0,8.1,0,15.7,0,23.8
		c-11,0-22.1,0-33.4,0c-0.1,1.8-0.3,3.1-0.3,4.4c0,18.5,0,37,0,55.5c0,10.9,4.8,15.7,15.7,15.1c5.5-0.3,11-2.1,17-3.3
		c0.9,3,2.1,6.6,3.1,10.2c1,3.5,1.7,5.8,2.8,9.8c-14.7,6.5-28.1,9.4-44.6,4.4c-13.1-5.1-19.5-15-19.8-28.5
		C332,134.9,332.3,114.9,332.3,94.4z"/>
</g>
</svg>
