<?xml version="1.0" encoding="UTF-8"?>
<!-- Generated by Pixelmator Pro 3.0.1 -->
<svg width="885" height="100" viewBox="0 0 885 100" xmlns="http://www.w3.org/2000/svg" xmlns:xlink="http://www.w3.org/1999/xlink">
    <g id="Group">
        <path id="Path" fill="#ffffff" stroke="none" d="M 453.333801 0 C 478.872864 0 498.854523 17.293236 498.854523 49.874687 C 498.854523 82.456139 478.872864 100 453.333801 100 C 427.794769 100 407.906769 82.174187 407.906769 49.874687 C 407.906769 17.575188 427.794769 0 453.333801 0 Z M 258.356567 23.276939 C 267.38855 23.173584 276.275848 25.557434 284.051727 30.169174 L 284.051727 30.169174 L 276.558594 41.97995 C 271.3125 38.363476 265.096069 36.429882 258.731201 36.434837 C 252.549377 36.434837 245.30603 38.43985 245.30603 44.862156 C 245.30603 49.06015 247.866196 51.315788 253.392365 52.443611 L 253.392365 52.443611 L 264.819366 54.699249 L 264.913055 54.949875 C 277.838684 57.330826 285.113251 63.815788 285.113251 76.8797 C 285.113251 92.543861 272.437378 99.968674 257.014038 99.968674 C 246.433792 100.3032 236.166916 96.338264 228.540176 88.972435 L 228.540176 88.972435 L 237.469482 77.913528 C 242.745728 83.227798 249.882477 86.263153 257.357483 86.372185 C 265.100372 86.372185 269.065491 82.95739 269.065491 77.850876 C 269.065491 73.308273 266.879974 70.739349 261.166473 69.611526 L 261.166473 69.611526 L 249.645813 67.355888 C 236.064529 64.692986 229.508041 58.051376 229.508041 46.42857 C 229.508041 30.827065 243.026886 23.276939 258.356567 23.276939 Z M 139.871582 23.276939 C 160.508881 23.276939 172.341782 37.030075 172.341782 60.87093 C 172.341782 63.565163 171.904678 65.883461 171.904678 68.515038 L 171.904678 68.515038 L 123.449165 68.515038 C 124.339233 78.218109 132.471237 85.62999 142.181976 85.588974 C 149.609131 85.62973 156.770081 82.816071 162.194839 77.725563 L 162.194839 77.725563 L 169.781631 89.630325 C 161.915924 96.269638 151.960968 99.898994 141.682419 99.874809 C 119.577721 99.874809 107.619942 82.675438 107.619942 61.340851 C 107.619942 41.666664 119.858711 23.370926 139.96524 23.370926 L 139.96524 23.370926 Z M 326.294189 23.370926 C 348.180359 23.370926 360.356689 39.630325 360.356689 61.466164 C 360.356689 83.302002 348.461334 99.874687 326.294189 99.874687 C 304.127045 99.874687 292.387817 83.051376 292.387817 61.466164 C 292.387817 39.880951 304.251923 23.370926 326.294189 23.370926 Z M 660.862061 23.370926 C 682.748169 23.370926 694.924438 39.630325 694.924438 61.466164 C 694.924438 83.302002 683.060364 99.874687 660.862061 99.874687 C 638.663696 99.874687 626.924438 83.051376 626.924438 61.466164 C 626.924438 39.880951 638.819763 23.370926 660.862061 23.370926 Z M 198.598923 1.065163 L 198.598923 24.404762 L 219.610886 24.404762 L 219.610886 38.847118 L 198.598923 38.847118 L 198.598923 75.814537 C 198.349152 87.374687 210.806458 85.870926 218.736694 82.0802 L 218.736694 82.0802 L 222.764252 95.45739 C 216.973495 98.443687 210.541611 99.960358 204.031433 99.874687 C 190.949692 99.874687 182.707245 91.541359 182.707245 78.5401 L 182.707245 78.5401 L 182.707245 1.065163 L 198.598923 1.065163 Z M 599.793091 1.065163 L 599.793091 24.404762 L 620.805054 24.404762 L 620.805054 38.847118 L 599.793091 38.847118 L 599.793091 75.814537 C 599.512085 87.374687 611.969421 85.870926 619.930847 82.0802 L 619.930847 82.0802 L 624.114502 95.45739 C 618.323792 98.443687 611.891907 99.960358 605.381714 99.874687 C 592.268738 99.874687 584.026367 91.541359 584.026367 78.5401 L 584.026367 78.5401 L 584.026367 1.065163 L 599.793091 1.065163 Z M 721.400208 1.065163 L 721.400208 24.404762 L 742.41217 24.404762 L 742.41217 38.847118 L 721.400208 38.847118 L 721.400208 75.689224 L 721.462646 75.814537 C 721.21283 87.374687 733.670166 85.870926 741.600403 82.0802 L 741.600403 82.0802 L 745.596802 95.45739 C 739.807739 98.448524 733.374634 99.965485 726.863953 99.874687 C 713.750977 99.874687 705.508484 91.541359 705.508484 78.5401 L 705.508484 78.5401 L 705.508484 1.065163 L 721.400208 1.065163 Z M 856.900757 23.370926 C 868.192139 23.502159 878.697754 29.194603 885 38.596493 L 885 38.596493 L 873.385681 47.744362 C 869.679626 42.188911 863.528809 38.770432 856.869568 38.565163 C 845.161621 38.565163 838.417725 46.710526 838.417725 61.466164 C 838.417725 76.221802 845.161621 84.68045 856.869568 84.68045 C 863.528809 84.475182 869.679626 81.056702 873.385681 75.501251 L 873.385681 75.501251 L 885 84.649124 C 878.697754 94.05101 868.192139 99.743454 856.900757 99.874687 C 835.045837 99.874687 822.401184 82.832077 822.401184 61.466164 C 822.401184 40.10025 835.045837 23.370926 856.900757 23.370926 Z M 780.814453 23.276939 C 801.451721 23.276939 813.284607 37.030075 813.284607 60.87093 C 813.284607 63.565163 813.03479 65.883461 812.878723 68.515038 L 812.878723 68.515038 L 764.23584 68.515038 C 765.125977 78.218109 773.257935 85.62999 782.968689 85.588974 C 790.393433 85.617035 797.549988 82.805138 802.981567 77.725563 L 802.981567 77.725563 L 810.537109 89.630325 C 802.676941 96.27919 792.718384 99.909882 782.437866 99.874947 C 760.364441 99.874947 748.406677 82.675438 748.406677 61.340851 C 748.406677 41.666664 760.614136 23.370926 780.720764 23.370926 L 780.720764 23.370926 Z M 527.515747 24.404762 L 527.516602 68.849731 C 527.597107 77.771652 529.806274 84.68045 539.192444 84.68045 C 544.65625 84.68045 549.589172 81.328323 554.022583 75.845871 L 554.022583 75.845871 L 554.022583 24.404762 L 570.070374 24.404762 L 570.070374 98.840858 L 556.551575 98.840858 L 554.678284 91.697998 C 549.791809 96.721893 543.156616 99.652283 536.164001 99.874687 C 518.680054 99.874687 511.467926 88.251877 511.467926 71.209274 L 511.467926 71.209274 L 511.467926 24.404762 L 527.515747 24.404762 Z M 16.859522 1.033836 L 48.299408 67.951126 L 79.739296 1.033836 L 96.598816 1.033836 L 96.598816 98.809525 L 80.207611 98.809525 L 80.207611 34.429825 L 55.480312 86.904762 L 41.1185 86.904762 L 16.391201 34.429825 L 16.391201 98.809525 L -0 98.809525 L -0 1.033836 L 16.859522 1.033836 Z M 386.582611 71.804504 L 391.952667 75.689224 L 393.982056 82.017548 L 391.952667 88.314529 L 386.582611 92.230576 L 379.963654 92.230576 L 374.624817 88.314529 L 372.595459 82.017548 L 374.624817 75.689224 L 379.963654 71.804504 L 386.582611 71.804504 Z M 326.294189 38.40852 C 313.087555 38.40852 308.435577 48.464912 308.435577 61.466164 C 308.435577 76.629074 314.773529 84.993736 326.294189 84.993736 C 337.939758 84.993736 344.18399 76.629074 344.18399 61.466164 C 344.18399 46.303257 338.002197 38.40852 326.294189 38.40852 Z M 660.862061 38.40852 C 647.655396 38.40852 643.003418 48.464912 643.003418 61.466164 C 643.003418 76.629074 649.34137 84.993736 660.862061 84.993736 C 672.476318 84.993736 678.720642 76.629074 678.720642 61.466164 C 678.720642 46.303257 672.538818 38.40852 660.862061 38.40852 Z M 453.333801 15.664162 C 436.630402 15.664162 424.766266 26.190475 424.766266 50.125313 C 424.766266 74.06015 436.630402 84.586472 453.333801 84.586472 C 470.13089 84.586472 482.026215 74.06015 482.026215 50.125313 C 482.026215 26.190475 470.037231 15.664162 453.333801 15.664162 Z M 140.090134 37.218048 C 133.252655 37.218048 124.885345 42.637844 123.886261 55.169174 L 123.886261 55.169174 L 156.231567 55.169174 L 156.231567 54.824562 C 155.888123 43.483711 150.143402 37.218048 140.090134 37.218048 Z M 780.97052 37.124058 C 774.101807 37.124058 765.765686 42.543861 764.735413 55.075188 L 764.735413 55.075188 L 797.080688 55.075188 L 797.080688 54.730576 C 796.737305 43.389725 791.023804 37.124058 780.97052 37.124058 Z M 386.582611 30.952385 L 391.952667 34.868423 L 393.982056 41.165413 L 391.952667 47.493736 L 386.582611 51.409775 L 379.963654 51.409775 L 374.624817 47.493736 L 372.595459 41.165413 L 374.624817 34.868423 L 379.963654 30.952385 L 386.582611 30.952385 Z"/>
    </g>
</svg>
