<svg version="1.1" id="Layer_1" xmlns="http://www.w3.org/2000/svg" x="0" y="0" viewBox="0 0 800 500" xml:space="preserve"><style>.st0{fill-rule:evenodd;clip-rule:evenodd;fill:#fff}</style><path class="st0" d="M378.94 215.04c-9.38 0-23.61 2.12-37.53 13.32h-.3c-4.54-8.47-13.02-13.32-25.72-13.32-15.74 0-26.03 6.96-32.69 11.8h-.6l-1.22-9.08h-26.33v100.79h31.17v-69.92s8.47-7.86 18.47-7.86c4.24 0 6.96 1.21 9.08 3.02 2.72 2.42 2.72 5.76 2.72 10.6v64.16h30.87v-69.92s8.17-7.86 18.46-7.86c4.24 0 6.96 1.21 9.08 3.02 2.73 2.42 3.03 5.76 3.03 10.6v64.16H408v-72.94c0-19.68-9.39-30.57-29.06-30.57zM452.19 278.3c.91 13.01 13.92 19.67 28.75 19.67 10.89 0 24.82-3.02 33.29-5.75l-6.05 23.91c-4.54 1.51-7.86 2.42-12.1 3.33-5.45.9-12.11 1.51-19.68 1.51-38.74 0-54.78-20.88-54.78-52.36 0-29.66 14.52-53.27 50.54-53.27s46.92 25.12 46.92 50.54c0 5.45-.61 10.29-.9 12.41h-65.99v.01zm37.23-21.5c.6-9.08-4.24-20.58-18.16-20.58-13.62 0-19.37 10.59-19.37 20.58h37.53zM738.21 215.34c-30.87 0-52.67 18.77-52.67 53.57 0 34.81 22.1 52.05 52.67 52.05h.3c30.57 0 52.66-17.25 52.66-52.05s-21.79-53.57-52.96-53.57zm.6 83.23h-.9c-13.01 0-20.28-11.21-20.28-30.57 0-17.25 5.75-30.27 20.58-30.27h.3c14.83 0 20.58 13.02 20.58 30.27 0 19.37-7.26 30.57-20.28 30.57zM564.48 195.06v22.7h24.21v23.61h-24.21v43.58c0 7.57 3.63 11.5 12.4 11.5 4.54 0 10.9-1.22 13.93-1.81l-5.75 22.99c-4.24 1.52-11.2 3.03-19.07 3.03-10.29 0-19.07-3.32-24.21-8.78-5.75-5.75-8.17-13.32-8.17-27.85v-80.51l30.87-8.46zM605.33 291.91c6.96 3.33 16.96 6.67 26.34 6.67s14.52-2.73 14.52-7.87c0-5.15-3.93-7.86-15.43-11.8-22.1-7.56-29.06-19.37-29.06-31.47 0-20.88 16.35-32.08 41.46-32.08 11.81 0 22.4 2.42 28.76 5.45l-5.75 22.09c-4.54-2.42-13.32-5.75-22.1-5.75-7.57 0-12.4 3.03-12.4 7.87 0 3.32 1.81 5.45 6.66 7.87 2.72 1.51 6.05 2.73 9.68 3.93 8.48 3.33 13.93 5.75 18.47 9.69 6.96 6.05 10.29 13.32 10.29 22.39 0 11.2-4.24 19.07-11.49 24.51-7.27 5.15-17.86 7.57-32.09 7.57-13.32 0-25.72-3.03-33.6-6.35l5.74-22.72zM77.5 222.91c15.43-9.99 39.04-19.37 64.77-19.37 19.37 0 37.23 4.84 49.94 14.23-19.67-67.5-117.73-82.33-182.2-82.33 29.95 19.36 55.68 46.91 67.49 87.47zM107.15 332.17c-11.8.3-22.7-1.51-32.08-4.84-3.33 11.8-9.08 27.53-13.32 36.32 22.4-10.29 37.23-17.26 59.93-32.39-4.84.6-9.99.91-14.53.91zM83.55 271.64c.3-17.26-1.81-33.6-6.05-48.73-23.61 15.13-39.05 36.62-39.05 57.8 0 19.68 11.2 37.84 36.63 46.62 5.44-19.37 8.16-38.14 8.47-55.69z"/><path class="st0" d="M193.72 232.29c0-6.66-.91-10.89-1.51-14.53 9.99 7.57 18.77 19.67 18.77 36.02 0 29.05-27.55 59.31-67.5 72.33a123.14 123.14 0 01-21.79 5.15c35.1-23.61 72.03-57.5 72.03-98.97z"/></svg>