<svg version="1.1" id="Layer_1" xmlns="http://www.w3.org/2000/svg" x="0" y="0" viewBox="0 0 800 500" xml:space="preserve"><style>.st0{fill:#fff}</style><path class="st0" d="M285.26 262.66l-4.69 13.13h-.27c-.84-3.08-2.24-7.44-4.44-12.99l-25.11-62.98H226.2v100.14h16.19V238.4c0-3.8-.08-8.39-.24-13.65-.08-2.66-.38-4.79-.46-6.41h.35c.82 3.77 1.68 6.65 2.3 8.57l30.1 73.05h11.33l29.88-73.71c.68-1.68 1.4-4.96 2.06-7.91h.36c-.39 7.3-.72 13.96-.77 17.98v63.64h17.27V199.82H311l-25.74 62.84zM350.84 228.19h16.88v71.76h-16.88zM359.45 197.69c-2.78 0-5.2.95-7.19 2.82-2 1.88-3.01 4.25-3.01 7.04 0 2.75 1 5.07 2.98 6.9 1.97 1.82 4.4 2.75 7.23 2.75s5.27-.93 7.25-2.75c2-1.84 3.02-4.16 3.02-6.9 0-2.69-.99-5.04-2.93-6.96-1.96-1.92-4.43-2.9-7.35-2.9zM427.48 227.47c-3.25-.67-6.42-1.01-9.43-1.01-7.75 0-14.65 1.66-20.53 4.94s-10.44 7.96-13.54 13.92c-3.09 5.94-4.65 12.88-4.65 20.62 0 6.78 1.52 13 4.52 18.49 3.01 5.5 7.25 9.79 12.63 12.77 5.37 2.97 11.58 4.48 18.45 4.48 8.02 0 14.88-1.6 20.36-4.77l.22-.13v-15.46l-.71.52a31.47 31.47 0 01-8.26 4.29c-2.98 1.04-5.7 1.57-8.09 1.57-6.62 0-11.94-2.07-15.8-6.16-3.87-4.09-5.83-9.83-5.83-17.06 0-7.28 2.04-13.18 6.07-17.52 4.02-4.34 9.35-6.53 15.83-6.53 5.55 0 10.96 1.87 16.07 5.58l.71.51v-16.29l-.23-.13c-1.91-1.06-4.54-1.95-7.79-2.63zM483.1 226.95c-4.24 0-8.03 1.36-11.29 4.05-2.85 2.36-4.91 5.59-6.49 9.63h-.18v-12.42h-16.88v71.76h16.88v-36.71c0-6.24 1.42-11.37 4.21-15.24 2.76-3.83 6.43-5.77 10.92-5.77 1.52 0 3.23.25 5.07.74 1.83.49 3.16 1.03 3.94 1.59l.71.51v-17.01l-.27-.12c-1.58-.68-3.81-1.01-6.62-1.01zM528.94 226.46c-11.83 0-21.23 3.46-27.93 10.31-6.7 6.84-10.1 16.3-10.1 28.13 0 11.24 3.31 20.27 9.85 26.86 6.54 6.58 15.43 9.92 26.44 9.92 11.47 0 20.69-3.52 27.38-10.45 6.7-6.92 10.09-16.3 10.09-27.86 0-11.42-3.19-20.52-9.47-27.06-6.27-6.53-15.11-9.85-26.26-9.85zm13.43 55.26c-3.17 3.98-7.94 5.99-14.18 5.99-6.2 0-11.09-2.05-14.53-6.1-3.47-4.07-5.23-9.88-5.23-17.26 0-7.61 1.76-13.56 5.23-17.7 3.45-4.12 8.29-6.2 14.39-6.2 5.92 0 10.65 1.99 14.02 5.93 3.4 3.95 5.12 9.86 5.12 17.56-.01 7.79-1.63 13.77-4.82 17.78zM602.12 257.84c-5.32-2.14-8.73-3.91-10.13-5.27-1.36-1.31-2.04-3.18-2.04-5.52 0-2.09.85-3.76 2.59-5.12 1.75-1.36 4.2-2.05 7.27-2.05 2.85 0 5.76.45 8.66 1.33 2.89.88 5.43 2.06 7.56 3.5l.7.47v-15.6l-.27-.12c-1.96-.84-4.54-1.55-7.68-2.14-3.12-.58-5.96-.87-8.42-.87-8.06 0-14.71 2.06-19.8 6.11-5.12 4.09-7.72 9.44-7.72 15.92 0 3.37.56 6.37 1.67 8.9 1.11 2.55 2.83 4.79 5.11 6.68 2.26 1.86 5.75 3.82 10.38 5.81 3.89 1.6 6.79 2.95 8.64 4.03 1.8 1.04 3.08 2.1 3.8 3.12.7 1 1.06 2.37 1.06 4.07 0 4.82-3.61 7.17-11.04 7.17-2.76 0-5.9-.58-9.34-1.71-3.44-1.14-6.66-2.76-9.57-4.85l-.71-.51v16.45l.26.12c2.42 1.12 5.47 2.06 9.06 2.8s6.85 1.12 9.67 1.12c8.74 0 15.77-2.07 20.9-6.15 5.16-4.11 7.78-9.59 7.78-16.3 0-4.83-1.41-8.98-4.18-12.32-2.74-3.33-7.53-6.37-14.21-9.07zM665.93 226.46c-11.84 0-21.23 3.46-27.93 10.31-6.7 6.84-10.09 16.3-10.09 28.13 0 11.24 3.31 20.27 9.85 26.86 6.54 6.58 15.43 9.92 26.44 9.92 11.47 0 20.69-3.52 27.38-10.45 6.7-6.92 10.1-16.3 10.1-27.86 0-11.42-3.19-20.52-9.48-27.06-6.28-6.53-15.13-9.85-26.27-9.85zm13.42 55.26c-3.17 3.98-7.94 5.99-14.18 5.99-6.2 0-11.09-2.05-14.54-6.1-3.46-4.07-5.22-9.88-5.22-17.26 0-7.61 1.76-13.56 5.23-17.7 3.44-4.12 8.29-6.2 14.4-6.2 5.92 0 10.64 1.99 14.02 5.93 3.4 3.95 5.12 9.86 5.12 17.56-.02 7.79-1.64 13.77-4.83 17.78zM791.67 241.96v-13.77h-17.09v-21.41l-.58.17-16.06 4.92-.32.1v16.22H732.3v-9.04c0-4.2.94-7.42 2.8-9.57 1.84-2.12 4.47-3.2 7.83-3.2 2.41 0 4.92.57 7.43 1.7l.63.28v-14.5l-.29-.11c-2.35-.84-5.54-1.27-9.5-1.27-4.99 0-9.52 1.09-13.47 3.24-3.95 2.16-7.06 5.23-9.24 9.14-2.17 3.9-3.27 8.41-3.27 13.4v9.93h-11.9v13.77h11.9v58h17.09v-58h25.32v36.86c0 15.17 7.16 22.87 21.28 22.87 2.32 0 4.77-.27 7.26-.8 2.54-.55 4.27-1.1 5.28-1.68l.23-.13v-13.9l-.69.46c-.93.62-2.08 1.13-3.44 1.5-1.36.38-2.5.57-3.37.57-3.31 0-5.76-.89-7.28-2.65-1.54-1.78-2.31-4.88-2.31-9.22v-33.88h17.08zM9 166.37h79.41v79.41H9zM96.68 166.37h79.41v79.41H96.68zM9 254.07h79.41v79.41H9zM96.68 254.07h79.41v79.41H96.68z"/></svg>