<svg version="1.1" id="Layer_1" xmlns="http://www.w3.org/2000/svg" x="0" y="0" viewBox="0 0 800 500" xml:space="preserve"><style>.st0{fill:#fff}</style><g id="opyhqq.tif"><path class="st0" d="M727.55 185.48c15.57 0 31.14-.07 46.71.06 2.99.02 6.2.28 8.92 1.37 5.75 2.31 8.83 8.87 7.5 14.67-1.44 6.31-6.55 10.5-13.19 10.51-28.7.05-57.4.02-86.1.03-13.87 0-20.04 7.03-18.52 20.84.41 3.73 2.63 4.23 5.73 4.23 20.76-.06 41.52-.03 62.29-.03 3.66 0 7.33-.04 10.99.01 7.82.12 13.24 4.99 13.42 11.99.19 7.42-4.9 12.68-13.03 12.74-22.14.16-44.27.07-66.41.08h-1.37c-10.86 0-11.25.17-11.6 4.86-.81 11.15 3.62 18.64 11.79 19.77 1.95.27 3.96.22 5.94.22 27.48.01 54.96 0 82.44.02 1.98 0 3.98.04 5.93.33 7.51 1.11 12.45 7.07 11.9 14.26-.53 6.95-6.2 12.2-13.54 12.28-9.01.1-18.01.03-27.02.03-22.14 0-44.27.01-66.41 0-22.77-.02-38.6-13.98-39.57-36.71-.84-19.64-.51-39.39.44-59.03.82-16.87 16.44-31.6 33.3-32.13 16.47-.52 32.97-.11 49.45-.11.01-.1.01-.19.01-.29zM255.92 185.48c15.57 0 31.15-.05 46.72.05 2.7.02 5.57.21 8.07 1.11 5.8 2.08 9.29 8.5 8.25 14.29-1.17 6.53-6.41 11.15-13.12 11.17-28.7.06-57.41.03-86.11.04-13.87 0-18.89 5.28-18.78 19.24.03 4.36 1.68 5.88 6.01 5.86 24.27-.13 48.55-.09 72.83-.04 8.25.02 13.8 5.25 13.67 12.69-.1 6.11-4.46 11.11-10.57 11.82-2.87.33-5.79.28-8.69.29-21.99.02-43.97-.01-65.96.03-6.75.01-7.22.55-7.23 7.37-.02 12.32 5.12 17.46 17.51 17.46 28.09.01 56.19.02 84.28-.01 6.36-.01 11.85 1.58 14.88 7.76 4.43 9.02-2.05 19.06-12.45 19.13-16.49.11-32.98.03-49.47.03-14.66 0-29.31.01-43.97 0-22.09-.03-38.09-13.61-39.23-35.59-1.05-20.23-.65-40.61.47-60.85.93-16.72 16.6-30.94 33.41-31.46 16.47-.51 32.97-.11 49.46-.11.01-.1.01-.19.02-.28zM407.63 185.64c17.25 0 34.51-.08 51.76.04 5.97.04 10.74 3.78 12.43 9.09 1.65 5.19.17 11.44-4.45 14.31-2.91 1.81-6.76 2.93-10.19 2.96-30.69.22-61.38.1-92.07.17-3.17.01-7.51-1.19-8.24 3.5-.69 4.46 3.79 4.6 6.56 5.58 30.72 10.9 61.49 21.65 92.23 32.5 14.29 5.05 22.21 15.78 22.13 29.71-.08 13.1-8.06 24.47-20.42 28.5-3.41 1.11-7.16 1.66-10.75 1.68-32.52.13-65.04.08-97.57.07-9.14 0-14.91-4.97-15.11-12.92-.21-8.25 5.4-13.83 14.67-13.92 17.56-.17 35.12-.06 52.68-.06 14.05 0 28.09 0 42.14-.01 2.6 0 5.58.33 6.1-3.23.5-3.44-2.31-4.18-4.8-5.06-31.74-11.19-63.46-22.44-95.21-33.59-13.9-4.88-21.7-16.61-20.93-31.83.63-12.55 10.22-23.76 23.23-26.75 3.22-.74 6.66-.75 10-.76 15.27-.07 30.54-.03 45.81-.03v.05zM9.78 245.38c0-18.32.07-36.65-.06-54.97-.02-3.5 1.07-4.97 4.67-4.96 34.96.08 69.94-.29 104.89.23 22.01.33 37.08 15.94 37.4 38.02.36 25.19.15 50.39.05 75.58-.03 8.03-4.99 14.16-11.84 15.29-7.27 1.2-14.1-2.7-16.23-9.56-.66-2.13-.71-4.5-.72-6.76-.05-22.9-.02-45.81-.04-68.71-.01-11.81-5.58-17.4-17.38-17.41-21.68-.02-43.36-.01-65.04 0-6.34 0-6.83.49-6.83 6.73-.01 26.57.02 53.14-.02 79.7-.02 9.19-5.52 15.7-13.43 16.1-8.8.46-15.35-5.51-15.39-14.33-.09-18.3-.03-36.63-.03-54.95zM561.51 185.5c20.76 0 41.52-.06 62.28.02 7.98.03 13.05 3.52 14.79 9.75 2.33 8.33-3.8 16.72-12.57 16.82-14.19.15-28.39.04-42.58.05-7.22.01-7.69.49-7.69 7.88-.01 26.86.03 53.73-.05 80.59-.02 6.79-4.8 12.55-11.09 13.9-6.68 1.43-13.77-1.91-16.2-8.18-1.07-2.75-1.44-5.93-1.45-8.92-.11-26.1-.06-52.2-.07-78.3 0-6.53-.43-6.96-7.07-6.97-13.58-.01-27.17.01-40.75-.01-9.04-.01-14.76-5.11-14.83-13.13-.07-8.1 5.4-13.39 14.55-13.45 20.91-.14 41.82-.05 62.73-.05z"/></g></svg>