<svg version="1.1" id="Layer_1" xmlns="http://www.w3.org/2000/svg" x="0" y="0" viewBox="0 0 800 500" xml:space="preserve"><style>.st0{fill:none}.st1{fill-rule:evenodd;clip-rule:evenodd;fill:#fff}</style><path class="st0" d="M382.09 310.62c.31.04.62.11.92.11 11.94-.01 23.88-.02 35.81-.04.54 0 1.08-.06 1.84-.11V246.7c.54.28.83.37 1.04.56 4.3 3.8 8.6 7.6 12.87 11.43 4.45 4 8.86 8.06 13.31 12.06 6.11 5.5 12.24 10.98 18.35 16.48 2.6 2.33 5.18 4.7 7.78 7.03 5.66 5.06 11.36 10.08 16.98 15.19.95.86 1.83 1.3 3.13 1.3 16.71-.03 33.42-.01 50.14-.02.71 0 1.42-.07 2.56-.12-3.65-3.1-6.92-5.92-10.25-8.69-6.36-5.28-12.77-10.51-19.12-15.8-5.64-4.7-11.23-9.47-16.86-14.17-6.54-5.45-13.11-10.87-19.67-16.29-3.31-2.74-6.57-5.54-9.95-8.19-2.22-1.73-2.26-2.44-.05-4.21 4.03-3.21 8-6.48 11.96-9.76 5.37-4.44 10.68-8.94 16.05-13.37 5.42-4.47 10.88-8.88 16.3-13.33 5.49-4.5 10.97-8.99 16.43-13.51 1.98-1.63 3.9-3.33 6.04-5.15-.56-.13-.74-.21-.91-.21-16.21 0-32.42-.01-48.63.04-.66 0-1.43.39-1.94.84-3.79 3.33-7.53 6.72-11.31 10.09-5.52 4.92-11.06 9.84-16.59 14.76-2.57 2.28-5.12 4.58-7.69 6.86-5.18 4.58-10.38 9.13-15.54 13.72-4.01 3.57-7.98 7.19-11.98 10.75-.69.61-1.52 1.05-2.57 1.77V188.1c-.73-.15-1.33-.39-1.94-.39-8.09.05-16.19.13-24.28.2-4.08.03-8.16.07-12.24.11-.13.55-.39 1.11-.39 1.66-.02 39.76-.02 79.51 0 119.26 0 .57.26 1.12.4 1.68zm-16.56-92.17c-.23-2.35-.32-4.73-.71-7.05-1.67-10-7.42-16.89-16.46-21.17-4.46-2.11-9.23-2.97-14.07-3.29-8.99-.6-18-1.44-27-1.39-23.07.12-46.15-.89-69.2.85-6.18.46-12.31 1.04-18.05 3.52-7.38 3.18-12.82 8.35-15.72 16.01-2.24 5.9-2.58 12.06-2.6 18.25-.04 16.02-.07 32.04.02 48.06.02 4.31.29 8.64.78 12.93 1.42 12.33 9.75 21.13 21.32 24.47 8.2 2.37 16.65 2.74 25.07 2.81 21.23.16 42.47.18 63.7-.01 8.24-.08 16.52-.55 24.72-1.46 8.5-.95 16.02-4.23 21.69-11.15 4.8-5.88 6.4-12.65 6.52-19.99.11-.59.32-1.17.32-1.76.05-17.52.09-35.05.09-52.57-.01-2.37-.28-4.72-.42-7.06zm228.58 92.17v-.99c.01-38.77.01-77.54.02-116.31 0-1.44.06-2.9-.09-4.33-.04-.4-.72-1.06-1.12-1.06-11.81-.04-23.63.05-35.44-.07-1.86-.02-2.12.46-2.12 2.09.03 38.46.02 76.91.01 115.37v5.3h38.74z"/><path class="st1" d="M789 310.6c-1.69.04-10.26.13-11.94.13-10.37 0-20.74-.03-31.1.01-1.27.01-1.92-.31-2.56-1.52-3.21-6.11-6.6-12.13-9.85-18.23-.67-1.26-1.43-1.77-2.9-1.76-23.51.05-47 .1-70.5-.05-2.93-.02-4.41.75-5.67 3.41-2.73 5.72-5.87 11.25-8.93 16.81-.34.61-1.27 1.25-1.95 1.26-13.57.07-27.15.05-40.72.04-.12 0-.24-.06-.64-.15 1.01-1.86 1.98-3.67 2.99-5.47 4.65-8.28 9.29-16.57 13.97-24.83 5.97-10.54 11.96-21.07 17.93-31.61 5.89-10.42 11.78-20.86 17.65-31.29 5.24-9.31 10.48-18.63 15.66-27.98.59-1.06 1.22-1.48 2.47-1.48 15.15.05 30.29.04 45.43.01 1.15 0 1.76.34 2.34 1.37 5.86 10.46 11.8 20.88 17.69 31.33 4.23 7.52 8.39 15.07 12.63 22.59 4.71 8.35 9.47 16.65 14.18 24.99 3.57 6.33 7.08 12.68 10.64 19.01 2.07 3.67 12.96 23.62 13.18 23.41zm-69.89-47.82c-8.27-15.12-16.34-29.88-24.61-45.03-8.33 15.25-16.39 30.03-24.58 45.03h49.19zM9.57 310.58c.02-1.25.02-80.2.02-117.1 0-1.57 0-3.15.08-4.72.02-.3.44-.57.67-.86 20.68.01 41.34.03 62.02 0 1.27 0 2.07.29 2.93 1.38 6.19 7.84 12.51 15.6 18.81 23.37 6.54 8.07 13.12 16.1 19.65 24.18 5.12 6.33 10.18 12.72 15.3 19.05 5.64 6.96 11.33 13.88 16.99 20.81.84 1.02 1.66 2.04 2.5 3.06.15-.07.3-.13.45-.2v-91.53h37.04V310.7h-2.41c-19.79 0-39.59 0-59.38.03-1.03 0-1.61-.31-2.29-1.15-7.25-9.02-14.62-17.96-21.91-26.96-7.7-9.51-15.35-19.07-23.05-28.59-6.14-7.59-12.35-15.13-18.5-22.71-3.49-4.3-6.92-8.64-10.39-12.95-.29-.36-.69-.64-1.4-1.27v93.52c-.52.05-.82.09-1.12.09H11.27c-.57-.01-1.14-.09-1.7-.13zM365.53 279.82c-.12 7.33-1.71 14.11-6.52 19.99-5.66 6.92-13.19 10.2-21.69 11.15-8.2.91-16.47 1.39-24.72 1.46-21.23.2-42.47.17-63.7.01-8.42-.07-16.87-.44-25.07-2.81-11.57-3.34-19.89-12.14-21.32-24.47-.49-4.28-.76-8.61-.78-12.93-.09-16.02-.07-32.04-.02-48.06.02-6.19.36-12.34 2.6-18.25 2.9-7.66 8.33-12.83 15.72-16.01 5.74-2.47 11.87-3.05 18.05-3.52 23.05-1.74 46.13-.73 69.2-.85 8.99-.05 18.01.78 27 1.39 4.84.32 9.61 1.18 14.07 3.29 9.05 4.28 14.79 11.16 16.46 21.17.38 2.33.48 4.7.71 7.05.01 20.47.01 40.93.01 61.39zm-47.19-63.17c-.66-.1-1.33-.3-1.98-.3-21.8-.02-43.6-.02-65.39 0-.66 0-1.32.2-1.98.31-1.5.14-3 .25-4.49.43-4.68.55-6.97 2.82-7.51 7.43-.13 1.06-.23 2.12-.23 3.18-.01 14.2-.02 28.39.01 42.59 0 1.43.06 2.9.33 4.3.59 3.1 2.13 5.58 5.48 6.1 3.08.47 6.21.79 9.31.8 21.55.07 43.1.05 64.64.02 2.43-.01 4.88-.2 7.29-.51 3.91-.49 6.21-2.8 6.73-6.64.25-1.8.38-3.61.39-5.43.03-13.38.03-26.76-.01-40.14 0-1.8-.22-3.62-.52-5.4-.6-3.58-2.73-5.67-6.3-6.19-1.9-.28-3.84-.38-5.77-.55zM382.08 188.03c4.08-.04 8.16-.07 12.24-.11 8.09-.08 16.19-.16 24.28-.2.61-.01 1.21.24 1.94.39v58.66c1.05-.72 1.89-1.16 2.57-1.77 4.01-3.56 7.97-7.19 11.98-10.75 5.16-4.59 10.36-9.14 15.54-13.72 2.56-2.28 5.12-4.58 7.69-6.86 5.53-4.92 11.07-9.83 16.59-14.76 3.77-3.36 7.51-6.76 11.31-10.09.52-.45 1.29-.84 1.94-.84 16.21-.05 32.42-.04 48.63-.04.17 0 .35.08.91.21-2.14 1.83-4.06 3.52-6.04 5.15-5.46 4.52-10.95 9.01-16.43 13.51-5.43 4.45-10.89 8.86-16.3 13.33-5.37 4.43-10.68 8.92-16.05 13.37-3.96 3.28-7.93 6.55-11.96 9.76-2.22 1.77-2.17 2.48.05 4.21 3.38 2.65 6.64 5.45 9.95 8.19 6.56 5.43 13.13 10.84 19.67 16.29 5.63 4.7 11.22 9.48 16.86 14.17 6.35 5.29 12.76 10.52 19.12 15.8 3.33 2.77 6.6 5.59 10.25 8.69-1.13.05-1.84.12-2.56.12-16.71 0-33.43-.02-50.14.02-1.3 0-2.18-.44-3.13-1.3-5.62-5.11-11.32-10.13-16.98-15.19-2.6-2.33-5.18-4.69-7.78-7.03-6.12-5.5-12.25-10.97-18.35-16.48-4.45-4.01-8.85-8.06-13.31-12.06-4.27-3.83-8.57-7.63-12.87-11.43-.22-.19-.51-.28-1.04-.56v63.88c-.76.05-1.3.11-1.84.11-11.94.02-23.88.03-35.81.04-.31 0-.62-.07-.92-.11-.01-14.33-.01-28.65-.01-42.97-.01-26.55 0-53.09 0-79.63zM594.11 310.62h-38.73v-5.3c0-38.46.02-76.91-.01-115.37 0-1.64.26-2.11 2.12-2.09 11.81.12 23.63.03 35.44.07.39 0 1.08.66 1.12 1.06.15 1.43.09 2.88.09 4.33 0 38.77-.01 77.54-.02 116.31-.01.24-.01.49-.01.99z"/><path class="st0" d="M719.11 262.78h-49.2c8.19-15 16.25-29.78 24.58-45.03 8.28 15.14 16.35 29.9 24.62 45.03zM318.34 216.65c1.93.18 3.87.27 5.79.56 3.56.52 5.7 2.61 6.3 6.19.29 1.79.51 3.6.52 5.4.04 13.38.04 26.76.01 40.14a41.19 41.19 0 01-.39 5.43c-.53 3.85-2.83 6.15-6.73 6.64-2.41.31-4.86.5-7.29.51-21.55.04-43.09.05-64.64-.02-3.11-.01-6.24-.33-9.31-.8-3.36-.51-4.9-3-5.48-6.1-.27-1.4-.32-2.87-.33-4.3-.03-14.2-.02-28.39-.01-42.59 0-1.06.1-2.12.23-3.18.54-4.62 2.84-6.88 7.51-7.43 1.48-.17 2.99-.28 4.49-.43.69.02 1.38.05 2.07.05h62.96c1.42-.01 2.86-.05 4.3-.07z"/></svg>