<svg version="1.1" id="Layer_1" xmlns="http://www.w3.org/2000/svg" x="0" y="0" viewBox="0 0 800 500" xml:space="preserve"><style>.st0{fill:#fff}</style><g id="xuOAwc.tif"><path class="st0" d="M507.99 167.7c.15.36.19 3.75.19 5.8-.19 51.01-.48 102.01-.76 153.01 0 .8-.23 1.6-.44 2.97h-23.17c-.24-3.94-.5-8.12-.85-13.73-12.99 13.07-27.96 17.68-45.2 16.25-17.15-1.42-31.17-8.77-42.51-21.3-20-22.1-21.24-57.15-3.19-81.07 20.82-27.59 51.53-32.69 90.31-14.29v-48c8.15 0 17.48.36 25.62.36zm-27.06 99.67c-.09-20.83-17.19-37.87-37.87-37.74-20.57.13-37.52 17.49-37.38 38.29.13 20.16 17.59 37.29 37.69 36.98 21.81-.34 37.65-16.17 37.56-37.53zM118.84 182.06h27.39v148.59c-7.77 0-15.32.51-22.74-.27-2.63-.28-5.3-3.38-7.33-5.74-24.59-28.55-49.06-57.2-73.57-85.82-2.01-2.35-4.1-4.62-7.78-8.76v99.43H6V181.88c8.68 0 25.21.12 26.78.23 0 0 55.9 63.83 79.94 92.14 1.57 1.85 3.23 3.62 6.12 6.86v-99.05zM654.63 261.18c-32.34 8.93-64.28 17.75-96.42 26.62 15.1 27.69 48.76 26.9 68.43-1.27 7.46 2.25 15.12 4.56 22.76 6.86-4.91 22.78-37.14 42.55-64.19 39.72-34.11-3.57-59.27-30.77-59.3-64.11-.03-34.73 24.18-61.85 58.88-64.89 41.18-3.6 65.5 26.54 69.84 57.07zm-31.37-15.03c-10.7-17.72-28.27-23.76-45.63-16.76-15.95 6.43-26.74 22.28-23.8 35.72 22.88-6.25 45.74-12.49 69.43-18.96zM794.91 330.26h-23.82c-.27-5.73-.52-10.96-.77-16.31-5.97 4.52-11.01 9.58-17.05 12.69-29.19 15.03-68.13-.94-81.6-33.04-10.49-24.98-4.93-52.45 14.54-71.91 17.46-17.46 46.22-23.06 69.45-13.52 24.47 10.05 39.23 32.64 39.25 60.12.01 17.91 0 35.82 0 53.73v8.24zm-63.29-25.39c21.71-.53 37.62-16.69 37.31-37.92-.3-20.56-18.12-37.86-38.46-37.35-21.17.54-37.46 18.04-36.8 39.54.61 19.85 17.98 36.21 37.95 35.73zM293.91 268.46c-.04 35.14-28.5 63.91-63.31 63.98-37.15.08-65.83-28.3-65.75-65.06.08-35.64 29.09-64.24 65.06-64.14 35.47.1 64.04 29.22 64 65.22zm-101.69-.99c-.06 21 16.65 38.04 37.26 38 20.18-.03 37.32-16.99 37.6-37.18.29-20.83-16.88-37.61-38.51-37.63-20.07-.02-36.29 16.41-36.35 36.81zM338.59 329.77h-26.68v-122.3h25.92c.34 3.99.68 7.87 1.14 13.21 9.4-12.23 20.81-17.62 35.47-17.06v24.87c-1.73.42-3.5.83-5.25 1.27-20.33 5.12-29.96 17.26-30.17 38.51-.17 18.18-.03 36.37-.06 54.55 0 2.13-.22 4.24-.37 6.95z"/></g></svg>