<?xml version="1.0" encoding="UTF-8" standalone="no"?>
<svg
   xmlns:dc="http://purl.org/dc/elements/1.1/"
   xmlns:cc="http://creativecommons.org/ns#"
   xmlns:rdf="http://www.w3.org/1999/02/22-rdf-syntax-ns#"
   xmlns:svg="http://www.w3.org/2000/svg"
   xmlns="http://www.w3.org/2000/svg"
   viewBox="0 0 158.97333 78.080002"
   height="78.080002"
   width="158.97333"
   xml:space="preserve"
   id="svg2"
   version="1.1"><metadata
     id="metadata8"><rdf:RDF><cc:Work
         rdf:about=""><dc:format>image/svg+xml</dc:format><dc:type
           rdf:resource="http://purl.org/dc/dcmitype/StillImage" /></cc:Work></rdf:RDF></metadata><defs
     id="defs6" /><g
     transform="matrix(1.3333333,0,0,-1.3333333,0,78.08)"
     id="g10"><g
       transform="scale(0.1)"
       id="g12"><path
         id="path14"
         style="fill:#ffffff;fill-opacity:1;fill-rule:nonzero;stroke:none"
         d="m 1141.84,165.188 45.68,106.089 h -34.78 l -21.25,-50.625 c -2.55,-6.492 -4.94,-12.617 -7.74,-19.961 -3.06,7.247 -5.68,13.293 -8.6,19.247 l -21.26,50.109 -0.52,1.23 h -35.56 l 44.37,-106.746 -47.91,-108.2537 -1.27,-2.832 h 37.03 l 22.3,52.6717 c 3.21,7.645 6.39,15.598 9.4,23.262 3.32,-8.426 6.25,-15.434 9.49,-22.727 l 22.86,-52.0036 0.54,-1.2031 h 37.66 z M 808.094,271.285 H 773.27 V 53.4727 h 105.492 v 31.0937 h -70.668 z m 143.359,-122.59 h 54.907 v 31.118 h -54.907 v 59.71 h 68.647 v 31.774 H 916.66 V 53.457 h 107.25 v 31.7422 h -72.457 z m -295.308,0 h 54.894 v 31.118 h -54.894 v 59.71 h 68.632 v 31.774 H 621.336 V 53.457 H 728.59 v 31.7422 h -72.445 z m -150.344,93.293 c -3.024,0 -11.805,0.117 -15.817,0.18 v -69.305 h 13.411 c 1.144,-0.078 2.117,-0.109 3.074,-0.109 8.164,0 15.133,2.715 20.129,7.859 6.164,6.352 9.238,16.024 8.898,27.992 -0.644,23.165 -9.531,33.141 -29.695,33.383 z m 33.554,-89.312 33.723,-99.2307 h -36.176 l -30.066,90.9257 c -1.402,-0.058 -2.559,-0.262 -4.059,-0.262 H 489.984 V 53.4453 h -34.82 V 271.23 H 504 c 24.016,0 39.594,-4.718 50.504,-15.312 10.699,-11.023 16.117,-25.977 16.117,-44.492 0,-26.809 -9.937,-46.692 -28.711,-57.504 -0.812,-0.43 -1.722,-0.824 -2.555,-1.246 z M 273.18,354.398 C 209.441,315.887 166.805,246.063 166.805,166.133 c 80.855,0 151.363,43.621 189.636,108.597 3.961,6.809 6.606,15.176 5.274,23.559 -1.313,8.402 -3.184,11.234 -8.145,17.637 -11.547,14.933 -25.113,28.203 -40.215,39.457 -5.105,3.812 -13.71,5.219 -19.671,5.219 h -1.129 c -5.977,-0.188 -11.938,-1.668 -19.375,-6.204 z M 23.3867,89.0547 C 19.0547,83.5586 17.0586,78.7266 16.7969,73.2109 16.5,67.6797 17.7031,62.4766 21.0742,58.0742 32.1758,43.6953 45.0938,30.7773 59.5313,19.7852 63.75,16.582 68.0977,15.082 72.8906,14.918 c 4.793,-0.2032 8.9375,1.7187 13.3633,4.957 40.6211,30.0742 66.9731,78.1523 66.9731,132.617 -52.782,0 -99.6372,-24.871 -129.8403,-63.4373 z M 261.016,3.53516 C 265.18,1.64844 269.324,0.128906 273.23,0 h 0.872 c 0.148,0 0.296,0 0.445,0.0351563 4.273,0.2421877 10.101,1.7226537 14.414,4.1093737 8.809,4.92578 16.191,8.32817 24.172,14.43747 3.644,2.7735 7.051,6.6055 8.328,12.6953 0.961,4.7188 0.516,10.1602 -1.352,15.1563 -23.132,63.2184 -82.82,106.0584 -154.011,106.0584 0,-66.6404 38.105,-122.8631 94.918,-148.95684 z M 34.4961,323.535 c 2.4258,0 4.9219,-0.648 7.6602,-1.574 C 107.191,299.773 153.938,238.352 153.938,165.859 84.9453,165.859 25.9648,208.258 1.27734,268.348 0.5,270.328 0.09375,272.66 0,275.012 v 0.926 c 0.0195313,0.515 0.0546875,1.035 0.109375,1.554 0.242188,3.164 1.316405,5.516 3.054685,8.735 5.86719,11.101 12.75004,21.523 20.48824,31.293 2.1446,2.722 4.5157,4.777 7.8438,5.644 0.9844,0.223 1.9648,0.371 3,0.371" /></g></g></svg>