<svg version="1.1" id="Layer_1" xmlns="http://www.w3.org/2000/svg" x="0" y="0" viewBox="0 0 800 500" xml:space="preserve"><style>.st0{fill:#fff}</style><path class="st0" d="M40.89 264.97v-14.28h39.17v-30.13l80.7 15.86v14.28H121.6v30.13l-80.71-15.86zm145.45 69.09v-169.1H15.38v169.1h170.96zM410.31 220.86l-23.24 64.04h13.01l3.86-11.33h22.7l3.77 11.33h13.01l-23.33-64.04h-9.78zm-2.87 42.18l8.08-23.29 7.8 23.29h-15.88z"/><g><path class="st0" d="M286.13 247.48l-7.63-1.17c-2.69-.36-4.58-1.26-5.83-2.43-1.35-1.26-1.79-2.88-1.79-4.59 0-4.41 3.14-8.09 9.78-8.09 4.22 0 9.15.54 13.1 4.41l7.9-7.83c-5.47-5.3-11.84-7.46-20.64-7.46-13.82 0-22.25 8.01-22.25 19.43 0 5.4 1.53 9.62 4.58 12.59 2.87 2.79 6.73 4.5 12.38 5.31l7.62 1.17c3.23.45 4.49.99 5.74 2.16 1.35 1.35 1.97 3.15 1.97 5.31 0 5.13-3.95 8-11.39 8-5.83 0-11.31-1.35-15.34-5.4l-8.07 8.09c6.28 6.39 13.64 8.45 23.33 8.45 13.46 0 23.69-7.02 23.69-19.43 0-5.76-1.52-10.34-4.93-13.49-2.8-2.69-6.39-4.22-12.22-5.03M347.14 255.49l-16.68-34.63h-12.3v64.04h12.48v-37.33l12.29 24.29h8.43l12.2-24.29v37.33h12.47v-64.04h-12.29zM637.91 246.67l-11.93-25.81h-13.55l19.2 37.77v26.27h12.38v-26.27l19.2-37.77h-13.55zM703.74 220.86h12.47v64.04h-12.47zM670.8 271.59h13.37v13.31H670.8zM772.73 227.06c-4.31-4.32-9.69-6.74-17.05-6.74s-12.83 2.43-17.14 6.74c-6.37 6.39-6.46 13.58-6.46 25.81 0 12.23.09 19.43 6.46 25.81 4.31 4.32 9.78 6.75 17.14 6.75s12.74-2.43 17.05-6.75c6.37-6.39 6.55-13.58 6.55-25.81 0-12.22-.18-19.42-6.55-25.81m-9.06 43.72c-1.79 2.07-4.58 3.51-7.99 3.51s-6.19-1.44-8.07-3.51c-2.33-2.7-3.05-5.67-3.05-17.9 0-12.23.72-15.29 3.05-17.99 1.88-2.07 4.67-3.42 8.07-3.42 3.41 0 6.19 1.35 7.99 3.42 2.33 2.7 3.14 5.76 3.14 17.99 0 12.23-.81 15.2-3.14 17.9M500.21 240.47c0-10.7-7.72-19.61-20.72-19.61h-25.03v64.04h12.47v-25.54h8.97l12.47 25.54h14.44l-14.26-27.61c6.18-2.25 11.66-7.83 11.66-16.82m-21.54 8.45h-11.75v-16.91h11.75c5.47 0 9.06 3.51 9.06 8.46.01 4.94-3.58 8.45-9.06 8.45M511.51 232.01h16.69v52.89h12.47v-52.89h16.69v-11.15h-45.85zM583.11 220.86h-12.47v64.04h41.45v-11.15h-28.98z"/></g></svg>