<svg version="1.1" id="Layer_1" xmlns="http://www.w3.org/2000/svg" x="0" y="0" viewBox="0 0 800 500" xml:space="preserve"><style>.st0{fill:#fff}</style><g id="BS0ETu.tif"><path class="st0" d="M4.62 227.79c1.36-3.36 1.35-7.01 2.22-10.48 5.09-20.46 16.25-37.33 30.84-52.12 20.86-21.14 45.81-36.09 72.96-47.61 24.51-10.4 50.01-17.26 76.46-20.28 20.51-2.34 41.03-2.88 61.17 3.05 14.58 4.3 27.06 11.72 36.78 23.74 5.08 6.28 5.67 13.11 4.42 20.44-2.15 12.6-8.84 22.99-16.69 32.68-17.03 21.03-38.29 37.12-61.14 51.15-36.28 22.28-74.87 39.43-116.04 50.52-15.49 4.17-31.25 6.95-47.38 6.3-11.42-.46-22.43-2.57-31.77-9.91-3.46-2.72-6.04-5.9-7.16-10.29-1.58-6.17-3.22-12.32-4-18.66-.07-.54-.05-1.11-.67-1.37v-17.16zM142.62 404.74c-2.12-1.23-4.58-1.14-6.87-1.69-17.71-4.27-32.74-13.61-46.83-24.71-4.65-3.66-9.04-7.64-13.67-11.57 1.72-.76 2.71.32 3.82.87 12.69 6.26 26.16 7.91 40.03 6.23C158.59 369.1 193.11 352 225.45 330c21.95-14.92 40.33-33.53 54.19-56.36.16-.27.39-.5.63-.8.72.8.08 1.43-.15 2.04-13.73 36.5-33.34 69.23-61.92 96.13-14.54 13.69-30.69 24.94-50.09 30.79-3.82 1.15-7.75 1.96-11.63 2.93-4.62.01-9.24.01-13.86.01z"/><path class="st0" d="M298.23 164.19c.67 10.93.34 21.92-.64 32.87-1.24 13.91-3.32 27.71-6.54 41.31-2 8.46-6.64 15.72-11.28 22.87-13.86 21.36-32.16 38.35-53.12 52.47-28.01 18.88-57.72 34.42-90.38 43.76-12.83 3.67-25.92 5.7-39.28 4.97-15.08-.83-28.95-5.42-40.21-15.72-6.23-5.69-10.85-12.97-15.77-19.86-6.74-9.44-12.74-19.34-18.24-29.57 1.07-.45 1.65.37 2.28.91 10.4 8.96 22.85 12.17 36.17 12.74 20.67.89 40.55-3.54 59.96-9.97 41.36-13.7 80.77-31.46 115.97-57.58 19.45-14.43 37.04-30.76 49.95-51.55 5.29-8.5 9.2-17.61 11.13-27.65zM766.83 325.63c-.62 1.29-1.13 2.39-1.67 3.46-3.54 6.97-9.12 10.59-17.02 11.09-29.81 1.88-56.46-19.8-60.91-49.74-4.6-30.93 13.69-59.72 43.42-68.03 13.55-3.79 26.77-2.83 39.32 3.92 1.74.93 3.07 1.02 4.81-.03 4.61-2.78 9.64-4.21 15.09-3.85 4.7.32 7.04 2.69 7.04 7.32.01 29.48.1 58.97-.06 88.45-.04 7.54-2.99 14.19-8.7 19.27-4.43 3.94-8.54 3.75-12.96-.15-1.82-1.61-3.47-3.39-4.77-5.44-1.22-1.96-2.29-4-3.59-6.27zm-.32-45.61c0-8.02-.01-16.04.01-24.07 0-1.22.05-2.3-1.35-3.01-11.23-5.68-29.5-7.01-40.94 5.93-10.19 11.52-10.42 29.95-.57 41.82 11.35 13.68 28.98 13.27 41.25 6.29 1.57-.89 1.62-2.08 1.62-3.56-.04-7.8-.02-15.6-.02-23.4zM519.29 292.25c-10.78 0-21.57-.01-32.35 0-3.7 0-3.74.08-2.46 3.7 4.76 13.45 19.1 21.92 33.6 20.03 6.96-.91 13.45-3.17 19.72-6.17 3.89-1.86 7.84-3.46 12.2-3.79 6.01-.46 9.03 2.41 8.41 8.39-.9 8.69-4.41 15.66-12.71 19.81-25.42 12.7-53.82 11.55-74.83-9.75-32.4-32.84-17.88-89.86 26.03-102.16 29.72-8.32 59.38 7.61 67.27 36.23 1.89 6.84 2.63 13.82 1.08 20.87-.65 2.94-2.05 5.54-3.76 8-2.32 3.32-5.4 4.91-9.52 4.87-10.89-.1-21.78-.04-32.68-.03zm-8.79-23.42h24.42c.11 0 .22-.01.33 0 1.93.28 2.53-.55 2.23-2.43-.53-3.3-1.6-6.38-3.42-9.2-5.88-9.14-16.4-13.16-28.65-10.97-10.6 1.9-19.25 10.11-21.6 20.25-.48 2.06.06 2.39 1.94 2.37 8.24-.06 16.49-.02 24.75-.02z"/><path class="st0" d="M396.99 267.06c0-17.49-.08-34.98.08-52.47.03-3.02-.89-3.63-3.7-3.57-8.58.18-17.16-.04-25.74.11-4.42.08-7.89-1.56-10.77-4.74-2.6-2.88-4.64-6.12-6.24-9.65-1.86-4.09-1.15-7.75 1.94-10.89 5.09-5.15 11.35-8.13 18.55-8.16 32.12-.15 64.24-.1 96.36-.04 5.73.01 8.55 2.95 8.46 8.65-.12 7.75-2.71 14.63-7.85 20.48-2.62 2.98-5.92 4.37-9.92 4.33-8.36-.07-16.72.12-25.08-.1-3.07-.08-4.04.57-4.02 3.88.14 33.11.07 66.22.1 99.33.01 8-2.23 15.17-7.4 21.33-5.14 6.12-11.5 6.39-16.97.55-5.02-5.36-8.09-11.39-7.91-19.2.37-16.61.11-33.23.11-49.84zM613.89 243.9c0 19.14.08 38.28-.06 57.43-.03 4.67 1.24 8.11 5.77 10.03 2.61 1.1 3.63 3.38 3.67 6.13.08 6.25-1.75 11.92-5.41 16.97-4.01 5.53-7.97 6.91-14.63 5.26-11.56-2.86-20.03-14.14-20.11-27.06-.09-16.28-.02-32.56-.03-48.85 0-23.87.03-47.75-.03-71.62-.01-3.56 1.14-6.46 3.77-8.76 5.61-4.91 12.07-7.53 19.61-7.13 4.52.24 6.84 2.41 7.35 6.88.14 1.2.1 2.42.1 3.63v57.09zM670.79 274.34c0 13.75.01 27.5-.01 41.25-.01 6.78-1.81 13.04-5.82 18.55-5.74 7.88-12.08 8.17-18.46.89-4.26-4.86-6.63-10.25-6.57-17.03.25-26.18.19-52.36.03-78.54-.03-5.31 2.01-9.01 6.24-11.9 4.95-3.38 10.3-5.34 16.36-5.16 5.69.16 8.19 2.61 8.21 8.39.05 14.51.02 29.03.02 43.55zM672.79 182.92c-.5 7.13-2.99 14.92-9.42 20.99-5.19 4.9-10.55 4.82-15.72-.09-3.55-3.37-6.13-7.42-8.15-11.85-1.87-4.09-1.13-7.8 1.88-10.91 6.29-6.5 14.11-9.58 23.11-9.16 5.9.26 8.38 3.38 8.3 11.02z"/></g></svg>