<?xml version="1.0" encoding="UTF-8" standalone="no"?>
<svg
   xmlns:dc="http://purl.org/dc/elements/1.1/"
   xmlns:cc="http://creativecommons.org/ns#"
   xmlns:rdf="http://www.w3.org/1999/02/22-rdf-syntax-ns#"
   xmlns:svg="http://www.w3.org/2000/svg"
   xmlns="http://www.w3.org/2000/svg"
   xmlns:sodipodi="http://sodipodi.sourceforge.net/DTD/sodipodi-0.dtd"
   xmlns:inkscape="http://www.inkscape.org/namespaces/inkscape"
   viewBox="0 0 800 500"
   height="500"
   width="800"
   xml:space="preserve"
   id="svg2"
   version="1.1"
   sodipodi:docname="UPM_Company-Logo_PMS.svg"
   inkscape:version="0.92.2 5c3e80d, 2017-08-06"><sodipodi:namedview
     pagecolor="#ffffff"
     bordercolor="#666666"
     borderopacity="1"
     objecttolerance="10"
     gridtolerance="10"
     guidetolerance="10"
     inkscape:pageopacity="0"
     inkscape:pageshadow="2"
     inkscape:window-width="885"
     inkscape:window-height="614"
     id="namedview14"
     showgrid="false"
     inkscape:zoom="2.0813539"
     inkscape:cx="28.3468"
     inkscape:cy="34.013731"
     inkscape:window-x="0"
     inkscape:window-y="0"
     inkscape:window-maximized="0"
     inkscape:current-layer="svg2" /><metadata
     id="metadata8"><rdf:RDF><cc:Work
         rdf:about=""><dc:format>image/svg+xml</dc:format><dc:type
           rdf:resource="http://purl.org/dc/dcmitype/StillImage" /><dc:title /></cc:Work></rdf:RDF></metadata><defs
     id="defs6"><clipPath
       id="clipPath18"
       clipPathUnits="userSpaceOnUse"><path
         id="path16"
         d="M 0,85.041 H 85.04 V 0 H 0 Z"
         inkscape:connector-curvature="0" /></clipPath></defs><g
     transform="matrix(9,0,0,-9,8,650)"
     id="g10"><g
       id="g12"><g
         clip-path="url(#clipPath18)"
         id="g14"><g
           transform="translate(46.5201,17.2471)"
           id="g20"><path
             id="path22"
             style="fill:#fff;fill-opacity:1;fill-rule:nonzero;stroke:none"
             d="m 0,0 h 4.43 v 0.457 c -1.268,0 -1.768,0.48 -1.768,1.552 v 9.118 L 7.396,0 h 0.409 l 4.634,11.297 V 2.509 c 0,-1.572 0,-2.052 -1.798,-2.052 V 0 h 6.619 v 0.457 c -1.783,0 -1.783,0.48 -1.783,2.052 v 7.604 c 0,1.548 0,2.049 1.783,2.049 v 0.457 H 12.037 L 8.719,4.588 5.223,12.619 H 0 v -0.457 c 1.77,0 1.77,-0.501 1.77,-2.049 V 2.009 C 1.77,0.937 1.238,0.457 0,0.457 Z m -18.768,-0.237 c 4.401,0 4.889,3.068 4.889,4.836 v 5.389 c 0,1.549 0.074,2.174 1.77,2.174 v 0.457 h -4.537 v -0.457 c 1.697,0 1.779,-0.625 1.779,-2.174 V 4.433 c 0,-1.674 -0.541,-3.58 -2.91,-3.58 -2.219,0 -2.676,1.322 -2.676,2.716 v 6.544 c 0,1.548 0,2.049 1.808,2.049 v 0.457 h -6.615 v -0.457 c 1.799,0 1.799,-0.501 1.799,-2.049 V 4.067 c 0,-2.828 1.488,-4.304 4.693,-4.304 M -11.121,0 h 6.512 v 0.457 c -1.799,0 -1.799,0.615 -1.799,2.063 v 2.982 h 0.709 c 4.008,0 5.242,1.904 5.242,3.62 0,2.186 -2.068,3.497 -4.756,3.497 h -5.908 v -0.457 c 1.748,0 1.748,-0.479 1.748,-2.051 V 2.52 c 0,-1.565 0,-2.063 -1.748,-2.063 z m 4.713,6.416 v 5.296 h 0.375 c 1.928,0 2.465,-1.321 2.465,-2.537 0,-1.364 -0.368,-2.759 -2.436,-2.759 z"
             inkscape:connector-curvature="0" /></g><g
           transform="translate(49.485,32.832)"
           id="g24"><path
             id="path26"
             style="fill:#fff;fill-opacity:1;fill-rule:nonzero;stroke:none"
             d="M 0,0 C 0.103,0.312 0.259,0.596 0.459,0.833 0.713,0.751 0.933,0.711 1.123,0.711 c 0.773,0 1.065,0.662 1.205,1.8 0.142,1.142 0.415,1.676 0.79,1.676 0.533,0 1.034,-1.079 1.873,-1.079 0.379,0 0.695,0.221 0.832,0.387 C 6.198,3.369 6.532,3.13 6.688,2.704 6.852,2.954 6.925,3.183 6.925,3.396 6.925,3.788 6.679,4.134 6.282,4.482 6.327,5.572 5.603,5.694 4.994,5.777 4.363,5.863 3.968,5.943 3.968,6.531 3.968,7.851 5.946,6.889 6.032,8.55 5.544,8.304 5.086,8.459 4.577,8.713 5.723,8.858 6.215,9.037 6.312,9.822 5.753,9.655 5.366,9.822 4.84,10.102 5.419,10.278 6.438,10.611 6.157,11.424 5.97,11.318 5.643,11.405 5.287,11.5 4.943,11.593 4.57,11.692 4.266,11.632 c -0.419,0.751 -1.136,0.883 -1.9,0.883 -0.308,0 -0.824,-0.022 -1.1,-0.022 -1.065,0 -1.695,0.309 -1.755,1.919 -0.006,0.15 -0.013,0.329 -0.042,0.507 0.091,0.081 0.516,0.171 1.023,0.171 0.901,0 2.06,-0.284 2.06,-1.409 0,-0.182 -0.031,-0.386 -0.097,-0.614 0.292,0 0.581,-0.012 0.865,-0.044 0.061,0.273 0.082,0.506 0.082,0.704 0,1.544 -1.326,2.426 -3.332,2.426 -0.369,0 -0.551,-0.029 -0.71,-0.029 -0.228,0 -0.407,0.061 -0.878,0.435 -0.232,0.184 -0.709,0.548 -1.543,0.849 -1.409,0.509 -2.418,0.912 -2.993,2.316 1.447,0.156 4.527,-1.232 5.802,-3.078 0.552,0.773 0.186,1.708 -0.745,3.039 0.975,-0.505 2.094,-1.426 3.452,-2.664 0.492,0.574 0.148,1.51 -1.465,3.11 1.547,-0.5 3.067,-1.061 4.554,-1.811 0.283,0.918 -0.663,1.914 -2.808,2.954 4.318,0 6.468,0.711 6.386,2.03 C 6.51,23.118 5.045,23.062 3.723,23.085 7.954,24.677 9.884,26.228 9.444,27.683 7.718,26.776 5.948,26.04 4.152,25.311 c 3.664,2.8 5.096,4.879 4.179,6.022 -1.643,-1.425 -3.316,-2.786 -5.085,-4.025 2.965,3.679 4.108,6.339 2.786,7.167 -1.321,-1.946 -2.663,-3.703 -4.178,-5.473 2.068,4.28 2.483,7.077 1.058,7.762 -0.861,-2.466 -1.975,-4.848 -3.215,-7.106 1.234,5.154 0.974,7.719 -0.558,8.01 -0.461,-4.233 -2.104,-11.451 -5.193,-14.615 -0.051,0.741 0.022,1.446 0.301,2.09 l 0.458,-0.094 c -0.207,0.991 -0.094,1.906 0.322,2.81 l 0.491,-0.094 c -0.319,0.469 -0.44,1.384 -0.546,2.359 -0.054,0.491 -0.118,1.007 -0.195,1.345 0.455,0.718 0.602,1.604 0.602,2.489 0,0.795 -0.118,1.591 -0.236,2.267 -0.863,-0.814 -1.553,-1.801 -2.008,-2.947 h -3.042 c -0.817,0 -1.442,-0.225 -1.598,-1.185 -1.1,0.113 -1.708,-0.522 -1.708,-1.37 0,-0.323 0.088,-0.677 0.271,-1.033 0.296,0.399 0.792,0.607 1.27,0.607 0.584,0 1.141,-0.309 1.278,-0.962 0.74,0.074 1.602,-0.333 1.355,-1.237 -0.428,0.366 -1.095,0.804 -1.82,0.804 -0.468,0 -1.256,-0.181 -1.868,-0.181 -0.571,0 -0.988,0.158 -0.877,0.771 -0.331,-0.237 -0.492,-0.557 -0.492,-0.873 0,-0.46 0.343,-0.952 1.198,-0.952 0.973,0 1.495,0.635 2.278,0.635 0.507,0 0.916,-0.266 1.3,-0.619 -0.385,-0.251 -0.709,-0.251 -1.041,0 -0.156,-1.466 -0.865,-2.249 -2.3,-2.249 0.293,-0.385 0.749,-0.613 1.189,-0.736 -1.222,-1.041 -1.675,-2.965 -1.597,-4.537 -2.43,-1.657 -3.858,-2.537 -4.254,-2.537 -0.945,0 -0.631,1.573 -1.927,1.573 -0.128,0 -0.271,-0.014 -0.432,-0.046 -0.654,0.157 -1.143,0 -1.518,-0.665 0.537,0.018 0.655,-0.036 0.655,-0.195 0,-0.125 -0.073,-0.316 -0.073,-0.586 -0.399,-0.057 -0.722,-0.237 -0.949,-0.528 -0.654,0 -0.988,-0.583 -1.113,-1.114 0.287,0.12 0.576,0.165 0.867,0.072 0.066,-0.345 0.222,-0.634 0.457,-0.852 -0.115,-0.155 -0.205,-0.375 -0.252,-0.614 -0.488,-0.251 -0.707,-0.949 -0.539,-1.446 0.237,0.284 0.538,0.444 0.914,0.457 0.319,-0.608 0.678,-0.821 1.043,-0.821 0.841,0 1.711,1.133 2.19,1.133 0.15,0 0.276,-0.116 0.276,-0.273 0,-0.375 -0.685,-0.389 -0.685,-1.144 0,-0.533 0.338,-0.833 0.828,-0.903 0.043,-0.374 -0.051,-0.706 -0.281,-0.989 0.603,-0.405 1.269,0.532 1.341,1.072 0.526,0.12 0.833,0.496 0.833,0.897 0,0.451 -0.371,0.578 -0.371,0.931 0,0.414 0.517,1.171 0.946,1.171 0.25,0 0.512,-0.261 0.694,-1.001 0.408,0.333 0.615,0.635 0.783,1.114 0.414,-0.251 0.694,-0.323 1.143,-0.323 -0.168,0.323 -0.201,0.531 -0.201,0.957 0.448,-0.334 0.782,-0.459 1.314,-0.426 -0.198,0.332 -0.25,0.622 -0.25,0.988 0.404,-0.281 0.779,-0.489 1.32,-0.364 -0.178,0.24 -0.248,0.489 -0.248,0.822 0.53,-0.452 1.234,-0.673 2.068,-0.792 1.482,-0.212 3.583,-0.955 3.583,-2.514 0,-0.569 -0.282,-1.311 -0.282,-1.974 0,-0.548 0.192,-1.089 0.582,-2.15 -0.066,-0.165 -0.091,-0.309 -0.091,-0.44 0,-0.412 0.249,-0.687 0.249,-1.044 0,-0.159 -0.049,-0.334 -0.192,-0.544 0.532,-0.195 0.991,-0.031 1.272,0.532 0.201,-0.149 0.435,-0.31 0.652,-0.448 0.115,0.171 0.242,0.388 0.336,0.571 0.279,-0.156 0.486,-0.246 0.811,-0.281 -0.361,1.174 0.28,1.799 0.968,1.799 0.62,0 1.277,-0.506 1.277,-1.564 0,-0.633 -0.234,-1.828 -0.713,-1.828 -0.257,0 -0.927,0.349 -1.598,0.349 -0.46,0 -0.81,-0.162 -1.121,-0.489 C -2.884,5.569 -3.031,5.46 -3.173,5.358 -3.514,5.113 -3.806,4.897 -3.703,4.4 c 0.252,0.159 0.459,0.208 0.791,0.208 0.07,-0.291 0.218,-0.513 0.445,-0.666 -0.092,-0.275 -0.088,-0.546 0,-0.812 C -2.881,2.757 -2.881,2.3 -2.756,1.767 -2.59,2.021 -2.258,2.259 -1.926,2.259 -1.57,1.976 -1.27,1.893 -0.779,1.945 -0.699,1.692 -0.55,1.479 -0.332,1.312 -0.457,0.78 -0.375,0.429 0,0 m -16.769,0.624 c 0.181,0.355 0.461,0.647 0.78,0.811 0.414,-0.225 0.754,-0.319 1.038,-0.319 1.387,0 1.558,2.295 2.664,2.295 0.387,0 0.475,-0.296 0.558,-0.635 0.129,-0.535 0.319,-1.127 1.368,-0.883 0.375,-0.282 0.584,-0.61 0.584,-1.06 0.58,0.447 0.652,0.934 0.404,1.59 0.188,0.338 0.263,0.592 0.263,0.791 0,0.799 -1.213,0.728 -1.213,1.796 0,0.239 0.061,0.536 0.21,0.911 0.459,-0.126 0.865,-0.324 1.115,-0.782 0.154,0.28 0.213,0.515 0.213,0.715 0,0.673 -0.711,0.953 -0.711,1.387 0.575,-0.098 0.993,-0.299 1.237,-0.625 0.155,0.189 0.217,0.363 0.217,0.526 0,0.654 -1.03,1.157 -1.03,1.691 0.565,-0.075 0.971,-0.283 1.301,-0.729 0.143,0.159 0.199,0.325 0.199,0.496 0,0.661 -0.846,1.392 -0.846,1.968 0,0.389 0.377,0.74 2.665,1.104 0.115,0.655 0.184,1.21 0.184,1.582 0,0.893 -0.429,1.212 -2.034,1.863 -1.241,-0.297 -2.104,-0.856 -2.784,-1.346 -0.623,-0.448 -1.076,-0.731 -1.628,-0.731 -0.443,0 -1.111,0.173 -1.414,0.516 -0.215,-0.185 -0.311,-0.435 -0.311,-0.692 0,-0.39 0.22,-0.793 0.579,-1.001 -0.176,-0.415 -0.372,-0.641 -0.801,-0.773 0.158,-0.479 0.74,-0.657 1.19,-0.604 -0.107,-0.312 -0.323,-0.528 -0.627,-0.664 0.236,-0.319 0.624,-0.498 1.062,-0.448 -0.343,-2.105 -0.844,-2.655 -1.432,-2.655 -0.642,0 -1.389,0.656 -2.147,0.656 -0.337,0 -0.677,-0.13 -1.011,-0.507 -0.654,-0.055 -1.027,-0.387 -1.183,-1.021 0.322,0.154 0.478,0.154 0.851,0.031 0.005,-0.165 0.015,-0.328 0.031,-0.49 -0.31,-0.249 -0.437,-0.583 -0.48,-0.957 -0.455,-0.324 -0.664,-0.892 -0.402,-1.393 0.234,0.321 0.433,0.426 0.648,0.426 0.203,0 0.498,-0.104 0.787,-0.215 -0.094,-0.284 -0.094,-0.741 0.082,-0.99 -0.541,-0.617 -0.51,-0.979 -0.176,-1.635 m 12.128,-1.435 c 0.616,0.853 0.739,1.872 0.407,2.859 0.29,-0.024 0.542,0.009 0.74,0.096 -0.457,0.54 -0.665,1.053 -0.843,1.632 -0.209,0.682 -0.459,1.269 -1.717,1.573 -0.229,1.433 -0.156,2.58 0.988,3.609 -0.157,0.38 -0.312,0.778 -0.436,1.144 C -7.24,9.042 -7.324,6.813 -7.115,5.057 -7.66,4.682 -7.969,3.815 -7.969,3.125 c 0,-0.915 0.535,-1.61 1.014,-2.199 0.39,-0.481 0.728,-0.92 0.827,-1.382 0.259,0.152 0.468,0.36 0.626,0.622 0.207,-0.322 0.529,-0.695 0.861,-0.977 m -9.872,20.775 c 0.178,0.332 0.502,0.625 0.834,0.707 0,1.425 0.286,2.518 1.061,3.599 -1.478,0.958 -3.276,2.143 -3.276,3.508 0,0.563 0.341,1.407 0.341,2.079 0,0.529 -0.211,0.999 -0.968,1.319 -0.322,0.49 -0.777,0.697 -1.433,0.542 0.197,-0.124 0.322,-0.333 0.416,-0.542 -0.249,-0.114 -0.466,-0.282 -0.658,-0.499 -0.334,0.21 -0.623,0.303 -1.027,0.21 -0.42,0.322 -0.99,0.322 -1.395,0 0.252,-0.115 0.405,-0.239 0.571,-0.437 -0.246,-0.387 -0.319,-0.76 -0.289,-1.115 -0.208,-0.015 -0.393,-0.085 -0.543,-0.206 -0.546,0.287 -1.308,-0.093 -1.448,-0.623 0.269,0.075 0.534,0.032 0.76,-0.115 -0.061,-0.157 -0.09,-0.313 -0.09,-0.464 0,-0.608 0.381,-1.171 1.321,-1.26 0.647,-0.062 1.085,-0.345 1.085,-0.787 0,-0.295 -0.196,-0.446 -0.549,-0.446 -0.553,0 -0.783,-0.364 -0.783,-0.766 0,-0.235 0.079,-0.483 0.217,-0.679 -0.252,-0.28 -0.459,-0.363 -0.834,-0.459 0.405,-0.445 0.864,-0.559 1.434,-0.352 0.24,-0.136 0.439,-0.194 0.607,-0.194 0.891,0 0.796,1.442 1.605,1.442 0.293,0 0.382,-0.182 0.382,-0.421 0,-0.355 -0.197,-0.836 -0.282,-1.034 0.195,-0.124 0.527,-0.22 0.861,-0.167 -0.123,-0.416 -0.176,-0.991 0.125,-1.405 0.197,0.291 0.408,0.488 0.739,0.614 -0.105,-0.685 -0.023,-1.02 0.197,-1.342 0.209,0.322 0.404,0.531 0.812,0.561 -0.072,-0.436 -0.103,-0.893 0.207,-1.268 m 5.67,11.369 c -0.559,0 -1.112,0.333 -1.112,1.072 h 0.758 c -0.097,-0.142 -0.137,-0.259 -0.137,-0.355 0,-0.232 0.24,-0.332 0.472,-0.332 0.266,0 0.551,0.135 0.551,0.381 0,0.089 -0.036,0.191 -0.124,0.306 h 0.709 c 0,-0.739 -0.576,-1.072 -1.117,-1.072 m 0.92,2.227 h 0.84 c 0.305,0.72 0.705,1.393 1.201,2.009 -0.037,0.311 -0.104,0.616 -0.211,0.913 -0.726,-0.614 -1.467,-2.007 -1.83,-2.922"
             inkscape:connector-curvature="0" /></g></g></g></g></svg>