<svg xmlns="http://www.w3.org/2000/svg" xmlns:xlink="http://www.w3.org/1999/xlink" version="1.1" width="1216" height="624" viewBox="0 0 1216 624">
<defs>
<clipPath id="clip_0">
<path transform="matrix(1,0,0,-1,0,624)" d="M0 624H1216V0H0Z"/>
</clipPath>
</defs>
<g id="layer_1" data-name="Layer 1">
<g clip-path="url(#clip_0)">
<path transform="matrix(1,0,0,-1,690.0293,355.2107)" d="M0 0 15.465 91.097C15.554 91.614 16.003 91.993 16.528 91.993 17.053 91.993 17.502 91.613 17.59 91.095L33.061 0ZM37.765 146.559C37.643 147.166 37.11 147.604 36.49 147.604H-2.917C-3.537 147.604-4.071 147.166-4.192 146.558L-45.192-58.995C-45.352-59.799-44.737-60.549-43.917-60.549H-11.37C-10.736-60.549-10.195-60.091-10.089-59.466L-5.039-29.684H38.102L43.16-59.467C43.266-60.092 43.808-60.549 44.442-60.549H77.543C78.364-60.549 78.979-59.799 78.818-58.994Z" fill="#ffffff"/>
<path transform="matrix(1,0,0,-1,928.6904,355.2107)" d="M0 0 15.465 91.097C15.554 91.614 16.003 91.993 16.528 91.993 17.053 91.993 17.502 91.613 17.59 91.095L33.061 0ZM78.818-58.994 37.765 146.559C37.643 147.166 37.11 147.604 36.49 147.604H-2.917C-3.537 147.604-4.071 147.166-4.192 146.558L-45.192-58.995C-45.352-59.799-44.737-60.549-43.917-60.549H-11.37C-10.736-60.549-10.195-60.091-10.089-59.466L-5.039-29.684H38.102L43.16-59.467C43.266-60.092 43.808-60.549 44.442-60.549H77.543C78.364-60.549 78.979-59.799 78.818-58.994" fill="#ffffff"/>
<path transform="matrix(1,0,0,-1,371.2109,355.2107)" d="M0 0 15.465 91.097C15.554 91.614 16.003 91.993 16.528 91.993 17.053 91.993 17.502 91.613 17.59 91.095L33.061 0ZM37.765 146.559C37.643 147.166 37.11 147.604 36.49 147.604H-2.917C-3.537 147.604-4.071 147.166-4.192 146.558L-45.192-58.995C-45.352-59.799-44.737-60.549-43.917-60.549H-11.37C-10.736-60.549-10.195-60.091-10.089-59.466L-5.039-29.684H38.102L43.16-59.467C43.266-60.092 43.808-60.549 44.442-60.549H77.543C78.364-60.549 78.979-59.799 78.818-58.994Z" fill="#ffffff"/>
<path transform="matrix(1,0,0,-1,330.5309,207.60681)" d="M0 0H-32.773C-33.407 0-33.949-.457-34.055-1.082L-59.616-151.646C-59.704-152.163-60.153-152.541-60.678-152.541-61.204-152.541-61.653-152.162-61.741-151.644L-87.311-1.082C-87.417-.457-87.958 0-88.592 0H-121.617C-122.657 0-123.177-.78-122.917-1.819L-81.915-207.107C-81.794-207.715-81.26-208.153-80.64-208.153H-41.244C-40.624-208.153-40.091-207.715-39.969-207.107L1.039-1.559C1.299-.52 .78 0 0 0" fill="#ffffff"/>
<path transform="matrix(1,0,0,-1,502.822,207.60681)" d="M0 0H-33.783C-34.822 0-35.342-.78-35.342-1.559V-206.853C-35.342-207.633-34.822-208.153-33.783-208.153H0C1.039-208.153 1.299-207.633 1.299-206.853V-1.559C1.299-.78 1.039 0 0 0" fill="#ffffff"/>
<path transform="matrix(1,0,0,-1,608.0677,308.1749)" d="M0 0-29.365 22.089C-44.437 33.523-45.217 42.098-45.217 52.753V53.792C-45.217 67.565-35.862 71.723-26.506 71.723-17.151 71.723-9.095 67.565-9.095 53.792V42.618C-9.095 41.578-8.576 41.059-7.796 41.059H26.247C26.818 41.059 27.286 41.527 27.286 42.098V51.194C27.286 86.276 6.757 104.466-24.947 104.466-56.651 104.466-81.078 85.756-81.078 50.934-81.078 22.608-67.825 5.457-49.634-8.316L-25.727-26.506C-11.174-37.681-7.276-43.398-7.276-57.69V-58.99C-7.276-74.841-17.151-78.999-26.766-78.999-36.381-78.999-44.177-74.841-44.177-58.99V-46.777C-44.177-46.059-44.759-45.477-45.477-45.477H-79.259C-79.977-45.477-80.558-46.058-80.558-46.776V-57.95C-80.558-93.032-59.509-111.742-27.546-111.742 7.016-111.742 28.585-93.292 28.585-56.911 28.585-33.523 21.829-16.372 0 0" fill="#ffffff"/>
<path transform="matrix(1,0,0,-1,867.6732,380.9375)" d="M0 0H-42.357V172.029C-42.357 172.748-42.94 173.331-43.659 173.331H-77.959C-78.677 173.331-79.258 172.749-79.258 172.031V-33.522C-79.258-34.24-78.676-34.822-77.958-34.822H0C.718-34.822 1.3-34.24 1.3-33.522V-1.3C1.3-.582 .718 0 0 0" fill="#ffffff"/>
</g>
</g>
</svg>
