<svg version="1.1" id="Layer_1" xmlns="http://www.w3.org/2000/svg" x="0" y="0" viewBox="0 0 800 500" xml:space="preserve"><style>.st0{fill-rule:evenodd;clip-rule:evenodd;fill:#fff}</style><path class="st0" d="M128.7 149.91l-30.8-.03c-1.91 0-3.73 1.45-4.07 3.36L72.19 264.46l-19.4-111.22c-.33-1.91-2.12-3.4-4.03-3.39l-34.73-.01c-1.91.01-3.32 1.64-2.98 3.54l38.48 193.8c.33 1.91 2.26 3.52 4.17 3.51l30.36.02c.03 0 .06-.01.09-.01l8.55.01c1.91 0 3.76-1.62 4.09-3.53l34.87-193.8c.33-1.91-1.05-3.47-2.96-3.47zM247.42 347.12l-38.48-193.8c-.33-1.91-2.27-3.44-4.4-3.44l-4.62.01c-.07 0-.14-.03-.21-.03l-33.97.02c-1.91-.01-3.73 1.52-4.06 3.44l-34.87 193.8c-.33 1.91.63 3.56 2.55 3.57l31.21.02c1.91 0 3.73-1.53 4.06-3.44l3.36-17.24h34.69l3.01 17.24c.33 1.91 2.15 3.45 4.06 3.44l34.52-.02c1.91-.01 3.49-1.66 3.15-3.57zm-72.28-53.83l11.15-57.24 9.98 57.24h-21.13zM556.63 347.12l-38.49-193.8c-.33-1.91-2.15-3.44-4.06-3.44l-18.25-.03-20.88.03c-1.92-.01-3.73 1.52-4.07 3.44l-34.86 193.8c-.33 1.91 1.01 3.56 2.94 3.57l30.82.02c1.91 0 3.73-1.53 4.07-3.44l3.35-17.24h34.69l3 17.24c.33 1.91 2.15 3.45 4.07 3.44l34.82-.02c1.91-.01 3.18-1.66 2.85-3.57zm-72.27-53.83l11.14-57.24 9.98 57.24h-21.12zM790.97 347.12l-38.48-193.8c-.34-1.91-2.16-3.44-4.08-3.44h-39.13c-1.91-.01-3.73 1.52-4.06 3.44l-34.87 193.8c-.33 1.91 1.38 3.56 3.29 3.57l30.47.02c1.91 0 3.73-1.53 4.06-3.44l3.35-17.24h34.69l3 17.24c.33 1.91 2.15 3.45 4.06 3.44l34.54-.02c1.94 0 3.5-1.66 3.16-3.57zm-72.28-53.83l11.14-57.24 9.98 57.24h-21.12zM305.44 347.29c0 1.91-1.61 3.46-3.59 3.46H266.2c-1.98 0-3.59-1.55-3.59-3.46V153.32c0-1.91 1.61-3.45 3.59-3.45h35.66c1.98 0 3.59 1.53 3.59 3.45v193.97h-.01zM654.61 307.96h-41.1V153.32c0-1.91-1.54-3.44-3.45-3.44h-34.31c-1.9 0-3.45 1.53-3.45 3.44v193.96c0 1.91 1.55 3.46 3.45 3.46h34.31c.1 0 .2-.03.29-.03h44.26c1.9 0 3.46-1.46 3.46-3.28v-36.19c-.01-1.82-1.56-3.28-3.46-3.28zM417.21 259.53s-41.52-38.34-44-40.2c-4.18-3.14-5.19-10.7-5.39-12.6v-.46h-.04v-11.74h.09c.51-5.7 5.21-10.18 11.05-10.18 6.14 0 11.13 4.99 11.13 11.13l.02 17.2c0 1.7 1.37 3.05 3.04 3.05l34.07.08c1.68 0 2.89-1.22 2.89-2.89 0 0 .06-12.88-.06-13.19-.22-31-23.14-52.05-52.58-52.05-30.6 0-55.36 24.78-55.36 55.35 0 1.85.1 3.66.28 5.45 0 .24-.03.48-.01.73 1.23 21.36 20.58 39.83 20.58 39.83s32.27 28.44 36.98 33.69c4.65 5.19 5.04 9.77 5.07 10.97v12.54h-.09c-.5 5.59-5.35 9.97-11.34 9.97-6.31 0-11.42-5.66-11.42-11.71 0-.38-.08-12.55-.08-12.55 0-1.64-1.3-2.97-3.01-2.97l-34.88-.01c-1.73 0-2.97 1.2-2.97 2.82 0 0-.06 10.74.05 11.06.24 30.39 23.77 49.38 54.02 49.38 31.39 0 56.85-24.31 56.85-54.32 0-.98-.08-1.94-.14-2.91h.14c.34-21.19-14.89-35.47-14.89-35.47z"/></svg>