<?xml version="1.0" encoding="UTF-8"?>
<svg width="466px" height="260px" viewBox="0 0 466 260" xmlns="http://www.w3.org/2000/svg" xmlns:xlink="http://www.w3.org/1999/xlink" version="1.1">
 <!-- Generated by Pixelmator Pro 2.1.3 -->
 <path id="path10" d="M47.806 87 C73.146 89.15 101.106 102 117.046 120.3 137.466 143.68 130.446 167.08 101.346 172.54 72.246 178.01 32.106 163.48 11.686 140.08 -3.934 122.18 -3.494 104.28 10.606 94.4 L91.506 154.15 Z" fill="#ffffff" fill-opacity="1" stroke="none"/>
 <path id="path12" d="M427.096 87.19 L403.496 172.289 421.096 172.289 431.396 131.69 C432.697 126.79 433.096 121.891 433.996 116.991 L434.195 116.991 C435.195 121.851 435.795 126.699 437.295 131.549 L447.408 172.289 465.396 172.289 440.795 87.19 Z M447.408 172.289 L447.295 172.289 447.436 172.401 Z M178.836 87.299 L178.838 87.311 178.846 87.311 Z M178.838 87.311 L160.785 87.311 185.387 172.411 199.156 172.411 222.736 87.33 205.137 87.33 194.875 127.93 C193.515 132.91 193.175 137.761 192.275 142.731 L192.045 142.731 C191.035 137.871 190.466 133.02 189.006 128.17 Z M235.375 87.299 L235.375 172.401 252.205 172.401 252.205 87.299 Z M293.887 87.299 C293.795 87.364 293.71 87.443 293.619 87.51 L293.887 87.51 Z M293.619 87.51 L273.766 87.51 C273.766 87.51 272.317 90.211 271.637 91.811 264.637 108.711 271.237 121.11 277.637 133.01 282.947 142.91 288.435 153.211 283.785 164.411 282.405 167.711 279.906 170.611 277.606 172.411 L297.856 172.411 C297.856 172.411 298.977 170.21 299.477 169.01 306.247 152.67 302.646 141.199 293.576 125.639 292.986 124.569 292.356 123.49 291.756 122.44 287.586 115.25 282.885 107.1 287.285 96.5 288.738 92.995 290.854 89.576 293.619 87.51 Z M347.256 87.299 L347.273 87.411 347.416 87.411 Z M347.273 87.411 L325.217 87.411 317.717 172.51 335.816 172.51 338.217 111.209 338.436 111.209 338.436 112.811 341.256 131.709 349.506 172.411 362.467 172.411 369.705 132.11 372.406 111.209 372.637 111.209 376.705 172.411 393.967 172.411 385.045 87.311 362.467 87.311 355.705 137.53 355.486 137.53 Z" fill="#ffffff" fill-opacity="1" stroke="none"/>
</svg>
