<?xml version="1.0" encoding="UTF-8" standalone="no"?>
<svg
   xmlns:dc="http://purl.org/dc/elements/1.1/"
   xmlns:cc="http://creativecommons.org/ns#"
   xmlns:rdf="http://www.w3.org/1999/02/22-rdf-syntax-ns#"
   xmlns:svg="http://www.w3.org/2000/svg"
   xmlns="http://www.w3.org/2000/svg"
   xmlns:sodipodi="http://sodipodi.sourceforge.net/DTD/sodipodi-0.dtd"
   xmlns:inkscape="http://www.inkscape.org/namespaces/inkscape"
   version="1.1"
   id="svg2"
   xml:space="preserve"
   width="228.56667"
   height="81.71347"
   viewBox="0 0 228.56667 81.71347"
   sodipodi:docname="Digital_Visma_logo.ai"><metadata
     id="metadata8"><rdf:RDF><cc:Work
         rdf:about=""><dc:format>image/svg+xml</dc:format><dc:type
           rdf:resource="http://purl.org/dc/dcmitype/StillImage" /></cc:Work></rdf:RDF></metadata><defs
     id="defs6"><clipPath
       clipPathUnits="userSpaceOnUse"
       id="clipPath18"><path
         d="M 0,61.285 H 171.425 V 0 H 0 Z"
         id="path16" /></clipPath></defs><sodipodi:namedview
     pagecolor="#ffffff"
     bordercolor="#666666"
     borderopacity="1"
     objecttolerance="10"
     gridtolerance="10"
     guidetolerance="10"
     inkscape:pageopacity="0"
     inkscape:pageshadow="2"
     inkscape:window-width="640"
     inkscape:window-height="480"
     id="namedview4" /><g
     id="g10"
     inkscape:groupmode="layer"
     inkscape:label="Digital_Visma_logo"
     transform="matrix(1.3333333,0,0,-1.3333333,0,81.713467)"><g
       id="g12"><g
         id="g14"
         clip-path="url(#clipPath18)"><g
           id="g20"
           transform="translate(40.3502,40.9338)"><path
             d="m 0,0 c 6.082,-0.519 12.793,-3.606 16.618,-7.992 4.902,-5.614 3.215,-11.229 -3.769,-12.54 -6.982,-1.315 -16.615,2.175 -21.516,7.79 -3.749,4.297 -3.641,8.595 -0.256,10.963 l 19.411,-14.339 z"
             style="fill:#e70641;fill-opacity:1;fill-rule:nonzero;stroke:none"
             id="path22" /></g><g
           id="g24"
           transform="translate(136.2632,20.4353)"><path
             d="m 0,0 -2.436,9.804 c -0.352,1.164 -0.487,2.33 -0.733,3.493 H -3.223 C -3.438,12.106 -3.52,10.942 -3.844,9.751 L -6.309,0 h -4.224 l 5.66,20.42 H -1.57 L 4.335,0 Z"
             style="fill:#231f20;fill-opacity:1;fill-rule:nonzero;stroke:none"
             id="path26" /></g><g
           id="g28"
           transform="translate(71.8003,40.8557)"><path
             d="m 0,0 2.439,-9.804 c 0.351,-1.164 0.486,-2.328 0.731,-3.494 h 0.053 c 0.215,1.192 0.299,2.358 0.624,3.549 L 6.31,0 h 4.225 L 4.877,-20.42 H 1.571 L -4.332,0 Z"
             style="fill:#231f20;fill-opacity:1;fill-rule:nonzero;stroke:none"
             id="path30" /></g><path
           d="m 89.404,20.435 h -4.037 v 20.42 h 4.037 z"
           style="fill:#231f20;fill-opacity:1;fill-rule:nonzero;stroke:none"
           id="path32" /><g
           id="g34"
           transform="translate(112.2183,40.8557)"><path
             d="M 0,0 1.977,-12.051 H 2.03 L 3.652,0 h 5.419 l 2.141,-20.42 H 7.068 L 6.092,-5.715 H 6.038 L 5.387,-10.751 3.652,-20.42 H 0.54 l -1.977,9.778 -0.679,4.549 v 0.378 H -2.168 L -2.763,-20.42 H -7.098 L -5.311,0 Z"
             style="fill:#231f20;fill-opacity:1;fill-rule:nonzero;stroke:none"
             id="path36" /></g><g
           id="g38"
           transform="translate(99.4097,40.8557)"><path
             d="m 0,0 c -0.693,-0.487 -1.226,-1.336 -1.585,-2.206 -1.056,-2.544 0.076,-4.5 1.074,-6.224 0.145,-0.253 0.297,-0.511 0.437,-0.768 2.177,-3.736 3.041,-6.488 1.414,-10.409 -0.116,-0.279 -0.385,-0.803 -0.385,-0.803 h -4.863 c 0.551,0.436 1.156,1.134 1.484,1.927 1.118,2.695 -0.2,5.158 -1.475,7.543 -1.533,2.868 -3.119,5.834 -1.437,9.899 C -5.176,-0.657 -4.827,0 -4.827,0 Z"
             style="fill:#231f20;fill-opacity:1;fill-rule:nonzero;stroke:none"
             id="path40" /></g></g></g></g></svg>
