<?xml version="1.0" encoding="utf-8"?>
<!-- Generator: Adobe Illustrator 24.1.0, SVG Export Plug-In . SVG Version: 6.00 Build 0)  -->
<svg version="1.1" id="Layer_1" xmlns="http://www.w3.org/2000/svg" xmlns:xlink="http://www.w3.org/1999/xlink" x="0px" y="0px"
	 viewBox="0 0 113.4 113.4" style="enable-background:new 0 0 113.4 113.4;" xml:space="preserve">
<style type="text/css">
	.st0{fill:#FFFFFF;}
</style>
<g>
	<path class="st0" d="M69.2,52.1c1.6,0,2.8-0.6,3.6-1.7c0.8-1.1,1.2-2.6,1.2-4.4v-0.3c0-1.8-0.4-3.3-1.2-4.4c-0.8-1.1-2-1.7-3.6-1.7
		c-1.6,0-2.8,0.6-3.6,1.7s-1.2,2.6-1.2,4.4V46c0,1.8,0.4,3.3,1.2,4.4C66.4,51.5,67.6,52.1,69.2,52.1z"/>
	<path class="st0" d="M23.5,39.9h-3.2v5.7h3.2c1.1,0,1.9-0.3,2.4-0.8c0.5-0.5,0.8-1.2,0.8-2c0-0.8-0.3-1.5-0.8-2.1
		C25.4,40.1,24.6,39.9,23.5,39.9z"/>
	<path class="st0" d="M69.4,61.3c-1.6,0-2.8,0.6-3.6,1.7c-0.8,1.1-1.2,2.6-1.2,4.4v0.3c0,1.8,0.4,3.3,1.2,4.4c0.8,1.1,2,1.7,3.6,1.7
		c1.6,0,2.8-0.6,3.6-1.7c0.8-1.1,1.2-2.6,1.2-4.4v-0.3c0-1.8-0.4-3.3-1.2-4.4C72.2,61.9,71,61.3,69.4,61.3z"/>
	<path class="st0" d="M48.1,44.2c0.5-0.4,0.8-1,0.8-1.8s-0.3-1.4-0.8-1.9c-0.5-0.5-1.3-0.7-2.3-0.7H43v5h2.6
		C46.7,44.8,47.5,44.6,48.1,44.2z"/>
	<path class="st0" d="M5.3,5.5v102.5h102.5V5.5H5.3z M29.5,76.2H14.4v-2.1l2-0.4V61.3l-2-0.4v-2.1h2h13v4.8h-2.9l-0.2-2.1h-6.1v4.4
		h6.5v2.7h-6.5v5h6.2l0.2-2.1h2.9V76.2z M28.7,46.7c-1.3,1-3,1.5-5.2,1.5h-3.2v3.8l2,0.4v2.1h-7.9v-2.1l2-0.4V39.6l-2-0.4v-2.1h2h7
		c2.2,0,3.9,0.5,5.2,1.5c1.3,1,1.9,2.4,1.9,4C30.6,44.4,29.9,45.7,28.7,46.7z M37.2,52.4l2-0.4V39.6l-2-0.4v-2.1h2h6.5
		c2.2,0,3.9,0.5,5.1,1.4c1.2,0.9,1.8,2.1,1.8,3.7c0,0.9-0.3,1.6-0.8,2.3c-0.5,0.6-1.3,1.2-2.3,1.6c1.1,0.3,1.9,0.8,2.4,1.5
		c0.5,0.7,0.7,1.6,0.7,2.6v0.9c0,0.4,0.1,0.7,0.2,0.9c0.2,0.2,0.4,0.3,0.8,0.4l0.5,0.1v2.1h-2c-1.2,0-2.1-0.3-2.6-0.9
		C49.2,53,49,52.2,49,51.2v-1c0-0.8-0.2-1.5-0.7-2c-0.5-0.5-1.2-0.7-2.1-0.8H43v4.6l2,0.4v2.1h-7.9V52.4z M55.5,76.2H48v-2.1
		l1.2-0.1l-3.7-5h-2.1v4.8l1.9,0.4v2.1h-7.8v-2.1l2-0.4V61.3l-2-0.4v-2.1h7.8V61l-1.9,0.4V66H45l3.7-4.8L47.5,61v-2.1h7.6V61
		L53,61.3L48.3,67l5.3,6.8l1.9,0.3V76.2z M60.6,45.7c0-2.5,0.8-4.6,2.4-6.3c1.6-1.7,3.7-2.5,6.2-2.5c2.6,0,4.7,0.8,6.3,2.5
		c1.6,1.7,2.4,3.8,2.4,6.3V46c0,2.5-0.8,4.6-2.4,6.3c-1.6,1.7-3.7,2.5-6.3,2.5c-2.6,0-4.7-0.8-6.2-2.5c-1.6-1.7-2.4-3.8-2.4-6.3
		V45.7z M78.1,67.7c0,2.5-0.8,4.6-2.4,6.3c-1.6,1.7-3.7,2.5-6.3,2.5c-2.6,0-4.7-0.8-6.2-2.5c-1.6-1.7-2.4-3.8-2.4-6.3v-0.3
		c0-2.5,0.8-4.6,2.4-6.3c1.6-1.7,3.7-2.5,6.2-2.5c2.6,0,4.7,0.8,6.3,2.5s2.4,3.8,2.4,6.3V67.7z M85.5,69.7H83v-1.9h2.4V69.7z
		 M87.8,63.6c-0.4,0.5-0.9,1-1.5,1.4c-0.3,0.2-0.6,0.5-0.7,0.7c-0.1,0.2-0.2,0.6-0.2,1H83c0-0.7,0.1-1.2,0.3-1.5
		c0.2-0.3,0.7-0.7,1.3-1.2c0.4-0.3,0.7-0.6,0.9-0.9c0.2-0.3,0.4-0.7,0.4-1.1c0-0.5-0.1-0.8-0.4-1.1c-0.3-0.3-0.6-0.4-1.1-0.4
		c-0.4,0-0.8,0.1-1,0.3c-0.3,0.2-0.4,0.5-0.4,1h-2.3l0,0c0-1,0.3-1.7,1-2.2s1.6-0.8,2.8-0.8c1.2,0,2.2,0.3,2.9,0.9
		c0.7,0.6,1.1,1.3,1.1,2.3C88.4,62.4,88.2,63,87.8,63.6z M98.6,54.5H84.2v-2.1l2-0.4V39.6l-2-0.4v-2.1h2h3.8h2v2.1l-2,0.4v12.2h5.4
		l0.2-2.2h2.9V54.5z"/>
</g>
<g>
	<path class="st0" d="M110.4,3v107.4H3V3H110.4 M113.4,0H0v113.4h113.4V0L113.4,0z"/>
</g>
</svg>
