<?xml version="1.0" encoding="UTF-8"?>
<svg id="Layer_1" data-name="Layer 1" xmlns="http://www.w3.org/2000/svg" xmlns:xlink="http://www.w3.org/1999/xlink" viewBox="0 0 474.99 174.92">
  <defs>
    <style>
      .cls-1, .cls-2 {
        fill: url(#linear-gradient);
      }

      .cls-3 {
        clip-path: url(#clippath);
      }

      .cls-4 {
        fill: #f9f8f4;
        font-family: Raleway-ExtraLight, Raleway;
        font-size: 20px;
        font-weight: 200;
      }

      .cls-2, .cls-5, .cls-6 {
        stroke-width: 0px;
      }

      .cls-7 {
        letter-spacing: -.03em;
      }

      .cls-8 {
        letter-spacing: -.02em;
      }

      .cls-5 {
        fill: url(#linear-gradient-2);
      }

      .cls-6 {
        fill: #fff;
      }

      .cls-9 {
        letter-spacing: -.03em;
      }
    </style>
    <linearGradient id="linear-gradient" x1="235.1" y1="54.52" x2="249.79" y2="54.52" gradientUnits="userSpaceOnUse">
      <stop offset="0" stop-color="#f9d29a"/>
      <stop offset=".11" stop-color="#f4c894"/>
      <stop offset=".29" stop-color="#e6af86"/>
      <stop offset=".52" stop-color="#d1866f"/>
      <stop offset=".63" stop-color="#c56f62"/>
      <stop offset=".99" stop-color="#543316"/>
    </linearGradient>
    <clipPath id="clippath">
      <path class="cls-2" d="M244.96,68.61c.24,1.28.48,2.62.86,4.66-.87-1.97-.73-3.36-.86-4.66M246.17,70.53c-.19-1.31-.37-2.62-.56-3.93.09,0,.17.01.26.02.18,1.31.36,2.62.54,3.92-.08,0-.16-.01-.24-.02M244.34,64.07c.39,1.49.9,3.09.57,4.14-.2-1.4-.39-2.77-.57-4.14M243.81,60.75c-1.14-8.33-1.17-8.59-.91-10.39.45,3.95.83,7.32,1.21,10.69-.1-.1-.2-.2-.29-.3M237.01.24c0,1.45,0,3.12,0,4.9-.58-1.29-1.07-2.38-1.39-3.09-.99,1.78-.36,6.37.17,10.82.7,5.85,1.37,11.68,2.06,17.52.96,8.04,1.9,16.08,2.91,24.14,1.01,8.09,2.1,16.21,3.16,24.32,1.13,8.64,2.27,17.27,3.42,25.91.16,1.2.44,2.43.78,4.28-.1-4.71-.13-4.79-.68-8.4-.41-2.7-.78-5.43-1.08-8.1-.69-6.11-1.32-12.18-1.99-18.27-.13-1.18-.36-2.41-.51-3.6-.25-2.05.51-.19,1.2,5.14.4-.18.67-.31.97-.44,1.24,9.1,2.26,17.77,3.77,26.5-.1-5.7-1.81-12.84-1.81-18.68.8,2.23.67,5.56,1.8,7.45-.53-3.15-1.08-5.72-1.33-8.08-.28-2.63-.3-5.07-.44-7.66-.24-.35-.44-.65-.56-.81-.23-2.63-.42-5.06-.68-7.56-.24-2.25-.64-4.55-.91-6.88-.9-7.83-1.93-15.74-2.86-23.59-.46-3.93-.82-7.8-1.23-11.7.07.01.14.02.21.04.39,2.35.78,4.71,1.17,7.06.08-.03.17-.06.26-.1-1.05-9.74-2.01-19.46-3.98-30.69.02,1.72.03,2.4.05,3.47-.45-1.88-.76-3.17-.99-4.14-.56.09-1,.16-1.49.24"/>
    </clipPath>
    <linearGradient id="linear-gradient-2" x1="234.63" x2="249.79" xlink:href="#linear-gradient"/>
  </defs>
  <g>
    <path class="cls-1" d="M244.96,68.61c.24,1.28.48,2.62.86,4.66-.87-1.97-.73-3.36-.86-4.66M246.17,70.53c-.19-1.31-.37-2.62-.56-3.93.09,0,.17.01.26.02.18,1.31.36,2.62.54,3.92-.08,0-.16-.01-.24-.02M244.34,64.07c.39,1.49.9,3.09.57,4.14-.2-1.4-.39-2.77-.57-4.14M243.81,60.75c-1.14-8.33-1.17-8.59-.91-10.39.45,3.95.83,7.32,1.21,10.69-.1-.1-.2-.2-.29-.3M237.01.24c0,1.45,0,3.12,0,4.9-.58-1.29-1.07-2.38-1.39-3.09-.99,1.78-.36,6.37.17,10.82.7,5.85,1.37,11.68,2.06,17.52.96,8.04,1.9,16.08,2.91,24.14,1.01,8.09,2.1,16.21,3.16,24.32,1.13,8.64,2.27,17.27,3.42,25.91.16,1.2.44,2.43.78,4.28-.1-4.71-.13-4.79-.68-8.4-.41-2.7-.78-5.43-1.08-8.1-.69-6.11-1.32-12.18-1.99-18.27-.13-1.18-.36-2.41-.51-3.6-.25-2.05.51-.19,1.2,5.14.4-.18.67-.31.97-.44,1.24,9.1,2.26,17.77,3.77,26.5-.1-5.7-1.81-12.84-1.81-18.68.8,2.23.67,5.56,1.8,7.45-.53-3.15-1.08-5.72-1.33-8.08-.28-2.63-.3-5.07-.44-7.66-.24-.35-.44-.65-.56-.81-.23-2.63-.42-5.06-.68-7.56-.24-2.25-.64-4.55-.91-6.88-.9-7.83-1.93-15.74-2.86-23.59-.46-3.93-.82-7.8-1.23-11.7.07.01.14.02.21.04.39,2.35.78,4.71,1.17,7.06.08-.03.17-.06.26-.1-1.05-9.74-2.01-19.46-3.98-30.69.02,1.72.03,2.4.05,3.47-.45-1.88-.76-3.17-.99-4.14-.56.09-1,.16-1.49.24"/>
    <g class="cls-3">
      <rect class="cls-5" x="234.63" width="15.16" height="109.05"/>
    </g>
  </g>
  <path class="cls-6" d="M0,71.03v-25.45h10.79c1.17,0,2.25.25,3.24.73.99.49,1.85,1.14,2.56,1.94.72.8,1.28,1.71,1.68,2.72.41,1.02.61,2.04.61,3.07s-.19,2.12-.57,3.14c-.38,1.02-.92,1.92-1.61,2.71s-1.53,1.42-2.51,1.9c-.98.48-2.06.72-3.23.72h-6.02v8.53H0ZM4.95,58.16h5.74c.91,0,1.67-.37,2.28-1.11.61-.74.91-1.74.91-3.01,0-.65-.1-1.22-.29-1.74-.19-.51-.44-.95-.75-1.31-.31-.36-.67-.63-1.09-.81s-.84-.27-1.27-.27h-5.52v8.24ZM32.37,71.03v-25.45h11.26c1.17,0,2.25.25,3.24.73.99.49,1.85,1.14,2.56,1.94.72.8,1.28,1.71,1.68,2.72.41,1.02.61,2.04.61,3.07,0,1.65-.41,3.15-1.24,4.5-.82,1.35-1.94,2.32-3.35,2.92l5.81,9.57h-5.56l-5.2-8.53h-4.88v8.53h-4.95ZM37.32,58.16h6.2c.45,0,.88-.11,1.27-.32.39-.21.73-.51,1.02-.88s.51-.81.68-1.31c.17-.5.25-1.04.25-1.61s-.1-1.15-.29-1.65c-.19-.5-.45-.94-.77-1.31-.32-.37-.69-.66-1.11-.86s-.84-.3-1.27-.3h-5.99v8.24ZM453.06,70.89v-25.45h11.26c1.17,0,2.25.25,3.24.73.99.49,1.85,1.14,2.56,1.94.72.8,1.28,1.71,1.68,2.72.41,1.02.61,2.04.61,3.07,0,1.65-.41,3.15-1.24,4.5-.82,1.35-1.94,2.32-3.35,2.92l5.81,9.57h-5.56l-5.2-8.53h-4.88v8.53h-4.95ZM458.01,58.02h6.2c.45,0,.88-.11,1.27-.32.39-.21.73-.51,1.02-.88s.51-.81.68-1.31c.17-.5.25-1.04.25-1.61s-.1-1.15-.29-1.65c-.19-.5-.45-.94-.77-1.31-.32-.37-.69-.66-1.11-.86s-.84-.3-1.27-.3h-5.99v8.24ZM77.11,71.21c-1.86,0-3.55-.36-5.07-1.09-1.52-.73-2.82-1.7-3.91-2.9-1.09-1.21-1.93-2.59-2.53-4.14-.6-1.55-.9-3.14-.9-4.77s.32-3.32.95-4.88c.63-1.55,1.5-2.93,2.62-4.12s2.43-2.15,3.96-2.85c1.53-.7,3.19-1.06,4.98-1.06s3.52.38,5.04,1.13c1.52.75,2.81,1.74,3.89,2.96s1.91,2.6,2.51,4.16c.6,1.55.9,3.13.9,4.73,0,1.7-.31,3.32-.93,4.86-.62,1.54-1.48,2.9-2.58,4.09s-2.41,2.13-3.94,2.83c-1.53.71-3.19,1.06-4.98,1.06ZM69.72,58.3c0,1.1.17,2.16.5,3.19.33,1.03.82,1.94,1.45,2.72.63.79,1.41,1.42,2.33,1.9.92.48,1.97.72,3.14.72s2.25-.24,3.17-.73c.92-.49,1.7-1.14,2.33-1.95.63-.81,1.11-1.73,1.43-2.74.32-1.02.48-2.05.48-3.1s-.17-2.16-.52-3.19c-.35-1.03-.84-1.94-1.47-2.72-.63-.79-1.41-1.42-2.33-1.88s-1.95-.7-3.1-.7-2.26.25-3.19.73c-.93.49-1.71,1.14-2.33,1.94-.62.8-1.09,1.71-1.42,2.72-.32,1.02-.48,2.05-.48,3.1ZM103.38,71.03v-25.45h9.25c2.08,0,3.9.34,5.47,1,1.56.67,2.87,1.58,3.93,2.72,1.05,1.15,1.84,2.49,2.37,4.03.52,1.54.79,3.19.79,4.93,0,1.94-.29,3.69-.88,5.25-.59,1.57-1.43,2.9-2.53,4.02s-2.42,1.97-3.96,2.58c-1.54.61-3.27.91-5.18.91h-9.25ZM120.19,58.27c0-1.22-.17-2.34-.5-3.37-.33-1.03-.82-1.91-1.47-2.65-.64-.74-1.44-1.31-2.38-1.72-.94-.41-2.01-.61-3.21-.61h-4.3v16.78h4.3c1.22,0,2.3-.22,3.24-.65.94-.43,1.73-1.02,2.37-1.77.63-.75,1.12-1.64,1.45-2.67.33-1.03.5-2.14.5-3.33ZM156.76,66.69v4.34h-17.67v-25.45h17.35v4.34h-12.4v6.13h10.72v4.01h-10.72v6.63h12.73ZM170.66,71.03v-25.42h4.95v12.08l10.68-12.12h5.45l-9.75,11.29,10.36,14.16h-5.56l-7.92-11.01-3.26,3.41v7.6h-4.95ZM214.18,71.21c-1.86,0-3.55-.36-5.07-1.09-1.52-.73-2.82-1.7-3.91-2.9-1.09-1.21-1.93-2.59-2.53-4.14-.6-1.55-.9-3.14-.9-4.77s.32-3.32.95-4.88c.63-1.55,1.5-2.93,2.62-4.12s2.43-2.15,3.96-2.85c1.53-.7,3.19-1.06,4.98-1.06s3.52.38,5.04,1.13c1.52.75,2.81,1.74,3.89,2.96s1.91,2.6,2.51,4.16c.6,1.55.9,3.13.9,4.73,0,1.7-.31,3.32-.93,4.86-.62,1.54-1.48,2.9-2.58,4.09-1.1,1.18-2.41,2.13-3.94,2.83-1.53.71-3.19,1.06-4.98,1.06ZM206.8,58.3c0,1.1.17,2.16.5,3.19.33,1.03.82,1.94,1.45,2.72.63.79,1.41,1.42,2.33,1.9.92.48,1.97.72,3.14.72s2.25-.24,3.17-.73c.92-.49,1.7-1.14,2.33-1.95.63-.81,1.11-1.73,1.43-2.74.32-1.02.48-2.05.48-3.1s-.17-2.16-.52-3.19c-.35-1.03-.84-1.94-1.47-2.72-.63-.79-1.41-1.42-2.33-1.88s-1.95-.7-3.1-.7-2.26.25-3.19.73c-.93.49-1.71,1.14-2.33,1.94-.62.8-1.09,1.71-1.42,2.72-.32,1.02-.48,2.05-.48,3.1ZM274.26,52.25c-.17-.17-.47-.39-.91-.68-.44-.29-.98-.57-1.61-.84-.63-.27-1.32-.51-2.06-.7-.74-.19-1.49-.29-2.26-.29-1.36,0-2.38.25-3.05.75-.67.5-1,1.21-1,2.11,0,.53.13.96.38,1.31s.61.65,1.09.91c.48.26,1.08.5,1.81.72.73.21,1.57.44,2.53.68,1.24.33,2.37.69,3.39,1.08,1.02.38,1.88.86,2.58,1.43.71.57,1.25,1.26,1.63,2.06.38.8.57,1.79.57,2.96,0,1.36-.26,2.53-.77,3.49-.52.97-1.21,1.75-2.08,2.35-.87.6-1.87,1.03-3.01,1.31s-2.33.41-3.57.41c-1.91,0-3.8-.29-5.66-.86-1.86-.57-3.54-1.39-5.02-2.44l2.18-4.26c.22.21.6.5,1.17.84.56.35,1.22.69,1.99,1.04.76.35,1.61.64,2.54.88.93.24,1.89.36,2.87.36,2.72,0,4.09-.87,4.09-2.62,0-.55-.16-1.02-.47-1.4s-.76-.72-1.33-1c-.58-.29-1.27-.55-2.08-.79-.82-.24-1.72-.5-2.73-.79-1.22-.33-2.28-.7-3.17-1.09s-1.64-.86-2.24-1.4c-.6-.54-1.04-1.16-1.34-1.86-.3-.7-.45-1.55-.45-2.53,0-1.29.24-2.44.72-3.44.48-1,1.14-1.84,1.99-2.51.85-.67,1.83-1.18,2.96-1.52,1.12-.35,2.33-.52,3.62-.52,1.79,0,3.44.28,4.95.84,1.5.56,2.82,1.23,3.94,1.99l-2.19,4.01ZM308.78,66.69v4.34h-17.67v-25.45h17.35v4.34h-12.4v6.13h10.72v4.01h-10.72v6.63h12.73ZM343.44,71.03v-16.85l-6.56,12.55h-2.69l-6.56-12.55v16.85h-4.95v-25.45h5.3l7.53,14.48,7.6-14.48h5.27v25.45h-4.95ZM363.73,71.03v-25.45h4.95v25.45h-4.95ZM388.97,54.72v16.31h-4.95v-25.45h3.84l13.26,16.7v-16.67h4.95v25.42h-4.02l-13.08-16.31ZM428.65,45.58h4.37l9.68,25.45h-5.09l-2.37-6.34h-8.89l-2.33,6.34h-5.09l9.71-25.45ZM434.35,61.21l-3.51-10-3.66,10h7.17ZM453.06,70.89v-25.45h11.26c1.17,0,2.25.25,3.24.73.99.49,1.85,1.14,2.56,1.94.72.8,1.28,1.71,1.68,2.72.41,1.02.61,2.04.61,3.07,0,1.65-.41,3.15-1.24,4.5-.83,1.35-1.94,2.32-3.35,2.92l-4.95,1.04h-4.87v8.53h-4.95ZM458.01,58.02h6.2c.45,0,.88-.11,1.27-.32.4-.21.74-.51,1.02-.88.29-.37.51-.81.68-1.31.17-.5.25-1.04.25-1.61s-.1-1.15-.29-1.65c-.19-.5-.45-.94-.77-1.31-.32-.37-.69-.66-1.11-.86s-.84-.3-1.27-.3h-5.99v8.24Z"/>
  <text class="cls-4" transform="translate(272.87 101.9)"><tspan x="0" y="0">Humans in an</tspan><tspan class="cls-7" x="123.72" y="0"> </tspan><tspan x="128.28" y="0">AI</tspan><tspan class="cls-9" x="146.32" y="0"> </tspan><tspan class="cls-8" x="150.96" y="0">w</tspan><tspan x="166.58" y="0">orld</tspan></text>
</svg>