<svg version="1" xmlns="http://www.w3.org/2000/svg" width="3865.333" height="3865.333" viewBox="0 0 2899.000000 2899.000000"><path d="M1512.8 1.5c-.2.1-3.2.5-6.8.8-18.4 1.7-32.8 10.7-39.8 25-4.3 8.8-5.1 14.2-6.7 41.2-2.7 45.5-3.6 85.5-2.3 92 3.7 17.3 14.7 29 32.4 34.5 12.7 3.9 33.8 4.6 45.4 1.6 17.2-4.6 30.3-17.4 32.4-31.6 2.2-15.7 2.6-20.6 3.1-43.5.5-20.1-.3-27.2-3.6-33.7-2.9-5.7-9.6-11.7-16.9-15.2-5.6-2.7-7.8-3.1-15.5-3.3-12-.3-16.5 1-22.4 6.3-2.7 2.4-5.1 4.4-5.3 4.4-.3 0-.4-1.9-.2-4.3.1-2.3.5-9.8.8-16.7 1.2-23.7 1.5-24.9 6.5-27 2.3-.9 3.8-.9 6.6 0 5.2 1.7 6.6 5.2 6.3 15.7l-.3 8.7 3 .2c4.7.2 33.5 1.5 39 1.7l5 .2-.2-9.2c-.1-10-2.1-18.5-5.8-24.9-7.7-13.3-24.7-21.4-47.7-22.7-3.7-.2-6.9-.3-7-.2zm8 99.2c2.2 2.4 2.5 3.7 2.5 12.8 0 8-1.4 38.7-1.9 42.5-1.3 9.1-4.4 13-10.1 13-3.5-.1-5.9-1.9-7.2-5.4-1.5-3.9.1-51.5 2-58.7 2-7.7 9.5-9.9 14.7-4.2zM1364.8 2.5c-.2.2-2.5.6-5.3.9-14.6 1.6-28.1 8.6-34.4 18-6 8.8-7.7 16.1-7.4 31.6.2 17.3 4.6 27.5 15.1 34.9l3.3 2.3-3.5 2.6c-4.8 3.6-9.1 9.8-10.7 15.2-2 6.9-1.7 40 .4 52 3.7 20.3 13.1 31.5 30.6 36.5 18.3 5.2 46.3 2.4 60.8-6.1 11-6.4 17.3-16.1 18.8-28.9.8-6.9.8-26.9 0-33.5-.3-2.5-.7-6.5-1-9-1.9-16.8-6.3-24.4-17.5-30.7l-4.7-2.6 4.5-3.1c10.4-7.1 13.3-14 12.7-31.1-.6-17.1-4.6-28.8-12.8-37.3-8-8.3-17.4-11.4-35.9-11.7-7-.2-12.8-.2-13 0zm11.8 30.5c.9 0 2.6 8.1 3 14.5 1.5 22.5 1.1 26.4-3 28.3-4.3 1.9-7.8.6-10-3.6-2-4-3.6-31.4-2.1-36.2 1-3 5.3-4.9 8.9-3.9 1.7.5 3.2.9 3.2.9zm4.5 78.1c1.6 1.7 2.8 3.4 2.7 3.7-.1.4.1 2.9.5 5.7 1.3 9.6 2.2 35.7 1.5 43.7-.4 5.1-8.9 6.9-13.2 2.9-3.5-3.3-3.9-6.5-5.1-36.8-.6-16.2 0-19.3 3.9-21.1 3.8-1.9 6.7-1.3 9.7 1.9zM1645.5 16.7c-15.6 2.6-27.5 11.3-34 24.7-2.5 5.3-4 10.7-5.9 21.6-2.8 15.6-3.2 18.1-4.1 25-.3 2.5-.8 5.2-1 6-.2.8-.6 3.7-1 6.5-.3 2.7-1 7.5-1.5 10.5s-1.2 7.1-1.4 9c-.3 1.9-1 6.9-1.6 11-3.8 24.9-4.3 35.9-2.3 43.9 5.1 19.6 18.4 30.2 44.3 35.6 29.3 6.1 52.1-1.9 61.2-21.2 2.9-6 7.1-23.8 8.3-34.7.3-2.8.7-6.1.9-7.3.3-1.1.7-4.3 1.1-7 .4-2.6.9-5.9 1.1-7.3.7-4 .6-17.5-.2-21.5-1.5-8.2-9.5-18-18.3-22.4-9.4-4.8-23.6-6-31.6-2.7-2.2 1-5.5 3.1-7.4 4.9l-3.3 3.2.7-5c3.2-23.8 5.4-36.6 6.7-39.2 2.7-5.6 12-6 15.5-.7 1.5 2.4 1.6 3.6.5 12.2-.7 5.2-1.1 9.6-1 9.7.2.2 5.3 1 11.3 1.9 6.1.9 11.9 1.8 13 2 1.1.2 4.3.7 7 1 5 .7 8.1 1.2 12.3 2 3 .6 3.9-1.7 4.1-11.1.2-8.9-1.4-18.2-4.2-24.2-2.9-6.3-12.1-15.3-19.4-19-14.1-7.1-34-10.1-49.8-7.4zm14.2 96.7c3.4 2.9 3.7 7.5 1.7 21.1-.8 4.9-1.7 11-2 13.5-.3 2.5-.8 5.4-1 6.5-.3 1.1-.7 3.9-1 6.1-1.9 15.5-5.2 21.4-11.9 21.4-3.6 0-7.4-2.7-7.6-5.5-.5-5.6-.3-8.9.8-16 .7-4.4 1.5-10 1.8-12.5.3-2.5.7-5.6 1-7 .3-1.4.8-4.5 1.1-7 1-8.4 1.5-10.5 3-15.2.9-2.7 2.4-5.4 3.4-6.1 3.2-2.2 7.6-1.9 10.7.7zM1250.9 16.4c-.2.2-2.4.7-4.9 1.1-3.8.5-29.1 4.6-36.9 6-1.4.2-5 2.9-8 5.9-3.1 3-8.8 8.5-12.7 12.3-4.7 4.6-7 7.6-6.8 8.9.2 1 1.1 6.1 2.1 11.2 1.7 9.1 1.9 9.3 4.3 8.9 1.4-.3 6-1.2 10.3-2.1 11.7-2.4 12.4-2.3 13.6 2.1.5 2.1 1.2 5.8 1.5 8.3.3 2.5 1 6.1 1.6 8 1 3.4 3.8 18.5 4.6 24.5.3 2.6 1 7.5 1.9 12.5.1.8.6 3.7.9 6.3.4 2.7.9 5.8 1.2 7 .2 1.2.6 3.9.9 6.2.3 2.2.8 5.1 1 6.5.6 3.4 1.3 7.7 2 12.5.3 2.2 1 6.5 1.5 9.5s1.2 7.3 1.5 9.5c.3 2.3.7 5 .9 6 .2 1.1.7 4.5 1.2 7.5.4 3 .8 5.7.9 6 0 .3.4 2.6.9 5.2.4 2.7 1.1 4.8 1.5 4.8.4 0 3.2-.4 6.2-1 5.1-.9 7.2-1.2 16.7-2.5 2-.3 4.8-.7 6.2-1 2.9-.6 8.1-1.4 12.9-2 1.8-.2 3.5-.5 3.7-.7.2-.2-.4-4.9-1.2-10.3-.9-5.5-1.7-11.4-1.9-13-.5-3.3-1.5-9.8-2.1-13-.2-1-.6-3.7-.9-6-.3-2.2-1-6.5-1.5-9.5s-1.1-7.1-1.4-9c-.3-1.9-1.5-9.1-2.5-16-1.1-6.9-2.3-14.3-2.6-16.5-.6-4.8-1.4-9.3-1.9-12-.2-1.1-.7-4-1-6.5-.3-2.5-.8-5.6-1.1-7-.3-1.4-.7-4.3-1-6.5-.2-2.2-.6-5-.9-6.1-.2-1.2-.7-3.9-1-6-.3-2.2-.8-5-1.1-6.4-.3-1.4-.7-4.1-.9-6-.3-1.9-1-6.7-1.6-10.5-.6-3.9-1.3-8.3-1.5-9.8-1.3-8.7-1.7-11.4-2-12.7-.2-.8-.4-2.3-.4-3.3-.1-1.6-1.2-2.3-2.2-1.3zM915 94.3c-18.1 4.5-29.8 10.5-39.5 20.2-5.6 5.6-11.2 13.8-12.1 17.5 0 .3-.3 1.2-.7 2-5.8 14.2-3.3 23.7 23 88 3 7.4 7.1 17.3 9 22 1.9 4.7 6.1 14 9.4 20.7 8.9 18.3 18.7 27.1 34 30.8 20.7 4.8 42.5-3.4 50.2-19 1.4-2.8 2.8-6.5 3.2-8.4l.7-3.3 4.8 5.3 4.8 5.4 10.9-4.4c5.9-2.4 12.7-5.2 15-6.2l4.2-1.8-1.8-4.3c-1-2.4-4.2-10.2-7.1-17.3-2.8-7.2-5.6-13.9-6.1-15-.5-1.1-6.3-15.2-12.9-31.4-6.6-16.2-12.1-29.6-12.4-29.8-.2-.2-5.5 1.7-11.7 4.2-23.2 9.4-43.4 17.8-43.8 18.2-.3.2.9 3.6 2.6 7.6 1.7 3.9 4.3 10.2 5.8 13.8l2.7 6.7 4.5-2c2.5-1.1 4.7-1.7 5-1.5 1.2 1.2 12.1 29.7 13.3 34.5 1.1 4.9 1.1 5.6-.7 8-2.7 3.6-6.5 4.9-9.8 3.4-3.7-1.7-5.9-6.6-29.5-64.7-4-9.9-8.1-19.9-9.1-22.2-1.1-2.4-1.9-4.5-1.9-4.8 0-.3-.9-2.4-1.9-4.8-3-6.7-6.8-16.8-8-21.4-1.5-5.6-.2-8.8 4.3-10.3 6.4-2.1 8.1.1 17.6 23 2.8 6.9 5.5 12.8 5.9 13.2.5.6 34.6-12.7 46.3-18 1.4-.6 1-2.1-3.2-11.9-12.3-28.5-21.4-37.8-41.1-41.9-7.6-1.6-17.8-1.6-23.9-.1zM1967 106.2c-4 6.8-8.3 14-9.6 16-1.3 2.1-2.4 3.9-2.4 4.2 0 .2-2.5 4.5-5.5 9.5-3 5.1-5.5 9.4-5.5 9.7 0 .3-.8 1.7-1.9 3.2-1.7 2.5-13.1 21.8-17.9 30.2-1.1 1.9-7.9 13.6-15.2 26-7.3 12.4-14.1 23.8-15 25.5-1 1.6-5.9 10.1-11 18.8-5.2 8.9-8.9 16.2-8.4 16.7.5.4 5 2.5 9.9 4.5 5 2 10.5 4.3 12.3 5.1 14.9 6.5 24.4 10.4 25.2 10.4.7 0 6.1-9.6 14.5-25.8 1.5-2.8 2.8-5.2 2.9-5.2 1.3 0 16.1 7.1 16 7.7-.1.5-2.5 7.9-5.3 16.6-4.9 14.7-5.4 17.7-3.1 17.7.5 0 3.3 1.1 6.2 2.4 3 1.4 7.8 3.4 10.7 4.6 3 1.1 7.3 2.9 9.5 3.9 8.6 3.9 19.7 8.3 20 8 .3-.4 5.3-19.5 6.1-23.4.2-1.1 1.8-7.4 3.6-14 1.7-6.6 3.2-12.7 3.4-13.5.2-.8 1.5-5.8 2.8-11 2.4-9.2 19.5-75.9 20.3-79 .2-.8 2.8-11.2 5.9-23 3.1-11.8 5.8-22.2 6-23 .2-.8.6-2.6 1-4 .6-2.5 0-2.8-33.2-16.8-18.6-7.8-34.1-14.2-34.5-14.2-.4 0-3.9 5.5-7.8 12.2zm19.4 64.4c-3 9.3-5.7 17.6-5.9 18.4-.1.8-1.4 5.1-2.8 9.5s-4 12.7-5.8 18.5c-3.8 12.4-3.7 12.4-5.2 11.2-.7-.5-2.3-1.3-3.5-1.7-1.3-.4-4.4-1.6-6.8-2.7l-4.5-1.9 1.9-2.7c1-1.5 2.9-4.7 4.1-7.2 3.1-6 7-13 15.4-27.5 3.8-6.6 9.4-16.4 12.5-21.7 3.1-5.4 5.7-9.6 5.9-9.5.1.2-2.2 7.9-5.3 17.3zM790.9 152.4c-4.1 2.4-10.4 5.9-14 7.8-10.2 5.5-14.3 7.9-15.1 8.7-.7.6-.3 1.7 4.4 10.1 7.5 13.4 29 52.3 31.8 57.5 1.8 3.3 3.7 6.6 4.2 7.2 1.6 1.9.1 1.6-2-.5-2.3-2.2-27.6-25.9-32.2-30.2-1.9-1.8-8.7-8.1-15-14-16.8-15.8-17.1-16.1-17.8-15.7-12.4 6.4-36.2 20.4-36.2 21.4 0 .7 6.5 12.9 14.3 27.1 7.9 14.1 16.1 28.8 18.2 32.7 3.7 6.7 5.3 9.6 9.3 16.7 1 1.8 3.2 5.8 4.9 8.8 1.7 3 6.6 12 11 20s9.3 16.7 10.8 19.5c1.5 2.7 3.5 6.3 4.5 8 .9 1.6 3.1 5.5 4.7 8.5 8 14.8 16.6 30.1 17.2 30.4.3.2 5.8-2.5 12.1-6.1 6.3-3.5 14.5-8.1 18.3-10 3.7-2 6.7-4.1 6.7-4.6s-2.5-5.4-5.6-11c-3.2-5.6-6.7-12-7.9-14.2-4.5-8.3-9.6-17.5-17.8-32.2-4.7-8.4-8.8-16.1-9.1-17-.4-1 4.6 3.5 11.1 9.9s17.4 17.1 24.3 23.8c6.9 6.7 16.2 15.8 20.6 20.2l8.2 8 7.8-4.3c4.4-2.3 12-6.5 16.9-9.2 5-2.8 10.2-5.7 11.8-6.4 2.7-1.5 3.4-3.1 1.8-4.9-.5-.5-2.3-3.6-4.1-6.9-8.2-15-13.8-25.2-16.2-29-1-1.7-2.2-3.9-2.7-5s-8.7-16.2-18.3-33.5c-9.6-17.3-19.2-34.7-21.3-38.5-2.1-3.9-4.1-7.5-4.5-8-.4-.6-2.7-4.6-5-9-4.1-7.5-5.4-9.9-9.8-17.8-1.1-1.7-3.8-6.8-6.2-11.2-6.9-12.7-5.5-11.9-14.1-7.1zM2088.4 197.7c-37.5 66-48 84.4-50.9 89.8-1.5 2.7-3.7 6.2-4.7 7.7-1.1 1.6-1.6 2.8-1.2 2.8.4 0 0 .8-.8 1.7-.8 1-2.9 4.3-4.5 7.3-1.7 3-4.9 8.8-7.2 12.8-2.4 4.1-4.1 7.5-3.9 7.7.6.5 37.3 21.3 37.4 21.1.1 0 6.1-10.7 13.4-23.6 24.8-43.9 28.3-50 29-50 .4 0-.1 3.3-1.1 7.2-1 4-2.1 8.8-2.4 10.7-.3 1.8-.7 3.6-1 4-.4.7-.6 1.9-2.1 9.1-.8 4.1-8.4 36.8-10.9 46.6l-2.2 9.1 19.6 11.1c22.6 12.8 19.7 12.9 26.7-.5 2.1-4.1 4.5-7.9 5.2-8.5.6-.6 1.2-1.5 1.2-2 0-.4 5.3-10.2 11.9-21.6 6.5-11.4 13.2-23.2 14.8-26.2 1.7-3 5.3-9.3 8-14 2.7-4.7 5.2-9.2 5.6-10 .4-.8 1.7-3.1 2.8-5 2.1-3.5 16.3-28.3 21.1-37 1.4-2.5 5-8.8 8-14 8.7-15.2 12.2-21.9 11.8-22.3-1.4-1.2-36.5-20.7-37.2-20.7-.4 0-.8.7-.8 1.5s-.4 1.5-.9 1.5-1.1.8-1.4 1.7c-.6 1.9-3.1 6.4-15.4 27.8-4.4 7.7-8.9 15.6-10 17.5-9 15.9-12.4 21.8-13.7 23.5-1.5 1.9-1.6 1.9-.7-.7.6-1.4 1.5-5.2 2-8.5.6-3.2 1.4-7.1 1.7-8.8.3-1.6 1.3-6.5 2.4-11 1-4.4 2.1-9.6 2.4-11.5.3-1.9 1.2-6.4 2-10 .8-3.6 1.7-7.6 2-9 .2-1.4 1.6-8.3 3.1-15.4 1.4-7 2.5-13 2.3-13.1-.6-.5-25-14.5-25.4-14.5-.2 0-2.5-1.4-5.1-3-2.6-1.7-5.3-3-5.9-3-.7 0-12 18.8-25 41.7zM651 234.8c-3 2.1-12.4 8.4-20.7 14.1-8.4 5.6-15.3 10.5-15.3 10.7 0 .6 21.2 31.9 51.3 76C675.5 349 683 360.5 683 361c0 .4.4 1 .8 1.2.5.1 7.2 9.7 15 21.3 16.8 24.8 26.3 38.9 26.8 39.4.3.4 6.8-3.5 8.7-5.2.7-.7 8.6-6.1 17.5-12.1 11.2-7.4 16.1-11.3 15.8-12.3-.5-1.2-9.9-15.2-33.8-50.3-21.5-31.6-34.7-51.1-47.4-70-7.6-11.3-14.1-20.7-14.4-21-.3-.3-3.2-4.6-6.5-9.5-5.5-8.3-7.9-11.5-8.7-11.5-.2 0-2.8 1.7-5.8 3.8zM2246 257.2c-6.3 8.7-12.3 16.9-13.2 18.1-1.4 1.9-12.3 16.6-42.1 57.2-2.8 3.8-8.9 12.2-13.6 18.5-4.6 6.3-10.8 14.6-13.6 18.5-2.8 3.8-9.1 12.3-13.8 18.8-4.8 6.4-8.7 12-8.7 12.5 0 .4 3.1 2.8 6.8 5.4 3.7 2.6 15.3 11 25.7 18.8 38.1 28.1 44.4 31.7 57.3 32.1 7.2.2 14.6-2.9 20.8-8.7 4.3-4 15.4-18 26-32.5 13.2-18.1 35.5-48.5 36.7-49.9.6-.9 3.2-4.5 5.7-8 2.4-3.6 5.8-8.5 7.5-11 1.7-2.5 4.5-7.2 6.1-10.5 2.6-5.3 2.9-7.1 2.9-15 0-8.2-.3-9.7-3.2-15.6-3.6-7.2-11.8-16.3-22.3-24.7-3.6-2.9-7.2-5.8-8-6.5-.8-.8-6.7-5.2-13-9.9-6.3-4.6-15.8-11.6-21-15.4-5.2-3.9-9.9-7.3-10.5-7.6-.5-.3-6.2 6.6-12.5 15.4zm38.4 46.8c6.6 7.3 8.8 3.4-42.1 72.5-21.5 29.1-25.1 33-30 32.2-2.4-.4-9.3-3.8-9.3-4.6.1-1.9 75.2-104 76.6-104 .7-.1 2.8 1.7 4.8 3.9zM1405.3 284.8c-2.1.3-2.3.9-2.4 6.5 0 3.4-.2 49.3-.3 101.9l-.3 95.8 6.6.1c22.4.2 69.9-.1 72-.5 1.4-.3 4.2-.8 6.1-1.1 8.7-1.5 17.3-7.4 21-14.5 3-5.9 4.1-11 4.7-23 .7-11.7.9-103.1.3-119.5-.7-20.3-6.3-31.7-18.9-38.4-6.3-3.3-6.9-3.5-16.1-5.2-8.8-1.6-65-3.2-72.7-2.1zm56.1 37.6c1.6 1 2.8 3 3.3 5.3.9 4.5.9 105.3-.1 113.8-.7 7.2-3 10.7-7.8 11.9-6.8 1.7-6.4 6.1-6.2-61.5.1-33.8.3-63.8.3-66.7l.1-5.4 4 .5c2.2.2 5.1 1.2 6.4 2.1zM1549.6 285.9c-.2.3-.7 3.5-1.1 7.1-.4 3.6-.8 7.2-1 8-.2.8-.6 4.4-1 8-.4 3.6-.8 7.2-1 8-.2.8-.6 4.6-1 8.5-.4 3.8-.9 7.7-1 8.6-.2.9-.6 4-1 7-1 8.6-1.8 15.1-3.4 28.4-.6 4.4-1.3 10.2-1.6 13-.4 2.7-.8 6.2-1.1 7.8-.2 1.5-.7 5.1-1 8-.2 2.8-.6 6.3-.9 7.7-.2 1.4-.6 5-1 8-.3 3-1 8.9-1.5 13s-1.2 9.5-1.5 12c-.3 2.5-1.8 14.5-3.4 26.8-1.5 12.3-2.5 22.4-2.2 22.6.3.2 3.5.7 7.1 1 3.6.4 11.5 1.3 17.5 2.1 6.1.8 13.5 1.7 16.5 2 3 .3 6.6.8 8 1 1.4.2 4.6.7 7.3 1 8.1.9 14.1 1.6 16.7 2 1.4.2 5.2.7 8.5 1.1 3.3.3 6.8.8 7.8 1 .9.1 1.7 0 1.8-.4 0-.4.2-1.6.3-2.7.2-1.1.6-4.8 1-8.2.4-3.4.8-7 1-8 .2-1 .7-4.5 1-7.8.4-3.3.9-7.6 1.2-9.6.5-4.1.4-4.1-11.1-5.4-2.7-.3-6-.8-7.3-1-1.3-.2-5.3-.7-9-1.1-3.7-.3-7.1-.7-7.7-.8-1.8-.3-3.5-1.7-3.1-2.5.3-.4.8-3.6 1.1-7.1.3-3.6.8-7.4 1-8.5.2-1.1.7-4.3 1-7 1.4-12.9 2.3-18.6 2.8-19.2.3-.2 4 .1 8.3.6 26.4 3.4 24.4 3.4 24.5.8.1-1.2.3-3.1.4-4.2.2-1.1.6-4.5.9-7.5.4-3 .9-6.6 1.1-8 .2-1.4.7-5.4 1-9 .4-3.6.9-6.8 1.2-7.3.2-.4 0-.7-.4-.7-.5 0-6.3-.7-12.8-1.6-10.3-1.3-14.9-1.9-18.9-2.3-.7-.1-.2-9.6.9-15.1.2-1 .6-4.5 1-7.7.3-3.2.7-6.7 1-7.8.2-1.1.4-3.3.4-4.8l.1-2.9 5.8.6c3.1.4 6.8.8 8.2 1.1 1.4.2 4.8.7 7.5 1 2.8.3 6.9.8 9.2 1.1 5.2.8 4.9 1.6 6.9-16.1.3-2.8.7-6.1 1-7.5.2-1.4.7-5.8 1-9.8.6-6.6.5-7.2-1.2-7.3-1.1-.1-2.8-.3-3.9-.4-1.1-.1-4.5-.5-7.5-.8-3-.4-9.1-1.1-13.5-1.7-8.6-1.1-13-1.6-29-3.5-2.7-.4-6.1-.8-7.5-1-1.4-.2-5.2-.7-8.5-1.1-3.3-.3-8.2-1-10.8-1.4-2.6-.4-4.9-.4-5.1-.1zM1314.5 289.1c-26.7 2.5-44.1 15.8-50.1 38-1.3 5.1-1.4 27.9 0 34.9.2 1.4.7 5.4 1.1 9 .3 3.6.8 7.4 1 8.5.2 1.1.7 4.4 1 7.3.3 2.8.7 6.7 1 8.5.6 4.2 2.3 17.8 3 24.2.3 2.7.8 6.1 1 7.5.3 1.4.7 4.5 1 7 .3 2.5 1.3 8.5 2.1 13.5.9 4.9 1.8 10.3 2.1 12 1.6 10.1 8.3 22.5 15.8 29.2 9.5 8.7 20.2 12.4 35 12.5 21.7 0 39.3-8.1 48.8-22.5 9.2-13.8 10.2-26.3 5.3-64.2-.2-1.7-.7-5.9-1.1-9.5-.4-3.6-.9-7.3-1.1-8.4-.2-1-.6-4.4-.9-7.5-.3-3.1-.8-6.7-1-8.1-.3-1.4-.7-4.8-1.1-7.5-.3-2.8-.7-6.1-.9-7.5-.2-1.4-.7-4.8-1-7.5-.3-2.8-1-7.3-1.5-10-.5-2.8-1.2-7-1.5-9.5-.9-6.8-4.3-18.6-6.6-23.3-7.9-15.3-20.6-24-38.4-26.3-2.2-.3-4.4-.6-5-.8-.5-.1-4.1.1-8 .5zm6.6 37.9c1.6 2.3 3.8 13 5.5 27 .3 3 .8 6.6.9 8 .2 1.4.6 5.2 1 8.5s.8 6.7 1 7.5c.2.9.6 4.3 1 7.5.4 3.3.9 6.8 1.1 7.7.1.9.6 4.8.9 8.5.4 3.7.9 7 1 7.3.2.3.6 3.7 1 7.5.4 3.9.9 7.8 1.1 8.9.2 1 .6 4.4 1 7.5.3 3.1.8 6.4 1 7.3.1 1 .6 6 1 11.2.6 8 .4 9.9-1 12.1-1.9 2.9-7.5 3.5-9.6 1.1-2-2.5-3.7-12.1-7.5-41.6-2-15.7-3.8-29.6-4-31-.2-1.4-.6-4.6-.9-7.3-1-7.9-1.8-14.1-2.1-15.7-.2-.8-.6-4.7-1.1-8.5-.4-3.9-.8-7.2-.9-7.5-.2-.9-1.8-16.4-2-19.5-.2-3.3 1.8-8 3.7-8.9 2.7-1.1 6.2 0 7.9 2.4zM1676.6 308.2c-.8 2.9-4.9 18.6-9 34.8-9.8 38.8-15.4 60.6-21.1 82.5-2.6 9.9-4.8 18.7-5 19.5-.2.8-1.5 6.2-3 12s-2.8 11.2-3 12c-1 4.5-7.4 28.7-8 30.1-.4 1.1 0 1.9 1.2 2.4 3 1.1 44.6 11.6 44.9 11.2.3-.3 3.1-10.4 4-14.2.2-1.1 4.2-16.6 8.9-34.5l8.4-32.5-.4 17.5c-.5 19.1-1.4 46.5-1.9 60.1l-.4 8.6 4.1 1.3c2.2.6 4.9 1.3 5.9 1.5 1 .2 9.9 2.4 19.7 4.9 9.8 2.5 18 4.6 18.2 4.6.2 0 .3-4.6.2-10.2 0-5.7-.4-31.8-.7-58l-.6-47.7 19.5-32.3c10.8-17.8 20-33.2 20.6-34.3.5-1.1 1.5-2.9 2.2-4 5-8.2 6.9-11.6 6.6-12-.3-.2-10-2.8-21.7-5.8l-21.2-5.4-1.9 3.1c-2.2 3.8-8.9 15.4-12.3 21.6-1.4 2.5-3.5 6.3-4.8 8.5-1.2 2.2-5.6 10.1-9.8 17.5-8 14.3-10.2 18-10.2 16.6 0-.5 1.4-6.1 3.1-12.5 1.7-6.4 3.3-12.7 3.5-14 .3-1.3 1.8-7.2 3.3-13 5.7-21.2 8.3-32.2 7.7-32.8-.3-.3-9.7-2.9-20.8-5.8-11.2-2.9-21.3-5.5-22.4-5.9-1.9-.6-2.4-.1-3.8 4.6zM559.4 305.8c-2.9 1-8.3 3.8-12 6.3-5.8 3.7-24.8 18.1-31.9 24-1.1 1-7.6 6.3-14.5 12-6.9 5.6-12.9 10.5-13.4 11-1.1 1-1 1.2 25.9 33.9 11.9 14.6 23.3 28.5 25.3 31 2.1 2.4 6 7.2 8.7 10.5 2.8 3.3 18.2 22.1 34.3 41.7 16.1 19.7 29.6 35.9 30 36.2.6.3 14.7-10.9 34.4-27.4l5.8-4.8-14.2-17.4c-7.8-9.5-14.5-17.5-14.8-17.8-.3-.3-2.1-2.5-4-5s-3.7-4.7-4-5c-.3-.3-3.5-4.1-7-8.5-3.6-4.4-7.7-9.3-9.2-11-1.6-1.6-2.8-3.3-2.8-3.7 0-1.5 7.6-5.8 10.3-5.8 3.1 0 10.1 6.4 18.2 16.5 2.2 2.8 7.4 9.1 11.5 14.1s12 14.5 17.5 21.2c5.4 6.7 10.2 12.2 10.5 12.2.4 0 13.3-10.3 25.5-20.5 4-3.2 10.7-8.7 11.4-9.1.3-.2-6.6-8.8-12.8-15.9-2.1-2.5-22.7-27.6-26.1-31.9-5.3-6.7-13.7-14.9-17-16.6-7.5-3.8-15.9-4.2-24.3-1-2.8 1.1-5.4 2-5.6 2-.1 0 1.1-1.6 2.8-3.5 4.3-4.9 6.1-8.8 6.8-14.5.5-4 .1-5.9-2.4-11.2-7.7-16.4-27.9-37.3-40.3-41.7-5.9-2.1-16.9-2.3-22.6-.3zm3.9 44c3.5 2 16 17.1 18.6 22.5 2.3 4.7 1.5 8-2.9 12.2l-3 2.9-2.9-3.5c-1.6-1.9-7.9-9.4-13.9-16.8-10.9-13.3-11-13.5-8.8-15 5.8-4.3 8.6-4.8 12.9-2.3zM1186.5 317.6c-11.6 1.8-66.6 15.3-68.3 16.9-.1.1 1.2 5.6 2.9 12.1 3.3 12.7 6.7 26.1 14.9 57.4 2.7 10.7 7.5 29.2 10.6 41 3.1 11.8 5.7 22.2 5.9 23 .2.8 2 7.8 4 15.5s5.6 21.6 8 30.9c2.4 9.2 4.5 17 4.7 17.1.2.2 8.7-1.9 19.1-4.7 15.8-4.3 18.7-5.4 18.7-7 0-1-2-10.5-4.5-21.1-2.5-10.5-5.4-22.8-6.5-27.2-4.3-18.3-6.8-29.2-7.5-32.1-.6-3-.4-3.2 3.2-3.8 2.1-.3 7-.9 10.9-1.2 6.8-.6 7.1-.5 9.2 2.1 3.2 4.1 6.2 12.9 8.2 24.5 3.8 21.3 7.7 37 11.5 45.5 3.2 7.3 4.1 7.8 10.8 6 3.1-.8 7.1-1.7 8.8-2 1.8-.3 3.5-.7 3.8-.9.3-.2 2.2-.7 4.1-1 1.9-.3 6.1-1.2 9.3-2.1 3.2-.8 6-1.5 6.2-1.5.3 0-.6-1.6-2-3.5-3.6-5.4-9.8-26.6-11.9-41-.5-3.4-1.5-7.7-4-17.5-3.8-14.9-6.7-21.3-12.2-26.6-4.8-4.6-11-7.1-18.6-7.6-2.1-.2-3.8-.4-3.8-.4 0-.1 1.9-1.2 4.3-2.4 5.6-2.9 9.6-6.7 11.4-10.9 1.7-3.9 1.9-15.6.4-22.2-.5-2.4-1.2-5.5-1.5-6.9-5-23.4-14.6-39.8-27.1-45.9-5-2.5-15.4-3.6-23-2.5zm.1 40.7c2 2.4 4.1 7.7 5.9 15.3.3 1.1 1.1 4.4 1.8 7.4s1.3 7.3 1.3 9.5c-.1 4-.2 4-7.6 7.7-4.1 2-8 3.7-8.7 3.8-.6 0-1.7-2.6-2.4-5.8-.7-3.1-1.4-6.2-1.5-6.7-.7-2.7-5.6-25.5-6.3-29.2-.8-4-.7-4.2 1.8-4.5 1.4-.2 5-.3 8-.3 4.5 0 5.7.4 7.7 2.8zM1056 356.5c-5.8 1.8-13.4 4.4-17 5.7-3.6 1.4-13.2 5.1-21.5 8.2-8.2 3.2-16 6.1-17.2 6.6l-2.3 1 2.4 6.2c1.3 3.5 4.2 11.2 6.5 17.3 2.3 6 4.6 11.9 5.1 13 .8 1.8 13.9 35.5 18 46.5 3.7 10 33.2 86.6 34 88.5 2.4 5.4 6 15 6 16 0 3.5 2.5 3.1 18.8-3.2 9.2-3.5 17.8-6.9 19.3-7.6l2.5-1.2-8.9-22.5c-4.9-12.4-11.4-28.7-14.4-36.3-5.2-13.2-5.4-13.9-3.6-15.2 1-.8 2.2-1.5 2.6-1.5.5 0 3.9-1.5 7.5-3.3 24-11.9 34.4-22.9 34.3-36.4-.1-9.2-2.8-18.1-14.9-48.3-8.2-20.5-14.4-29.2-24-34.1-3.8-1.8-6.5-2.4-13.7-2.5-7.7-.2-10.5.2-19.5 3.1zm14.4 38.2c2.4 2.5 10.1 20.7 13.1 30.8 1.5 5.3 1.2 10.2-.8 12.1-2.3 2.2-16.6 9.4-17 8.7-.7-1.2-18.5-47.7-18.9-49.3-.4-1.7 10.3-4.8 16.9-4.9 3.3-.1 4.7.5 6.7 2.6zM1835.8 354.5c-.1.1-1.9.5-3.8.8-11.9 1.7-23.8 10.2-31.5 22.2-5.3 8.3-11.4 22.5-30 70.5-19.3 49.7-21.3 57.8-17.6 73.3 2.9 12.1 8.7 20.5 19.5 28.1 12.1 8.5 24.6 12.7 37.8 12.7 13.9-.1 24.1-4.2 33.9-14 8.2-8.2 13.5-18.6 27.4-54.1 5.3-13.5 10.3-25.9 11-27.7.8-1.7 1.5-3.7 1.5-4.5 0-.8.4-1.8.9-2.3 1.1-1.4 9.7-25.1 13-36 2-6.6 2.6-11 2.6-16.5-.2-10.1-.9-13.3-5-21.7-6.8-13.9-21.3-24.4-40.5-29.3-4.1-1.1-18.4-2.2-19.2-1.5zm18 38.4c1.5 1.1 2.3 2.8 2.4 4.7 0 2.6-6.1 20.7-9.8 28.9-.7 1.6-5.2 12.9-9.9 25-25.8 66.2-28.2 71.6-31.8 73.2-1.8.9-3.1.7-5.5-.4-3.7-1.8-4.1-4.7-1.8-12.3 1.3-4.1 27.5-71.9 29.6-76.5.6-1.1 3.5-8.5 6.5-16.3 6.4-16.6 10.8-25.7 13-26.9 2.5-1.4 4.9-1.2 7.3.6z"/><path d="M914 393.1c-18.2 9.5-44.8 24.3-60.9 34-6.3 3.8-11.8 6.9-12.3 6.9-.4 0-.8.4-.8 1 0 .5-.4 1-1 1-.5 0-4.2 2.1-8.2 4.7-19.4 12.4-26.8 17.3-26.8 17.9 0 .3 5.3 9.8 11.8 21.2 6.5 11.4 13.1 22.9 14.7 25.7 2.4 4.5 37.4 66 43.2 76 1.2 2.2 2.3 4.3 2.3 4.7 0 .3-7.6 6-16.8 12.6-14.5 10.3-43.6 32.4-50.5 38.1-19.9 16.8-25.2 20.9-26.3 20.3-.6-.4-24.2-23.4-52.4-51.2-28.1-27.8-51.4-50.6-51.8-50.7-.4-.2-2.9 1.8-5.7 4.3-2.7 2.5-9 8.2-14 12.7-12.3 11.1-57 55.9-68 68.2-5 5.5-10.5 11.6-12.2 13.5-1.8 1.9-3.3 3.9-3.3 4.3 0 .5 12.8 13.8 28.4 29.5 15.7 15.8 35.9 36.3 45.1 45.7 9.1 9.3 19.5 19.9 23.1 23.5l6.4 6.6-9.7 11.4c-18.3 21.8-37 46.2-53.5 69.7l-8.5 12.1-36.9-21c-20.3-11.5-37.8-21.4-38.9-21.9-1.8-.8-5.1-2.7-13.7-7.8-9.4-5.6-39.1-22.2-39.2-21.9-12.9 20-20.4 32-24.3 38.3-6.7 11-22.7 39-29.2 51-10.1 18.5-8.9 16.2-14.6 27.4-4.7 9.1-4.8 9.5-2.9 10.9 1 .7 12 7.3 24.4 14.5 12.4 7.3 40.2 23.5 61.7 36.2l39.1 22.9-2.3 5.1c-1.2 2.7-4.1 8.9-6.4 13.7-2.2 4.8-4.1 9-4.1 9.2 0 .3-1.6 4-3.6 8.3-3.8 8.1-20.3 48.7-20.9 51.3-.5 2.2-7.3 20.1-7.8 20.7-.3.2-2.5-.1-4.8-.7-2.4-.7-5.1-1.3-5.9-1.5-.8-.2-13-3.3-27-7s-26.2-6.9-27-7c-.8-.2-8.5-2.2-17-4.5-8.5-2.2-16.4-4.3-17.5-4.5-1.1-.3-11.2-2.9-22.5-5.9-14.7-3.9-20.7-5.1-21.2-4.3-.4.7-2.6 7-4.8 14.2-2.3 7.1-4.8 14.8-5.5 17-4.1 11.9-19.3 69.6-21 79.4-.3 1.9-.7 3.7-.9 4-.2.3-.7 2.4-1 4.6-.4 2.2-1 5.3-1.5 7-.5 1.6-1.2 4.6-1.5 6.5-.3 1.9-.8 4.5-1 5.6-.4 1.9.3 2.4 5.2 3.7 3.1.8 9.3 2.5 13.7 3.6 4.4 1.2 10.3 2.8 13 3.6 6.6 2 26.6 7.5 28.5 8 2.1.5 29.2 7.9 44 12 40.4 11.3 36.5 9.9 36.6 13.1 0 1.6-.3 4.6-.8 6.7-.4 2-1.1 5.4-1.4 7.5-.3 2-.7 4.8-1 6.2-.2 1.4-.7 4.1-1 6-.3 1.9-.9 6-1.4 9-1.1 6.4-1.5 9.6-4.4 33.5-1.6 12.9-2.1 17.3-3.1 30.5-.4 4.7-.9 9.6-1.1 11-.1 1.4-.3 2.8-.3 3.1-.1.4-16 .7-35.3.8-39.5.3-108.5.9-110.8 1-.9.1-1.6.9-1.6 1.8-.1 1-.5 9.2-.9 18.3-1.1 21.7-1.1 82.9 0 105 .4 9.6.8 18.3.9 19.2 0 1.1.8 1.8 2.1 1.9 1.1 0 32.2.3 69 .5 36.9.3 69.2.6 72 .7l4.9.2.2 4c.1 3.7.9 12.2 1.9 22 .2 2.2.7 6.7 1 10 .6 5.4 1.8 16.1 3.1 25.5.2 1.9.6 4.4.9 5.5.2 1.1.7 4.5 1 7.5.5 4.8 3 20 5.1 31 .3 1.9.7 5.3.8 7.4l.1 3.9-45 12.4c-24.7 6.8-52.2 14.4-61 16.8-36.7 10-35.4 9.5-34.9 11.9.2 1.1.7 3.4 1 5.1 1.7 9.8 10.4 46.3 15.4 65 5.2 19.5 18.2 62.7 20.2 67.1l1 2.1 7.7-1.9c4.2-1.1 8.3-2.2 9.1-2.4.8-.2 9.4-2.4 19-5 9.6-2.5 18.2-4.7 19-4.9.8-.2 9.4-2.4 19-5 9.6-2.5 18.2-4.8 19-4.9.8-.2 8.7-2.3 17.5-4.6 28.4-7.5 31.7-8.2 32.4-7.3.4.4 2.3 5.1 4.1 10.3 7.5 21.5 23.6 60.7 33.5 81.5 2.6 5.5 5.3 11.4 6 13l1.3 3-21.1 12.4c-40.6 23.7-48.2 28.2-49.7 29.1-2.1 1.4-24 14.2-40 23.5-7.4 4.3-14.1 8.4-14.9 9-1.1 1.1 0 3.9 6.4 16.1 4.2 8.2 8.1 15.6 8.6 16.4.4.8 4.3 7.8 8.5 15.5 9.6 17.6 28.7 49.4 39.9 66.6l8.5 13.1 3.8-2.3c2-1.2 5.7-3.3 8.2-4.7 2.5-1.4 10.1-5.8 17-9.7 12.3-7 18-10.3 27-15.3 2.5-1.4 7.4-4.2 11-6.2 11.5-6.7 49.3-28.2 55.4-31.6l6-3.2 7.4 10.7c7.9 11.3 30.9 42.4 32.9 44.6.7.7 4 4.8 7.5 9.2 5.9 7.5 19.9 24.3 22.6 27.2 1.2 1.2 0 2.8-7.7 10.5-4.9 5-17.4 17.6-27.6 28.1-10.3 10.4-29.5 29.9-42.7 43.2-13.2 13.3-23.8 24.7-23.6 25.2 1.3 3.8 57.6 62 78.3 81.1 15.8 14.5 23.7 21.5 24.5 21.5.4 0 24-23 52.5-51 28.4-28.1 52-51.1 52.4-51.3.5-.2 12.1 9.1 24.7 19.8 10.7 9 49.9 38.3 64.1 47.9l5 3.4-4.2 7.1c-2.3 3.9-5.5 9.6-7.2 12.6-2.9 5.2-17.5 31-21.3 37.5-2.9 5.1-23.2 40.8-25.2 44.5-1.1 1.9-4.9 8.5-8.4 14.6s-6.4 11.3-6.4 11.7c0 1.9 57.5 37.2 82 50.4 30.4 16.4 44.1 23.5 44.5 23.1.3-.3 5.3-8.7 8.5-14.3 1.9-3.4 44.9-76.5 57.7-98.3 4.6-7.8 8.6-14.2 8.8-14.2.2 0 4.5 2 9.7 4.4 27.7 13.1 52.7 23.5 84.3 35.1 7.2 2.7 13.3 5.1 13.6 5.4.8.7.5 1.8-20.1 80.6-2.3 8.8-4.4 16.7-4.5 17.5-.2.8-2.2 8.5-4.5 17s-4.3 16.2-4.5 17.1c-.2.9-.8 3.4-1.4 5.5-.6 2.2-1.1 4.2-1.1 4.6 0 1.5 54.7 18 83.5 25.2 18.3 4.6 50 11.7 54.6 12.3l3.7.5 1.5-6.4c.9-3.5 2.7-10.6 4.2-15.8 1.5-5.2 2.8-10.2 3-11 .2-.8 5.6-20.4 12-43.5s11.8-42.7 12-43.5c3.7-14 6-21 7.1-21.4.7-.3 2.7-.1 4.6.4 1.8.5 4.9 1.1 6.8 1.4 1.9.3 10.3 1.6 18.5 3 8.3 1.4 17.9 2.8 21.5 3.1 3.6.4 6.7.8 7 1 .3.1 3.2.6 6.5 1 3.3.3 7.4.8 9 1 1.7.2 5.7.6 9 1 3.3.3 7.8.7 10 .9 2.2.2 8.1.7 13 1.1 5 .4 9.2.9 9.5 1.1.4.5.5 14.8 1.1 106.6.2 40.5.3 40.8 2.3 40.9 1.2.1 4.6.3 7.6.4 14.1.8 50.1 1.8 64.5 1.8 22.4 0 71.2-1.7 72-2.5.2-.2.7-33.4.9-73.7.3-40.3.7-73.5.8-73.7.2-.1 4.8-.6 10.3-.9 5.5-.3 11.1-.8 12.5-1 1.4-.2 5.4-.6 9-1 3.6-.3 8.1-.8 10-1 1.9-.3 5.5-.7 8-1 5.6-.7 26.3-3.5 28.7-3.9 1-.2 4-.7 6.6-1 2.7-.4 5.7-.9 6.7-1.1.9-.2 3.5-.6 5.6-.9 3.8-.6 12.9-2.2 17-3 1.9-.4 2.4.8 5.8 13.2 2.1 7.6 4.4 15.7 5.1 18.2.7 2.5 2.2 7.9 3.3 12 1.2 4.1 7.1 25.7 13.3 48 6.2 22.3 11.7 42.6 12.3 45.2 1.1 5.5 1.5 5.6 11.3 3.3 3.4-.8 7.5-1.7 9.1-2 11.2-1.9 51.1-12.1 75.2-19 31.7-9.2 47-14.4 47-16.1 0-.8-1.1-5.4-2.4-10.2-1.4-4.8-5.2-19.3-8.5-32.2-3.3-12.9-7.6-29.4-9.5-36.5-4.4-16.9-15.7-60.8-15.9-61.8-.1-.5 3.9-2.3 8.8-4.1 12.1-4.5 38.3-14.5 42-16.1 1.7-.8 7.7-3.4 13.5-5.8s18.1-7.9 27.3-12.2c9.2-4.3 16.9-7.6 17.1-7.4.1.2 2.7 4.7 5.8 9.9 3 5.2 9.5 16.2 14.4 24.5 4.9 8.2 9.1 15.4 9.3 16 .2.5 1.5 2.8 2.9 5 2.7 4.3 10.7 17.9 18.1 30.7 1 1.8 3.8 6.7 6.3 10.8 2.5 4.1 7.3 12.4 10.8 18.5 3.5 6 6.5 11.2 6.6 11.3.7 1 53.2-27.3 71.8-38.6 3.7-2.3 6.9-4.2 7.1-4.2.4 0 15.1-9 20.5-12.5 4.3-2.8 15.8-10.1 22.2-14.1 4.9-3 5.9-5.3 3.3-7.4-.8-.6-1.4-1.5-1.2-1.8.1-.4-1.7-3.9-4-7.7-4.1-7.1-38.5-67.5-44.1-77.5-1.6-3-7.1-12.7-12.1-21.4-5-8.8-9.1-16-9.1-16.1 0-.2 6.9-5.1 15.3-11.1 21.1-14.9 60.5-45.4 67.5-52.1.7-.7 3.3-2.9 5.8-4.9l4.5-3.7 5.7 5.6c3.1 3 13.4 13.1 22.7 22.2 9.4 9.2 30.4 29.9 46.8 46.2l29.8 29.5 2.2-1.8c12.6-10.9 26.8-24.4 51.7-49.3 24.2-24.3 35.8-36.5 46.8-49.1l3-3.6-51.4-51.9c-28.2-28.6-51.3-52.5-51.3-53-.1-.6 4.3-6.2 9.6-12.5 16.3-19.5 41.4-52.1 52.1-67.7.7-1 3.1-4.4 5.3-7.5l4.1-5.8 4.1 2.4c2.3 1.3 9.3 5.4 15.6 9 6.2 3.6 11.5 6.6 11.7 6.6.1 0 4.2 2.3 9.1 5.1 4.8 2.8 10.4 6.1 12.3 7.1 1.9 1.1 10.3 5.9 18.5 10.6 8.3 4.7 17 9.6 19.5 11 2.5 1.4 8.2 4.7 12.8 7.3 4.5 2.7 8.4 4.9 8.6 4.9.1 0 3.8 2 8.1 4.5l7.9 4.5 7.8-12c20.3-31.3 41.1-67.2 57.6-99.2l8.1-15.7-6.7-3.9c-3.7-2.1-25.4-14.8-48.2-28.2-22.8-13.4-42.8-25.1-44.3-25.9-1.6-.9-3.6-2.1-4.5-2.6-1-.6-6.5-3.9-12.5-7.4-5.9-3.5-10.7-6.7-10.7-7.1 0-.5 2.1-5.2 4.6-10.7 13.5-28.7 32.2-74.3 38.4-93.6.6-2 1.6-3.7 2.1-3.7.8 0 24.2 5.9 37.4 9.5 3.3.9 6.7 1.8 7.5 2 .8.2 8.7 2.2 17.5 4.5s16.8 4.4 17.8 4.6c1 .2 2.7.6 3.7.9 1 .3 2.7.8 3.7 1 1 .2 4.5 1.2 7.8 2.1 3.3.9 6.8 1.8 7.8 1.9.9.2 2.1.6 2.5.9.5.3 2.4.8 4.2 1.1 2.8.5 15 3.6 28.8 7.4 3 .9 3.4.7 4.3-1.7 1.1-2.9 9.8-29.8 10.5-32.2.2-.8 2.2-7.8 4.4-15.5 5.1-17.4 16.7-63.6 18.5-73.5.3-1.4 1.2-5.8 2.1-9.8.9-4 1.4-7.5 1.1-7.8-.4-.4-18.8-5.7-23.8-6.9-.9-.2-10.6-2.8-21.5-5.9-11-3-22.4-6.1-25.4-7-3-.8-13.8-3.7-24-6.6-10.2-2.8-21.9-6-26-7.2-4.1-1.1-10.4-2.8-14-3.7-7.1-1.8-7.3-2-5.8-9.6 1.1-5.8 3-16.7 3.3-19 .7-4.8 1.6-10.3 2-12.4.2-1.3.7-4.9 1.1-8 .3-3.1.8-6.3.9-7.2.2-.9.6-4 1-7 .3-3 .8-6.5 1-7.9.2-1.4.7-5.7 1-9.5.4-3.9.8-8.1 1-9.5.6-4.2 1.5-14.1 2-21.4.2-3.7.5-7 .7-7.1.2-.2 33.3-.6 73.6-.8 40.3-.3 73.5-.7 73.8-.9 2.5-2.5 2.4-143.1-.1-145.7-.5-.4-42.9-.8-114.7-1.2l-32.8-.1-.1-2.1c-.1-1.2-.2-3.3-.3-4.7-.2-1.4-.6-6.3-1-11-.3-4.7-.8-9.6-1-11-.3-1.4-.7-5.9-1.1-10-.3-4.1-.8-8.4-1-9.5-.2-1.1-.7-4-.9-6.5-1.3-11.3-1.6-13.7-2.1-16-.3-1.4-.8-4.5-1.1-7-.3-2.5-1.9-12.1-3.4-21.5-1.6-9.3-2.6-17.3-2.2-17.6.4-.3 8.6-2.7 18.2-5.4 17.6-4.7 43.4-11.8 56.5-15.4 3.9-1.1 20.3-5.7 36.5-10.1 16.2-4.5 29.6-8.3 29.8-8.5.4-.4-3-16.9-6.5-31.5-1.3-5.8-2.7-11.6-2.9-13-.3-1.4-1-4.3-1.6-6.5-.5-2.2-1.2-4.7-1.4-5.5-.5-2.1-5.9-22.5-7.7-29-2.5-8.8-6.3-21.7-9.7-32.5-4.6-14.6-5.6-17.7-6.8-20.7l-1.1-2.6-11.3 2.9c-6.2 1.7-12 3.2-12.8 3.4-6.3 1.5-15.7 3.9-29 7.4-8.5 2.3-23.1 6.1-32.5 8.5-9.3 2.4-17.7 4.7-18.5 5-.8.3-2.6.8-4 1.1-2.7.5-17.9 4.4-27.3 6.9-3.2.9-6.2 1.6-6.7 1.6s-1.4-1.7-2.1-3.8c-6.5-20.1-24.5-64.2-38.3-93.5-2.5-5.5-4.6-10.3-4.6-10.7 0-.7 19.6-12.4 104.2-62l22.6-13.2-7.5-14.7c-6.8-13.1-9.5-18.3-15.4-28.8-1-1.8-3.5-6.3-5.5-10s-4.5-8-5.6-9.5c-1-1.4-1.8-2.8-1.8-3.1 0-.3-2-3.8-4.4-7.9-2.5-4-5.9-9.7-7.6-12.7-2.4-4.1-21.7-34.3-25.1-39.4-.5-.7-6.1 1.8-9.4 4.3-.5.4-3.9 2.3-7.5 4.2-3.6 2-12.6 7.1-20 11.3-7.4 4.3-15.5 8.9-18 10.3-2.5 1.3-4.9 2.8-5.5 3.2-.5.4-3.5 2.1-6.5 3.7-5.7 3.1-30 16.8-33.5 19-1.1.7-2.6 1.5-3.4 1.9-2.9 1.5-19.7 11.1-22.2 12.7l-2.6 1.7-11.4-16c-6.3-8.9-12.4-17.3-13.5-18.8-1.2-1.5-7.7-9.9-14.5-18.7-6.7-8.8-12.5-16.2-12.8-16.5-.4-.3-4.9-5.7-10.2-12l-9.6-11.6 32.9-33.4c18.1-18.4 41.5-42.1 51.9-52.5l18.9-19-11.2-12.5c-21.5-23.9-53.9-56.4-77.2-77.4-4.3-3.9-8.6-7.8-9.5-8.6-.9-.8-2.6-2.4-3.8-3.4l-2.2-1.8-25.8 25.5c-14.2 14-33.4 33-42.8 42.2-9.3 9.1-21.3 20.9-26.7 26.2l-9.6 9.6-2.4-1.9c-1.3-1-4.6-3.8-7.4-6.1-17.4-15-42-34.1-63.9-49.7-8.2-5.9-16.1-11.5-17.4-12.4l-2.3-1.7 11.6-20.5c6.4-11.3 12.2-21.4 12.8-22.5.6-1.1 6.5-11.5 13.1-23 6.6-11.6 16.1-28.3 21.3-37.3 5.2-9 9.4-16.5 9.4-16.8 0-.2 1.1-2.1 2.4-4.2l2.4-3.8-6.2-4.1c-21.8-14.5-49.8-31.4-78.1-47-19.8-10.9-42.5-22.7-42.9-22.1-.2.2-8.3 14-18.1 30.8-21.8 37.4-47.1 80.4-49.6 84.5-1 1.6-2.8 4.8-4 7-1.2 2.2-2.7 4.4-3.4 5-1.1.9-7.3 11-13.8 22.5-1 1.9-4.2 7.3-7 12-2.7 4.7-5.8 10-6.8 11.7-4.1 7.1-5.8 10.1-10.3 17.7-2.6 4.3-4.6 7.9-4.4 8.1.2.1 8.9 4.6 19.3 9.9 28.8 14.5 40.1 20.8 66.5 36.9 11.6 7 39.1 24.7 40 25.7.3.3 3.4 2.5 7 4.9 31.8 21.7 81 61.8 109.9 89.6 18.1 17.4 46.9 47.2 52.1 53.7l2 2.6-2.7 2.2c-1.5 1.2-6.9 6.1-11.9 10.8-8.8 8.4-30.2 28.4-35.5 33.3-2.7 2.4-19.8 18.2-24.9 22.9-1.5 1.4-6.6 6.1-11.5 10.5-4.8 4.4-10.2 9.3-12 11-1.7 1.6-6.7 6.1-11 10-4.3 3.8-10.7 9.7-14.2 12.9-3.5 3.2-7.3 6.8-8.6 7.8-2.8 2.5-14.7 13-16.1 14.3-1.2 1.1-5.7 5.1-18.1 16-4.3 3.8-10 8.8-12.5 11.1-9.8 8.9-42.6 36.9-63.5 54.3-27.7 23.1-27.5 23-32.1 26.6-2.1 1.6-7.6 6.2-12.3 10-33.1 27.3-91.5 70.8-127.2 94.7-20.8 13.9-26 17.2-52.9 33.8-3.3 2-18.8 11-23.5 13.6-2.7 1.5-7.7 4.3-11 6.1-22.4 12.4-62.4 30.8-86.9 39.9-30.7 11.5-68.2 21.2-92.6 24-3 .3-6.4.8-7.4 1-13.3 2.5-69 2.4-78.6-.1-.8-.2-3.5-.6-6-.9-23.4-2.8-59.5-13.3-85.1-24.7-13.2-5.8-39.7-19.4-42-21.5-.8-.8-1.9-1.4-2.2-1.4-.6 0-7.8-4.4-20.7-12.8-5.9-3.9-31.2-22.1-32-23.1-.3-.3-2.7-2.4-5.5-4.5-5.6-4.5-21.1-17.3-23.5-19.6-.9-.8-5.9-5.3-11-10-16.3-14.7-45.1-44-61.5-62.5-3.8-4.3-7.7-8.6-8.5-9.4-1.3-1.4-21.6-25.2-26.8-31.6-3.8-4.5-28-35.3-30.7-39-1.7-2.2-3.2-4.2-3.6-4.5-1.8-1.6-30.7-41.3-48.1-66-35.6-50.8-78.8-118-120.2-187-8-13.5-15.1-25.2-15.6-26-2.4-3.6-2.2-4.3 1.1-7.2 1.9-1.6 4.8-4.2 6.4-5.6 4.4-3.9 31.6-25.8 41.5-33.3 29.5-22.5 65.8-46.5 96.5-64.1 22.7-12.9 32-17.9 50.1-27l16.2-8-11.6-19.7c-6.3-10.8-12.6-21.6-14-24.1-1.4-2.5-8-13.7-14.7-25-6.7-11.3-23.1-39.2-36.4-62-13.4-22.8-25.7-43.8-27.3-46.5-1.7-2.8-4-6.6-5-8.5-4.6-8.1-8.3-14-8.8-14-.3.1-7.5 3.7-16 8.1zM791.5 775c.8 4.3 4.2 20.1 6.5 30 1.2 5.2 2.4 10.6 2.6 11.9.3 1.4.7 2.8.9 3.1.2.4.7 2.2 1 4.1.3 1.9 1 4.7 1.5 6.4.6 1.6 1.9 7 3.1 12 1.2 4.9 2.5 10 3 11.3.5 1.2 1.1 3.3 1.3 4.6 2.5 13.7 28.5 97.3 40.6 130.6 2.3 6.3 4.4 12.5 4.7 13.8.3 1.2.9 2.5 1.4 2.8.5.3.9 1.4.9 2.5 0 1 .4 2.7 1 3.7.5.9 3.9 9.6 7.6 19.2 3.6 9.6 7.1 18.8 7.8 20.5.8 1.6 2.6 6.1 4.1 10 15.7 39.4 36.1 84.6 58.2 128.5 17 34 38.1 73.2 49.4 91.9 2.2 3.4 3.9 6.5 3.9 6.7 0 .5 18.1 30.3 27.8 45.9 38 60.8 83.8 123.6 133 182.5 8.5 10.2 16 18.9 16.6 19.5.6.5 4.3 4.6 8.1 9 3.9 4.4 8.9 10 11.2 12.5 2.3 2.5 5.1 5.6 6.3 7 6.8 7.9 27.3 29.3 47 49 25.8 25.8 34.2 33.8 63 60 7.5 6.9 11 9.9 30.5 26.4 11.6 9.8 21.8 18.6 22.8 19.6 1.8 1.7 1.5 2-7.2 8.1-5 3.5-14.4 10.2-20.8 14.8-6.5 4.6-13.4 9.4-15.3 10.7-1.9 1.3-5.5 3.8-8 5.5-45.7 32.3-134.1 89.3-191 123.3-2.5 1.5-5.4 3.2-6.5 3.9-9 5.6-41.6 24.7-42.1 24.7-.2 0-3.2 1.7-6.6 3.8-5.3 3.3-39.3 22.5-52.3 29.7-2.2 1.2-6.2 3.5-9 5-2.7 1.5-7.9 4.3-11.5 6.3-3.6 1.9-7.8 4.3-9.5 5.2-1.6 1-6.8 3.8-11.5 6.2-4.7 2.5-13.2 7-19 10.1-31.2 16.6-95.9 49.1-123.5 62.2-21 10-50.3 23.6-51.5 24-.3.1-1.8.8-3.4 1.5-2.8 1.4-2.9 1.3-7.5-3.6-10.1-11.1-19.1-21.2-24.2-27.4-2.9-3.6-5.6-6.7-5.9-7-1.5-1.4-14.6-17.7-22.1-27.5-4.6-6.1-8.7-11.5-9.2-12-2.6-3.4-11-15-14.8-20.5-2.4-3.6-4.7-6.7-5-7-1.2-1.1-22.1-33.4-30.4-47-40.6-66.8-74.5-143.2-96.1-216.2-.8-2.7-2.1-7.2-3-10-.8-2.9-1.9-6.9-2.4-8.8-.5-1.9-2.3-8.7-4-15-1.7-6.3-3.3-12.4-3.4-13.5-.2-1.1-1.1-4.9-2-8.5-1.3-5.5-7-32.1-8.1-38.5-.2-1.1-.9-4.7-1.5-8-.5-3.3-1.2-7.1-1.5-8.5-.2-1.4-.6-4.1-.9-6-.2-1.9-.9-6.2-1.5-9.5-1.2-6.8-2.1-13.6-2.6-18-.1-1.7-.6-5-.9-7.5-1-6.8-1.4-10.8-2.1-19-.4-4.1-.8-8.6-1-9.9-.2-1.3-.7-6.5-1.1-11.5-.3-5-.8-10.7-1-12.6-2.2-22.4-2.2-112.8 0-126 .3-1.4.7-7.2 1.1-13 .3-5.8.8-11.2 1-12 .2-.8.6-5 1-9.3.4-4.3.8-8.8 1-10 .2-1.2.6-4.7.9-7.7.4-3 .8-6.6 1-8 .3-1.4.7-4.8 1.1-7.5.7-6.1 3.3-22.7 4.1-26.9.2-1.1 1.1-6.2 2-11.1.8-5 2.2-12 3-15.7.7-3.7 1.6-8.2 1.9-10 .3-1.8 1-4.7 1.5-6.3.5-1.7 1.1-4.4 1.3-6 .8-5.2 8.6-35.3 13.7-53 21.8-75.3 49.8-140.4 91.1-212.2C661.8 923 695 875 721.6 842.4c19.2-23.6 36-42.6 56.4-63.7 12.6-13.1 11.8-12.8 13.5-3.7zm1404.3 93.2c7 9.5 14.4 19.5 16.3 22.3 1.9 2.7 3.6 5.2 3.9 5.5.3.3 4.2 5.9 8.6 12.5 53.3 79.6 93.9 166.3 120.7 257.5 5.6 19.1 9.8 35.1 14.1 54 3.9 17.4 3.7 16.5 6.5 31.5 1.2 6 2.3 11.7 2.6 12.5.2.8.7 4 1 7 .4 3 .9 5.8 1.1 6.1.2.4.6 2.7.9 5 .3 2.4 1.2 8.9 2 14.4s1.7 12 1.9 14.5c.3 2.5.7 5.8 1 7.5.2 1.6.7 5.7 1 9 .4 3.3.9 8 1.1 10.5 1.1 11 1.7 18.3 3.2 41 1.5 24.1.8 93-1.2 118-1.5 19.1-3.9 42.9-5 50-.2 1.4-.9 6.3-1.5 11s-1.3 9.6-1.5 11c-.3 1.4-.7 4.3-1 6.5-1.3 8.3-5.5 31.5-8.1 43.5-1.4 6.9-2.7 13.2-2.9 14-1.7 8.1-10.3 41.8-14 54.5-9.8 34.2-26.8 82.4-37 105-.8 1.6-3.9 8.8-7.1 16-6.4 14.8-20.5 43.7-29.2 60-20.1 37.8-46.9 80.3-71.6 113.5-7.4 9.9-27.6 36.1-28.5 37-.4.3-5.3 6.1-11.1 13-11.1 13.3-14 16.6-23.4 26.7-3.3 3.5-6.5 7.1-7.1 8-1 1.3-1.9 1.4-6.1.4-2.7-.6-6.5-1.3-8.4-1.6-1.9-.3-4.2-.8-5-1-.8-.2-2.8-.7-4.5-1-1.6-.2-4.1-.7-5.5-1-1.4-.3-3.6-.8-5-1.1-1.4-.2-6.5-1.3-11.5-2.4-4.9-1.1-9.9-2.2-11-2.4-2-.4-19.9-4.5-31.4-7.3-3.6-.8-7.2-1.6-8-1.8-.9-.2-12.4-3.1-25.6-6.5-40.5-10.3-61.6-16.4-108.5-31-9.1-2.8-17.4-5.5-18.5-6-1.1-.4-12.1-4.3-24.5-8.5-37.4-12.9-84.3-30.9-115-44.2-5.8-2.5-11.4-4.9-12.5-5.4-30.6-13-99.3-46.5-126.5-61.7-2.5-1.3-7.4-4.1-11-6-71.5-38.7-154.3-94-224.7-150.1l-8.1-6.4 2.7-2.2c1.4-1.1 8.5-6.4 15.6-11.5 15.3-11.1 56.8-42.1 57.5-42.9.3-.3 6.1-4.9 13-10.1 12.1-9.1 45-34.9 46-36 .3-.3 6.1-5 13-10.5 6.9-5.4 16.8-13.4 22-17.8 5.2-4.3 10.2-8.4 11-9 4-3.2 12.7-10.4 14.5-12.2 1.2-1.1 4.1-3.6 6.5-5.5 6.5-5.2 11.7-9.6 13.3-11.1.8-.8 3.8-3.4 6.8-5.9 8-6.8 29.3-25.2 29.9-25.9.3-.3 2.3-2.1 4.5-4 6.4-5.4 39.2-34.7 42.6-38 .9-.9 5.6-5.3 10.5-9.7 4.9-4.5 10.3-9.4 11.9-10.9 1.7-1.5 9.7-9.1 17.9-16.9 8.1-7.8 17.3-16.5 20.5-19.4 25.5-24.1 89.9-89.6 119.6-121.7 2-2.2 5.8-6.3 8.4-9 2.5-2.8 10.7-11.8 18.1-20 7.4-8.3 13.7-15.2 14-15.5.7-.6 30.4-34.5 33.4-38 8-9.6 13.3-15.6 14.2-16.5 6.5-5.9 80.4-98.3 104-130 4.9-6.6 9.4-12.5 9.9-13.1.9-1 8.8-11.8 18.7-25.7 2.1-2.9 4.1-5.7 4.6-6.2 1.6-2 18.1-25.3 29.4-41.5 15.2-21.8 44.8-66.2 58.3-87.5 5.9-9.4 11.9-18.8 13.4-21.1 1.4-2.3 5.5-8.9 9.1-14.7 3.6-5.9 6.8-10.7 7.2-10.7.4 0 6.5 7.8 13.6 17.2zm-715 447c-.1 10.7-.5 15.8-1.2 15.9-.6 0-7.7.1-15.9.2l-14.7.2-.1-8.3c-.1-10.3-.1-14.1 0-19.7l.1-4.5 15.9.2 15.9.1v15.9zm-.1 77c.2 8.7-.1 15.8-.5 15.9-3.8.4-29.6.3-30.4-.2-1-.7-1.4-29.1-.4-30.7.3-.5 7.4-.9 15.8-.8l15.3.1.2 15.7zm.1 74.9c.2 15.9.2 15.9-2 16-2.7.1-27.9.1-29.3 0-1-.1-1.2-27.8-.2-30.5.4-1 3.9-1.4 15.9-1.4l15.4-.1.2 16zm-.3 72.9v15.5l-16 .3-16 .2.2-11.7c.1-6.5.2-13.7.2-15.9l.1-4.2 15.8.2 15.7.1v15.5zm.2 70.7l-.2 15.8-15.7.3-15.8.3-.1-4.3c0-4.3 0-25.7.1-27.1 0-.4 7.2-.7 15.9-.7h15.9l-.1 15.7zm.1 233.5c0 8.7-.2 15.8-.6 15.9-.4 0-7.6.1-16 .2l-15.2.2-.1-8.8c-.1-10.9-.1-14.7 0-19.6l.1-3.8H1480.7l.1 15.9zm-.6 61.7c.3 0 .7 7.1.7 15.6 0 15.3 0 15.5-2.2 15.6-7.9.2-28.9 0-29.2-.3-.4-.4-.7-16-.6-25.8l.1-5.6 15.3.2c8.3.1 15.5.2 15.9.3zm.3 88.5v15.9h-15.3c-8.3 0-15.4-.2-15.7-.5-.5-.5-.7-8.5-.6-22.4l.1-9.2 15.8.2 15.7.1v15.9zm0 75v15.8l-15.4-.1c-8.5 0-15.6-.3-15.9-.5-.3-.4-.5-12.8-.2-28.7v-2.7l15.8.2 15.7.1v15.9zm582.8 62.9c-2.5 2.7-27.8 23.7-40.8 33.8-17.8 13.8-31.9 24.1-49.5 36-3.6 2.4-6.7 4.6-7 4.9-.3.3-1.3.9-2.2 1.5-.9.5-7.7 4.8-15 9.5s-14.2 9-15.3 9.6c-1.1.6-4.9 2.9-8.5 5.1-20.1 12.3-66.1 36.3-91 47.5-23 10.4-75 31.2-80.5 32.2-.5.1-6.6 2.1-13.5 4.3-6.9 2.3-16.5 5.4-21.5 6.8-4.9 1.5-10.1 3.1-11.5 3.6-1.4.5-3.4 1.1-4.5 1.3-1.1.3-9 2.3-17.5 4.5-21.2 5.5-43.4 10.5-62.5 14.1-3.3.6-7.1 1.3-8.5 1.6-3.6.7-13 2.3-16.5 2.8-5 .7-11.9 1.8-13.5 2.1-.8.1-4 .6-7 1-3 .3-6.6.8-8 1-4.7.7-13.4 1.7-17.8 2.1-2.5.2-6.1.6-8.1.8-10.2 1.4-35.6 3.2-58.6 4.2-21.5.9-70.1.4-90.5-1-4.1-.3-11.3-.8-16-1.1-4.7-.3-10.3-.7-12.5-.9-2.2-.3-7.4-.7-11.5-1.1-4.1-.3-8.4-.8-9.5-1-1.1-.2-4.5-.7-7.6-1-3.1-.3-6.5-.7-7.5-.9-2.1-.4-12.7-1.8-15.9-2.1-3.4-.4-15.1-2.3-30.5-5-5.3-.9-24.7-4.7-28-5.5-1.9-.4-7.1-1.5-11.5-2.4-26.5-5.6-94.3-25.1-106-30.6-1.1-.5-4-1.6-6.5-2.4-5.2-1.7-17.6-6.2-20.5-7.5-1.1-.5-5.1-2.1-9-3.6-3.8-1.5-8.3-3.3-10-4-1.6-.8-5.8-2.5-9.3-4-19.1-7.8-56.5-25.9-78.7-38-58-31.6-120.3-74.8-167.4-116.3l-4.5-3.9h616.7c611.9 0 616.7 0 615 2zM445.4 398.9c-2.1 2.1-15.8 15.9-30.3 30.6l-26.5 26.6 21.1 20.7c11.6 11.4 39.3 38.6 61.5 60.5 22.1 22 44.4 43.9 49.4 48.8l9 9 26-26.2c14.2-14.4 27.8-28 30.2-30.3 7.6-7.3 8.6-5.4-16.2-29.6l-5.6-5.4-13.1 13.2c-12.9 13-13.2 13.3-15.1 11.5-1.1-1-8.1-7.8-15.5-15L506.9 500l11-11.1c6.1-6.1 11.1-11.4 11.1-11.8 0-.6-22.1-22.5-25.2-24.9-1.4-1.2-3 .1-12.7 10L480 473.5l-13.1-13.2-13.2-13.1 11.4-11.7c6.3-6.4 11.4-12 11.4-12.3 0-1.2-3.7-5.3-15.6-17l-11.5-11.3-4 4zM2443.9 404.3c-7.1 6.7-26.7 25.1-33.4 31.3-1.6 1.5-8.8 8.2-15.9 14.8-7 6.7-14.8 13.9-17.1 16.1-4.3 4-22.9 21.4-29.6 27.6-10.7 10.1-28.2 26.4-33.9 31.7l-6.5 6.1 2.6 2.8c4.1 4.4 18 19.3 23.5 25l4.9 5.3 6-5.6c3.3-3.1 11.1-10.4 17.4-16.3 18.3-17 19.3-18 32.2-30.1 6.8-6.3 15-14 18.3-17 3.3-3 8.6-8.1 11.8-11.2 3.2-3.1 5.8-5.5 5.8-5.2 0 .4-73.2 92.2-77.6 97.4-1.1 1.3-.3 2.5 4.9 8.2 14.5 15.5 15.9 16.9 17.1 16 .6-.5 23.2-16.6 50.1-35.7 27-19.1 49.8-35.5 50.8-36.3 2-1.8 2.3-1 .3 1-1.3 1.3-21.8 20.5-28.6 26.8-1.9 1.8-9.1 8.5-16 15-6.9 6.4-14.1 13.3-16.1 15.1-2 1.9-8.6 8.1-14.7 13.7-6.1 5.7-12 11.2-13.2 12.2-2 1.7-2 1.8 2.1 6.1 23.3 25.1 27.1 28.8 28.3 27.6.7-.6 6.4-5.9 12.6-11.7 6.2-5.8 12.7-11.9 14.5-13.5 3.4-3.2 30.3-28.3 32.1-30 .6-.6 6.9-6.5 14-13.2 7.1-6.7 14.3-13.4 15.9-14.9 3-2.7 22.4-20.9 37.9-35.5 4.5-4.2 9.8-9.1 11.9-11 2-1.9 3.7-3.8 3.7-4.2 0-.5-2.2-3.2-5-6-2.7-2.9-6.8-7.3-9.2-9.8-2.4-2.5-9.1-9.7-15-16-5.8-6.3-11.8-12.7-13.3-14.3l-2.6-2.8-5.4 3.7c-3 2-6.3 4.4-7.4 5.3-1.2.9-8.4 6.2-16.1 11.7-7.8 5.5-21.1 15.1-29.8 21.4-13.3 9.7-15.2 10.8-12.7 7.5 1.6-2.1 3.2-4.1 3.5-4.4.3-.3 3-3.7 6-7.5 3-3.9 5.9-7.5 6.5-8.1.5-.6 2.1-2.6 3.5-4.4 1.4-1.8 8.6-10.8 16-19.9 7.4-9.2 14.7-18.2 16.1-20.1l2.7-3.5-5.7-6c-15.5-16.6-31.1-33.3-35-37.6-2.4-2.7-4.6-4.9-5-4.9-.3 0-4 3.3-8.2 7.3zM350 499.6c-3.4 4.2-6.8 8.3-7.5 9.2-.8 1-7.8 9.6-15.7 19.2-7.9 9.6-16.7 20.4-19.7 24l-5.3 6.4 2.9 2.5c1.6 1.5 7.3 6.2 12.7 10.6 5.5 4.4 10.4 8.5 11 9 .9.8 18.7 15.5 58.1 47.6 1.1.9 4.9 4.1 8.5 7.1 3.6 2.9 9.9 8.1 14 11.3 4.1 3.3 8.8 7.2 10.5 8.6 1.6 1.5 10.2 8.6 19 15.8l16 13.1 3-3.3c1.7-1.9 3.7-4.2 4.5-5.3.8-1 12-14.7 24.8-30.3 12.9-15.6 23.6-28.9 23.8-29.5.4-1-28.4-25.6-29.9-25.6-.3 0-5.6 6.3-11.8 14-6.2 7.7-11.8 14-12.4 14-1.5-.1-32-25.5-32-26.7 0-.5 1.6-2.9 3.5-5.3s6.3-7.7 9.6-11.8l6.1-7.5-14.4-11.9c-10.9-9.1-14.7-11.7-15.7-10.9-.7.6-5.3 6.1-10.1 12.1-4.9 6.1-9.2 11-9.5 11-.3 0-5.5-4.1-11.4-9-6-5-12.1-10-13.7-11.1-1.6-1.1-2.9-2.4-2.9-2.9 0-.4 4.7-6.6 10.5-13.7l10.6-12.8-3.3-2.8c-1.8-1.5-8.8-7.3-15.4-12.7l-12.2-9.9-6.2 7.5zM2598.9 578.7c-4.6 2.4-15.1 8-23.4 12.3-8.2 4.4-17 9-19.5 10.4-2.5 1.3-10.8 5.7-18.5 9.6-7.7 4-14.4 7.6-15 8-.5.4-7.3 4-15 8s-16.2 8.5-19 10c-2.7 1.5-11.3 6-19 10-7.7 4-16.5 8.6-19.5 10.3-3 1.7-8 4.3-11 5.8-3 1.6-6.1 3.2-6.8 3.7-1.1.7 2.2 6 13.8 22.3 8.4 11.8 15.4 21.6 15.6 21.8.2.2 2.2-.8 4.4-2.3 2.2-1.4 4.1-2.6 4.4-2.6.2 0 4.4-2.4 9.3-5.4 4.9-2.9 9.9-5.8 11-6.4 1.9-1 2.5-.4 7.1 6.2l5.1 7.4-13.5 11.2c-7.3 6.1-13.4 11.5-13.4 12s.6 1.5 1.3 2.2c.7.7 3.5 4.5 6.3 8.5 12.2 17.6 21.9 31.3 22.4 31.3 1 0 14.1-12.3 53.5-50.5 10.5-10.1 45.5-43.7 50.4-48.4 20-19 40.1-38.6 40.1-39.2 0-.4-9.6-14.3-21.3-30.7l-21.4-30-8.4 4.5zm-8.4 56.1c-.6.5-3.7 3.1-7 5.8-3.3 2.7-6.2 5.1-6.5 5.4-.3.3-7 6.1-15 12.9-8 6.9-18 15.6-22.4 19.5-4.3 3.9-8 7.1-8.3 7.1-.2 0-2.6-2.9-5.3-6.5-4.5-6-4.8-6.6-3.2-7.8 1.7-1.3 15.1-9.1 24.7-14.2 2.8-1.5 7.3-4 10-5.5 2.8-1.5 10.6-5.7 17.5-9.3 6.9-3.6 12.9-6.9 13.5-7.3.5-.5 1.4-.9 1.9-.9.6 0 .6.3.1.8zM258.9 617.3l-12 18 34.8 23c19.1 12.6 35.3 23.3 35.8 23.9 1.3 1.3-1.5.6-16-3.5-10.8-3.1-43.7-12.2-60.5-16.8-3.6-.9-7.2-2-8.1-2.4-1.2-.4-4.2 3.4-12.7 16.4-6.2 9.3-11.5 17.6-11.7 18.4-.4.9 7.9 6.9 25.7 18.7 41.9 27.5 60 39.5 80.6 53.2 10.6 7 19.5 12.8 19.8 12.8.2 0 1 .5 1.7 1.1 1.6 1.3 31.9 21.4 34.6 22.8 1.9 1 2.9-.2 13.6-16.4 6.3-9.7 11.5-17.9 11.5-18.4 0-.4-1.2-1.4-2.7-2.2-1.6-.8-3-1.6-3.3-1.9-.3-.3-4.3-3.1-9-6.2-4.7-3-19.5-12.8-33-21.7-13.5-8.8-24.2-16.1-23.9-16.1.7 0 18 5.2 59.9 17.9 20.6 6.2 26.8 7.7 27.7 6.8.6-.7 6.4-9.1 12.7-18.7 10.6-16 11.4-17.6 9.8-18.8-.9-.8-14.3-9.7-29.7-19.8-15.4-10.2-28.7-18.9-29.5-19.5-.8-.5-9.8-6.4-20-13.2-10.2-6.7-33.3-21.9-51.3-33.8l-32.8-21.7-12 18.1zM2677.5 707.4c-7.1 3.9-16.4 9-20.5 11.3-4.1 2.2-9.5 5.2-12 6.5-4 2.2-18.5 10.2-32.5 17.8-2.7 1.5-19.6 10.7-37.5 20.5s-35 19.1-38 20.8c-13.6 7.4-18 9.9-18 10.3 0 .3 3.3 6.5 9 16.9 1.5 2.7 4.6 8.5 7 12.7 2.3 4.3 4.4 7.8 4.6 7.8.3 0 2.8-1.3 5.7-2.9 2.9-1.5 7.7-4.2 10.7-5.8 3-1.7 8-4.4 11-6 3-1.7 8.7-4.7 12.5-6.8 3.9-2.1 10.8-5.9 15.5-8.5 4.7-2.6 9.2-5 10-5.3.8-.4 3.5-1.8 5.9-3.2 2.4-1.4 4.6-2.5 4.9-2.5.3 0-13.9 14.4-31.4 32.1-17.5 17.6-31.8 32.6-31.6 33.2.2.7 3.4 6.8 7.2 13.7 3.7 6.9 8.2 15.2 10 18.5 1.8 3.3 3.4 6.2 3.6 6.4.2.2 20.7-10.8 45.6-24.4 24.9-13.6 48.2-26.3 51.8-28.3 3.6-1.9 15.3-8.3 26-14.2 10.7-5.9 22.4-12.3 26-14.2 18.2-9.9 24-13.2 24-13.9 0-.4-3.9-7.8-8.7-16.6-4.9-8.7-9.4-17.1-10.2-18.6-.9-1.7-1.8-2.4-2.5-1.8-.6.4-4.5 2.6-8.6 4.8-4.1 2.2-9.1 4.9-11 6-1.9 1.1-7.1 3.9-11.5 6.3s-11.8 6.4-16.5 9c-4.7 2.6-12.1 6.6-16.5 9-4.4 2.3-8.6 4.8-9.4 5.4-3.6 2.7 1-2.8 9.4-11.6 5-5.1 16-16.7 24.5-25.8 8.5-9 16.9-17.8 18.5-19.6 1.7-1.7 4.3-4.5 5.8-6.1l2.8-3-10.2-18.7c-5.7-10.2-10.8-18.6-11.3-18.5-.6.1-6.9 3.3-14.1 7.3zM173.5 756.8c-15.7 29.5-14.3 26.2-12 27.5 1.1.7 5.8 3.2 10.5 5.7s12.6 6.8 17.5 9.4c5 2.7 11.3 6.1 14 7.6 2.8 1.5 9.5 5.1 15 8 5.5 2.9 14.7 7.9 20.5 11 5.8 3.1 15.5 8.3 21.5 11.5 6.1 3.2 12.6 6.7 14.5 7.8 1.9 1.1 7.8 4.2 13 6.9 5.2 2.8 14.2 7.6 20 10.8 5.8 3.1 13.9 7.5 18.1 9.8l7.6 4.1 5.8-10.7c3.2-5.9 7.4-13.6 9.3-17.2 1.9-3.6 4.8-8.9 6.5-11.8 1.6-3 2.5-5.7 2.1-6.2-.5-.4-4.5-2.7-8.9-5-4.4-2.4-10.9-5.9-14.5-7.8-3.6-1.9-8.7-4.7-11.5-6.2-2.7-1.5-9.5-5.1-15-8-5.5-2.9-12.2-6.5-15-8-2.7-1.5-9-4.9-14-7.5-4.9-2.6-10.3-5.6-12-6.5-1.6-1-6.8-3.8-11.5-6.3-17.8-9.3-26.7-14.1-31.5-16.7-2.7-1.5-8.6-4.7-13-7s-12.1-6.4-17.1-9.1c-5-2.7-9.3-4.9-9.5-4.9-.2 0-4.9 8.5-10.4 18.8zM151.6 841.7c-.2.2-1.6.6-3.2.9-8.7 1.6-25 14.1-31.2 23.8-14.8 23.4-17.7 47.4-8.1 66.3 6.8 13.4 16.4 18.9 74.9 43.4 17.3 7.2 33.3 13.9 35.5 14.9 2.2 1 7.8 3 12.5 4.6 7.3 2.5 10.1 2.8 20.1 2.9 11.4 0 11.6 0 19.3-3.8 23.9-11.9 35-39.4 23.5-58.3-1-1.7-1.9-3.4-1.9-3.6 0-.3 3.1-.3 7 0 6.6.4 7 .3 7.9-1.9.6-1.3 3.3-7.7 6.1-14.3 2.8-6.5 4.9-12.3 4.8-12.8-.3-.9-96.9-42-97.4-41.5-.2.2-5.3 12.2-11.4 26.7-6.2 14.6-11.4 27-11.6 27.6-.3.6 2.6 2.3 6.3 3.9 11.4 4.8 15.7 6.6 17.5 7.6 3 1.5 3.8 1 5.8-3.6 1.7-4 2.1-4.4 4.2-3.6 9.6 3.8 26.7 11.4 30.3 13.6 7.6 4.4 9.3 9.7 4.8 14.7-3.8 4.2-5.3 3.7-68.8-23.2-45.7-19.3-54.8-23.4-56.7-25.7-1.8-2.2-1.3-7.2 1-9.5 3.2-3.3 7.4-2.5 23.8 4.3 8.2 3.3 15.6 6.3 16.4 6.5 1.2.4 3.9-5.1 11.4-23.1 5.4-12.9 9.7-23.7 9.5-24-1.4-1.3-22.3-8.9-30.6-11-8.5-2.2-20.3-3.2-21.7-1.8zM2771 869.2c-7.6 2.2-95.3 24.7-99 25.4-1.4.3-3.8.9-5.5 1.4-3.8 1.2-38.1 9.9-41.5 10.6-1.4.3-3.4.8-4.5 1.1-1.1.4-2.4.8-3 .9-2.6.5-22.6 5.7-27.3 7.1-4.2 1.2-5.3 1.9-4.9 3.1.9 2.8 18.7 46.6 19.2 47 .5.5 6.8-1.1 17.3-4.4 4.1-1.3 9.5-3 12.1-3.8l4.8-1.4 3.3 8c1.8 4.4 2.8 8.3 2.4 8.8-.5.4-7.4 4.1-15.4 8-8 4-14.7 7.4-14.9 7.6-.3.3 3.9 11.4 9.3 24.8l9.7 24.4 8.7-5c4.8-2.8 10.1-5.9 11.7-6.8 1.7-1 8.2-4.8 14.5-8.5 18.9-11.1 40.2-23.6 45.5-26.7 2.8-1.6 6.5-3.8 8.4-4.9 1.9-1.2 20.8-12.2 42-24.6 21.2-12.4 39.3-23.1 40.3-23.7 1.5-1.1.2-4.7-12.2-35.5-7.6-18.8-14-34.4-14.2-34.5-.2-.2-3.2.6-6.8 1.6zm-24.1 53.2c-.2.2-11.6 6.1-25.4 13.1-13.7 7-26.3 13.5-28 14.5-6.1 3.5-14.6 8-15.3 8-.4 0-1.3-1.2-1.8-2.8-.6-1.5-2.1-5-3.2-7.8l-2.1-5.2 20.2-5.7c11.1-3.1 21.1-5.9 22.2-6.1 1.1-.2 8.5-2.1 16.5-4.3 13.6-3.6 17.9-4.6 16.9-3.7zM71.6 991.7c-2 6.4-9.4 32.3-9.8 34.6-.3 1.7 4.5 3.3 39.1 13.3 21.6 6.3 40 11.4 40.7 11.4.8 0 1.4.4 1.4 1s-4.2 1-10.2 1.1c-5.7.1-13 .2-16.3.4-8.5.4-54.2 1.8-59.2 1.9-3.9 0-4.2.3-5.1 3.6-1 3.5-8.2 28.5-10.1 34.7l-1 3.3 5.7 1.7c3.1.9 6.2 1.8 6.7 1.9.6.1 9.8 2.8 20.5 5.9 10.7 3.2 22.4 6.6 26 7.6 3.6 1 19.1 5.4 34.5 9.9 15.4 4.5 28.7 8.3 29.5 8.5 1.9.5 48.4 13.9 57.5 16.6 3.9 1.1 7.7 2.2 8.5 2.5 1.2.3 2.8-4.2 7.3-20.2 3.2-11.3 5.7-20.8 5.4-21-.4-.4-60.3-17.8-64.7-18.9-5.9-1.3-16.9-4.9-16.5-5.3.5-.5 31.2-1 74.1-1.1l15.2-.1 3-10.8c1.7-5.9 4.5-15.6 6.2-21.6 1.7-6 2.9-11 2.8-11.1-.2-.2-6.8-2.2-14.8-4.4-8-2.3-17.4-5-21-6.1-7.3-2.2-5.8-1.7-50.5-14.6-18.1-5.3-41.5-12-52-15.1-10.4-3-20.3-5.9-22-6.3-3.3-.8-19.1-5.4-24.1-7-4.7-1.5-5.1-1.3-6.8 3.7zM2793.5 1016.7c-1.6.3-7 1.3-12 2.4-4.9 1.1-9.9 2.2-11 2.4-1 .3-15.4 4.1-32 8.6-62.9 17-67.7 18.8-78.2 29.6-8.7 8.8-13.5 21.6-13.2 34.7.3 17.2 7.6 29.9 20.7 36.1l6 2.8-5.8 3.9-5.8 3.8 2.9 10.6c4.8 17.9 5.9 21.5 6.8 21 .5-.3 23.3-6.7 50.7-14.1 27.4-7.4 50-13.7 50.2-14 .3-.3-.5-4-1.7-8.2-1.1-4.3-3.9-14.6-6.1-22.8-3.3-12.3-5.4-19.6-7.3-26.6-.1-.3-6.8 1.2-14.8 3.4l-14.6 4 1.3 4.9c.9 3.7 1 5 .1 5.3-7 2.6-31.2 8.4-37.2 9-6.5.7-11.6-8-7.6-12.9 1.8-2.2 20.3-8.6 32.1-11.1.8-.2 12.5-3.3 26-7 34.5-9.4 57.7-15.6 59.8-15.9 8.9-1.7 9.9-1.7 12 .1 3.1 2.6 3.8 7.3 1.5 10.1-2 2.5-10.2 5.5-26.4 9.8-5.7 1.5-10.8 3-11.2 3.4-.7.6 11.6 48.6 12.7 49.7.3.3 26.2-7.5 28.4-8.6.9-.4 4.3-2.1 7.5-3.7 8.2-4.1 14.1-9.5 18.1-16.7 6.8-12.2 8.8-25.7 6.1-41.4-4.2-25-16.1-42.1-35.2-50.4-4.7-2.1-15.7-3.1-22.8-2.2zM30.5 1148.4c-.5 1.5-3.2 15.2-3.9 20-.4 2.1-.8 4.8-1.1 6-.2 1.2-.7 3.7-1 5.6-.2 1.9-.7 4.8-1 6.5-1.4 7.6-3.5 19.3-4 22.5-.7 4.4-1.3 7.8-2 11-.2 1.3-.7 4.2-1.1 6.4-.3 2.2-.8 4.4-1 4.8-.3.5-.3.8-.1.8.2 0 2.8.4 5.8 1 3 .5 7 1.2 8.9 1.5 1.9.3 4.2.8 5 1 .8.2 3.5.7 6 1 2.5.3 5.2.8 6 1 .8.2 3.1.6 5 .9 1.9.3 4.6.8 6 1.1 4.8.9 26.5 4.7 29.5 5.1 1.7.2 6.4 1.1 10.5 1.9 4.1.8 8.9 1.7 10.5 1.9 5.1.9 20.9 3.6 23.5 4.1 5.3 1 14.6 2.7 16.5 3 4.9.7 16.3 2.7 20 3.5 2.2.5 5.8 1.1 8 1.4 2.2.4 7.6 1.3 12 2.1s9.1 1.6 10.5 1.8c12.5 2.1 11.4 2.5 12.4-3.8.2-1.7 1.2-7.1 2-12 .9-5 1.9-10.5 2.2-12.4.3-1.8.8-4.3 1-5.5.3-1.9.8-4.4 2.9-16.1.3-1.7 1.2-7.1 2-12 .9-5 1.8-10.1 2.1-11.5 2.3-12.4 2.3-12.2-.8-13.1-1.5-.4-4.5-1-6.5-1.3-2.1-.3-4.9-.8-6.3-1.1-1.4-.3-4.1-.8-6-1.1-1.9-.4-4.4-.8-5.5-1-1.1-.2-4.4-.7-7.2-1-5.1-.6-5.3-.6-5.4 1.7 0 1.3-.2 3.1-.4 3.9-.2.8-.6 3.1-.9 5-.4 1.9-1.3 7.1-2.1 11.5-1.8 9.7-2.3 12.8-2.4 13.7-.1.4-.7.5-1.3.3-.7-.2-2.6-.7-4.3-1-8.4-1.4-20.2-3.5-22-3.9-1.1-.2-4-.7-6.5-1.1-8.3-1.2-8.3-1.2-7.5-6.2.3-2.5.8-5.5 1.1-6.6.2-1.2.9-5.1 1.5-8.7.6-3.6 1.3-7.7 1.6-9.3.3-2.1 0-2.7-1.4-2.8-1 0-2.5-.2-3.3-.4-10.3-2.2-31.5-5.4-32.1-4.8-.4.4-1 2.8-1.3 5.3-.3 2.5-.9 5.8-1.2 7.5-1.1 6.2-1.3 7.1-2 11.8-.4 2.7-1.3 5.1-2 5.4-.7.2-5-.2-9.6-1.1-9.5-1.7-11.8-2.1-17.3-3.1-9.1-1.5-8.7-1.1-8.1-5.8.3-2.3 1.3-8 2.2-12.7 2.3-12.5 2.8-17 1.8-17.1-.5 0-1.6-.2-2.4-.4-.8-.1-3.1-.5-5-.9-1.9-.3-9.5-1.6-16.8-2.9-9.4-1.7-13.5-2.1-13.7-1.3zM2860.5 1172.6c-3.8.7-8.6 1.5-10.5 1.8-1.9.2-6.4.9-10 1.5-3.6.6-8.3 1.3-10.5 1.6-2.2.4-4.7.8-5.5 1-.8.3-3.3.7-5.5 1-6.6 1-28.5 4.4-31.4 5-3.2.6-10.2 1.7-12.4 2-1.2.1-3.8.5-5.7.9-1.9.3-5.1.8-7 1.1-1.9.2-4.6.7-6 1-1.3.2-4.2.7-6.5 1-5.4.8-9 1.4-15.5 2.5-5.5 1-9.9 1.7-15.5 2.5-1.6.2-3.9.6-5 .8-1.1.3-4.2.8-6.8 1.1-2.7.4-5.6.9-6.5 1.1-1 .1-5.3.8-9.7 1.5-4.4.7-8.7 1.4-9.5 1.5-.8.2-2.3.4-3.2.4-1 .1-1.6.8-1.3 1.8.1 1 .8 5.4 1.5 9.8s1.4 8.7 1.5 9.6c.5 2.4 1.6 9 2 11.9.2 1.4 1.3 8.3 2.4 15.5 1.2 7.1 2.4 14.6 2.7 16.5.8 5.3 1.1 7.1 1.9 11.4.8 4.2 1.2 6.8 1.4 10.3 0 1.3.6 2.1 1.4 1.8.6-.2 3-.7 5.2-1 2.2-.3 5.6-.8 7.5-1.1 1.9-.3 6.2-1 9.5-1.5 3.3-.6 7.4-1.3 9-1.5 7.1-1 7-1 6.7-4-.2-1.6-.9-6.5-1.7-10.9-.8-4.4-1.7-9.8-2-12-.2-2.2-.7-5.6-1.1-7.7-.6-4.1-1.4-3.6 11.3-5.8 3.5-.6 7.4-1.2 8.7-1.4 1.4-.3 6-1 10.3-1.6 4.3-.7 8.6-1.4 9.5-1.5 2.1-.4 2.8.5 2.9 4.2.1 1.5.5 4.4 1 6.3.8 3.6 1.3 6.9 2.5 15.7.5 4 1 5.1 2.3 4.8 1.8-.3 8.9-1.4 13.6-2.1 1.7-.2 4.2-.7 5.7-1 1.5-.3 4.2-.7 6-.9 10.5-1.3 11-1.5 10.4-4.3-.8-3.5-3.2-18.4-4.1-24.4l-.6-4.7 3.3-.5c1.8-.3 4.7-.8 6.3-1.1 1.7-.3 5.3-.8 8-1.1 2.8-.4 5.3-.8 5.6-1 .4-.2 3.1-.6 6-1 3-.3 5.7-.8 6.2-1.1.9-.5 1.4 1 2.2 6.2.3 2.2 1.3 8 2.1 13 .9 4.9 1.7 10 1.9 11.3.4 3.3.8 3.5 6.7 2.3 2.9-.6 7.2-1.3 9.5-1.6 2.3-.2 8.1-1.1 12.8-2 4.8-.8 9.2-1.5 9.7-1.5.9 0 .7-3.4-.6-11-1.2-6.4-2.6-14.9-3.1-18.5-.3-2.2-.8-5.1-1-6.5-.2-1.4-.9-5.4-1.4-9-1.4-8.9-2.3-14.3-2.5-15.5-.1-.6-1.1-6.3-2.1-12.8-2.1-13.3-.9-12.4-13-10.1zM2872.7 1310.7c-.1 0-9.4.4-20.7.8-11.3.3-24.1.8-28.5 1-4.4.2-16.5.6-27 1-10.4.3-23 .8-27.9 1-4.9.2-17.1.7-27 1-10 .4-21 .8-24.6 1-3.6.1-10 .3-14.3.4l-7.7.1.6 16.7c.4 9.3.7 19.1.8 22 0 2.8.4 5.4.8 5.8.7.7 8 .7 22.8 0 4.7-.2 16.8-.7 27-1 10.2-.3 23-.8 28.5-1 42.7-1.5 49.1-1.3 34 1-2.2.3-4.7.8-5.5 1-.8.2-3.1.7-5 1-1.9.3-4.6.8-6 1-5.9 1.2-14.1 2.7-22 4-5.1.9-23.7 4.3-29.5 5.5-2.7.5-6.7 1.2-8.9 1.6-2.1.3-4.8.8-6 1-1.1.3-5.9 1.1-10.6 1.9-4.7.9-10.8 2-13.7 2.6l-5.1 1 .3 5.4c.2 3 .5 10.2.7 16 .2 8.5.5 10.5 1.8 10.7.8 0 2 .2 2.5.3.6.1 5.3.5 10.5.9 5.2.5 10.4 1 11.5 1.2 1.1.2 5.4.6 9.5 1 4.1.3 8.6.7 10 .9 1.4.2 6.1.7 10.5 1 4.4.4 9.1.8 10.5 1 1.4.2 5.7.7 9.5 1 3.9.3 9.1.8 11.8 1 10.2 1 14.4 1.5 20.2 2.1 9.8 1.1 11.8 1.2 15.9 1.3 2.2.1 3.7.3 3.4.6-.5.6-10.8 1.1-38.8 2-9.6.3-21.3.8-26 1-8.9.4-39.9 1.5-53.5 2l-8 .2.2 8.4c0 4.6.3 14.8.5 22.6l.3 14.3 13-.5c7.2-.3 18.6-.7 25.5-1 6.9-.3 19.3-.7 27.5-1 8.3-.3 20.9-.8 28-1 7.2-.3 19.1-.7 26.5-1 7.4-.2 20.5-.7 29-1.1 17.8-.7 29.3-1.1 40.2-1.4 4.6-.2 7.8-.7 8.1-1.4.2-.6.2-3.6.1-6.6-.6-12.7-1.6-43.1-1.8-50.8-.1-9.5.7-8.8-11.6-9.7-4.1-.3-9.3-.7-11.5-1-2.2-.2-7.1-.7-11-1-3.8-.3-8.8-.8-11-1-2.2-.2-7.4-.7-11.5-1-4.1-.4-8.6-.8-10-1-1.4-.1-6.8-.6-12-1s-9.8-1-10.2-1.4c-.4-.4 0-.7 1-.8 1.9-.1 13.3-2.2 32.3-5.8 7-1.4 14.2-2.7 16-2.9 3.1-.5 14.4-2.5 31.7-5.7l6.3-1.1-.7-19.7c-.3-10.8-.8-22.1-.9-25.1-.2-3-.3-9.2-.4-13.8l-.1-8.2-10.1.2c-5.5.2-10.1.4-10.2.5zM161.5 1351.3c-.3.6-.6 7.4-.9 14.9-.2 7.5-.7 14.2-1.1 14.8-.4.6-4.1.8-10.3.5-5.3-.2-17.1-.7-26.2-1-21.4-.7-37.2-1.3-54.5-2-13.4-.5-29.6-1.1-54.7-2l-11.8-.4-.1 4.7c0 2.6-.2 9.6-.5 15.7-1.2 31.5-1.2 30.4.5 30.9.9.3 9.5.8 19.1 1.1 9.6.3 22.2.7 28 1 5.8.2 17.7.7 26.5 1 8.8.3 22.1.8 29.5 1 7.4.3 19.4.8 26.5 1 20.2.7 40.8 1.5 54.3 2.1l12.2.5.1-3.3c0-1.8.2-6.5.4-10.3.2-3.9.6-15.1 1-25 .3-9.9.8-24 1-31.3l.5-13.2-2.7-.1c-19-.4-34-1-35.1-1.4-.7-.3-1.5.1-1.7.8zM190 1460.5c-8 1.8-25.1 5.5-27.7 6.1-2.5.5-20 4.2-39.8 8.5-7.7 1.7-15.2 3.2-16.7 3.4-1.5.2-4.4.8-6.5 1.4-2.1.6-9.2 2.1-15.8 3.5-6.6 1.4-15.4 3.3-19.5 4.2-4.1.8-8.6 1.8-10 2-1.4.3-6.3 1.4-11 2.4-4.7 1.1-15.2 3.3-23.5 5-8.2 1.8-15.7 3.4-16.6 3.6-1.2.3-1.5 1.5-1.3 5.2.4 7.1 1.4 23 1.9 29.2.2 3 .7 10.7 1 17 .4 6.3.8 13.1 1 15 .2 1.9.4 4.6.4 6 .1 2 .6 2.5 2.9 2.6 6.6.3 25 1.5 28.2 1.9 1.9.2 8.7.7 15 1 6.3.4 13.1.8 15 1 1.9.2 8.7.6 15 1 6.3.4 12.6.8 14 1 1.4.2 7.5.7 13.5 1 6.1.4 12.8.8 15 1 2.2.2 8.5.6 14 1 9.9.6 14.9.9 29.5 2 10.9.8 19.4 1.4 28.9 2l8.3.6-.7-10.8c-.3-5.9-.8-12.8-1-15.3-.1-2.5-.6-9.5-1-15.5-.4-6.1-.9-11.2-1.1-11.4-.2-.3-8.1-.6-17.6-.8-9.5-.2-17.3-.5-17.4-.6-.1-.1-.4-4.1-.8-8.9l-.7-8.6 2.8-.6c1.5-.3 4.4-.8 6.3-1.1 9.1-1.2 12-1.6 18.9-2.7l7.3-1.1-.6-10.1c-.3-5.6-.9-14.6-1.2-20.1-.4-5.5-.8-11.4-.9-13-.2-1.7-.4-4.5-.4-6.3-.1-1.7-.4-3.1-.8-3.1-.5.1-3.3.7-6.3 1.4zm-59.8 69l.3 8-7-.1c-10.7-.1-42.5-1.7-55-2.8-2.7-.2-7.4-.5-10.2-.5-2.9-.1-5.3-.5-5.3-.9 0-.5.6-.9 1.3-.9 1.2 0 8.3-1 12.7-1.7 4.4-.8 10-1.6 14.8-2.1 2.6-.3 5.4-.8 6.2-1 .8-.2 3.5-.7 6-1 3.9-.6 19.7-3.2 30-5 1.9-.3 3.6-.8 3.9-1.1 1.3-1.2 2 1.8 2.3 9.1zM2697.9 1508.1c0 .8-.2 2.1-.4 2.9-.1.9-.6 6.3-.9 12-.4 5.8-.9 11.8-1.1 13.5-.2 1.6-.7 6.4-1 10.5-.6 9.6-1.5 19.4-2 24.5-.2 2.2-.7 8.3-1.1 13.5-.3 5.2-.8 9.8-1.1 10.2-.2.5 1.5.9 3.9.9 2.4.1 5.2.3 6.3.4 1.1.2 6.1.6 11 .9 5 .4 11.1.9 13.8 1.2 3.4.3 4.7.1 4.8-.8 0-.7.2-2 .3-2.8.3-1.5 1-9.4 2.2-24.8.4-4.8 1.1-8.2 1.8-8.3 2.4-.2 11.9.3 13.9.7 1.2.2 6.2.7 11.2 1 4.9.3 10.1.7 11.5.9 1.4.2 3.1.3 3.8.4 1.4.1 1.3 4.2-.4 24.8l-.6 7.3 2.8.1c1.6 0 3.6.2 4.5.4.8.1 5.6.6 10.5.9 4.9.4 11.4.9 14.5 1.2 5.2.5 5.5.4 5.6-1.8.1-2.9 1.4-18.4 1.8-21.8.2-1.4.4-3.7.4-5.2.1-2.7.2-2.7 5.4-2.4 6.8.5 21.6 1.8 24.2 2.1 1.1.1 3.3.3 4.8.4l2.9.1-.6 7.7c-.4 4.3-.9 9.8-1.1 12.3-.5 5.5-.7 11-.6 13.1.1 1.1 1.1 1.6 3.4 1.6 1.7 0 6.1.3 9.7.6 3.6.4 9.9.9 14 1.2 4.1.4 8.2.8 9.2 1.1.9.3 2-.1 2.4-.7.8-1.3.8-1.9 1.9-16.4.4-5 .8-10.1 1-11.5.1-1.4.6-6.6.9-11.5.9-12.1 1.5-19 2.1-25 1.7-18.2 1.7-20.5-.2-20.6-1 0-2.5-.2-3.3-.3-.8-.2-5.5-.6-10.5-1-9.4-.8-13.5-1.1-25-2.1-3.8-.3-9.7-.8-13-1-3.3-.3-8.5-.7-11.5-1-3-.2-8.2-.7-11.5-.9-3.3-.3-8.7-.8-12-1-10.2-.9-18.8-1.6-24.5-2.2-3-.2-8.2-.6-11.5-.9-6.8-.4-17.4-1.3-25.5-2-37.6-3.4-47-3.9-47.1-2.4zM198.5 1614.6c-4.4.8-9.8 1.6-12 1.9-2.2.3-9.6 1.5-16.5 2.6s-14.3 2.2-16.5 2.5c-2.2.4-4.9.8-6 1-1.1.3-3.3.6-5 .8-1.6.3-4.3.7-6 1-1.6.2-5 .8-7.5 1.1-2.5.4-5.3.9-6.4 1.1-1 .2-3.9.6-6.5.9-2.5.4-5.5.8-6.6 1-1.1.2-3.8.6-6 1-2.2.3-5.1.8-6.5 1-3.3.6-6.1 1.1-22 3.5-7.4 1.1-14.6 2.3-16 2.5-3.4.6-6.1 1-22.5 3.5-7.7 1.2-14.7 2.4-15.5 2.5-.8.2-2.5.4-3.6.4-2.9.1-3.4 1.8-2.3 7.7.5 2.7 1.2 6.7 1.4 8.9.3 2.2 1 6.5 1.5 9.5 1.4 8 4 24.2 4 25 0 .4 1.9.4 4.3 0 2.3-.5 6.2-1.1 8.7-1.5 2.5-.3 6.3-.8 8.5-1.1 2.2-.3 4.2-.7 4.5-.9.3-.2 2.9-.6 5.9-1 3-.4 6.3-.9 7.5-1.1 1.2-.2 3.6-.6 5.5-.9 8.5-1.1 11.7-1.6 13.1-2 .8-.2 3.5-.7 6-1 2.5-.3 5.6-.8 7-1 2.3-.4 4.7-.8 12-2 1.4-.2 4.5-.7 7-1 2.5-.3 8.3-1.2 13-2 4.7-.8 10.5-1.7 13-2 2.5-.3 6.8-1 9.5-1.5 2.8-.5 6.7-1.2 8.8-1.5 5.6-.8 10-1.5 23.7-3.6 6.9-1.1 13.6-2.1 15-2.4 6.9-1 11.6-1.8 13-2 .8-.1 3.4-.6 5.8-1 2.3-.4 4-1 3.8-1.3-.2-.4-.7-3.1-1-6.1-.4-2.9-.8-5.6-1-6-.2-.3-.6-2.9-1-5.6-.3-2.8-.8-5.9-1-7-.2-1.1-.7-4-1-6.5-.4-2.5-.8-5.4-1-6.5-.2-1.1-.7-4.4-1.1-7.3-.8-5.9-.1-5.7-12-3.6zM2685.4 1632.7c-2.1 11.6-1.9 10.5-3.3 17.3-.6 3-1.4 7.3-1.7 9.5-.3 2.2-.8 4.3-1.1 4.7-.2.5-.1.8.2.8.4 0 6.4 1.1 13.3 2.5 7 1.3 19.9 3.8 28.7 5.5 8.8 1.7 17.1 3.2 18.5 3.5 5.1 1 14.6 2.7 17 3.1 1.4.3 3.9.8 5.5 1.3l3 .9-3 .2c-1.6.1-3.9.3-5 .5s-5.1.6-9 .9c-3.8.3-7.9.7-9 1-1.1.2-6 .7-10.9 1.1-5 .4-9.8.8-10.8 1-.9.2-5 .6-9 .9-4 .4-8.4.8-9.8 1-1.4.3-6.1.8-10.5 1.1-4.4.4-8.9.9-10 1-1.1.1-2.5.3-3.1.4-.7 0-1.7 2.9-2.3 6.3-1.6 9.1-2 11-4.6 24.7-1.4 6.8-2.2 12.7-2 13.1.3.5 3.3 1.3 6.7 1.9 3.5.6 7.4 1.3 8.8 1.6 1.4.3 5 .9 8 1.5 5.9 1.1 9 1.7 13 2.5 1.4.2 3.6.6 5 .9 4.5.7 40.3 7.7 48 9.2 4.1.9 8.6 1.7 10 1.9 1.4.2 5.9 1 10 1.8 4.1.9 13.8 2.8 21.5 4.2 7.7 1.4 21 4 29.5 5.6 8.5 1.7 19.2 3.7 23.8 4.6 4.9.9 8.6 1.2 9.1.7.4-.5 2-7.2 3.5-14.9s2.9-15.4 3.3-17c1.3-6.6.9-9.8-1.2-10.1-1.1-.2-8.1-1.5-15.5-2.9s-18-3.5-23.5-4.5c-40.4-7.6-46-8.9-40.9-9.1 1 0 2.8-.2 3.9-.4 1.1-.3 4-.7 6.5-.9 2.5-.3 8.6-1 13.5-1.6 5-.6 10.6-1.3 12.5-1.5 1.9-.2 5.1-.6 7-.9 1.9-.3 5.8-.8 8.5-1.1 6.1-.7 9.5-1.2 16-2 2.8-.4 6.4-.9 8-1.1 1.7-.2 5.1-.6 7.7-.9l4.6-.7 2.2-11.4c1.2-6.3 2.4-12.6 2.6-14.1.3-1.4 1.1-5.6 1.9-9.2.7-3.6 1.1-6.9.7-7.3-.6-.5-10.9-2.8-19.6-4.2-1.6-.3-5.2-1-8-1.5-2.8-.6-6.2-1.3-7.6-1.5-1.4-.3-5-1-8-1.6-3-.6-6.8-1.3-8.5-1.5-1.6-.3-4.1-.8-5.5-1-2.9-.6-3.2-.7-20.5-4-7.1-1.3-14.8-2.7-17-3.1-2.2-.3-4.3-.8-4.6-.9-.3-.2-3.2-.9-6.5-1.4-3.2-.6-13.1-2.4-21.9-4.1-8.8-1.7-17.3-3.3-19-3.6-1.6-.2-6.1-1.1-10-1.9-3.8-.8-8.6-1.7-10.5-2-1.9-.3-7.8-1.5-13.2-2.5-14.4-3-13.3-3.6-15.4 7.7zM188.5 1702.1c-36.6 9.3-42.8 11.2-47.6 14.5-4.8 3.3-9.5 10-10.5 14.9-.5 2.2-.9 4.3-1 4.7-.1.5-.2 2.5-.3 4.5l-.1 3.8-3.1-5.5c-1.7-3-4.3-6.7-5.7-8.3-5.8-6.2-17.4-6.7-37.5-1.8-21.3 5.3-32.9 12.7-38.9 24.9-2.9 5.9-3.3 7.6-3.3 14.7.1 7.8.3 9.9 2.5 22 .9 4.5 9.1 39.3 12.6 52.5.2.8.8 3.2 1.3 5.3.5 2.1 1.2 4.1 1.5 4.4.7.7-2.5 1.5 73.6-17.8 32.7-8.2 60.6-15.3 62-15.6 5.1-1 5.5-1.1 5.5-1.3 0-.1.7-.3 1.5-.5.9-.1 6.3-1.5 12-3 5.8-1.5 11.6-2.9 12.9-3.1 1.4-.3 5.8-1.4 9.8-2.5 4.1-1.1 8.6-2.3 10.1-2.5 1.5-.3 3.1-.9 3.5-1.3.4-.4-.9-7-2.8-14.7-2-7.6-3.8-14.7-4-15.8-.3-1-1.4-5.8-2.6-10.6l-2.1-8.8-5.6 1.4c-11.6 2.8-30.1 7.4-41.7 10.4-6.6 1.7-12.7 3.2-13.5 3.4-.8.2-6.2 1.6-12 3.1s-11.3 2.8-12.2 3c-1.3.3-1.8-.6-2.4-4.3-.9-5.9.8-9.1 6.1-11.6 2.2-1 20.2-5.9 40-10.9 19.8-4.9 36.3-9.3 36.6-9.6.4-.3-1.9-10.7-5-23.1-4-15.6-6.2-22.6-7.2-22.7-.8-.1-15.3 3.4-32.4 7.8zm-72.1 71.8c1.8 1.5 4.7 9.9 3.7 10.5-2 1.2-40.7 10.4-41.3 9.8-.4-.4-.8-2.8-.9-5.4-.4-7.8 2.2-9.8 18.1-13.8 10.8-2.8 17.9-3.1 20.4-1.1zM2642.9 1814.4l-7.6 24.4 5.1 1.5c4.4 1.3 28.7 8.8 56.1 17.4 8.3 2.6 16.2 5 26.8 8.2 19 5.8 62.2 19.4 62.5 19.6.3.3-2.2 9.1-7.1 24.6l-1.4 4.6 18.5 5.7c10.8 3.3 18.8 5.4 19.4 4.8.6-.6 12.5-37.2 14.2-43.7.1-.6 1.3-4.4 2.6-8.5s2.5-8 2.6-8.5c.4-1.6 8-26.2 11.2-36.3l3-9.2-14.7-4.5c-8-2.5-16.5-5.2-18.9-5.9-2.3-.7-4.5-1-4.7-.6-.3.4-2.3 6.8-4.6 14.1-2.2 7.4-4.2 13.5-4.3 13.7-.2.2-22.4-6.4-31.4-9.3-.7-.3-1.4-.5-1.7-.5-.3 0-2.4-.8-4.7-1.6-2.4-.9-5-1.7-5.8-1.9-.8-.2-8.9-2.7-18-5.5s-16.9-5.3-17.5-5.4c-.5-.1-3.5-1-6.5-2s-8.2-2.6-11.5-3.6c-3.3-1-16.3-5-28.9-8.9-12.5-3.9-23.4-7.1-24-7.1-.7 0-4.4 10.4-8.7 24.4zM244.5 1867.1c-27.5 10.3-27 10.1-27.1 9.7 0-.2-.7.2-1.5.8-.8.7-3 1.7-4.9 2.2-1.9.6-8.9 3.2-15.5 5.7-6.6 2.6-14.2 5.5-17 6.4-2.7 1-16.5 6.1-30.6 11.4-14 5.4-26 9.7-26.5 9.7-.6 0-3.4-6.3-6.3-13.9l-5.3-14-7.6 2.9c-23.7 8.7-27.8 10.3-28.5 11-.7.6 6.8 22.7 11.3 33.2.5 1.3 6.6 17.6 13.6 36.3 6.9 18.7 13 34.4 13.5 34.9.8.9 36.9-12.1 36.9-13.3 0-.4-2.3-6.6-5-14-2.9-7.6-4.7-13.8-4.2-14.3s1.7-1 2.8-1.3c1-.2 12.7-4.5 25.9-9.6 13.2-5 26.3-9.9 29-10.8 8.1-2.9 67.4-25.2 86.1-32.4l3.1-1.2-4.4-12c-4.7-12.6-6.5-17.3-11.1-29.2l-2.7-7.1-24 8.9zM284.5 1968.5c-16.1 3.1-39.2 15.6-51.3 27.7-6.8 6.8-11.5 18.6-13.7 34.5-.3 2.1-.8 5.3-1 7-.3 1.8-.7 6.5-1 10.5-1.2 14.8-2.4 22.6-4.2 26.3-3.3 6.6-14.1 12.9-23.8 14-3.4.4-7.4-3.8-7.5-7.8 0-3.8 3.3-6.6 14.3-12.3 5.1-2.6 9.4-4.8 9.6-5 .4-.4-19.6-40.4-20.9-41.7-1.9-2.1-27.5 13.2-33.7 20.1-10.7 12-10 34.7 1.7 58.2 5 9.9 8.6 15.1 15 21.6 9 9.2 18.7 13.6 29.4 13.6 14.1-.1 39-11.6 50.7-23.6 10-10.1 12.7-18.8 16.4-52.9.4-3.4.9-7.1 1.1-8.2.2-1.1.9-4.9 1.5-8.5 1.5-8.3 2.9-10.9 8.1-15.4 5.4-4.7 18.1-10.8 22.3-10.8 9 0 13 11.3 5.6 15.9-1 .6-8 4.4-15.7 8.4-7.6 4-14 7.3-14.1 7.3-.1.1 1 2.6 2.6 5.6 1.5 3 6.3 12.5 10.6 21s7.9 15.7 8.1 15.8c.5.7 19.1-9.1 26.9-14.2 12.8-8.4 18.3-15 21-25.4 8.2-31-18-76.8-47-81.9-3.3-.6-7-.5-11 .2zM2542.8 2055.7c-3 4.8-8.5 13.6-12.1 19.6-3.7 5.9-6.7 11.2-6.7 11.7s.6 1.5 1.3 2.2c6.1 5.9 29.9 27.9 36.7 33.9 4.7 4.1 9.7 8.4 11.1 9.7 1.4 1.2 3.4 2.9 4.5 3.7 1 .8 1.6 1.5 1.2 1.5-.7 0-9.5-3.9-14.1-6.2-3.7-1.8-54.9-21.9-55.1-21.6-3.8 4.9-24.9 39.8-24.5 40.2.4.3 12.2 3.8 19.4 5.6 1.7.4 16.1 4.5 32 8.9 16 4.5 29.8 8.4 30.8 8.6 1.8.4 22.2 6 27.2 7.6 1.7.4 6.4 1.8 10.5 3s8.6 3 10 4c1.4.9 8.6 5.4 16 9.9 14.1 8.6 20.6 12.6 32.9 20.4 4.1 2.5 7.7 4.6 8 4.6.3-.1 6.1-9.1 12.9-20.2l12.3-20-2.3-1.7c-2.2-1.5-18-11.3-39.8-24.6-16.6-10.1-19.4-12.1-25.5-19-3.3-3.8-8.2-9.3-11-12.4-2.7-3-7.6-8.5-10.9-12.1-3.2-3.6-7.5-8.3-9.5-10.5-2-2.2-6.7-7.6-10.6-12-3.8-4.4-7.3-8.2-7.6-8.5-.3-.3-6.8-7.5-14.4-16-7.7-8.5-14.7-16.3-15.6-17.3-1.6-1.8-1.9-1.4-7.1 7zM354 2100.7c-6.9 1-20.9 8.4-38.5 20.3-3.8 2.6-25.9 17.3-49 32.5-59.7 39.4-58.6 38.7-58.3 39.6.8 2.2 27.4 41.9 28.1 41.9.5 0 11.5-7.1 24.5-15.7 110.8-73.4 109.1-72.2 113.7-73 2.6-.4 3.6 0 5.3 2.2 2.7 3.5 2.7 4.5 0 8-1.1 1.5-21.5 15.5-45.2 31.2-23.7 15.7-53.8 35.6-66.8 44.3l-23.7 15.6 14 21.2c7.6 11.7 14.3 21.2 14.8 21.2.6 0 7-4 14.3-8.8 7.3-4.9 20.7-13.7 29.8-19.7 41.1-27 76.6-50.9 83.9-56.4 10.7-8.2 15.4-14.5 18.5-25 1.9-6.6 1.5-20.5-.9-28.6-6.5-22.2-24.9-43.8-41.9-49.1-4.8-1.5-17.2-2.4-22.6-1.7zM2452.9 2192.2c-14 18.3-29.1 38.1-33.6 44-4.6 6-8.3 11.2-8.3 11.6.1.7 30 23.7 30.9 23.7.4 0 11.9-14.4 16.7-20.9l1.9-2.7 9.6 7.3c5.3 4 10.8 8.2 12.4 9.3 1.5 1.1 3.2 2.5 3.9 3 .6.6 13.5 10.5 28.6 22 15.1 11.5 28 21.3 28.5 21.7 11 9 41.5 31.8 42.5 31.8.5 0 5.1-5.5 10.2-12.2 5.1-6.7 11.9-15.6 15-19.8 3.2-4.1 5.8-7.8 5.8-8.1 0-.4-2.6-2.6-5.7-5-3.2-2.4-6.3-4.8-6.9-5.4-.7-.5-2.4-1.9-4-3-3-2.2-24-18.2-28.9-22-3.2-2.6-23.1-17.7-57.3-43.7-11.7-8.9-21.5-16.4-21.7-16.8-.2-.3 3.6-5.8 8.5-12.1s9-11.7 9-12.1c0-.4-1.7-2-3.7-3.5-2.1-1.5-8.9-6.7-15-11.5-6.2-4.9-11.7-8.8-12.2-8.8s-12.3 15-26.2 33.2zM441.8 2220.8c-6.7 2.1-21.1 12.8-43.3 32.1-1.7 1.4-8.6 7.3-15.5 13.1-6.9 5.7-13 10.9-13.6 11.5-.6.5-3.3 2.8-6 5-8.3 6.8-18.5 15.8-28 24.8-17 16-18 34.6-3.1 56.7 3.1 4.5 16.5 22.1 17.7 23 .3.3 2.6 3 5 6 2.5 3 9.4 11.3 15.4 18.3l10.9 12.7 6.1-5.3c3.3-2.9 17.8-15.2 32.1-27.2 14.3-12.1 26.2-22.2 26.5-22.5.3-.3 4.6-3.9 9.5-8 5-4.1 9.2-7.8 9.5-8.1.3-.3 3.7-3.2 7.6-6.5 11.8-9.9 36.4-30.7 40-33.9.7-.6 5.2-4.4 10.2-8.5 5-4.1 9-7.8 8.9-8.2-.2-.6-33.8-40.6-37-44-.6-.7-2.8-3.3-4.8-5.8-5.6-6.9-16.4-17.6-21.1-20.8-8.7-6-17.6-7.4-27-4.4zm26 53.2c2.3 1.7 4.2 3.4 4.2 3.8 0 1.1-2.9 4.1-8 8.2-2.4 1.9-6.5 5.3-9 7.5-6.4 5.5-13.7 11.7-26 22.1-5.8 4.9-11.4 9.6-12.5 10.5-1.1 1-8.5 7.2-16.5 14-13.5 11.3-24.4 20.7-25.5 21.8-.7.6-4.6-4-5.6-6.7-2.5-6.5.1-10 19.6-26.2 5-4.1 9.2-7.7 9.5-8 .3-.3 2.1-1.8 4-3.4 1.9-1.6 5.8-4.8 8.5-7.1 36.7-31.6 47.1-39.5 51.6-39.5.9 0 3.5 1.4 5.7 3zM2391 2268.7c-1.2 1.5-5.9 6.8-10.4 11.8-4.6 4.9-11.3 12.3-15 16.4l-6.7 7.4 4.3 4c2.4 2.1 6.3 5.8 8.8 8 2.5 2.3 8.5 7.8 13.4 12.2 5 4.4 9.7 8.7 10.6 9.5.9.8 5.8 5.3 11 10s11.9 10.8 14.9 13.6c3.1 2.8 6.8 6.2 8.2 7.5 6.2 5.5 17.3 15.6 19.8 17.8 1.4 1.3 4.9 4.4 7.6 7 2.8 2.6 10 9.1 16 14.6 6.1 5.5 11.5 10.4 12.1 11 5.2 4.9 17.9 16.2 18.9 16.7.9.5 4-2.1 9.2-7.9 4.3-4.7 8.7-9.6 9.8-10.7 1.1-1.2 5.3-5.8 9.3-10.3l7.3-8.2-3.8-3.4c-2.1-1.9-5.4-5-7.4-6.8-1.9-1.9-7.3-6.8-11.9-10.9-4.6-4.1-9.5-8.6-11-10-1.5-1.4-4.5-4.1-6.6-6-2.2-1.9-6.8-6.1-10.4-9.4-3.6-3.3-8.8-8-11.6-10.5-7.1-6.4-22.2-20.1-25.4-23.1-6.4-5.9-11.4-10.4-26.5-24-8.8-8-16.9-15.4-18.1-16.5-2.3-2.2-7.5-6.8-11.6-10.3l-2.6-2.2-2.2 2.7zM544.8 2327.2c-4.8 5.1-10.8 11.6-13.5 14.4-2.6 2.8-10.2 10.9-16.8 18-6.6 7.1-14.9 16-18.5 19.8-3.6 3.8-7.2 7.7-8 8.6-.8.9-7.3 7.9-14.5 15.5-14.7 15.8-14.3 15.3-28.5 30.6-5.8 6.2-14 14.9-18.2 19.3-4.3 4.5-7.8 8.6-7.8 9.1 0 .6 4.6 5.3 10.2 10.5s11.1 10.4 12.3 11.5c8.9 8.3 8.1 7.9 10.2 5.8 1.6-1.7 21.2-22.5 28.8-30.7 28.5-30.7 27.5-29.6 28-29.6.4 0-3.2 8.1-11 24.5-2.6 5.5-6 12.7-7.5 16-1.5 3.3-4.6 10-7 15-13.5 28.9-12.6 26.2-9.9 28.6 2.1 1.8 24.5 22.8 27.7 25.8 1.3 1.3 2.3.6 8.4-6 3.8-4.1 12-12.8 18.1-19.4 6.2-6.5 13.5-14.4 16.4-17.5 11.3-12.1 13.2-14.2 23.3-25 5.8-6.2 11.9-12.7 13.5-14.5 4.2-4.5 27.5-29.3 30.5-32.5 1.4-1.5 7.9-8.4 14.5-15.4l11.9-12.8-8-7.7c-4.4-4.2-11.6-10.9-16-14.9l-7.9-7.3-1.8 2.3c-1.1 1.3-7 7.7-13.2 14.3-6.2 6.6-13 13.8-15 16-2.1 2.2-9.2 9.8-15.9 16.9-6.6 7.1-12.4 13.4-12.8 14-2.9 4.3 1.7-5.3 19.2-40.3 11-22.1 20-40.5 20-40.9 0-.4-1.9-2.5-4.2-4.6-4-3.6-14.3-13.3-24.4-22.8l-4-3.8-8.6 9.2zM2324.5 2344.9c-16.4 4.7-35.9 19.3-46.1 34.6-6.2 9.3-8.8 17-8.8 26.6-.1 7.9.2 9.1 3.6 16 3.7 7.4 4.4 8.4 13.5 19 9.4 10.9 20.1 18.3 30.9 21.5 5.3 1.5 18.5 1.5 26 0 1.2-.2 4.5-.7 7.4-1.1 2.9-.4 6.2-.9 7.4-1.1 1.2-.2 4.1-.7 6.6-1 2.5-.3 5.4-.8 6.5-1 1.1-.2 5.4-.6 9.5-.9 9.1-.5 13.1 1 20.8 8 11.5 10.3 14.2 18 8.5 23.6-5.6 5.6-8.8 3.6-29.7-19l-4.8-5.3-3.1 2.9c-1.7 1.5-3.8 3.5-4.7 4.3-1.2 1.3-11.7 10.8-24.8 22.7-3 2.8-2.8 3.1 8.3 14.5 20.8 21.1 31.5 25.9 49.4 22.2 33.9-7 64.4-47 55.7-73-4.5-13.7-27.5-38.3-43.2-46.3-10.5-5.3-24.7-5.8-48-1.6-4.9.9-10.2 1.9-11.9 2.1-1.6.3-4.3.9-6 1.3-6.4 1.6-14.2 1.3-18.2-.7-7.3-3.8-15-13-15.9-19.2-.6-3.7 3.5-8 7.6-8 2.6 0 4.6 1.5 12.3 9.4l9.2 9.5 5-4.6c2.8-2.5 9.9-9.1 15.8-14.7 6-5.6 11.5-10.5 12.3-10.9.8-.4 1.4-1.4 1.4-2.1 0-1.4-18.1-19.7-22.5-22.7-10-6.7-18.8-8.2-30-5zM659.4 2418.2c-1.2 1.3-4.3 5.2-7 8.8-2.7 3.6-5.4 7.2-6.1 8-2.2 2.7-60.3 77.3-66.6 85.5-10.7 14.1-12.2 16-12.7 16.5-.3.3-3.7 4.5-7.5 9.5-3.8 4.9-8.2 10.6-9.7 12.5-1.6 1.9-3.2 3.9-3.6 4.5-.4.5-2 2.6-3.4 4.5l-2.7 3.6 19.5 15.3c10.8 8.4 20.1 15.4 20.7 15.6.7.2 16.7-19.7 35.7-44.2 19-24.5 35.2-45.3 36-46.4.8-1 2.5-3.1 3.7-4.6 1.1-1.5 11.9-15.4 23.8-30.7 11.9-15.4 21.9-28.5 22.1-29 .3-.9-36.8-30.5-39.3-31.3-.5-.2-1.8.7-2.9 1.9zM2222.7 2437.1c-7.2.8-14.9 4.6-30.6 15.3-15.7 10.6-49.1 34.9-49.1 35.7 0 .4 3.5 5.4 7.8 11.2 4.2 5.8 15.6 21.3 25.2 34.4 9.6 13.1 21.1 28.7 25.5 34.8 4.5 6 11.9 16.2 16.5 22.5 4.7 6.3 8.8 11.9 9.3 12.5.4.5 7.8 10.6 16.3 22.2 8.6 11.7 15.9 21.3 16.3 21.3.6 0 11.5-7.7 16.6-11.7.6-.5 6.3-4.6 12.7-9.3 6.5-4.7 11.8-8.7 11.8-9 0-.4-17.1-24.1-20.3-28.1-.6-.8-2.3-3.1-3.7-5-1.3-1.9-8.2-11.2-15.2-20.8-7.1-9.6-12.8-17.7-12.8-18.1 0-.8 9.2-5 10.9-5 2.3 0 9 7.3 18.4 20 19.6 26.5 23.4 31.6 29.4 39.8l6.1 8.2 17.8-13.1c9.9-7.2 18.5-13.7 19.3-14.4 1.1-1.1-2.1-6-19-28.9-24.3-33.1-28.2-37.6-34.8-40.5-6.7-2.9-11.3-3.1-19.8-1.1l-7.2 1.7 4.4-5c10.2-11.7 8.3-22.2-8.1-44.2-14.5-19.5-27.7-27.2-43.7-25.4zm-4.3 44c3.9 1.8 17.2 19.5 19.4 25.8 1.4 3.9-.3 7.6-4.9 11l-2.8 2.1-1.6-2.3c-.9-1.2-5.4-7.3-10-13.5-14.6-19.8-14.1-19-11.9-20.7 1.6-1.3 6.3-3.1 8.6-3.4.4-.1 1.8.4 3.2 1zM2091.4 2518.9c-39.9 23.3-46.4 27.2-46 27.9.3.7 6.3 10.9 32.6 55.7 8.4 14.3 16.4 28 17.8 30.5 1.4 2.5 4.2 7.2 6.2 10.5s7.4 12.5 12.1 20.5c4.6 8 8.9 15.3 9.4 16.2.6.9 2.5 4.3 4.4 7.5 1.8 3.2 6.5 11.1 10.2 17.5l6.9 11.7 11.3-6.6c6.1-3.6 12.6-7.4 14.3-8.3 3.4-2 18.1-10.6 20.4-12.1 1.5-.9 14.9-8.7 20.5-11.9 1.7-1 4.7-2.7 6.7-3.9l3.8-2.3-2-3.8c-1.1-2.1-5-8.9-8.8-15.2-3.7-6.2-7.1-12.1-7.5-13.1-1.1-2.8-1.2-2.8-18.7 7.6-10.6 6.2-15 8.7-15.4 8.7-.5 0-20.3-33.9-21.1-36.3-.4-.9-.3-1.7.3-1.7 1.2 0 23.1-12.7 25-14.5 1.1-1 .5-2.6-3.1-8.6-9.8-16.5-12.6-21.5-13.2-23.1-.8-2-1-1.9-19.2 8.8-5 3-9.3 5.4-9.6 5.4-.4 0-17.5-28.7-18.5-31.1-.2-.4 4.3-3.4 9.8-6.6 5.6-3.2 11.4-6.6 12.8-7.6 1.5-.9 3.5-2 4.5-2.3 2.2-.8 2.2-.7-1.5-7.3-1.8-3.1-4-6.8-4.8-8.2-7.5-13.2-11.6-19.9-12-19.9-.3 0-12.7 7.2-27.6 15.9zM2013.3 2563c-18.3 8.3-32.7 15.1-33.1 15.5-.4.3 11 33.7 21 62 2.8 7.7 6.3 17.6 7.8 22 5.9 16.7 10.2 28.2 12.5 34.2 1.4 3.4 2.5 6.5 2.5 7 0 .4-3.8-6.1-8.5-14.5-4.6-8.5-9.3-16.8-10.4-18.5-1-1.8-2.8-4.8-3.9-6.7-7.4-13.4-44.1-75-44.6-75-1.3 0-48.2 22.2-48.4 22.9-.3.8 4.8 8.8 27.3 43.1 2.3 3.6 9.1 13.9 15 23s15 23 20.2 31c5.2 8 12.7 19.5 16.6 25.5 4 6.1 12.1 18.6 18.1 27.8 6 9.2 11.4 16.7 12.1 16.7.6 0 1.5-.4 2-.9.6-.5 7.5-3.8 15.5-7.4 8-3.6 18.3-8.3 23-10.5 4.7-2.1 13.3-6 19.1-8.7l10.6-4.7-1.4-4.7c-.8-2.5-2.1-6.6-2.8-9.1-.7-2.5-3.1-10.4-5.3-17.5-2.2-7.2-5.7-18.4-7.7-25-2-6.6-5-16.5-6.8-22-1.7-5.5-3.2-10.5-3.3-11-.2-1-16.2-53.2-21.5-70.5-1.7-5.2-3.6-11.5-4.3-14-3.3-11.4-5.1-17-5.6-17-.3 0-7.4 3.2-15.7 7zM872.4 2568.7c-3.1 4.9-7.7 11.9-10.2 15.8-2.5 3.8-8.6 13.3-13.7 21-5 7.7-13.3 20.6-18.5 28.8-5.2 8.1-12 18.5-15 23.2-3 4.7-13.1 20.3-22.5 34.8-9.3 14.4-18.1 28-19.6 30.2-1.5 2.2-2.5 4.4-2.2 4.8.3.5 3.3 2.1 6.7 3.7 12.2 5.6 30.2 14.1 34.7 16.5 4.4 2.4 7.9 2.5 7.9.3 0-1.1 13.7-24.7 15.5-26.7 1.1-1.1 2.5-.7 8.9 2.3 4.2 1.9 7.6 3.8 7.6 4.3 0 .4-2.7 7.9-6.1 16.6-3.3 8.8-5.9 16.1-5.7 16.3.2.2 5.1 2.5 10.8 5.2 5.8 2.8 16.3 7.7 23.4 11.1 7 3.3 13 6.1 13.1 6.1.2 0 3.3-10.3 4.1-13.5.1-.6 2.5-8.4 5.4-17.5 2.8-9.1 5.3-17.2 5.5-18 .2-.8 2.2-7.4 4.3-14.5 2.2-7.2 6.9-22.7 10.5-34.5 9.6-31.6 16.2-53.3 22.3-73.2 3-9.7 5.4-18.3 5.4-19.1 0-1.3-5.4-4.1-35-18-6.3-3-15.9-7.5-21.2-10.1-5.4-2.5-10-4.6-10.2-4.6-.3 0-3.1 3.9-6.2 8.7zm13.5 71.2c-8.9 23.9-12.9 35.2-16.6 46.3-1.4 4.3-2.9 7.8-3.4 7.8-.7 0-13.5-5.8-14.7-6.6-.6-.4 6.3-12.2 17.3-29.4 14.2-22.4 24.9-39 25.1-39 .1 0-3.4 9.4-7.7 20.9zM1000.2 2618.2c-2.9 5.1-87.2 173.6-87.2 174.5 0 .4 11.1 4.7 24.8 9.4l24.7 8.6 3.2-6.6c5.4-11.4 10-21.5 10.7-23.7.5-1.7 1.2-2.1 2.9-1.7 1.2.3 2.7.9 3.2 1.3.6.4 3.2 1.3 5.8 2 2.7.7 5.1 1.9 5.4 2.7.3.7-1.3 8-3.6 16.3-2.3 8.2-4.1 15.5-4.1 16.2 0 1.6 1.3 2.2 24.5 10.1 10.5 3.6 20.2 7 21.7 7.6 1.5.5 2.9.7 3.2.3.2-.4 2.1-9.7 4.1-20.7 2-11 4.3-23.4 5.2-27.5.8-4.1 1.6-8.4 1.8-9.5.2-2.3 4.8-26.7 7.5-40.5 1.1-5.2 2.2-11.1 2.5-13 .3-1.9 1-5.8 1.5-8.5.5-2.8 1.2-6.1 1.4-7.5.2-1.4 1.4-7.2 2.5-13s2.3-11.9 2.6-13.5c.2-1.7.7-3.9.9-5 .2-1.1 1.8-9.8 3.6-19.4 3.6-19.4 3.9-18-4.5-20.7-2.7-.8-5.9-1.9-7-2.4-1.1-.5-9.9-3.6-19.5-6.8-9.6-3.3-21.5-7.4-26.4-9.1-4.9-1.7-9-3.1-9.2-3.1-.1 0-1.1 1.5-2.2 3.2zm20.3 67c-3.4 12.8-11.2 44.9-14.1 57.6-1 4.6-2 7.2-2.7 6.9-.7-.2-4.2-1.4-7.9-2.6-3.8-1.3-6.8-2.6-6.8-3.1 0-.4.7-2.5 1.6-4.6 2.5-6 32.2-66.4 32.7-66.4.2 0-1.1 5.5-2.8 12.2zM1862 2626.2c-12.4 4.4-22.7 8.2-22.9 8.3-.2.2.8 3.7 2.2 7.7 6.4 18.8 11.9 34.5 12.7 36.3.4 1.1 2.9 8.1 5.5 15.5s6.2 17.8 8 23c1.8 5.2 6.8 19.4 11 31.5 4.2 12.1 10.4 29.6 13.7 39 3.3 9.3 7.1 20.4 8.5 24.5 1.4 4.1 2.9 7.9 3.3 8.3.4.5 10.4-2.5 22.2-6.7 29.7-10.4 26.9-9.1 25.8-11.8-.5-1.3-2.5-7-4.5-12.8-2-5.8-5.1-14.8-7-20-1.8-5.2-5.2-14.9-7.5-21.5s-4.5-12.9-5-14c-.8-1.8-2-5.5-2.6-8-.2-.6-3.9-11.4-8.4-24-12.1-34.2-14.2-40.1-22.1-62.8-5.4-15.2-7.7-20.7-8.9-20.6-.8 0-11.6 3.7-24 8.1zM1800 2647.2c-4.1 1-8.6 2.1-9.9 2.4-1.4.3-5.8 1.4-10 2.6-8.1 2.2-9.9 2.6-11.9 2.7-1 .1-1.2 1.2-.7 4.8.3 2.5 1 5.4 1.6 6.5.5 1 .8 1.8.5 1.8-.2 0 .7 4.2 2.1 9.2 2.5 9.6 3.1 11.8 3.9 15.3.2 1.1 2.9 11.9 5.9 24 2.9 12.1 5.3 22.1 5.1 22.2-.1.2-11-16.9-24.1-38l-23.9-38.3-20.3 5.1c-11.1 2.8-20.5 5.4-20.8 5.7-.4.3.8 6.2 2.5 13 1.8 6.7 3.4 13.4 3.6 14.8.3 1.4.7 3.2 1 4 .3.8.8 2.6 1 4 .3 1.4 1.1 4.7 1.9 7.5 1.5 5.3 5.2 20.3 6.1 24.5.3 1.4.8 3.4 1.1 4.5.4 1.1.8 2.4.9 3 .1.5.7 3 1.3 5.5.7 2.5 1.4 5.4 1.6 6.5.9 4.2 25.8 104 26 104.3.1.1 8.5-1.9 18.6-4.4 10.1-2.5 19.2-4.7 20.2-4.9 2.6-.6 3.8-1.5 3.2-2.6-.5-.7-9.9-37.5-11-42.9-.2-.8-.8-3.5-1.5-6s-1.4-5.3-1.6-6.2c-.5-2.4-1-4.2-2.9-11.8-.9-3.6-1.8-7.5-2.1-8.7-.2-1.2-.9-3.4-1.4-4.8-.5-1.4-.8-2.5-.5-2.5.5 0 6.5 9.7 13.9 22.7 2.2 3.7 7.2 12.2 11.1 18.8 4 6.6 10.5 17.5 14.5 24.3 5.3 9 7.7 12.2 8.9 11.9.9-.2 10.4-2.5 21.1-5.2 10.7-2.6 19.8-5.1 20.2-5.4.5-.4-.6-6.3-2.3-13.1-1.7-6.9-3.2-13.2-3.4-14-.2-.8-1.6-6.2-3-12-1.5-5.8-2.8-11.3-3-12.3-.3-1-.7-2.7-1-3.7-.6-1.8-1-3.8-2.1-8.7-.2-1.2-.8-3.3-1.3-4.5-.5-1.3-.9-2.8-1-3.3-.3-2-1.2-5.6-12.2-49.5-6.1-24.5-11.2-45.2-11.4-46-1.9-8.5-5.9-23.6-6.4-24.1-.3-.3-4 .3-8.1 1.3zM1118.9 2653.1c-.3 1.5-1.3 5.9-5.8 23.9-2.7 11.3-5.2 21.7-5.5 23-.3 1.4-1.7 7.2-3.1 13-1.5 5.8-2.8 11.4-3.1 12.5-.2 1.1-1.5 6.5-2.8 12-6.5 26.8-14.5 60.3-14.9 62.5-.3 1.4-1.3 5.4-2.2 9-.9 3.6-1.9 7.2-2 8-.2.8-1.8 7.3-3.4 14.5-1.7 7.1-3.1 13.3-3.1 13.6 0 .4 1.5 1 3.3 1.3 6.4 1.2 7.3 1.4 11.7 2.6 2.5.7 5.2 1.3 6 1.5 1.6.4 40.8 9.6 50.6 12 8.8 2.2 9.2 2.1 9.9-2.3.4-2 1.1-5.1 1.5-6.7.5-1.7 1.1-4.1 1.4-5.5.3-1.4 1.6-6.9 2.9-12.2l2.4-9.8-3.6-1c-2-.5-6.7-1.7-10.6-2.6-3.8-.9-7.4-1.7-8-1.8-.5-.2-2.6-.6-4.6-1l-3.6-.8 1.2-5.1c1.8-7.3 6.9-28.9 10.5-43.7 1.7-6.9 3.2-13.4 3.4-14.5.3-1.1 2.5-10.5 5-20.9 2.6-10.3 4.8-19.6 5-20.5.1-.9.6-2.7.9-4.1 1.5-5.5 7.9-32.7 8.3-35 .3-1.4 1-4 1.6-5.9 1-3.3.2-4.9-2.7-5.2-.5 0-1.7-.2-2.5-.4-5.3-1.2-39-9.4-41.2-10-1.6-.4-2.8-.6-2.9-.4zM1213.6 2678.9c-.5 3.4-1.2 8.4-2 14.8-.4 3.1-1.2 8.2-2.5 16l-.8 5.1 4.2.6c2.3.4 5.3.9 6.6 1.1 1.3.2 4 .6 5.9.9 1.9.2 5.7.8 8.4 1.2l4.8.7-.6 6.1c-.3 3.3-.8 7.2-1 8.6-1.2 6.9-3.6 23.1-4.1 27.5-.5 4.7-.8 6.8-2 14-.3 1.6-.7 4.8-1 7-.7 5.5-1.5 11.5-2 14.5-.2 1.4-.7 4.5-1 7-.3 2.5-.8 5.2-1 6-.2.8-.6 4-.9 7-.4 3-.8 6.6-1 8-.3 1.4-.7 4.3-1 6.5-.4 2.2-.8 5.1-1.1 6.5-.2 1.4-.7 4.7-1 7.5-.3 2.7-1 7.7-1.5 11s-1.2 8.2-1.6 11c-.3 2.7-.8 5.8-1 6.8-.2 1 .4 1.7 1.4 1.8.9 0 2.4.2 3.2.3 1.3.3 4.7.7 15.5 2.2 2.8.3 4.8.6 13 1.9 1.7.3 4.8.7 7 1 2.2.3 5.5.8 7.2 1.1 3.7.7 3.9.4 4.7-6.6.4-2.5.8-5.9 1.1-7.5.2-1.7.7-4.8 1-7 .3-2.2.7-5.4 1-7 .5-3.5 1.2-8 2.6-18.5.6-4.1 1.2-8.6 1.4-10 .2-1.4.7-4.5 1-7 .8-5.5 1.4-9.7 2-13 .2-1.4.7-4.9 1-7.9.4-3 .8-6.2 1-7.1.2-.9.6-4.1 1-7 .4-2.9.8-6 1-6.9.1-.9.6-3.9.9-6.6.4-2.8.9-6.1 1.1-7.5.2-1.4.9-6.1 1.5-10.5s1.3-9.1 1.5-10.5c.9-5.6 1.8-12.6 1.8-13.9 0-1.3 4.1-1.2 14.7.5 11.7 1.8 15.4 2.3 15.7 2.1.2-.3.4-1.5 1.8-11.5.3-2 1-6.4 1.5-9.7.5-3.3 1.2-8.3 1.6-11 .3-2.8.7-5.4.8-5.9.1-1-3.8-1.9-13.3-3.1-3-.4-6.2-.8-7.1-1-.9-.2-4.1-.6-7-1-2.9-.4-6-.8-6.9-1-2.4-.4-9.1-1.4-14.1-2-2.5-.4-5.6-.8-7-1-2.5-.4-8.3-1.2-15-2.1-1.9-.3-4.6-.7-6-.9-1.4-.3-4.7-.7-7.5-1-2.7-.3-5.7-.8-6.5-1-.8-.2-4-.7-7-1-3-.4-7.4-1-9.7-1.4l-4.2-.8-.5 3.6zM1661.5 2679c-5.9.9-9.8 1.4-26 3.5-6.6.9-12.9 1.7-14 1.9-2.2.3-2.4 2.9-1.1 11.3.6 4.5 1.2 9.2 2.1 15.8.5 4.6 1.2 10.1 1.9 15.4.3 2 1 7.4 1.6 12.1.6 4.7 1.2 9.8 1.5 11.5 1.2 9.4 2.6 19.6 3 23.5.6 4.8 1.4 10.9 2 15 .2 1.4.6 5 1 8 .3 3 .8 6.8 1.1 8.4.4 1.6.7 4 .9 5.5.7 7.6 1.8 15.7 2.1 16.2.2.4.6 5.3.9 11 .6 11.4.1 13.1-4.6 14.2-3.9 1-7.6-2.3-8.4-7.6-.4-2.3-.9-5.1-1.1-6.2-.2-1.1-.6-4.3-.9-7-.3-2.8-.7-5.9-.9-7-.2-1.2-.7-4.8-1.1-8-.4-3.3-.9-6.7-1-7.5-.2-.8-.6-4-.9-7-1.4-10.9-1.7-13.5-2.1-16-.2-1.4-.6-4.5-.9-7-1-8.1-4.3-33.7-5.1-39-.2-1.4-.7-5-1-8-.3-3-.8-6.6-1-8-.2-1.4-.7-5-1-8-.4-3-.9-6.3-1.1-7.4-.2-1-.6-4.2-.9-7-.3-2.8-.7-6-.9-7.1-.3-1.1-.5-3.3-.5-4.8l-.1-2.9-6.2.6c-3.5.3-7.4.8-8.8 1-1.4.2-5.2.7-8.5 1.1-3.3.3-6.9.8-8 1-1.1.2-4.2.7-7 1-9.4 1.1-12 1.7-12.7 2.8-.4.6-.5 1.4-.3 1.7.3.5.8 4.1 2.1 14.7.3 2.7.7 5.9.9 7.3.2 1.4.9 6.3 1.5 11s1.3 9.6 1.5 11c.2 1.4.7 5 1 8 .3 3 .8 6.6 1 8 .2 1.4.7 5 1 8 .3 3 .8 6.2 1 7 .2.8.7 4.4 1.1 8 .7 6.9.9 8.2 1.8 14.5.3 2.2.8 5.9 1.1 8.2.3 2.4.7 6.2 1 8.5.3 2.4.8 6.1 1.1 8.3.2 2.2.7 5.1.9 6.5.6 3.1 1.2 7.2 2 13 3.8 27.4 14.6 40.7 38 46.6 18.8 4.7 45 .5 59.5-9.5 8.4-5.8 16-16.9 18.8-27.3.9-3.4.8-23.5-.2-28.3-.2-1.1-.7-4.9-1.1-8.5-.4-3.6-.9-7.4-1.1-8.5-.3-1.1-.7-4.3-.9-7-.3-2.8-.7-6.1-1-7.5-.9-6-1.5-10.7-1.9-14-1-8.4-1.8-14.7-2.1-17-.6-4.2-1.4-10.3-2-15.5-.3-2.8-.7-6.1-.9-7.5-.2-1.4-.7-4.8-1.1-7.5-.3-2.8-.8-6.4-1-8-.3-1.7-1.2-8.6-2-15.5-3.2-24.8-3.2-25-5.3-24.9-.9.1-3.9.5-6.7.9zM1386.5 2692.2c-11.5 3.3-14.6 4.5-19.6 7.4-7.3 4.4-14.1 11.8-17.8 19.4-4.4 9-5 12.2-6.6 36.5-1.1 16.1-2 49.7-2 74 0 26 .1 27.2 2.4 33.5 4 10.9 10.1 18.6 19.5 24.7 4.6 3 15.2 7.1 20.4 7.9 2 .3 4 .8 4.4 1 1 .7 20.9.6 25.3-.1 22.1-3.4 38.2-16.9 42.9-36.1 2.1-8.1 3.1-20.9 4.2-48.4.3-9.1.7-20.3.9-25 .8-18.8.5-49.8-.5-55-1.4-7.9-7.1-18.7-12.9-24.6-5.7-5.7-16.5-11.6-26.1-14-7.2-1.9-29.6-2.7-34.5-1.2zm21.9 35.5c1.4 2.4 1.6 3.7 1.7 11.8.2 6.1-.1 15.1-1.6 54.5-.2 4.1-.6 16.9-1 28.5-.7 22.3-.8 24.1-1.9 32-.8 5.8-1.3 6.8-4.1 8.2-2.8 1.5-6.7.6-8.8-1.9-1.7-2-1.8-4-1.2-27.2.3-13.8.7-29.4.9-34.6.3-5.2.8-19 1.2-30.5 1.2-37.3 1.5-39.7 4.8-42.1 2.7-1.9 8.6-1.2 10 1.3z"/></svg>