<?xml version="1.0" encoding="utf-8"?>
<!-- Generator: Adobe Illustrator 23.0.1, SVG Export Plug-In . SVG Version: 6.00 Build 0)  -->
<svg version="1.1" id="Layer_1" xmlns="http://www.w3.org/2000/svg" xmlns:xlink="http://www.w3.org/1999/xlink" x="0px" y="0px"
	 viewBox="0 0 800 500" style="enable-background:new 0 0 800 500;" xml:space="preserve">
<style type="text/css">
	.st0{fill:#FFFFFF;}
</style>
<g id="_x38_PTzXg.tif">
	<g>
		<path class="st0" d="M668.01,253.32c1.03-0.05,2.07-0.14,3.1-0.14c30.54-0.01,61.08,0.02,91.62-0.06
			c2.32-0.01,3.74,0.64,5.13,2.52c12.5,16.97,19.71,35.9,18.64,57.02c-1.51,29.88-13.4,54.96-37.77,73.2
			c-10.28,7.69-22.48,10.87-34.87,13.29c-6.41,1.25-12.88,1.96-19.4,2.31c-0.68,0.04-1.54-0.34-2.04,0.53c-1.51,0-3.03,0-4.54,0
			c-0.83-0.93-1.94-0.55-2.93-0.55c-5.75-0.04-11.5-0.02-17.25-0.02c-0.07-0.74-0.2-1.49-0.2-2.23c-0.01-47.9-0.01-95.8,0-143.7
			c0-0.56,0.07-1.13,0.1-1.69C667.73,253.64,667.87,253.48,668.01,253.32z"/>
		<path class="st0" d="M14,401.99c1.6-6.41,4.2-12.48,6.42-18.68c15.23-42.52,30.56-85.01,45.79-127.54
			c0.72-2.01,1.64-2.66,3.79-2.65c29.88,0.08,59.77,0.08,89.66,0c2.4-0.01,2.92,0.67,2.91,2.99c-0.09,26.95-0.09,53.91,0,80.86
			c0.01,2.48-0.56,3.15-3.1,3.13c-14.94-0.13-29.88-0.04-44.83-0.1c-1.67-0.01-2.45,0.49-3.03,2.07
			c-7.34,19.81-14.75,39.59-22.14,59.38c-0.06,0.16,0.02,0.36,0.04,0.54C64.34,401.99,39.17,401.99,14,401.99z"/>
		<path class="st0" d="M425.46,401.42c0.05,0.19,0.09,0.38,0.14,0.57c-29.33,0-58.66,0-88,0c0.06-0.19,0.13-0.38,0.19-0.57
			C367.02,401.42,396.24,401.42,425.46,401.42z"/>
		<path class="st0" d="M661.7,401.44c0.21,0.18,0.42,0.37,0.64,0.55c-29.33,0-58.66,0-88,0c0.06-0.19,0.12-0.38,0.19-0.57
			C603.59,401.43,632.65,401.43,661.7,401.44z"/>
		<path class="st0" d="M239.95,401.99c0.06-0.19,0.13-0.38,0.19-0.57c25.61,0,51.23,0,76.84,0c0.06,0.19,0.12,0.38,0.18,0.57
			C291.43,401.99,265.69,401.99,239.95,401.99z"/>
		<path class="st0" d="M667.7,401.42c5.75,0,11.5-0.02,17.25,0.02c0.99,0.01,2.1-0.38,2.93,0.55c-6.81,0-13.63,0-20.44,0
			C667.53,401.8,667.62,401.61,667.7,401.42z"/>
		<path class="st0" d="M430.93,327.25c0-23.74,0.04-47.48-0.06-71.22c-0.01-2.42,0.67-2.91,2.98-2.91
			c31.02,0.08,62.05,0.07,93.07,0.01c1.78,0,2.96,0.51,4.12,1.84c10.41,11.99,16.34,26,18.39,41.61
			c4.37,33.27-6.35,61.06-31.24,83.32c-12.34,11.03-27.46,16.3-43.48,19.2c-13.44,2.43-27.05,2.75-40.67,2.87
			c-2.52,0.02-3.17-0.75-3.16-3.22C430.97,374.92,430.93,351.08,430.93,327.25z"/>
		<path class="st0" d="M316.99,401.42c-25.61,0-51.23,0-76.84,0c-3.14-7.78-5.43-15.85-8.11-23.79
			c-3.92-11.61-7.76-23.25-11.52-34.92c-0.65-2-1.51-2.75-3.72-2.73c-15.23,0.11-30.45,0.01-45.68,0.11
			c-2.3,0.02-3.03-0.49-3.02-2.91c0.09-27.14,0.08-54.28,0-81.43c-0.01-2.16,0.58-2.63,2.67-2.63c29.88,0.07,59.77,0.06,89.65,0.02
			c1.59,0,2.48,0.3,3.11,2c17.71,48.24,35.49,96.46,53.26,144.68C316.98,400.35,317.35,400.84,316.99,401.42z"/>
		<path class="st0" d="M425.8,172.69c0,23.83-0.04,47.66,0.06,71.5c0.01,2.37-0.58,2.94-2.94,2.93
			c-27.52-0.09-55.04-0.08-82.56-0.01c-2.11,0.01-2.84-0.38-2.83-2.71c0.08-47.76,0.07-95.52,0.01-143.28
			c0-2.15,0.44-2.84,2.74-2.84c27.52,0.09,55.04,0.1,82.56-0.02c2.7-0.01,3.01,0.91,3,3.21C425.77,125.21,425.8,148.95,425.8,172.69
			z"/>
		<path class="st0" d="M574.3,172.81c0-23.84,0.03-47.68-0.05-71.52c-0.01-2.26,0.4-3.02,2.87-3.01c27.43,0.1,54.87,0.09,82.3,0.01
			c2.25-0.01,2.82,0.59,2.82,2.83c-0.06,47.77-0.06,95.54,0,143.32c0,2.1-0.48,2.69-2.64,2.68c-27.62-0.08-55.25-0.08-82.87,0
			c-2.01,0.01-2.48-0.53-2.47-2.5C574.32,220.67,574.3,196.74,574.3,172.81z"/>
		<path class="st0" d="M425.46,401.42c-29.22,0-58.44,0-87.67,0c-0.07-0.93-0.21-1.87-0.21-2.8c-0.01-47.47,0.01-94.94-0.07-142.4
			c0-2.45,0.51-3.1,3.04-3.09c27.42,0.11,54.84,0.11,82.27,0c2.6-0.01,3.02,0.75,3.02,3.14c-0.07,47.37-0.05,94.75-0.07,142.12
			C425.78,399.39,426.09,400.46,425.46,401.42z"/>
		<path class="st0" d="M661.7,401.44c-29.06-0.01-58.12-0.01-87.17-0.02c-0.08-0.93-0.22-1.86-0.22-2.8
			c-0.01-47.47,0.01-94.94-0.07-142.42c0-2.47,0.55-3.09,3.06-3.08c27.33,0.1,54.66,0.09,81.99,0.01c2.33-0.01,2.96,0.56,2.96,2.94
			c-0.08,47.57-0.05,95.13-0.08,142.7C662.16,399.66,662.59,400.68,661.7,401.44z"/>
		<path class="st0" d="M495.68,228.89c10.13,4.53,19.33,9.91,27.01,18.15c-0.92,0-1.62,0-2.32,0c-28.85,0-57.71-0.03-86.56,0.05
			c-2.34,0.01-2.96-0.56-2.96-2.94c0.08-47.58,0.08-95.17,0-142.75c0-2.42,0.54-3.1,3.06-3.27c13.75-0.9,27.42-0.68,40.91,2.4
			c26.57,6.07,43.98,22.42,50.91,48.52c8.06,30.34-1.08,58.93-28.35,78.6C497,227.92,496.62,228.2,495.68,228.89z"/>
		<path class="st0" d="M732.58,228.61c10.1,4.48,19.35,9.82,26.73,17.99c-0.73,0.81-1.63,0.41-2.4,0.41
			c-28.84,0.03-57.69-0.01-86.53,0.08c-2.33,0.01-2.96-0.51-2.95-2.91c0.08-47.66,0.08-95.32,0.01-142.99
			c0-2.33,0.61-2.91,2.93-3.04c15.27-0.9,30.4-0.43,45.31,3.47c29.3,7.66,44.72,31.19,48.3,54.26c4.53,29.24-6.43,52.26-28.74,70.62
			C734.43,227.16,733.61,227.79,732.58,228.61z"/>
		<path class="st0" d="M162.51,172.71c0,23.74-0.03,47.47,0.05,71.21c0.01,2.32-0.3,3.21-3,3.19c-29.69-0.12-59.39-0.1-89.08-0.03
			c-2.38,0.01-2.79-0.41-2-2.75c16.28-47.85,32.48-95.72,48.64-143.61c0.61-1.79,1.31-2.47,3.31-2.45c13.05,0.11,26.1,0.12,39.15,0
			c2.33-0.02,2.99,0.56,2.98,2.94C162.47,125.05,162.51,148.88,162.51,172.71z"/>
		<path class="st0" d="M262.1,247.04c-3.24,0-6.17,0-9.1,0c-27.33,0-54.67-0.03-82,0.06c-2.41,0.01-2.91-0.64-2.91-2.96
			c0.07-47.58,0.07-95.15,0-142.73c0-2.42,0.48-3.19,3.07-3.16c12.96,0.15,25.92,0.1,38.87,0.03c1.72-0.01,2.64,0.32,3.25,2.14
			c16.04,48.23,32.15,96.44,48.24,144.65C261.71,245.61,261.85,246.15,262.1,247.04z"/>
		<path class="st0" d="M668.01,253.32c-0.14,0.16-0.28,0.32-0.42,0.47C667.51,253.44,667.61,253.25,668.01,253.32z"/>
	</g>
</g>
</svg>
