<svg id="Layer_1" data-name="Layer 1" xmlns="http://www.w3.org/2000/svg" viewBox="0 0 700.42 77.13"><defs><style>.cls-1{fill:#fff;}</style></defs><title>finnair</title><path class="cls-1" d="M102.48,77.13h21.64c5.34,0,9.07-2.22,11-6.36C137.53,65.86,169.09,0,169.09,0H147.45c-5.35,0-9.07,2.22-11.06,6.36Z" transform="translate(0)"/><path class="cls-1" d="M517.58,77.13h21.63c5.35,0,9.07-2.22,11.06-6.36L584.18,0H562.54c-5.34,0-9.07,2.22-11,6.36Z" transform="translate(0)"/><path class="cls-1" d="M75.07,0C69.8,0,66.8.64,63,2.66c-1.27.67-15.14,7.92-25.16,13.24A37.88,37.88,0,0,0,20.87,33.29C10.84,54.23,0,77.13,0,77.13H21.64c5.34,0,9.07-2.22,11-6.36.88-1.82,5.75-12,10.66-22.24H78.58c4.82,0,6.68-.87,8.54-4.75l1.81-3.88H46.54c3.84-8,9.58-20.1,9.58-20.1,2.42-5.05,5.28-7.08,11.7-7.08h45.62c5.34,0,9.07-2.22,11.06-6.36L127.56,0Z" transform="translate(0)"/><path class="cls-1" d="M406.87,0h-9.95c-5.34,0-9.07,2.22-11.05,6.36-1.36,2.83-15.65,32.76-23,48.08a14.36,14.36,0,0,0-2.4-5.06c-13.35-18.27-29.09-39.87-34.35-47.2C324.36-.27,321.36-.57,318.43,1l-6.19,3.27c-7.5,4-11.85,9-15.47,16.59-10,20.93-26.61,56.3-26.61,56.3h9.89c5.34,0,9.07-2.22,11.05-6.36,1.07-2.25,13.21-27.77,20.26-42.54a8.13,8.13,0,0,0,1.53,3.54c11,14.66,27.78,37.17,29.46,39.4,2.88,3.81,5.85,6,11.19,6h16.3Z" transform="translate(0)"/><path class="cls-1" d="M286.39,0h-9.94c-5.35,0-9.08,2.22-11.06,6.36l-23,48.08a14.72,14.72,0,0,0-2.4-5.06c-13.36-18.27-29.1-39.87-34.36-47.2C203.89-.27,200.89-.57,198,1c-2.47,1.29-3.62,1.91-6.2,3.27-7.5,4-11.85,9-15.46,16.59-10,20.93-26.61,56.3-26.61,56.3h9.88c5.34,0,9.07-2.22,11.05-6.36,1.08-2.25,13.21-27.77,20.27-42.54a7.91,7.91,0,0,0,1.53,3.54c11,14.66,27.77,37.17,29.45,39.4,2.88,3.81,5.85,6,11.2,6h16.3Z" transform="translate(0)"/><path class="cls-1" d="M520.15,17.72c-1.1-.79-16.14-12.19-17-12.88A25.51,25.51,0,0,0,487.69,0H463.85c-5.26,0-8.26.64-12.1,2.66-1.26.67-14.81,7.77-24.83,13.08a37.8,37.8,0,0,0-17.38,17.88c-10,20.93-20.76,43.51-20.75,43.51h21.63c5.35,0,9.07-2.22,11.06-6.36l10.69-22.24h49.57l-9.52,19.89c-2.18,4.54.19,8.71,6,8.71h19.45s22.89-47.82,24.1-50.27C523.86,22.6,523.6,20.21,520.15,17.72ZM436.32,39.9c5.64-11.72,9.42-19.69,9.42-19.69,2.65-5.53,5.16-7.49,12-7.49h35.47c3.61,0,4.73,2,3.46,4.62L485.88,39.9Z" transform="translate(0)"/><path class="cls-1" d="M697.47,17.72c-1.1-.79-15.05-11.47-16-12.16A28.27,28.27,0,0,0,664.66,0H642.2c-5.26,0-8.26.64-12.1,2.66-1.26.67-13.66,7.16-23.69,12.47s-14.63,10.28-18.82,19c-10,20.93-20.46,43-20.46,43h21.64c5.35,0,9.07-2.22,11.06-6.36.87-1.82,6.6-13.58,11.51-23.82h12.6c6,0,8.08,1.85,10.49,5.94C639,60.61,644.15,69.3,645,70.77c2.85,4.82,5.37,6.36,11.77,6.36H681.5s-6.42-10.36-13.76-22.81c-1.15-2-2.47-3.31-6.15-3.92L651,48.65l.23-1.69h20c13.53,0,19.55-3,22.48-8.65,1.39-2.69,5-10.67,5.35-11.45C701.19,22.6,700.93,20.21,697.47,17.72ZM674,17.34c-2.26,4.73-4.13,8.82-7,14.77-2.06,4.31-5.82,6.2-14.73,6.2h-37.8l9.22-19.19c2.13-4.45,5.33-6.4,10.92-6.4h35.91C674.15,12.72,675.28,14.69,674,17.34Z" transform="translate(0)"/></svg>