<?xml version="1.0" encoding="utf-8"?>
<!-- Generator: Adobe Illustrator 23.0.1, SVG Export Plug-In . SVG Version: 6.00 Build 0)  -->
<svg version="1.1" id="Layer_1" xmlns="http://www.w3.org/2000/svg" xmlns:xlink="http://www.w3.org/1999/xlink" x="0px" y="0px"
	 viewBox="0 0 800 500" style="enable-background:new 0 0 800 500;" xml:space="preserve">
<style type="text/css">
	.st0{fill:#FFFFFF;}
</style>
<g id="_x23_0b1560ff" transform="translate(-1.751, -2.05831)">
	<path id="path4" class="st0" d="M81.19,212.2c3.93-2.08,8.35-3.16,12.8-3.06c19.87-0.01,39.73,0.07,59.6-0.02
		c-2.59,5.75-5.35,13.33-12.71,13.99c-18.46,0.51-36.97-0.05-55.45,0.26c-4.57-0.08-9.12,2.33-11.05,6.57
		c-3.98,7.8-7.55,15.8-11.46,23.65c15.84-0.01,31.68,0.01,47.52-0.02c-1.39,2.69-2.42,5.69-4.6,7.87c-2.66,2.09-6.27,1.7-9.42,1.8
		c-12.26-0.16-24.54,0.13-36.8-0.17c-4.42,8.29-8.15,16.91-12.43,25.27c-1.95,3.94-6.2,6.49-10.61,6.34
		c-8.6,0-17.22,0.31-25.82-0.28v-0.46c0.15,0.04,0.45,0.12,0.61,0.16c7.44-16.07,15.2-31.98,22.89-47.94
		c3.78-7.99,10.24-14.6,18.03-18.79C61.86,222.2,71.55,217.26,81.19,212.2z"/>
	<path id="path6" class="st0" d="M163.49,216.12c1.99-4.22,6.56-6.85,11.17-6.93c8.44-0.13,16.89,0.05,25.34-0.09
		c-12.43,26.15-25.16,52.17-37.68,78.28c-1.75,4.27-6.04,7.34-10.71,7.28c-8.68,0.12-17.36,0.03-26.03,0.04
		C138.2,268.5,150.85,242.31,163.49,216.12z"/>
	<path id="path8" class="st0" d="M233.87,209.6c2.77-1.37,5.97,0.18,7.48,2.66c12.37,17.01,24.82,33.98,37.31,50.89
		c1.37,1.87,2.41,3.94,3.43,6.02c7.92-15.66,15.28-31.6,22.94-47.38c1.97-3.9,3.42-8.61,7.56-10.79c5.72-3.06,12.47-1.47,18.68-1.81
		c-13.8,28.51-27.58,57.03-41.36,85.55c-6.99-0.1-13.99,0.14-20.97-0.11c-4.34-0.14-7.7-3.35-10.16-6.61
		c-9.65-12.85-19.33-25.69-28.98-38.52c-2.08-2.64-4.1-5.31-5.53-8.36c-7.86,15.64-15.09,31.6-22.85,47.29
		c-1.79,3.45-5.37,5.98-9.29,6.2c-4.57,0.26-9.13,0.04-13.69,0.09c9.71-20.83,19.67-41.58,29.59-62.32
		c3.21-6.83,8.01-13.1,14.61-16.92C226.27,213.35,229.99,211.3,233.87,209.6z"/>
	<path id="path10" class="st0" d="M368.58,209.6c2.71-1.35,5.87,0.11,7.4,2.52c12.4,17.03,24.86,34.03,37.38,50.98
		c1.4,1.88,2.44,4,3.48,6.09c8.8-17.54,17.04-35.38,25.67-53.02c1.81-3.85,5.76-6.4,9.94-6.84c4.48-0.38,8.99-0.09,13.48-0.21
		c-13.63,28.6-27.54,57.07-41.33,85.61c-7.02-0.12-14.06,0.14-21.09-0.12c-4.65-0.24-8.06-3.89-10.63-7.41
		c-10.96-14.76-22.22-29.29-33.05-44.15c-0.35-0.28-1.06-0.87-1.41-1.15c-7.05,15.07-14.4,30-21.51,45.04
		c-1.61,3.69-4.84,6.98-8.98,7.53c-4.88,0.51-9.8,0.09-14.69,0.28c7.92-17.54,16.41-34.85,24.66-52.26
		c3.53-6.94,6.22-14.48,11.45-20.39C354.48,216.24,361.71,212.92,368.58,209.6z"/>
	<path id="path12" class="st0" d="M515.77,212.32c3.89-2.11,8.26-3.24,12.7-3.18c9.39,0,18.8-0.01,28.21,0
		c6.83-0.02,13.55,2.5,18.8,6.85c6.01,4.63,12.19,9.04,18.14,13.74c2.68,1.84,2.87,5.42,1.35,8.1
		c-9.02,18.98-18.33,37.84-27.34,56.84c-7.79,0-15.6,0.11-23.4-0.02c-4.2,0.29-7.66-4.59-5.61-8.39
		c3.34-7.82,7.48-15.29,10.93-23.07c-18.44-0.04-36.88-0.01-55.32-0.01c-4.04,8.17-7.9,16.45-11.93,24.62
		c-1.82,3.81-5.63,6.74-9.94,6.82c-8.87,0.24-17.73-0.05-26.6,0.13c7.7-16.2,15.49-32.34,23.26-48.5
		c3.77-7.97,10.12-14.61,17.87-18.79C496.48,222.37,506.13,217.36,515.77,212.32 M510.33,229.96c-3.97,7.79-7.54,15.78-11.47,23.6
		c18.47,0.05,36.93,0.01,55.4,0.01c3.71-7.79,7.48-15.55,11.28-23.29c0.6-1.64,2.03-3.42,1.15-5.2c-1.45-2.1-4.16-1.7-6.34-1.8
		c-13.06,0.1-26.12-0.08-39.17,0.09C516.6,223.24,512.25,225.8,510.33,229.96z"/>
	<path id="path14" class="st0" d="M626.36,218.89c1.72-4.79,5.57-9.03,10.88-9.55c8.93-0.49,17.91,0.01,26.85-0.24
		c-12.06,26.03-24.89,51.73-37.22,77.64c-1.68,4.17-5.51,7.65-10.14,7.89c-8.97,0.24-17.95,0.04-26.94,0.09
		C601.99,269.43,614.21,244.18,626.36,218.89L626.36,218.89z"/>
	<path id="path16" class="st0" d="M704.03,218.16c7.34-3.42,14.25-8.89,22.69-8.97c9.83-0.07,19.67-0.11,29.5,0.02
		c8.92,0.31,16.54,5.44,23.17,10.94c4.83,4.15,10.83,7.08,14.7,12.24v3.17c-2.26,5.84-4.91,11.56-7.83,17.09
		c-3.29,5.9-10.48,7.77-16.72,8.4c-10.32,0.82-20.68-0.22-31,0.58c0.29,0.4,0.89,1.19,1.18,1.58c5.93,2.19,14.53,0.11,18.11,6.58
		c5.02,8.34,10.03,16.68,15.13,24.98c-10.08-0.19-20.18,0.07-30.27-0.12c-3.85,0.15-7.47-1.95-9.4-5.23
		c-4.64-7.25-8.78-14.78-13.29-22.09c-1.72-2.84-4.39-5.37-7.83-5.73c-5.8-0.58-11.64-0.09-17.45-0.27
		c-4.26,8.48-8.28,17.07-12.49,25.58c-1.78,4.16-5.66,7.66-10.38,7.7c-8.88,0.29-17.75-0.03-26.62,0.14
		c8.29-17.23,16.29-34.62,24.94-51.66C677.12,229.98,691.83,224.97,704.03,218.16 M709.08,229.36c-3.8,7.37-7.21,14.93-10.92,22.34
		c14.85-0.02,29.7,0.05,44.54-0.04c4.98,0.01,10.94-1.01,13.59-5.79c2.7-5.09,4.92-10.43,7.54-15.55c0.63-1.67,2.1-3.51,1.11-5.34
		c-1.53-1.92-4.13-1.68-6.3-1.7c-13.05,0.1-26.1-0.09-39.14,0.09C715.28,223.38,711.04,225.53,709.08,229.36L709.08,229.36z"/>
</g>
</svg>
