<?xml version="1.0" encoding="utf-8"?>
<!-- Generator: Adobe Illustrator 23.0.1, SVG Export Plug-In . SVG Version: 6.00 Build 0)  -->
<svg version="1.1" id="Layer_1" xmlns="http://www.w3.org/2000/svg" xmlns:xlink="http://www.w3.org/1999/xlink" x="0px" y="0px"
	 viewBox="0 0 800 500" style="enable-background:new 0 0 800 500;" xml:space="preserve">
<style type="text/css">
	.st0{fill-rule:evenodd;clip-rule:evenodd;fill:#FFFFFF;}
</style>
<g>
	<path class="st0" d="M30.98,350.85c0,9.99-8.75,15.17-8.75,15.17h48.28c-1.66,0-10.85-8.47-10.85-15.59c0-5.41,0-68.48,0-68.48
		H99.6c0,0,12.1,1.69,12.1,7.12c0,5.47,0-25.06,0-25.06H59.66v-49.57c0,0,47.86,0,50.75,0c2.93,0,13.33,4.89,13.74,10.74
		c0.47,5.93,0-28.32,0-28.32H21.04c0,0,9.48,5.86,9.94,15.47C31.43,221.93,30.98,340.86,30.98,350.85L30.98,350.85z"/>
	<path class="st0" d="M288.01,196.87c1.64,0,10.79,6.83,10.33,15.61c0,6.25,0,160.8,0,164.53s-4.93,40.42-26.65,55.49
		c-0.44,0.35,22.97-3.37,38.7-19.2c2.53-2.48,17.04-12.52,17.04-47.52c0-37.57-0.35-143.66-0.35-153.72
		c0-11.26,11.22-15.2,11.22-15.2h-50.29V196.87z"/>
	<path class="st0" d="M143.79,212.43c0.37-8.78-8-15.56-9.69-15.56c-8.71,0,50.38,0,50.38,0s-10.63,6.31-10.63,15.15
		c0,5.56,0.16,88.98,0.16,103.55c0,14.65,8.34,35.08,32.78,35.08c19.32,0,27.93-20.52,27.93-35.08c0-12.52-0.3-94.06-0.3-102.88
		c0.42-8.68-8.03-15.82-9.67-15.82c-8.77,0,50.23,0,50.23,0s-10.49,5.69-10.49,14.43c0,5.59-0.06,105.3-0.06,105.3
		s-0.28,18.95-11.08,31.37c-8.3,9.48-22.23,20.25-46.07,20.67c-27.34,0.44-39.9-9.14-51.93-20.92c-8.74-8.52-11.01-25.5-11.37-32.5
		C143.71,301.41,143.79,217.85,143.79,212.43L143.79,212.43z"/>
	<path class="st0" d="M647.76,212.43c0.36-8.78-8.03-15.56-9.71-15.56c-8.76,0,50.36,0,50.36,0s-10.63,6.31-10.63,15.15
		c0,5.56,0.2,88.98,0.2,103.55c0,14.65,8.35,35.08,32.78,35.08c19.29,0,27.89-20.52,27.89-35.08c0-12.52-0.25-94.06-0.25-102.88
		c0.41-8.68-8.05-15.82-9.72-15.82c-8.75,0,50.28,0,50.28,0s-10.49,5.69-10.49,14.43c0,5.59-0.11,105.3-0.11,105.3
		s-0.23,18.95-11.05,31.37c-8.29,9.48-22.24,20.25-46.09,20.67c-27.35,0.44-39.86-9.14-51.92-20.92
		c-8.73-8.52-11.04-25.5-11.38-32.5C647.67,301.41,647.76,217.85,647.76,212.43L647.76,212.43z"/>
	<path class="st0" d="M388.58,350.4c0,9.22,10.74,15.62,11.16,15.62c8.68,0-50.27,0-50.27,0s10.26-6.4,10.26-15.22
		c0-5.53,0.07-132.91,0.07-138.32c0.48-8.78-8.65-15.61-10.31-15.61c-8.72,0,50.24,0,50.24,0s-11.16,6.44-11.16,15.17
		C388.58,217.56,388.58,345.03,388.58,350.4L388.58,350.4z"/>
	<path class="st0" d="M449.53,215.25c0,5.41,0.15,130.62,0.15,136.17c0,8.79-10.64,14.61-10.64,14.61s58.99,0,50.19,0
		c-0.39,0-10.3-6.46-10.3-15.65c0-5.43,0.51-134.72,0.51-134.72c0.02-1.18,19.13-0.91,24.64-0.77c3.85,0.06,11.66,2.31,13.03,12.01
		c0.41,2.97,10.33-30.02,10.33-30.02H410.53l-9.92,33c0,0,12.04-14.62,17.37-14.62C425.61,215.32,449.53,215.25,449.53,215.25
		L449.53,215.25z"/>
	<path class="st0" d="M533.66,365.82l-9.18-32.08c0,0,14.18,16.69,39.13,17.95c24.95,1.22,32.54-10.82,35.02-13.37
		c2.44-2.51,15.59-19.61-4.58-32.14c-21.78-13.38-41.31-20.87-50.03-28.37c-8.69-7.54-21.17-23.82-16.16-47.2
		c5-23.31,30.33-33.35,40.67-34.97c10.6-1.65,38.43-1.28,49.28,2.89c0.7,1.28,0,25.86,0,25.86c-0.58,1.64-4.16-12.05-29.99-12.53
		c-25.87-0.37-30.02,17.13-30.39,18.35c-0.46,1.27-7.53,19.66,12.8,30.08c20.42,10.44,40.52,16.95,55.35,35.5
		c17.05,21.24,1.9,48.85-2.74,54.17c-6.98,7.96-27.55,20.08-49.62,20.08C543.32,370.02,534.1,366.3,533.66,365.82L533.66,365.82z"/>
	<path class="st0" d="M420.63,114.23c0.75,19.61-11.94,47.39-46.65,48.02c-25.71,0.35-38.17-19.7-41.11-22.99
		c-2.87-3.33-9.16-15.82-24.94-16.23c-15.81-0.46-22.88,14.15-23.25,21.68c-0.41,7.58,2.86,25.85,23.58,26.26
		c19.12,0.5,28.39-19.98,28.39-19.98v21.27c0,0-10.04,12.07-27.85,12.53c-17.93,0.39-39.11-14.7-38.31-40.92
		c0.84-26.27,27.02-35.49,39.07-35.06c12.11,0.44,22.47,6.25,31.62,18.83c9.13,12.52,21.16,22.61,38.72,19.17
		c10.64-2.09,26.51-10.46,26.51-33.39c0-22.95-23.58-31.39-32.78-31.29c-6.1,0.06-14.16,1.68-23.32,10.4
		c-9.13,8.79-13.32,22.12-13.32,22.12V86.71c0,0,14.16-18.8,35.33-19.22C393.55,67.08,419.51,84.23,420.63,114.23L420.63,114.23z"/>
</g>
</svg>
