<?xml version="1.0" encoding="utf-8"?>
<!-- Generator: Adobe Illustrator 23.0.1, SVG Export Plug-In . SVG Version: 6.00 Build 0)  -->
<svg version="1.1" id="Layer_1" xmlns="http://www.w3.org/2000/svg" xmlns:xlink="http://www.w3.org/1999/xlink" x="0px" y="0px"
	 viewBox="0 0 800 500" style="enable-background:new 0 0 800 500;" xml:space="preserve">
<style type="text/css">
	.st0{fill:#FFFFFF;}
</style>
<g id="RrB9Ad.tif">
	<g>
		<path class="st0" d="M11.39,446.89c0-131.19,0-262.39,0-393.58c60.28,0,120.57,0,180.85,0c0.62,0,1.24,0.05,1.86,0.07
			c0.01,0.62,0.02,1.24,0.02,1.87c0,129.9,0,259.8,0,389.69c0,0.62-0.01,1.24-0.02,1.87c-0.67,0.03-1.35,0.07-2.02,0.07
			C131.85,446.9,71.62,446.89,11.39,446.89z M77.76,241.38c0-0.72,0-1.27,0-1.82c0-19.98,0-39.95,0-59.93c0-0.42-0.02-0.83,0-1.25
			c0.03-0.62-0.28-0.82-0.85-0.78c-0.36,0.02-0.73,0-1.09,0c-6.59,0-13.18,0-19.77,0c-5.66,0-11.31,0-16.97,0
			c-1.2,0-1.2,0.02-1.23,1.18c-0.01,0.21,0,0.42,0,0.62c0,47.79,0,95.58,0,143.37c0,1.96-0.21,1.76,1.73,1.76
			c12.04,0.01,24.08,0.01,36.11,0c2.38,0,2.06,0.35,2.06-2.04c0.01-21.9,0-43.79,0.01-65.69c0-0.47-0.14-0.99,0.2-1.57
			c0.46,0.61,0.84,1.09,1.21,1.59c8.74,11.86,17.49,23.71,26.23,35.57c7.63,10.35,15.27,20.71,22.9,31.07
			c0.48,0.65,0.91,1.1,1.86,1.1c15.57-0.04,31.13-0.03,46.7-0.04c0.27,0,0.64,0.15,0.81-0.37c-0.37-0.49-0.77-1.03-1.17-1.57
			c-18.65-24.85-37.3-49.71-55.94-74.56c-1.05-1.4-1.07-1.05,0.03-2.44c8.06-10.22,16.13-20.44,24.2-30.67
			c9.45-11.97,18.9-23.94,28.35-35.92c0.3-0.38,0.74-0.71,0.79-1.41c-0.65,0-1.21,0-1.76,0c-14.37,0-28.75,0.02-43.12-0.03
			c-1.35-0.01-2.15,0.42-2.96,1.47c-15.65,20.36-31.34,40.69-47.02,61.02C78.72,240.48,78.47,241,77.76,241.38z"/>
		<path class="st0" d="M607.68,447.21c0-0.11,0.01-0.21,0.01-0.32c0.57,0,1.14,0.01,1.71,0.01c59.42,0,118.84,0,178.26-0.01
			c2.52,0,2.17,0.35,2.17-2.1c0.01-129.79,0.01-259.58,0-389.37c0-2.45,0.35-2.1-2.17-2.1c-59.42-0.01-118.84-0.01-178.26-0.01
			c-0.57,0-1.14,0.01-1.71,0.01c0-0.11-0.01-0.22-0.01-0.32c60.82,0,121.64,0,182.47,0c0,131.4,0,262.8,0,394.2
			C729.32,447.21,668.5,447.21,607.68,447.21z"/>
		<path class="st0" d="M408.69,53.29c-0.01-0.1-0.01-0.19,0.01-0.29c61.13,0,122.27,0,183.4,0c-0.01,0.12-0.03,0.24-0.04,0.36
			c-0.73-0.02-1.45-0.05-2.18-0.05c-59.67,0-119.34,0-179.01,0C410.15,53.31,409.42,53.3,408.69,53.29z"/>
		<path class="st0" d="M209.72,53.29c-0.01-0.1-0.01-0.19,0.01-0.29c61.13,0,122.27,0,183.4,0c-0.01,0.12-0.03,0.24-0.04,0.36
			c-0.73-0.02-1.45-0.05-2.18-0.05c-59.67,0-119.34,0-179.02,0C211.18,53.31,210.45,53.3,209.72,53.29z"/>
		<path class="st0" d="M209.74,447.21c-0.02-0.09-0.02-0.19-0.01-0.29c0.73-0.01,1.45-0.02,2.18-0.02c59.67,0,119.34,0,179.01,0
			c0.73,0,1.45-0.03,2.18-0.05c0.01,0.12,0.03,0.24,0.04,0.36C332.01,447.21,270.87,447.21,209.74,447.21z"/>
		<path class="st0" d="M408.71,447.21c-0.02-0.09-0.02-0.19-0.01-0.29c0.73-0.01,1.45-0.02,2.18-0.02c59.67,0,119.34,0,179.01,0
			c0.73,0,1.45-0.03,2.18-0.05c0.01,0.12,0.03,0.24,0.04,0.36C530.98,447.21,469.84,447.21,408.71,447.21z"/>
		<path class="st0" d="M194.17,53c-0.02,0.13-0.04,0.26-0.07,0.39c-0.62-0.03-1.24-0.07-1.86-0.07c-60.28,0-120.57,0-180.85,0
			c0.07-0.1-0.16-0.32,0.16-0.31c0.41,0.01,0.83,0,1.25,0C73.25,53,133.71,53,194.17,53z"/>
		<path class="st0" d="M194.1,446.82c0.02,0.13,0.04,0.26,0.07,0.39c-60.46,0-120.92,0-181.38-0.02c-0.46,0-1.06,0.36-1.4-0.29
			c60.23,0,120.46,0,180.69,0C192.76,446.89,193.43,446.84,194.1,446.82z"/>
		<path class="st0" d="M607.69,53.33c0.57,0,1.14-0.01,1.71-0.01c59.42,0,118.84,0,178.26,0.01c2.52,0,2.17-0.35,2.17,2.1
			c0.01,129.79,0.01,259.58,0,389.37c0,2.45,0.35,2.1-2.17,2.1c-59.42,0.01-118.84,0.01-178.26,0.01c-0.57,0-1.14-0.01-1.71-0.01
			c-0.01-0.93-0.04-1.87-0.04-2.8c0-129.37,0-258.75,0-388.12C607.65,55.09,607.67,54.21,607.69,53.33z M643.2,250.88
			c0,23.87,0,47.74,0,71.61c0,0.42,0.02,0.83,0,1.25c-0.04,0.62,0.26,0.83,0.84,0.8c0.31-0.02,0.62,0,0.93,0
			c36.58,0,73.17,0,109.75,0c1.97,0,1.77,0.2,1.77-1.72c0.01-9.91,0.01-19.82,0-29.73c0-2.13,0.24-1.87-1.94-1.87
			c-23.3-0.01-46.6,0-69.9,0c-0.47,0-0.93-0.01-1.4-0.01c-0.38,0-0.57-0.19-0.58-0.57c-0.01-0.41-0.01-0.83-0.01-1.25
			c0-7.06-0.01-14.11,0-21.17c0-2.21-0.25-1.91,1.88-1.91c20.34-0.01,40.68,0,61.03,0c0.42,0,0.83-0.01,1.25,0
			c0.44,0.01,0.68-0.17,0.68-0.63c0-0.42,0.01-0.83,0.01-1.25c0-9.19,0.01-18.37,0-27.56c0-2.31,0.29-2.01-1.94-2.01
			c-20.24-0.01-40.48,0-60.71,0c-0.42,0-0.83-0.04-1.24,0.01c-0.8,0.09-1-0.32-0.94-1.01c0.03-0.31,0-0.62,0-0.93
			c0-7.01-0.01-14.01,0-21.02c0-2.2-0.23-1.92,1.89-1.92c23.3-0.01,46.6,0,69.9,0c0.42,0,0.83-0.02,1.25,0
			c0.61,0.04,0.83-0.25,0.79-0.84c-0.03-0.36,0-0.73,0-1.09c0-9.5,0.01-18.99,0-28.49c0-2.24,0.28-1.95-2.01-1.95
			c-36.43-0.01-72.86-0.01-109.29,0c-2.26,0-1.99-0.29-1.99,1.97C643.2,203.35,643.2,227.12,643.2,250.88z"/>
		<path class="st0" d="M592.06,446.84c-0.73,0.02-1.45,0.05-2.18,0.05c-59.67,0-119.34,0-179.01,0c-0.73,0-1.45,0.02-2.18,0.02
			c-0.22-0.55-0.12-1.13-0.12-1.69c0-130.08,0-260.16,0-390.24c0-0.56-0.1-1.14,0.12-1.69c0.73,0.01,1.45,0.02,2.18,0.02
			c59.67,0,119.34,0,179.01,0c0.73,0,1.45,0.03,2.18,0.05c0.01,0.99,0.04,1.97,0.04,2.96c0,129.14,0,258.27,0,387.41
			C592.1,444.77,592.08,445.81,592.06,446.84z M529.86,249.3c-0.53-0.48-0.76-0.68-0.98-0.9c-14.02-13.72-28.03-27.45-42.04-41.17
			c-9.79-9.58-19.58-19.16-29.35-28.76c-0.65-0.63-1.29-0.9-2.18-0.89c-3.06,0.05-6.12,0.02-9.18,0.02c-3.63,0-7.26,0-10.9,0
			c-1.41,0-1.41,0.01-1.42,1.47c0,0.1,0,0.21,0,0.31c0,47.79,0,95.58,0,143.37c0,2.01-0.16,1.77,1.73,1.77c11,0.01,22,0,33,0
			c2.16,0,2.16,0,2.16-2.11c0-23.51,0-47.01,0.01-70.52c0-0.52-0.15-1.09,0.21-1.66c0.27,0.25,0.47,0.41,0.65,0.59
			c13.27,13,26.53,26,39.8,39.01c11.49,11.26,22.98,22.52,34.45,33.8c0.64,0.63,1.27,0.92,2.17,0.91
			c5.86-0.04,11.73-0.02,17.59-0.02c1.42,0,1.36,0.08,1.36-1.35c0-0.16,0-0.31,0-0.47c0-47.79,0-95.58,0-143.37
			c0-1.97,0.16-1.74-1.76-1.74c-11.1-0.01-22.21-0.01-33.31,0c-2.27,0-1.99-0.29-1.99,1.98c-0.01,22.57,0,45.14,0,67.72
			C529.86,247.85,529.86,248.41,529.86,249.3z"/>
		<path class="st0" d="M393.1,446.84c-0.73,0.02-1.45,0.05-2.18,0.05c-59.67,0-119.34,0-179.01,0c-0.73,0-1.45,0.02-2.18,0.02
			c-0.18-0.4-0.12-0.82-0.12-1.23c0-129.67,0-259.33,0.02-389c0-1.13-0.16-2.28,0.1-3.41c0.73,0.01,1.45,0.02,2.18,0.02
			c59.67,0,119.34,0,179.02,0c0.73,0,1.45,0.03,2.18,0.05c0.01,0.99,0.04,1.97,0.04,2.96c0,129.14,0,258.27,0,387.41
			C393.13,444.77,393.11,445.81,393.1,446.84z M378.9,250.09c0-1.09,0.03-2.18,0-3.27c-0.29-9.42-2.13-18.53-5.72-27.25
			c-5-12.18-12.71-22.3-23.19-30.27c-11.33-8.61-24.15-13.54-38.26-15.23c-9.14-1.1-18.23-0.8-27.25,1.03
			c-14.14,2.87-26.67,8.99-37.27,18.86c-8.83,8.21-15.18,18.07-19.11,29.47c-3.69,10.69-4.94,21.69-4.12,32.95
			c0.58,7.97,2.19,15.71,5.14,23.14c6.97,17.54,18.98,30.48,35.82,38.94c9.33,4.69,19.27,7.24,29.68,8.05
			c7.44,0.57,14.83,0.25,22.16-1.1c12.39-2.29,23.69-7.13,33.67-14.88c9.09-7.06,16.13-15.8,21.06-26.2
			C376.67,273.48,378.96,262.02,378.9,250.09z"/>
		<path class="st0" d="M339.05,248.91c-0.01,9.58-1.71,17.52-5.96,24.76c-6.01,10.24-14.88,16.47-26.7,18.07
			c-16.46,2.24-31.4-6.11-38.43-21.24c-2.43-5.23-3.72-10.74-4.15-16.49c-0.57-7.67,0.33-15.13,3.24-22.26
			c4.15-10.19,11.12-17.69,21.6-21.49c17.35-6.29,37.49,0.54,46.24,19.63C337.82,236.32,339.09,243.1,339.05,248.91z"/>
	</g>
</g>
</svg>
