<?xml version="1.0" encoding="utf-8"?>
<!-- Generator: Adobe Illustrator 23.0.1, SVG Export Plug-In . SVG Version: 6.00 Build 0)  -->
<svg version="1.1" id="Layer_1" xmlns="http://www.w3.org/2000/svg" xmlns:xlink="http://www.w3.org/1999/xlink" x="0px" y="0px"
	 viewBox="0 0 800 500" style="enable-background:new 0 0 800 500;" xml:space="preserve">
<style type="text/css">
	.st0{fill-rule:evenodd;clip-rule:evenodd;fill:#FFFFFF;}
</style>
<g>
	<path class="st0" d="M378.94,215.04c-9.38,0-23.61,2.12-37.53,13.32c0,0,0,0-0.3,0l0,0c-4.54-8.47-13.02-13.32-25.72-13.32
		c-15.74,0-26.03,6.96-32.69,11.8c0,0,0,0-0.3,0s-0.3,0-0.3,0l-1.22-9.08h-26.33c0,11.2,0,100.79,0,100.79h31.17v-69.92
		c0,0,8.47-7.86,18.47-7.86c4.24,0,6.96,1.21,9.08,3.02c2.72,2.42,2.72,5.76,2.72,10.6v64.16h30.87v-69.92c0,0,8.17-7.86,18.46-7.86
		c4.24,0,6.96,1.21,9.08,3.02c2.73,2.42,3.03,5.76,3.03,10.6v64.16h0.3l0,0H408v-72.94C408,225.93,398.61,215.04,378.94,215.04
		L378.94,215.04z"/>
	<path class="st0" d="M452.19,278.3c0.91,13.01,13.92,19.67,28.75,19.67c10.89,0,24.82-3.02,33.29-5.75l-6.05,23.91
		c-4.54,1.51-7.86,2.42-12.1,3.33c-5.45,0.9-12.11,1.51-19.68,1.51c-38.74,0-54.78-20.88-54.78-52.36
		c0-29.66,14.52-53.27,50.54-53.27s46.92,25.12,46.92,50.54c0,5.45-0.61,10.29-0.9,12.41h-65.99V278.3z M489.42,256.8
		c0.6-9.08-4.24-20.58-18.16-20.58c-13.62,0-19.37,10.59-19.37,20.58H489.42L489.42,256.8z"/>
	<path class="st0" d="M738.21,215.34L738.21,215.34L738.21,215.34L738.21,215.34c-30.87,0-52.67,18.77-52.67,53.57
		c0,34.81,22.1,52.05,52.67,52.05h0.3c30.57,0,52.66-17.25,52.66-52.05S769.38,215.34,738.21,215.34L738.21,215.34z M738.81,298.57
		h-0.9c-13.01,0-20.28-11.21-20.28-30.57c0-17.25,5.75-30.27,20.58-30.27h0.3c14.83,0,20.58,13.02,20.58,30.27
		C759.09,287.37,751.83,298.57,738.81,298.57L738.81,298.57z"/>
	<path class="st0" d="M564.48,195.06v22.7h24.21v23.61h-24.21v43.58c0,7.57,3.63,11.5,12.4,11.5c4.54,0,10.9-1.22,13.93-1.81
		l-5.75,22.99c-4.24,1.52-11.2,3.03-19.07,3.03c-10.29,0-19.07-3.32-24.21-8.78c-5.75-5.75-8.17-13.32-8.17-27.85v-80.51
		L564.48,195.06L564.48,195.06z"/>
	<path class="st0" d="M605.33,291.91c6.96,3.33,16.96,6.67,26.34,6.67s14.52-2.73,14.52-7.87c0-5.15-3.93-7.86-15.43-11.8
		c-22.1-7.56-29.06-19.37-29.06-31.47c0-20.88,16.35-32.08,41.46-32.08c11.81,0,22.4,2.42,28.76,5.45l-5.75,22.09
		c-4.54-2.42-13.32-5.75-22.1-5.75c-7.57,0-12.4,3.03-12.4,7.87c0,3.32,1.81,5.45,6.66,7.87c2.72,1.51,6.05,2.73,9.68,3.93
		c8.48,3.33,13.93,5.75,18.47,9.69c6.96,6.05,10.29,13.32,10.29,22.39c0,11.2-4.24,19.07-11.49,24.51
		c-7.27,5.15-17.86,7.57-32.09,7.57c-13.32,0-25.72-3.03-33.6-6.35L605.33,291.91L605.33,291.91z"/>
	<path class="st0" d="M77.5,222.91c15.43-9.99,39.04-19.37,64.77-19.37c19.37,0,37.23,4.84,49.94,14.23
		c-19.67-67.5-117.73-82.33-182.2-82.33C39.96,154.8,65.69,182.35,77.5,222.91L77.5,222.91z"/>
	<path class="st0" d="M107.15,332.17c-11.8,0.3-22.7-1.51-32.08-4.84c-3.33,11.8-9.08,27.53-13.32,36.32
		c22.4-10.29,37.23-17.26,59.93-32.39C116.84,331.86,111.69,332.17,107.15,332.17L107.15,332.17z"/>
	<path class="st0" d="M83.55,271.64c0.3-17.26-1.81-33.6-6.05-48.73c-23.61,15.13-39.05,36.62-39.05,57.8
		c0,19.68,11.2,37.84,36.63,46.62C80.52,307.96,83.24,289.19,83.55,271.64L83.55,271.64z"/>
	<path class="st0" d="M193.72,232.29c0-6.66-0.91-10.89-1.51-14.53c9.99,7.57,18.77,19.67,18.77,36.02
		c0,29.05-27.55,59.31-67.5,72.33c-8.17,2.73-15.44,4.24-21.79,5.15C156.79,307.65,193.72,273.76,193.72,232.29L193.72,232.29z"/>
</g>
</svg>
