<?xml version="1.0" encoding="utf-8"?>
<!-- Generator: Adobe Illustrator 23.0.1, SVG Export Plug-In . SVG Version: 6.00 Build 0)  -->
<svg version="1.1" id="Layer_1" xmlns="http://www.w3.org/2000/svg" xmlns:xlink="http://www.w3.org/1999/xlink" x="0px" y="0px"
	 viewBox="0 0 800 500" style="enable-background:new 0 0 800 500;" xml:space="preserve">
<style type="text/css">
	.st0{fill:#FFFFFF;}
</style>
<g>
	<g>
		<path class="st0" d="M285.26,262.66l-4.69,13.13h-0.27c-0.84-3.08-2.24-7.44-4.44-12.99l-25.11-62.98H226.2v100.14h16.19V238.4
			c0-3.8-0.08-8.39-0.24-13.65c-0.08-2.66-0.38-4.79-0.46-6.41h0.35c0.82,3.77,1.68,6.65,2.3,8.57l30.1,73.05h11.33l29.88-73.71
			c0.68-1.68,1.4-4.96,2.06-7.91h0.36c-0.39,7.3-0.72,13.96-0.77,17.98v63.64h17.27V199.82H311L285.26,262.66z"/>
		<rect x="350.84" y="228.19" class="st0" width="16.88" height="71.76"/>
		<path class="st0" d="M359.45,197.69c-2.78,0-5.2,0.95-7.19,2.82c-2,1.88-3.01,4.25-3.01,7.04c0,2.75,1,5.07,2.98,6.9
			c1.97,1.82,4.4,2.75,7.23,2.75c2.83,0,5.27-0.93,7.25-2.75c2-1.84,3.02-4.16,3.02-6.9c0-2.69-0.99-5.04-2.93-6.96
			C364.84,198.67,362.37,197.69,359.45,197.69z"/>
		<path class="st0" d="M427.48,227.47c-3.25-0.67-6.42-1.01-9.43-1.01c-7.75,0-14.65,1.66-20.53,4.94s-10.44,7.96-13.54,13.92
			c-3.09,5.94-4.65,12.88-4.65,20.62c0,6.78,1.52,13,4.52,18.49c3.01,5.5,7.25,9.79,12.63,12.77c5.37,2.97,11.58,4.48,18.45,4.48
			c8.02,0,14.88-1.6,20.36-4.77l0.22-0.13v-15.46l-0.71,0.52c-2.49,1.81-5.27,3.26-8.26,4.29c-2.98,1.04-5.7,1.57-8.09,1.57
			c-6.62,0-11.94-2.07-15.8-6.16c-3.87-4.09-5.83-9.83-5.83-17.06c0-7.28,2.04-13.18,6.07-17.52c4.02-4.34,9.35-6.53,15.83-6.53
			c5.55,0,10.96,1.87,16.07,5.58l0.71,0.51v-16.29l-0.23-0.13C433.36,229.04,430.73,228.15,427.48,227.47z"/>
		<path class="st0" d="M483.1,226.95c-4.24,0-8.03,1.36-11.29,4.05c-2.85,2.36-4.91,5.59-6.49,9.63h-0.18v-12.42h-16.88v71.76h16.88
			v-36.71c0-6.24,1.42-11.37,4.21-15.24c2.76-3.83,6.43-5.77,10.92-5.77c1.52,0,3.23,0.25,5.07,0.74c1.83,0.49,3.16,1.03,3.94,1.59
			l0.71,0.51v-17.01l-0.27-0.12C488.14,227.28,485.91,226.95,483.1,226.95z"/>
		<path class="st0" d="M528.94,226.46c-11.83,0-21.23,3.46-27.93,10.31c-6.7,6.84-10.1,16.3-10.1,28.13
			c0,11.24,3.31,20.27,9.85,26.86c6.54,6.58,15.43,9.92,26.44,9.92c11.47,0,20.69-3.52,27.38-10.45c6.7-6.92,10.09-16.3,10.09-27.86
			c0-11.42-3.19-20.52-9.47-27.06C548.93,229.78,540.09,226.46,528.94,226.46z M542.37,281.72c-3.17,3.98-7.94,5.99-14.18,5.99
			c-6.2,0-11.09-2.05-14.53-6.1c-3.47-4.07-5.23-9.88-5.23-17.26c0-7.61,1.76-13.56,5.23-17.7c3.45-4.12,8.29-6.2,14.39-6.2
			c5.92,0,10.65,1.99,14.02,5.93c3.4,3.95,5.12,9.86,5.12,17.56C547.18,271.73,545.56,277.71,542.37,281.72z"/>
		<path class="st0" d="M602.12,257.84c-5.32-2.14-8.73-3.91-10.13-5.27c-1.36-1.31-2.04-3.18-2.04-5.52c0-2.09,0.85-3.76,2.59-5.12
			c1.75-1.36,4.2-2.05,7.27-2.05c2.85,0,5.76,0.45,8.66,1.33c2.89,0.88,5.43,2.06,7.56,3.5l0.7,0.47v-15.6l-0.27-0.12
			c-1.96-0.84-4.54-1.55-7.68-2.14c-3.12-0.58-5.96-0.87-8.42-0.87c-8.06,0-14.71,2.06-19.8,6.11c-5.12,4.09-7.72,9.44-7.72,15.92
			c0,3.37,0.56,6.37,1.67,8.9c1.11,2.55,2.83,4.79,5.11,6.68c2.26,1.86,5.75,3.82,10.38,5.81c3.89,1.6,6.79,2.95,8.64,4.03
			c1.8,1.04,3.08,2.1,3.8,3.12c0.7,1,1.06,2.37,1.06,4.07c0,4.82-3.61,7.17-11.04,7.17c-2.76,0-5.9-0.58-9.34-1.71
			c-3.44-1.14-6.66-2.76-9.57-4.85l-0.71-0.51v16.45l0.26,0.12c2.42,1.12,5.47,2.06,9.06,2.8s6.85,1.12,9.67,1.12
			c8.74,0,15.77-2.07,20.9-6.15c5.16-4.11,7.78-9.59,7.78-16.3c0-4.83-1.41-8.98-4.18-12.32
			C613.59,263.58,608.8,260.54,602.12,257.84z"/>
		<path class="st0" d="M665.93,226.46c-11.84,0-21.23,3.46-27.93,10.31c-6.7,6.84-10.09,16.3-10.09,28.13
			c0,11.24,3.31,20.27,9.85,26.86c6.54,6.58,15.43,9.92,26.44,9.92c11.47,0,20.69-3.52,27.38-10.45c6.7-6.92,10.1-16.3,10.1-27.86
			c0-11.42-3.19-20.52-9.48-27.06C685.92,229.78,677.07,226.46,665.93,226.46z M679.35,281.72c-3.17,3.98-7.94,5.99-14.18,5.99
			c-6.2,0-11.09-2.05-14.54-6.1c-3.46-4.07-5.22-9.88-5.22-17.26c0-7.61,1.76-13.56,5.23-17.7c3.44-4.12,8.29-6.2,14.4-6.2
			c5.92,0,10.64,1.99,14.02,5.93c3.4,3.95,5.12,9.86,5.12,17.56C684.16,271.73,682.54,277.71,679.35,281.72z"/>
		<path class="st0" d="M791.67,241.96v-13.77h-17.09v-21.41l-0.58,0.17l-16.06,4.92l-0.32,0.1v16.22H732.3v-9.04
			c0-4.2,0.94-7.42,2.8-9.57c1.84-2.12,4.47-3.2,7.83-3.2c2.41,0,4.92,0.57,7.43,1.7l0.63,0.28v-14.5l-0.29-0.11
			c-2.35-0.84-5.54-1.27-9.5-1.27c-4.99,0-9.52,1.09-13.47,3.24c-3.95,2.16-7.06,5.23-9.24,9.14c-2.17,3.9-3.27,8.41-3.27,13.4v9.93
			h-11.9v13.77h11.9v58h17.09v-58h25.32v36.86c0,15.17,7.16,22.87,21.28,22.87c2.32,0,4.77-0.27,7.26-0.8
			c2.54-0.55,4.27-1.1,5.28-1.68l0.23-0.13v-13.9l-0.69,0.46c-0.93,0.62-2.08,1.13-3.44,1.5c-1.36,0.38-2.5,0.57-3.37,0.57
			c-3.31,0-5.76-0.89-7.28-2.65c-1.54-1.78-2.31-4.88-2.31-9.22v-33.88L791.67,241.96L791.67,241.96z"/>
	</g>
	<rect x="9" y="166.37" class="st0" width="79.41" height="79.41"/>
	<rect x="96.68" y="166.37" class="st0" width="79.41" height="79.41"/>
	<rect x="9" y="254.07" class="st0" width="79.41" height="79.41"/>
	<rect x="96.68" y="254.07" class="st0" width="79.41" height="79.41"/>
</g>
</svg>
