<?xml version="1.0" encoding="utf-8"?>
<!-- Generator: Adobe Illustrator 23.0.1, SVG Export Plug-In . SVG Version: 6.00 Build 0)  -->
<svg version="1.1" id="Layer_1" xmlns="http://www.w3.org/2000/svg" xmlns:xlink="http://www.w3.org/1999/xlink" x="0px" y="0px"
	 viewBox="0 0 800 500" style="enable-background:new 0 0 800 500;" xml:space="preserve">
<style type="text/css">
	.st0{fill:#FFFFFF;}
</style>
<g id="opyhqq.tif">
	<g>
		<path class="st0" d="M727.55,185.48c15.57,0,31.14-0.07,46.71,0.06c2.99,0.02,6.2,0.28,8.92,1.37c5.75,2.31,8.83,8.87,7.5,14.67
			c-1.44,6.31-6.55,10.5-13.19,10.51c-28.7,0.05-57.4,0.02-86.1,0.03c-13.87,0-20.04,7.03-18.52,20.84
			c0.41,3.73,2.63,4.23,5.73,4.23c20.76-0.06,41.52-0.03,62.29-0.03c3.66,0,7.33-0.04,10.99,0.01c7.82,0.12,13.24,4.99,13.42,11.99
			c0.19,7.42-4.9,12.68-13.03,12.74c-22.14,0.16-44.27,0.07-66.41,0.08c-0.46,0-0.92,0-1.37,0c-10.86,0-11.25,0.17-11.6,4.86
			c-0.81,11.15,3.62,18.64,11.79,19.77c1.95,0.27,3.96,0.22,5.94,0.22c27.48,0.01,54.96,0,82.44,0.02c1.98,0,3.98,0.04,5.93,0.33
			c7.51,1.11,12.45,7.07,11.9,14.26c-0.53,6.95-6.2,12.2-13.54,12.28c-9.01,0.1-18.01,0.03-27.02,0.03c-22.14,0-44.27,0.01-66.41,0
			c-22.77-0.02-38.6-13.98-39.57-36.71c-0.84-19.64-0.51-39.39,0.44-59.03c0.82-16.87,16.44-31.6,33.3-32.13
			c16.47-0.52,32.97-0.11,49.45-0.11C727.55,185.67,727.55,185.58,727.55,185.48z"/>
		<path class="st0" d="M255.92,185.48c15.57,0,31.15-0.05,46.72,0.05c2.7,0.02,5.57,0.21,8.07,1.11c5.8,2.08,9.29,8.5,8.25,14.29
			c-1.17,6.53-6.41,11.15-13.12,11.17c-28.7,0.06-57.41,0.03-86.11,0.04c-13.87,0-18.89,5.28-18.78,19.24
			c0.03,4.36,1.68,5.88,6.01,5.86c24.27-0.13,48.55-0.09,72.83-0.04c8.25,0.02,13.8,5.25,13.67,12.69
			c-0.1,6.11-4.46,11.11-10.57,11.82c-2.87,0.33-5.79,0.28-8.69,0.29c-21.99,0.02-43.97-0.01-65.96,0.03
			c-6.75,0.01-7.22,0.55-7.23,7.37c-0.02,12.32,5.12,17.46,17.51,17.46c28.09,0.01,56.19,0.02,84.28-0.01
			c6.36-0.01,11.85,1.58,14.88,7.76c4.43,9.02-2.05,19.06-12.45,19.13c-16.49,0.11-32.98,0.03-49.47,0.03
			c-14.66,0-29.31,0.01-43.97,0c-22.09-0.03-38.09-13.61-39.23-35.59c-1.05-20.23-0.65-40.61,0.47-60.85
			c0.93-16.72,16.6-30.94,33.41-31.46c16.47-0.51,32.97-0.11,49.46-0.11C255.91,185.66,255.91,185.57,255.92,185.48z"/>
		<path class="st0" d="M407.63,185.64c17.25,0,34.51-0.08,51.76,0.04c5.97,0.04,10.74,3.78,12.43,9.09
			c1.65,5.19,0.17,11.44-4.45,14.31c-2.91,1.81-6.76,2.93-10.19,2.96c-30.69,0.22-61.38,0.1-92.07,0.17
			c-3.17,0.01-7.51-1.19-8.24,3.5c-0.69,4.46,3.79,4.6,6.56,5.58c30.72,10.9,61.49,21.65,92.23,32.5
			c14.29,5.05,22.21,15.78,22.13,29.71c-0.08,13.1-8.06,24.47-20.42,28.5c-3.41,1.11-7.16,1.66-10.75,1.68
			c-32.52,0.13-65.04,0.08-97.57,0.07c-9.14,0-14.91-4.97-15.11-12.92c-0.21-8.25,5.4-13.83,14.67-13.92
			c17.56-0.17,35.12-0.06,52.68-0.06c14.05,0,28.09,0,42.14-0.01c2.6,0,5.58,0.33,6.1-3.23c0.5-3.44-2.31-4.18-4.8-5.06
			c-31.74-11.19-63.46-22.44-95.21-33.59c-13.9-4.88-21.7-16.61-20.93-31.83c0.63-12.55,10.22-23.76,23.23-26.75
			c3.22-0.74,6.66-0.75,10-0.76c15.27-0.07,30.54-0.03,45.81-0.03C407.63,185.6,407.63,185.62,407.63,185.64z"/>
		<path class="st0" d="M9.78,245.38c0-18.32,0.07-36.65-0.06-54.97c-0.02-3.5,1.07-4.97,4.67-4.96
			c34.96,0.08,69.94-0.29,104.89,0.23c22.01,0.33,37.08,15.94,37.4,38.02c0.36,25.19,0.15,50.39,0.05,75.58
			c-0.03,8.03-4.99,14.16-11.84,15.29c-7.27,1.2-14.1-2.7-16.23-9.56c-0.66-2.13-0.71-4.5-0.72-6.76
			c-0.05-22.9-0.02-45.81-0.04-68.71c-0.01-11.81-5.58-17.4-17.38-17.41c-21.68-0.02-43.36-0.01-65.04,0
			c-6.34,0-6.83,0.49-6.83,6.73c-0.01,26.57,0.02,53.14-0.02,79.7c-0.02,9.19-5.52,15.7-13.43,16.1
			c-8.8,0.46-15.35-5.51-15.39-14.33C9.72,282.03,9.78,263.7,9.78,245.38z"/>
		<path class="st0" d="M561.51,185.5c20.76,0,41.52-0.06,62.28,0.02c7.98,0.03,13.05,3.52,14.79,9.75
			c2.33,8.33-3.8,16.72-12.57,16.82c-14.19,0.15-28.39,0.04-42.58,0.05c-7.22,0.01-7.69,0.49-7.69,7.88
			c-0.01,26.86,0.03,53.73-0.05,80.59c-0.02,6.79-4.8,12.55-11.09,13.9c-6.68,1.43-13.77-1.91-16.2-8.18
			c-1.07-2.75-1.44-5.93-1.45-8.92c-0.11-26.1-0.06-52.2-0.07-78.3c0-6.53-0.43-6.96-7.07-6.97c-13.58-0.01-27.17,0.01-40.75-0.01
			c-9.04-0.01-14.76-5.11-14.83-13.13c-0.07-8.1,5.4-13.39,14.55-13.45C519.69,185.41,540.6,185.5,561.51,185.5z"/>
	</g>
</g>
</svg>
