<?xml version="1.0" encoding="utf-8"?>
<!-- Generator: Adobe Illustrator 23.0.1, SVG Export Plug-In . SVG Version: 6.00 Build 0)  -->
<svg version="1.1" id="Layer_1" xmlns="http://www.w3.org/2000/svg" xmlns:xlink="http://www.w3.org/1999/xlink" x="0px" y="0px"
	 viewBox="0 0 800 500" style="enable-background:new 0 0 800 500;" xml:space="preserve">
<style type="text/css">
	.st0{fill:none;}
	.st1{fill-rule:evenodd;clip-rule:evenodd;fill:#FFFFFF;}
</style>
<g>
	<g>
		<path class="st0" d="M382.09,310.62c0.31,0.04,0.62,0.11,0.92,0.11c11.94-0.01,23.88-0.02,35.81-0.04c0.54,0,1.08-0.06,1.84-0.11
			c0-21.3,0-42.47,0-63.88c0.54,0.28,0.83,0.37,1.04,0.56c4.3,3.8,8.6,7.6,12.87,11.43c4.45,4,8.86,8.06,13.31,12.06
			c6.11,5.5,12.24,10.98,18.35,16.48c2.6,2.33,5.18,4.7,7.78,7.03c5.66,5.06,11.36,10.08,16.98,15.19c0.95,0.86,1.83,1.3,3.13,1.3
			c16.71-0.03,33.42-0.01,50.14-0.02c0.71,0,1.42-0.07,2.56-0.12c-3.65-3.1-6.92-5.92-10.25-8.69c-6.36-5.28-12.77-10.51-19.12-15.8
			c-5.64-4.7-11.23-9.47-16.86-14.17c-6.54-5.45-13.11-10.87-19.67-16.29c-3.31-2.74-6.57-5.54-9.95-8.19
			c-2.22-1.73-2.26-2.44-0.05-4.21c4.03-3.21,8-6.48,11.96-9.76c5.37-4.44,10.68-8.94,16.05-13.37c5.42-4.47,10.88-8.88,16.3-13.33
			c5.49-4.5,10.97-8.99,16.43-13.51c1.98-1.63,3.9-3.33,6.04-5.15c-0.56-0.13-0.74-0.21-0.91-0.21c-16.21,0-32.42-0.01-48.63,0.04
			c-0.66,0-1.43,0.39-1.94,0.84c-3.79,3.33-7.53,6.72-11.31,10.09c-5.52,4.92-11.06,9.84-16.59,14.76
			c-2.57,2.28-5.12,4.58-7.69,6.86c-5.18,4.58-10.38,9.13-15.54,13.72c-4.01,3.57-7.98,7.19-11.98,10.75
			c-0.69,0.61-1.52,1.05-2.57,1.77c0-19.86,0-39.26,0-58.66c-0.73-0.15-1.33-0.39-1.94-0.39c-8.09,0.05-16.19,0.13-24.28,0.2
			c-4.08,0.03-8.16,0.07-12.24,0.11c-0.13,0.55-0.39,1.11-0.39,1.66c-0.02,39.76-0.02,79.51,0,119.26
			C381.69,309.51,381.95,310.06,382.09,310.62z M365.53,218.45c-0.23-2.35-0.32-4.73-0.71-7.05c-1.67-10-7.42-16.89-16.46-21.17
			c-4.46-2.11-9.23-2.97-14.07-3.29c-8.99-0.6-18-1.44-27-1.39c-23.07,0.12-46.15-0.89-69.2,0.85c-6.18,0.46-12.31,1.04-18.05,3.52
			c-7.38,3.18-12.82,8.35-15.72,16.01c-2.24,5.9-2.58,12.06-2.6,18.25c-0.04,16.02-0.07,32.04,0.02,48.06
			c0.02,4.31,0.29,8.64,0.78,12.93c1.42,12.33,9.75,21.13,21.32,24.47c8.2,2.37,16.65,2.74,25.07,2.81
			c21.23,0.16,42.47,0.18,63.7-0.01c8.24-0.08,16.52-0.55,24.72-1.46c8.5-0.95,16.02-4.23,21.69-11.15
			c4.8-5.88,6.4-12.65,6.52-19.99c0.11-0.59,0.32-1.17,0.32-1.76c0.05-17.52,0.09-35.05,0.09-52.57
			C365.94,223.14,365.67,220.79,365.53,218.45z M594.11,310.62c0-0.49,0-0.74,0-0.99c0.01-38.77,0.01-77.54,0.02-116.31
			c0-1.44,0.06-2.9-0.09-4.33c-0.04-0.4-0.72-1.06-1.12-1.06c-11.81-0.04-23.63,0.05-35.44-0.07c-1.86-0.02-2.12,0.46-2.12,2.09
			c0.03,38.46,0.02,76.91,0.01,115.37c0,1.74,0,3.48,0,5.3C568.37,310.62,581.15,310.62,594.11,310.62z"/>
		<path class="st1" d="M789,310.6c-1.69,0.04-10.26,0.13-11.94,0.13c-10.37,0-20.74-0.03-31.1,0.01c-1.27,0.01-1.92-0.31-2.56-1.52
			c-3.21-6.11-6.6-12.13-9.85-18.23c-0.67-1.26-1.43-1.77-2.9-1.76c-23.51,0.05-47,0.1-70.5-0.05c-2.93-0.02-4.41,0.75-5.67,3.41
			c-2.73,5.72-5.87,11.25-8.93,16.81c-0.34,0.61-1.27,1.25-1.95,1.26c-13.57,0.07-27.15,0.05-40.72,0.04
			c-0.12,0-0.24-0.06-0.64-0.15c1.01-1.86,1.98-3.67,2.99-5.47c4.65-8.28,9.29-16.57,13.97-24.83
			c5.97-10.54,11.96-21.07,17.93-31.61c5.89-10.42,11.78-20.86,17.65-31.29c5.24-9.31,10.48-18.63,15.66-27.98
			c0.59-1.06,1.22-1.48,2.47-1.48c15.15,0.05,30.29,0.04,45.43,0.01c1.15,0,1.76,0.34,2.34,1.37c5.86,10.46,11.8,20.88,17.69,31.33
			c4.23,7.52,8.39,15.07,12.63,22.59c4.71,8.35,9.47,16.65,14.18,24.99c3.57,6.33,7.08,12.68,10.64,19.01
			C777.89,290.86,788.78,310.81,789,310.6z M719.11,262.78c-8.27-15.12-16.34-29.88-24.61-45.03
			c-8.33,15.25-16.39,30.03-24.58,45.03C686.46,262.78,702.58,262.78,719.11,262.78z"/>
		<path class="st1" d="M9.57,310.58c0.02-1.25,0.02-80.2,0.02-117.1c0-1.57,0-3.15,0.08-4.72c0.02-0.3,0.44-0.57,0.67-0.86
			c20.68,0.01,41.34,0.03,62.02,0c1.27,0,2.07,0.29,2.93,1.38c6.19,7.84,12.51,15.6,18.81,23.37c6.54,8.07,13.12,16.1,19.65,24.18
			c5.12,6.33,10.18,12.72,15.3,19.05c5.64,6.96,11.33,13.88,16.99,20.81c0.84,1.02,1.66,2.04,2.5,3.06c0.15-0.07,0.3-0.13,0.45-0.2
			c0-30.47,0-60.95,0-91.53c12.46,0,24.68,0,37.04,0c0,40.84,0,81.64,0,122.68c-0.83,0-1.62,0-2.41,0c-19.79,0-39.59,0-59.38,0.03
			c-1.03,0-1.61-0.31-2.29-1.15c-7.25-9.02-14.62-17.96-21.91-26.96c-7.7-9.51-15.35-19.07-23.05-28.59
			c-6.14-7.59-12.35-15.13-18.5-22.71c-3.49-4.3-6.92-8.64-10.39-12.95c-0.29-0.36-0.69-0.64-1.4-1.27c0,31.44,0,62.43,0,93.52
			c-0.52,0.05-0.82,0.09-1.12,0.09c-11.43,0-22.87,0-34.31,0C10.7,310.7,10.13,310.62,9.57,310.58z"/>
		<path class="st1" d="M365.53,279.82c-0.12,7.33-1.71,14.11-6.52,19.99c-5.66,6.92-13.19,10.2-21.69,11.15
			c-8.2,0.91-16.47,1.39-24.72,1.46c-21.23,0.2-42.47,0.17-63.7,0.01c-8.42-0.07-16.87-0.44-25.07-2.81
			c-11.57-3.34-19.89-12.14-21.32-24.47c-0.49-4.28-0.76-8.61-0.78-12.93c-0.09-16.02-0.07-32.04-0.02-48.06
			c0.02-6.19,0.36-12.34,2.6-18.25c2.9-7.66,8.33-12.83,15.72-16.01c5.74-2.47,11.87-3.05,18.05-3.52
			c23.05-1.74,46.13-0.73,69.2-0.85c8.99-0.05,18.01,0.78,27,1.39c4.84,0.32,9.61,1.18,14.07,3.29
			c9.05,4.28,14.79,11.16,16.46,21.17c0.38,2.33,0.48,4.7,0.71,7.05C365.53,238.9,365.53,259.36,365.53,279.82z M318.34,216.65
			c-0.66-0.1-1.33-0.3-1.98-0.3c-21.8-0.02-43.6-0.02-65.39,0c-0.66,0-1.32,0.2-1.98,0.31c-1.5,0.14-3,0.25-4.49,0.43
			c-4.68,0.55-6.97,2.82-7.51,7.43c-0.13,1.06-0.23,2.12-0.23,3.18c-0.01,14.2-0.02,28.39,0.01,42.59c0,1.43,0.06,2.9,0.33,4.3
			c0.59,3.1,2.13,5.58,5.48,6.1c3.08,0.47,6.21,0.79,9.31,0.8c21.55,0.07,43.1,0.05,64.64,0.02c2.43-0.01,4.88-0.2,7.29-0.51
			c3.91-0.49,6.21-2.8,6.73-6.64c0.25-1.8,0.38-3.61,0.39-5.43c0.03-13.38,0.03-26.76-0.01-40.14c0-1.8-0.22-3.62-0.52-5.4
			c-0.6-3.58-2.73-5.67-6.3-6.19C322.21,216.92,320.27,216.82,318.34,216.65z"/>
		<path class="st1" d="M382.08,188.03c4.08-0.04,8.16-0.07,12.24-0.11c8.09-0.08,16.19-0.16,24.28-0.2
			c0.61-0.01,1.21,0.24,1.94,0.39c0,19.4,0,38.8,0,58.66c1.05-0.72,1.89-1.16,2.57-1.77c4.01-3.56,7.97-7.19,11.98-10.75
			c5.16-4.59,10.36-9.14,15.54-13.72c2.56-2.28,5.12-4.58,7.69-6.86c5.53-4.92,11.07-9.83,16.59-14.76
			c3.77-3.36,7.51-6.76,11.31-10.09c0.52-0.45,1.29-0.84,1.94-0.84c16.21-0.05,32.42-0.04,48.63-0.04c0.17,0,0.35,0.08,0.91,0.21
			c-2.14,1.83-4.06,3.52-6.04,5.15c-5.46,4.52-10.95,9.01-16.43,13.51c-5.43,4.45-10.89,8.86-16.3,13.33
			c-5.37,4.43-10.68,8.92-16.05,13.37c-3.96,3.28-7.93,6.55-11.96,9.76c-2.22,1.77-2.17,2.48,0.05,4.21
			c3.38,2.65,6.64,5.45,9.95,8.19c6.56,5.43,13.13,10.84,19.67,16.29c5.63,4.7,11.22,9.48,16.86,14.17
			c6.35,5.29,12.76,10.52,19.12,15.8c3.33,2.77,6.6,5.59,10.25,8.69c-1.13,0.05-1.84,0.12-2.56,0.12c-16.71,0-33.43-0.02-50.14,0.02
			c-1.3,0-2.18-0.44-3.13-1.3c-5.62-5.11-11.32-10.13-16.98-15.19c-2.6-2.33-5.18-4.69-7.78-7.03c-6.12-5.5-12.25-10.97-18.35-16.48
			c-4.45-4.01-8.85-8.06-13.31-12.06c-4.27-3.83-8.57-7.63-12.87-11.43c-0.22-0.19-0.51-0.28-1.04-0.56c0,21.41,0,42.58,0,63.88
			c-0.76,0.05-1.3,0.11-1.84,0.11c-11.94,0.02-23.88,0.03-35.81,0.04c-0.31,0-0.62-0.07-0.92-0.11
			c-0.01-14.33-0.01-28.65-0.01-42.97C382.07,241.11,382.08,214.57,382.08,188.03z"/>
		<path class="st1" d="M594.11,310.62c-12.96,0-25.74,0-38.73,0c0-1.83,0-3.56,0-5.3c0-38.46,0.02-76.91-0.01-115.37
			c0-1.64,0.26-2.11,2.12-2.09c11.81,0.12,23.63,0.03,35.44,0.07c0.39,0,1.08,0.66,1.12,1.06c0.15,1.43,0.09,2.88,0.09,4.33
			c0,38.77-0.01,77.54-0.02,116.31C594.11,309.87,594.11,310.12,594.11,310.62z"/>
		<path class="st0" d="M719.11,262.78c-16.53,0-32.65,0-49.2,0c8.19-15,16.25-29.78,24.58-45.03
			C702.77,232.89,710.84,247.65,719.11,262.78z"/>
		<path class="st0" d="M318.34,216.65c1.93,0.18,3.87,0.27,5.79,0.56c3.56,0.52,5.7,2.61,6.3,6.19c0.29,1.79,0.51,3.6,0.52,5.4
			c0.04,13.38,0.04,26.76,0.01,40.14c-0.01,1.81-0.14,3.63-0.39,5.43c-0.53,3.85-2.83,6.15-6.73,6.64c-2.41,0.31-4.86,0.5-7.29,0.51
			c-21.55,0.04-43.09,0.05-64.64-0.02c-3.11-0.01-6.24-0.33-9.31-0.8c-3.36-0.51-4.9-3-5.48-6.1c-0.27-1.4-0.32-2.87-0.33-4.3
			c-0.03-14.2-0.02-28.39-0.01-42.59c0-1.06,0.1-2.12,0.23-3.18c0.54-4.62,2.84-6.88,7.51-7.43c1.48-0.17,2.99-0.28,4.49-0.43
			c0.69,0.02,1.38,0.05,2.07,0.05c20.99,0,41.97,0,62.96,0C315.46,216.71,316.9,216.67,318.34,216.65z"/>
	</g>
</g>
</svg>
