<?xml version="1.0" encoding="utf-8"?>
<!-- Generator: Adobe Illustrator 23.0.1, SVG Export Plug-In . SVG Version: 6.00 Build 0)  -->
<svg version="1.1" id="Layer_1" xmlns="http://www.w3.org/2000/svg" xmlns:xlink="http://www.w3.org/1999/xlink" x="0px" y="0px"
	 viewBox="0 0 800 500" style="enable-background:new 0 0 800 500;" xml:space="preserve">
<style type="text/css">
	.st0{fill:#FFFFFF;}
</style>
<g id="xuOAwc.tif">
	<g>
		<path class="st0" d="M507.99,167.7c0.15,0.36,0.19,3.75,0.19,5.8c-0.19,51.01-0.48,102.01-0.76,153.01c0,0.8-0.23,1.6-0.44,2.97
			c-7.4,0-14.85,0-23.17,0c-0.24-3.94-0.5-8.12-0.85-13.73c-12.99,13.07-27.96,17.68-45.2,16.25c-17.15-1.42-31.17-8.77-42.51-21.3
			c-20-22.1-21.24-57.15-3.19-81.07c20.82-27.59,51.53-32.69,90.31-14.29c0-16.33,0-32.17,0-48
			C490.52,167.34,499.85,167.7,507.99,167.7z M480.93,267.37c-0.09-20.83-17.19-37.87-37.87-37.74
			c-20.57,0.13-37.52,17.49-37.38,38.29c0.13,20.16,17.59,37.29,37.69,36.98C465.18,304.56,481.02,288.73,480.93,267.37z"/>
		<path class="st0" d="M118.84,182.06c9.98,0,18.34,0,27.39,0c0,49.36,0,98.5,0,148.59c-7.77,0-15.32,0.51-22.74-0.27
			c-2.63-0.28-5.3-3.38-7.33-5.74c-24.59-28.55-49.06-57.2-73.57-85.82c-2.01-2.35-4.1-4.62-7.78-8.76c0,34.66,0,66.76,0,99.43
			c-9.91,0-19.02,0-28.81,0c0-48.63,0-97.53,0-147.61c8.68,0,25.21,0.12,26.78,0.23c0,0,55.9,63.83,79.94,92.14
			c1.57,1.85,3.23,3.62,6.12,6.86C118.84,247.36,118.84,215.17,118.84,182.06z"/>
		<path class="st0" d="M654.63,261.18c-32.34,8.93-64.28,17.75-96.42,26.62c15.1,27.69,48.76,26.9,68.43-1.27
			c7.46,2.25,15.12,4.56,22.76,6.86c-4.91,22.78-37.14,42.55-64.19,39.72c-34.11-3.57-59.27-30.77-59.3-64.11
			c-0.03-34.73,24.18-61.85,58.88-64.89C625.97,200.51,650.29,230.65,654.63,261.18z M623.26,246.15
			c-10.7-17.72-28.27-23.76-45.63-16.76c-15.95,6.43-26.74,22.28-23.8,35.72C576.71,258.86,599.57,252.62,623.26,246.15z"/>
		<path class="st0" d="M794.91,330.26c-8.41,0-15.85,0-23.82,0c-0.27-5.73-0.52-10.96-0.77-16.31c-5.97,4.52-11.01,9.58-17.05,12.69
			c-29.19,15.03-68.13-0.94-81.6-33.04c-10.49-24.98-4.93-52.45,14.54-71.91c17.46-17.46,46.22-23.06,69.45-13.52
			c24.47,10.05,39.23,32.64,39.25,60.12c0.01,17.91,0,35.82,0,53.73C794.91,324.66,794.91,327.29,794.91,330.26z M731.62,304.87
			c21.71-0.53,37.62-16.69,37.31-37.92c-0.3-20.56-18.12-37.86-38.46-37.35c-21.17,0.54-37.46,18.04-36.8,39.54
			C694.28,288.99,711.65,305.35,731.62,304.87z"/>
		<path class="st0" d="M293.91,268.46c-0.04,35.14-28.5,63.91-63.31,63.98c-37.15,0.08-65.83-28.3-65.75-65.06
			c0.08-35.64,29.09-64.24,65.06-64.14C265.38,203.34,293.95,232.46,293.91,268.46z M192.22,267.47c-0.06,21,16.65,38.04,37.26,38
			c20.18-0.03,37.32-16.99,37.6-37.18c0.29-20.83-16.88-37.61-38.51-37.63C208.5,230.64,192.28,247.07,192.22,267.47z"/>
		<path class="st0" d="M338.59,329.77c-9.37,0-17.72,0-26.68,0c0-40.8,0-81.31,0-122.3c8.58,0,16.86,0,25.92,0
			c0.34,3.99,0.68,7.87,1.14,13.21c9.4-12.23,20.81-17.62,35.47-17.06c0,8.34,0,16.37,0,24.87c-1.73,0.42-3.5,0.83-5.25,1.27
			c-20.33,5.12-29.96,17.26-30.17,38.51c-0.17,18.18-0.03,36.37-0.06,54.55C338.96,324.95,338.74,327.06,338.59,329.77z"/>
	</g>
</g>
</svg>
