<?xml version="1.0" encoding="utf-8"?>
<!-- Generator: Adobe Illustrator 23.0.1, SVG Export Plug-In . SVG Version: 6.00 Build 0)  -->
<svg version="1.1" id="Layer_1" xmlns="http://www.w3.org/2000/svg" xmlns:xlink="http://www.w3.org/1999/xlink" x="0px" y="0px"
	 viewBox="0 0 800 500" style="enable-background:new 0 0 800 500;" xml:space="preserve">
<style type="text/css">
	.st0{fill:#FFFFFF;}
</style>
<g>
	<g>
		<path class="st0" d="M40.89,264.97v-14.28h39.17v-30.13l80.7,15.86v14.28H121.6v30.13L40.89,264.97z M186.34,334.06v-169.1H15.38
			v169.1H186.34z"/>
	</g>
	<g>
		<path class="st0" d="M410.31,220.86l-23.24,64.04h13.01l3.86-11.33h22.7l3.77,11.33h13.01l-23.33-64.04L410.31,220.86
			L410.31,220.86z M407.44,263.04l8.08-23.29l7.8,23.29H407.44z"/>
	</g>
</g>
<g>
	<g>
		<path class="st0" d="M286.13,247.48l-7.63-1.17c-2.69-0.36-4.58-1.26-5.83-2.43c-1.35-1.26-1.79-2.88-1.79-4.59
			c0-4.41,3.14-8.09,9.78-8.09c4.22,0,9.15,0.54,13.1,4.41l7.9-7.83c-5.47-5.3-11.84-7.46-20.64-7.46
			c-13.82,0-22.25,8.01-22.25,19.43c0,5.4,1.53,9.62,4.58,12.59c2.87,2.79,6.73,4.5,12.38,5.31l7.62,1.17
			c3.23,0.45,4.49,0.99,5.74,2.16c1.35,1.35,1.97,3.15,1.97,5.31c0,5.13-3.95,8-11.39,8c-5.83,0-11.31-1.35-15.34-5.4l-8.07,8.09
			c6.28,6.39,13.64,8.45,23.33,8.45c13.46,0,23.69-7.02,23.69-19.43c0-5.76-1.52-10.34-4.93-13.49
			C295.55,249.82,291.96,248.29,286.13,247.48"/>
	</g>
	<g>
		<polygon class="st0" points="347.14,255.49 330.46,220.86 318.16,220.86 318.16,284.9 330.64,284.9 330.64,247.57 342.93,271.86 
			351.36,271.86 363.56,247.57 363.56,284.9 376.03,284.9 376.03,220.86 363.74,220.86 		"/>
	</g>
	<g>
		<polygon class="st0" points="637.91,246.67 625.98,220.86 612.43,220.86 631.63,258.63 631.63,284.9 644.01,284.9 644.01,258.63 
			663.21,220.86 649.66,220.86 		"/>
	</g>
	<g>
		<rect x="703.74" y="220.86" class="st0" width="12.47" height="64.04"/>
	</g>
	<g>
		<rect x="670.8" y="271.59" class="st0" width="13.37" height="13.31"/>
	</g>
	<g>
		<path class="st0" d="M772.73,227.06c-4.31-4.32-9.69-6.74-17.05-6.74s-12.83,2.43-17.14,6.74c-6.37,6.39-6.46,13.58-6.46,25.81
			c0,12.23,0.09,19.43,6.46,25.81c4.31,4.32,9.78,6.75,17.14,6.75s12.74-2.43,17.05-6.75c6.37-6.39,6.55-13.58,6.55-25.81
			C779.28,240.65,779.1,233.45,772.73,227.06 M763.67,270.78c-1.79,2.07-4.58,3.51-7.99,3.51s-6.19-1.44-8.07-3.51
			c-2.33-2.7-3.05-5.67-3.05-17.9c0-12.23,0.72-15.29,3.05-17.99c1.88-2.07,4.67-3.42,8.07-3.42c3.41,0,6.19,1.35,7.99,3.42
			c2.33,2.7,3.14,5.76,3.14,17.99C766.81,265.11,766,268.08,763.67,270.78"/>
	</g>
	<g>
		<path class="st0" d="M500.21,240.47c0-10.7-7.72-19.61-20.72-19.61h-25.03v64.04h12.47v-25.54h8.97l12.47,25.54h14.44
			l-14.26-27.61C494.73,255.04,500.21,249.46,500.21,240.47 M478.67,248.92h-11.75v-16.91h11.75c5.47,0,9.06,3.51,9.06,8.46
			C487.74,245.41,484.15,248.92,478.67,248.92"/>
	</g>
	<g>
		<polygon class="st0" points="511.51,232.01 528.2,232.01 528.2,284.9 540.67,284.9 540.67,232.01 557.36,232.01 557.36,220.86 
			511.51,220.86 		"/>
	</g>
	<g>
		<polygon class="st0" points="583.11,220.86 570.64,220.86 570.64,284.9 612.09,284.9 612.09,273.75 583.11,273.75 		"/>
	</g>
</g>
</svg>
