<?xml version="1.0" encoding="utf-8"?>
<!-- Generator: Adobe Illustrator 23.0.1, SVG Export Plug-In . SVG Version: 6.00 Build 0)  -->
<svg version="1.1" id="Layer_1" xmlns="http://www.w3.org/2000/svg" xmlns:xlink="http://www.w3.org/1999/xlink" x="0px" y="0px"
	 viewBox="0 0 800 500" style="enable-background:new 0 0 800 500;" xml:space="preserve">
<style type="text/css">
	.st0{fill:#FFFFFF;}
</style>
<g id="BS0ETu.tif">
	<g>
		<path class="st0" d="M4.62,227.79c1.36-3.36,1.35-7.01,2.22-10.48c5.09-20.46,16.25-37.33,30.84-52.12
			c20.86-21.14,45.81-36.09,72.96-47.61c24.51-10.4,50.01-17.26,76.46-20.28c20.51-2.34,41.03-2.88,61.17,3.05
			c14.58,4.3,27.06,11.72,36.78,23.74c5.08,6.28,5.67,13.11,4.42,20.44c-2.15,12.6-8.84,22.99-16.69,32.68
			c-17.03,21.03-38.29,37.12-61.14,51.15c-36.28,22.28-74.87,39.43-116.04,50.52c-15.49,4.17-31.25,6.95-47.38,6.3
			c-11.42-0.46-22.43-2.57-31.77-9.91c-3.46-2.72-6.04-5.9-7.16-10.29c-1.58-6.17-3.22-12.32-4-18.66
			c-0.07-0.54-0.05-1.11-0.67-1.37C4.62,239.23,4.62,233.51,4.62,227.79z"/>
		<path class="st0" d="M142.62,404.74c-2.12-1.23-4.58-1.14-6.87-1.69c-17.71-4.27-32.74-13.61-46.83-24.71
			c-4.65-3.66-9.04-7.64-13.67-11.57c1.72-0.76,2.71,0.32,3.82,0.87c12.69,6.26,26.16,7.91,40.03,6.23
			C158.59,369.1,193.11,352,225.45,330c21.95-14.92,40.33-33.53,54.19-56.36c0.16-0.27,0.39-0.5,0.63-0.8
			c0.72,0.8,0.08,1.43-0.15,2.04c-13.73,36.5-33.34,69.23-61.92,96.13c-14.54,13.69-30.69,24.94-50.09,30.79
			c-3.82,1.15-7.75,1.96-11.63,2.93C151.86,404.74,147.24,404.74,142.62,404.74z"/>
		<path class="st0" d="M298.23,164.19c0.67,10.93,0.34,21.92-0.64,32.87c-1.24,13.91-3.32,27.71-6.54,41.31
			c-2,8.46-6.64,15.72-11.28,22.87c-13.86,21.36-32.16,38.35-53.12,52.47c-28.01,18.88-57.72,34.42-90.38,43.76
			c-12.83,3.67-25.92,5.7-39.28,4.97c-15.08-0.83-28.95-5.42-40.21-15.72c-6.23-5.69-10.85-12.97-15.77-19.86
			c-6.74-9.44-12.74-19.34-18.24-29.57c1.07-0.45,1.65,0.37,2.28,0.91c10.4,8.96,22.85,12.17,36.17,12.74
			c20.67,0.89,40.55-3.54,59.96-9.97c41.36-13.7,80.77-31.46,115.97-57.58c19.45-14.43,37.04-30.76,49.95-51.55
			C292.39,183.34,296.3,174.23,298.23,164.19z"/>
		<path class="st0" d="M766.83,325.63c-0.62,1.29-1.13,2.39-1.67,3.46c-3.54,6.97-9.12,10.59-17.02,11.09
			c-29.81,1.88-56.46-19.8-60.91-49.74c-4.6-30.93,13.69-59.72,43.42-68.03c13.55-3.79,26.77-2.83,39.32,3.92
			c1.74,0.93,3.07,1.02,4.81-0.03c4.61-2.78,9.64-4.21,15.09-3.85c4.7,0.32,7.04,2.69,7.04,7.32c0.01,29.48,0.1,58.97-0.06,88.45
			c-0.04,7.54-2.99,14.19-8.7,19.27c-4.43,3.94-8.54,3.75-12.96-0.15c-1.82-1.61-3.47-3.39-4.77-5.44
			C769.2,329.94,768.13,327.9,766.83,325.63z M766.51,280.02c0-8.02-0.01-16.04,0.01-24.07c0-1.22,0.05-2.3-1.35-3.01
			c-11.23-5.68-29.5-7.01-40.94,5.93c-10.19,11.52-10.42,29.95-0.57,41.82c11.35,13.68,28.98,13.27,41.25,6.29
			c1.57-0.89,1.62-2.08,1.62-3.56C766.49,295.62,766.51,287.82,766.51,280.02z"/>
		<path class="st0" d="M519.29,292.25c-10.78,0-21.57-0.01-32.35,0c-3.7,0-3.74,0.08-2.46,3.7c4.76,13.45,19.1,21.92,33.6,20.03
			c6.96-0.91,13.45-3.17,19.72-6.17c3.89-1.86,7.84-3.46,12.2-3.79c6.01-0.46,9.03,2.41,8.41,8.39c-0.9,8.69-4.41,15.66-12.71,19.81
			c-25.42,12.7-53.82,11.55-74.83-9.75c-32.4-32.84-17.88-89.86,26.03-102.16c29.72-8.32,59.38,7.61,67.27,36.23
			c1.89,6.84,2.63,13.82,1.08,20.87c-0.65,2.94-2.05,5.54-3.76,8c-2.32,3.32-5.4,4.91-9.52,4.87
			C541.08,292.18,530.19,292.24,519.29,292.25z M510.5,268.83c8.14,0,16.28,0,24.42,0c0.11,0,0.22-0.01,0.33,0
			c1.93,0.28,2.53-0.55,2.23-2.43c-0.53-3.3-1.6-6.38-3.42-9.2c-5.88-9.14-16.4-13.16-28.65-10.97c-10.6,1.9-19.25,10.11-21.6,20.25
			c-0.48,2.06,0.06,2.39,1.94,2.37C493.99,268.79,502.24,268.83,510.5,268.83z"/>
		<path class="st0" d="M396.99,267.06c0-17.49-0.08-34.98,0.08-52.47c0.03-3.02-0.89-3.63-3.7-3.57
			c-8.58,0.18-17.16-0.04-25.74,0.11c-4.42,0.08-7.89-1.56-10.77-4.74c-2.6-2.88-4.64-6.12-6.24-9.65
			c-1.86-4.09-1.15-7.75,1.94-10.89c5.09-5.15,11.35-8.13,18.55-8.16c32.12-0.15,64.24-0.1,96.36-0.04
			c5.73,0.01,8.55,2.95,8.46,8.65c-0.12,7.75-2.71,14.63-7.85,20.48c-2.62,2.98-5.92,4.37-9.92,4.33
			c-8.36-0.07-16.72,0.12-25.08-0.1c-3.07-0.08-4.04,0.57-4.02,3.88c0.14,33.11,0.07,66.22,0.1,99.33c0.01,8-2.23,15.17-7.4,21.33
			c-5.14,6.12-11.5,6.39-16.97,0.55c-5.02-5.36-8.09-11.39-7.91-19.2C397.25,300.29,396.99,283.67,396.99,267.06z"/>
		<path class="st0" d="M613.89,243.9c0,19.14,0.08,38.28-0.06,57.43c-0.03,4.67,1.24,8.11,5.77,10.03c2.61,1.1,3.63,3.38,3.67,6.13
			c0.08,6.25-1.75,11.92-5.41,16.97c-4.01,5.53-7.97,6.91-14.63,5.26c-11.56-2.86-20.03-14.14-20.11-27.06
			c-0.09-16.28-0.02-32.56-0.03-48.85c0-23.87,0.03-47.75-0.03-71.62c-0.01-3.56,1.14-6.46,3.77-8.76
			c5.61-4.91,12.07-7.53,19.61-7.13c4.52,0.24,6.84,2.41,7.35,6.88c0.14,1.2,0.1,2.42,0.1,3.63
			C613.89,205.83,613.89,224.86,613.89,243.9z"/>
		<path class="st0" d="M670.79,274.34c0,13.75,0.01,27.5-0.01,41.25c-0.01,6.78-1.81,13.04-5.82,18.55
			c-5.74,7.88-12.08,8.17-18.46,0.89c-4.26-4.86-6.63-10.25-6.57-17.03c0.25-26.18,0.19-52.36,0.03-78.54
			c-0.03-5.31,2.01-9.01,6.24-11.9c4.95-3.38,10.3-5.34,16.36-5.16c5.69,0.16,8.19,2.61,8.21,8.39
			C670.82,245.3,670.79,259.82,670.79,274.34z"/>
		<path class="st0" d="M672.79,182.92c-0.5,7.13-2.99,14.92-9.42,20.99c-5.19,4.9-10.55,4.82-15.72-0.09
			c-3.55-3.37-6.13-7.42-8.15-11.85c-1.87-4.09-1.13-7.8,1.88-10.91c6.29-6.5,14.11-9.58,23.11-9.16
			C670.39,172.16,672.87,175.28,672.79,182.92z"/>
	</g>
</g>
</svg>
