<?xml version="1.0" encoding="utf-8"?>
<!-- Generator: Adobe Illustrator 23.0.1, SVG Export Plug-In . SVG Version: 6.00 Build 0)  -->
<svg version="1.1" id="Layer_1" xmlns="http://www.w3.org/2000/svg" xmlns:xlink="http://www.w3.org/1999/xlink" x="0px" y="0px"
	 viewBox="0 0 800 500" style="enable-background:new 0 0 800 500;" xml:space="preserve">
<style type="text/css">
	.st0{fill-rule:evenodd;clip-rule:evenodd;fill:#FFFFFF;}
</style>
<g>
	<path class="st0" d="M128.7,149.91l-30.8-0.03c-1.91,0-3.73,1.45-4.07,3.36L72.19,264.46l-19.4-111.22
		c-0.33-1.91-2.12-3.4-4.03-3.39l-34.73-0.01c-1.91,0.01-3.32,1.64-2.98,3.54l38.48,193.8c0.33,1.91,2.26,3.52,4.17,3.51l30.36,0.02
		c0.03,0,0.06-0.01,0.09-0.01l8.55,0.01c1.91,0,3.76-1.62,4.09-3.53l34.87-193.8C131.99,151.47,130.61,149.91,128.7,149.91z"/>
	<path class="st0" d="M247.42,347.12l-38.48-193.8c-0.33-1.91-2.27-3.44-4.4-3.44l-4.62,0.01c-0.07,0-0.14-0.03-0.21-0.03
		l-33.97,0.02c-1.91-0.01-3.73,1.52-4.06,3.44l-34.87,193.8c-0.33,1.91,0.63,3.56,2.55,3.57l31.21,0.02c1.91,0,3.73-1.53,4.06-3.44
		l3.36-17.24h34.69l3.01,17.24c0.33,1.91,2.15,3.45,4.06,3.44l34.52-0.02C246.18,350.68,247.76,349.03,247.42,347.12z
		 M175.14,293.29l11.15-57.24l9.98,57.24H175.14z"/>
	<g>
		<g>
			<path class="st0" d="M556.63,347.12l-38.49-193.8c-0.33-1.91-2.15-3.44-4.06-3.44l-18.25-0.03l-20.88,0.03
				c-1.92-0.01-3.73,1.52-4.07,3.44l-34.86,193.8c-0.33,1.91,1.01,3.56,2.94,3.57l30.82,0.02c1.91,0,3.73-1.53,4.07-3.44l3.35-17.24
				h34.69l3,17.24c0.33,1.91,2.15,3.45,4.07,3.44l34.82-0.02C555.69,350.68,556.96,349.03,556.63,347.12z M484.36,293.29
				l11.14-57.24l9.98,57.24H484.36z"/>
		</g>
	</g>
	<g>
		<g>
			<path class="st0" d="M790.97,347.12l-38.48-193.8c-0.34-1.91-2.16-3.44-4.08-3.44h-5.31c-0.02,0-0.04,0-0.07,0h-33.75
				c-1.91-0.01-3.73,1.52-4.06,3.44l-34.87,193.8c-0.33,1.91,1.38,3.56,3.29,3.57l30.47,0.02c1.91,0,3.73-1.53,4.06-3.44l3.35-17.24
				h34.69l3,17.24c0.33,1.91,2.15,3.45,4.06,3.44l34.54-0.02C789.75,350.69,791.31,349.03,790.97,347.12z M718.69,293.29
				l11.14-57.24l9.98,57.24H718.69z"/>
		</g>
	</g>
	<path class="st0" d="M305.44,347.29c0,1.91-1.61,3.46-3.59,3.46H266.2c-1.98,0-3.59-1.55-3.59-3.46V153.32
		c0-1.91,1.61-3.45,3.59-3.45h35.66c1.98,0,3.59,1.53,3.59,3.45v193.97H305.44z"/>
	<path class="st0" d="M654.61,307.96h-41.1V153.32c0-1.91-1.54-3.44-3.45-3.44h-34.31c-1.9,0-3.45,1.53-3.45,3.44v193.96
		c0,1.91,1.55,3.46,3.45,3.46h34.31c0.1,0,0.2-0.03,0.29-0.03h44.26c1.9,0,3.46-1.46,3.46-3.28v-36.19
		C658.06,309.42,656.51,307.96,654.61,307.96z"/>
	<path class="st0" d="M417.21,259.53c0,0-41.52-38.34-44-40.2c-4.18-3.14-5.19-10.7-5.39-12.6v-0.46h-0.04v-11.74h0.09
		c0.51-5.7,5.21-10.18,11.05-10.18c6.14,0,11.13,4.99,11.13,11.13c0,0.38,0.02,17.2,0.02,17.2c0,1.7,1.37,3.05,3.04,3.05l34.07,0.08
		c1.68,0,2.89-1.22,2.89-2.89c0,0,0.06-12.88-0.06-13.19c-0.22-31-23.14-52.05-52.58-52.05c-30.6,0-55.36,24.78-55.36,55.35
		c0,1.85,0.1,3.66,0.28,5.45c0,0.24-0.03,0.48-0.01,0.73c1.23,21.36,20.58,39.83,20.58,39.83s32.27,28.44,36.98,33.69
		c4.65,5.19,5.04,9.77,5.07,10.97v12.54h-0.09c-0.5,5.59-5.35,9.97-11.34,9.97c-6.31,0-11.42-5.66-11.42-11.71
		c0-0.38-0.08-12.55-0.08-12.55c0-1.64-1.3-2.97-3.01-2.97l-34.88-0.01c-1.73,0-2.97,1.2-2.97,2.82c0,0-0.06,10.74,0.05,11.06
		c0.24,30.39,23.77,49.38,54.02,49.38c31.39,0,56.85-24.31,56.85-54.32c0-0.98-0.08-1.94-0.14-2.91h0.14
		C432.44,273.81,417.21,259.53,417.21,259.53z"/>
</g>
</svg>
